<svg width="24" height="25" viewBox="0 0 24 25" fill="none" xmlns="http://www.w3.org/2000/svg">
<mask id="mask0_1_42317" style="mask-type:alpha" maskUnits="userSpaceOnUse" x="0" y="0" width="24" height="25">
<rect y="0.5" width="24" height="24" fill="#D9D9D9"/>
</mask>
<g mask="url(#mask0_1_42317)">
<path d="M5.9249 17.375C6.8249 16.7417 7.7874 16.2709 8.8124 15.9625C9.8374 15.6542 10.8999 15.5 11.9999 15.5C13.0999 15.5 14.1624 15.6542 15.1874 15.9625C16.2124 16.2709 17.1749 16.7417 18.0749 17.375C18.6582 16.6917 19.0916 15.9334 19.3749 15.1C19.6582 14.2667 19.7999 13.4 19.7999 12.5C19.7999 10.3389 19.0397 8.49852 17.5192 6.97902C15.9987 5.45969 14.157 4.70002 11.9942 4.70002C9.83132 4.70002 7.99157 5.45969 6.4749 6.97902C4.95824 8.49852 4.1999 10.3389 4.1999 12.5C4.1999 13.4 4.34157 14.2667 4.6249 15.1C4.90824 15.9334 5.34157 16.6917 5.9249 17.375ZM11.9999 14.3C10.9999 14.3 10.1499 13.95 9.4499 13.25C8.7499 12.55 8.3999 11.7 8.3999 10.7C8.3999 9.70002 8.7499 8.85002 9.4499 8.15002C10.1499 7.45002 10.9999 7.10002 11.9999 7.10002C12.9999 7.10002 13.8499 7.45002 14.5499 8.15002C15.2499 8.85002 15.5999 9.70002 15.5999 10.7C15.5999 11.7 15.2499 12.55 14.5499 13.25C13.8499 13.95 12.9999 14.3 11.9999 14.3ZM12.0069 22.1C10.6856 22.1 9.44157 21.85 8.2749 21.35C7.10824 20.85 6.0874 20.1625 5.2124 19.2875C4.3374 18.4125 3.6499 17.392 3.1499 16.226C2.6499 15.06 2.3999 13.8142 2.3999 12.4885C2.3999 11.1629 2.6499 9.92086 3.1499 8.76253C3.6499 7.60419 4.3374 6.58752 5.2124 5.71252C6.0874 4.83752 7.1079 4.15002 8.2739 3.65002C9.4399 3.15002 10.6857 2.90002 12.0114 2.90002C13.3371 2.90002 14.5791 3.15002 15.7374 3.65002C16.8957 4.15002 17.9124 4.83752 18.7874 5.71252C19.6624 6.58752 20.3499 7.60602 20.8499 8.76802C21.3499 9.93019 21.5999 11.1719 21.5999 12.493C21.5999 13.8144 21.3499 15.0584 20.8499 16.225C20.3499 17.3917 19.6624 18.4125 18.7874 19.2875C17.9124 20.1625 16.8939 20.85 15.7319 21.35C14.5697 21.85 13.3281 22.1 12.0069 22.1ZM11.9999 20.3C12.8666 20.3 13.6999 20.1625 14.4999 19.8875C15.2999 19.6125 16.0499 19.2084 16.7499 18.675C16.0332 18.225 15.2749 17.8834 14.4749 17.65C13.6749 17.4167 12.8499 17.3 11.9999 17.3C11.1499 17.3 10.3207 17.4125 9.5124 17.6375C8.70407 17.8625 7.9499 18.2084 7.2499 18.675C7.9499 19.2084 8.6999 19.6125 9.4999 19.8875C10.2999 20.1625 11.1332 20.3 11.9999 20.3ZM11.9999 12.5C12.4999 12.5 12.9249 12.325 13.2749 11.975C13.6249 11.625 13.7999 11.2 13.7999 10.7C13.7999 10.2 13.6249 9.77502 13.2749 9.42502C12.9249 9.07502 12.4999 8.90002 11.9999 8.90002C11.4999 8.90002 11.0749 9.07502 10.7249 9.42502C10.3749 9.77502 10.1999 10.2 10.1999 10.7C10.1999 11.2 10.3749 11.625 10.7249 11.975C11.0749 12.325 11.4999 12.5 11.9999 12.5Z" fill="#464852"/>
</g>
</svg>
