<svg width="20" height="20" viewBox="0 0 20 20" fill="none" xmlns="http://www.w3.org/2000/svg">
<mask id="mask0_42_12414" style="mask-type:alpha" maskUnits="userSpaceOnUse" x="0" y="0" width="20" height="20">
<rect width="20" height="20" fill="#D9D9D9"/>
</mask>
<g mask="url(#mask0_42_12414)">
<path d="M9.24988 11.125V5.75C9.24988 5.54167 9.3228 5.36458 9.46863 5.21875C9.61447 5.07292 9.79155 5 9.99988 5C10.2082 5 10.3853 5.07292 10.5311 5.21875C10.677 5.36458 10.7499 5.54167 10.7499 5.75V11.125L12.4165 9.45833C12.5693 9.30556 12.7464 9.22917 12.9478 9.22917C13.1492 9.22917 13.3263 9.30556 13.479 9.45833C13.6318 9.61111 13.7082 9.78819 13.7082 9.98958C13.7082 10.191 13.6318 10.3681 13.479 10.5208L10.5207 13.4792C10.3679 13.6319 10.1943 13.7083 9.99988 13.7083C9.80544 13.7083 9.63183 13.6319 9.47905 13.4792L6.52072 10.5208C6.36794 10.3681 6.29502 10.191 6.30197 9.98958C6.30891 9.78819 6.38877 9.61111 6.54155 9.45833C6.69433 9.30556 6.87141 9.22917 7.0728 9.22917C7.27419 9.22917 7.45127 9.30556 7.60405 9.45833L9.24988 11.125Z" fill="#464852"/>
</g>
</svg>
