<svg width="20" height="20" viewBox="0 0 20 20" fill="none" xmlns="http://www.w3.org/2000/svg">
<mask id="mask0_1_16610" style="mask-type:alpha" maskUnits="userSpaceOnUse" x="0" y="0" width="21" height="20">
<rect x="0.000976562" width="20" height="20" fill="#D9D9D9"/>
</mask>
<g mask="url(#mask0_1_16610)">
<path d="M9.2511 11.125V5.75C9.2511 5.54167 9.32402 5.36458 9.46985 5.21875C9.61569 5.07292 9.79277 5 10.0011 5C10.2094 5 10.3865 5.07292 10.5324 5.21875C10.6782 5.36458 10.7511 5.54167 10.7511 5.75V11.125L12.4178 9.45833C12.5705 9.30556 12.7476 9.22917 12.949 9.22917C13.1504 9.22917 13.3275 9.30556 13.4803 9.45833C13.633 9.61111 13.7094 9.78819 13.7094 9.98958C13.7094 10.191 13.633 10.3681 13.4803 10.5208L10.5219 13.4792C10.3692 13.6319 10.1955 13.7083 10.0011 13.7083C9.80666 13.7083 9.63305 13.6319 9.48027 13.4792L6.52194 10.5208C6.36916 10.3681 6.29624 10.191 6.30319 9.98958C6.31013 9.78819 6.38999 9.61111 6.54277 9.45833C6.69555 9.30556 6.87263 9.22917 7.07402 9.22917C7.27541 9.22917 7.45249 9.30556 7.60527 9.45833L9.2511 11.125Z" fill="#464852"/>
</g>
</svg>
