<svg width="21" height="20" viewBox="0 0 21 20" fill="none" xmlns="http://www.w3.org/2000/svg">
<mask id="mask0_8_2611" style="mask-type:alpha" maskUnits="userSpaceOnUse" x="0" y="0" width="21" height="20">
<rect x="0.799805" width="20" height="20" fill="#D9D9D9"/>
</mask>
<g mask="url(#mask0_8_2611)">
<path d="M10.0499 11.125V5.75C10.0499 5.54167 10.1228 5.36458 10.2687 5.21875C10.4145 5.07292 10.5916 5 10.7999 5C11.0083 5 11.1853 5.07292 11.3312 5.21875C11.477 5.36458 11.5499 5.54167 11.5499 5.75V11.125L13.2166 9.45833C13.3694 9.30556 13.5465 9.22917 13.7478 9.22917C13.9492 9.22917 14.1263 9.30556 14.2791 9.45833C14.4319 9.61111 14.5083 9.78819 14.5083 9.98958C14.5083 10.191 14.4319 10.3681 14.2791 10.5208L11.3208 13.4792C11.168 13.6319 10.9944 13.7083 10.7999 13.7083C10.6055 13.7083 10.4319 13.6319 10.2791 13.4792L7.32077 10.5208C7.16799 10.3681 7.09507 10.191 7.10202 9.98958C7.10896 9.78819 7.18882 9.61111 7.3416 9.45833C7.49438 9.30556 7.67146 9.22917 7.87285 9.22917C8.07424 9.22917 8.25132 9.30556 8.4041 9.45833L10.0499 11.125Z" fill="#464852"/>
</g>
</svg>
