<svg width="21" height="20" viewBox="0 0 21 20" fill="none" xmlns="http://www.w3.org/2000/svg">
<mask id="mask0_8_9157" style="mask-type:alpha" maskUnits="userSpaceOnUse" x="0" y="0" width="21" height="20">
<rect x="0.599609" width="20" height="20" fill="#D9D9D9"/>
</mask>
<g mask="url(#mask0_8_9157)">
<path d="M9.84974 11.125V5.75C9.84974 5.54167 9.92265 5.36458 10.0685 5.21875C10.2143 5.07292 10.3914 5 10.5997 5C10.8081 5 10.9852 5.07292 11.131 5.21875C11.2768 5.36458 11.3497 5.54167 11.3497 5.75V11.125L13.0164 9.45833C13.1692 9.30556 13.3463 9.22917 13.5477 9.22917C13.749 9.22917 13.9261 9.30556 14.0789 9.45833C14.2317 9.61111 14.3081 9.78819 14.3081 9.98958C14.3081 10.191 14.2317 10.3681 14.0789 10.5208L11.1206 13.4792C10.9678 13.6319 10.7942 13.7083 10.5997 13.7083C10.4053 13.7083 10.2317 13.6319 10.0789 13.4792L7.12057 10.5208C6.96779 10.3681 6.89488 10.191 6.90182 9.98958C6.90876 9.78819 6.98863 9.61111 7.1414 9.45833C7.29418 9.30556 7.47126 9.22917 7.67265 9.22917C7.87404 9.22917 8.05113 9.30556 8.2039 9.45833L9.84974 11.125Z" fill="#464852"/>
</g>
</svg>
