<svg width="24" height="24" viewBox="0 0 24 24" fill="none" xmlns="http://www.w3.org/2000/svg">
<path d="M20.9375 5.125C21.1198 5.125 21.2947 5.19743 21.4236 5.32636C21.5526 5.4553 21.625 5.63016 21.625 5.8125V18.1875C21.625 18.3698 21.5526 18.5447 21.4236 18.6736C21.2947 18.8026 21.1198 18.875 20.9375 18.875H3.0625C2.88016 18.875 2.7053 18.8026 2.57636 18.6736C2.44743 18.5447 2.375 18.3698 2.375 18.1875V5.8125C2.375 5.63016 2.44743 5.4553 2.57636 5.32636C2.7053 5.19743 2.88016 5.125 3.0625 5.125H20.9375ZM3.0625 3.75C2.51549 3.75 1.99089 3.9673 1.60409 4.35409C1.2173 4.74089 1 5.26549 1 5.8125L1 18.1875C1 18.7345 1.2173 19.2591 1.60409 19.6459C1.99089 20.0327 2.51549 20.25 3.0625 20.25H20.9375C21.4845 20.25 22.0091 20.0327 22.3959 19.6459C22.7827 19.2591 23 18.7345 23 18.1875V5.8125C23 5.26549 22.7827 4.74089 22.3959 4.35409C22.0091 3.9673 21.4845 3.75 20.9375 3.75H3.0625Z" fill="#596387"/>
<path d="M10.6251 8.56275C10.6251 8.38042 10.6975 8.20555 10.8264 8.07662C10.9554 7.94769 11.1302 7.87525 11.3126 7.87525H18.1876C18.3699 7.87525 18.5448 7.94769 18.6737 8.07662C18.8026 8.20555 18.8751 8.38042 18.8751 8.56275C18.8751 8.74509 18.8026 8.91996 18.6737 9.04889C18.5448 9.17782 18.3699 9.25025 18.1876 9.25025H11.3126C11.1302 9.25025 10.9554 9.17782 10.8264 9.04889C10.6975 8.91996 10.6251 8.74509 10.6251 8.56275ZM8.56806 7.3885C8.63209 7.45236 8.68288 7.52823 8.71754 7.61176C8.7522 7.69528 8.77004 7.78482 8.77004 7.87525C8.77004 7.96568 8.7522 8.05522 8.71754 8.13875C8.68288 8.22227 8.63209 8.29814 8.56806 8.362L6.50556 10.4245C6.4417 10.4885 6.36583 10.5393 6.28231 10.574C6.19878 10.6086 6.10924 10.6265 6.01881 10.6265C5.92838 10.6265 5.83884 10.6086 5.75532 10.574C5.67179 10.5393 5.59593 10.4885 5.53206 10.4245L4.84456 9.737C4.78064 9.67308 4.72994 9.5972 4.69534 9.51368C4.66075 9.43016 4.64294 9.34065 4.64294 9.25025C4.64294 9.06769 4.71547 8.8926 4.84456 8.7635C4.97366 8.63441 5.14875 8.56188 5.33131 8.56188C5.51388 8.56188 5.68897 8.63441 5.81806 8.7635L6.01881 8.96563L7.59456 7.3885C7.65843 7.32448 7.73429 7.27368 7.81782 7.23902C7.90134 7.20436 7.99088 7.18652 8.08131 7.18652C8.17174 7.18652 8.26128 7.20436 8.34481 7.23902C8.42833 7.27368 8.5042 7.32448 8.56806 7.3885ZM10.6251 14.0628C10.6251 13.8804 10.6975 13.7055 10.8264 13.5766C10.9554 13.4477 11.1302 13.3753 11.3126 13.3753H18.1876C18.3699 13.3753 18.5448 13.4477 18.6737 13.5766C18.8026 13.7055 18.8751 13.8804 18.8751 14.0628C18.8751 14.2451 18.8026 14.42 18.6737 14.5489C18.5448 14.6778 18.3699 14.7503 18.1876 14.7503H11.3126C11.1302 14.7503 10.9554 14.6778 10.8264 14.5489C10.6975 14.42 10.6251 14.2451 10.6251 14.0628ZM8.56806 12.8885C8.63209 12.9524 8.68288 13.0282 8.71754 13.1118C8.7522 13.1953 8.77004 13.2848 8.77004 13.3753C8.77004 13.4657 8.7522 13.5552 8.71754 13.6387C8.68288 13.7223 8.63209 13.7981 8.56806 13.862L6.50556 15.9245C6.4417 15.9885 6.36583 16.0393 6.28231 16.074C6.19878 16.1086 6.10924 16.1265 6.01881 16.1265C5.92838 16.1265 5.83884 16.1086 5.75532 16.074C5.67179 16.0393 5.59593 15.9885 5.53206 15.9245L4.84456 15.237C4.78064 15.1731 4.72994 15.0972 4.69534 15.0137C4.66075 14.9302 4.64294 14.8406 4.64294 14.7503C4.64294 14.6599 4.66075 14.5703 4.69534 14.4868C4.72994 14.4033 4.78064 14.3274 4.84456 14.2635C4.90848 14.1996 4.98437 14.1489 5.06789 14.1143C5.1514 14.0797 5.24092 14.0619 5.33131 14.0619C5.42171 14.0619 5.51122 14.0797 5.59474 14.1143C5.67826 14.1489 5.75414 14.1996 5.81806 14.2635L6.01881 14.4656L7.59456 12.8885C7.65843 12.8245 7.73429 12.7737 7.81782 12.739C7.90134 12.7044 7.99088 12.6865 8.08131 12.6865C8.17174 12.6865 8.26128 12.7044 8.34481 12.739C8.42833 12.7737 8.5042 12.8245 8.56806 12.8885Z" fill="#596387"/>
</svg>
