<svg width="22" height="22" viewBox="0 0 22 22" fill="none" xmlns="http://www.w3.org/2000/svg">
<path d="M11.6874 15.8128C11.6874 15.9951 11.615 16.17 11.486 16.2989C11.3571 16.4278 11.1822 16.5003 10.9999 16.5003C10.8176 16.5003 10.6427 16.4278 10.5138 16.2989C10.3848 16.17 10.3124 15.9951 10.3124 15.8128V10.5974L8.73664 12.1745C8.60755 12.3036 8.43246 12.3761 8.24989 12.3761C8.06733 12.3761 7.89224 12.3036 7.76314 12.1745C7.63405 12.0454 7.56152 11.8703 7.56152 11.6878C7.56152 11.5052 7.63405 11.3301 7.76314 11.201L10.5131 8.451C10.577 8.38698 10.6529 8.33618 10.7364 8.30152C10.8199 8.26686 10.9095 8.24902 10.9999 8.24902C11.0903 8.24902 11.1799 8.26686 11.2634 8.30152C11.3469 8.33618 11.4228 8.38698 11.4866 8.451L14.2366 11.201C14.3657 11.3301 14.4383 11.5052 14.4383 11.6878C14.4383 11.8703 14.3657 12.0454 14.2366 12.1745C14.1075 12.3036 13.9325 12.3761 13.7499 12.3761C13.5673 12.3761 13.3922 12.3036 13.2631 12.1745L11.6874 10.5974V15.8128Z" fill="#596387"/>
<path d="M19.25 19.25V6.1875L13.0625 0H5.5C4.77065 0 4.07118 0.289731 3.55546 0.805456C3.03973 1.32118 2.75 2.02065 2.75 2.75V19.25C2.75 19.9793 3.03973 20.6788 3.55546 21.1945C4.07118 21.7103 4.77065 22 5.5 22H16.5C17.2293 22 17.9288 21.7103 18.4445 21.1945C18.9603 20.6788 19.25 19.9793 19.25 19.25ZM13.0625 4.125C13.0625 4.67201 13.2798 5.19661 13.6666 5.58341C14.0534 5.9702 14.578 6.1875 15.125 6.1875H17.875V19.25C17.875 19.6147 17.7301 19.9644 17.4723 20.2223C17.2144 20.4801 16.8647 20.625 16.5 20.625H5.5C5.13533 20.625 4.78559 20.4801 4.52773 20.2223C4.26987 19.9644 4.125 19.6147 4.125 19.25V2.75C4.125 2.38533 4.26987 2.03559 4.52773 1.77773C4.78559 1.51987 5.13533 1.375 5.5 1.375H13.0625V4.125Z" fill="#596387"/>
</svg>
