<svg width="22" height="22" viewBox="0 0 22 22" fill="none" xmlns="http://www.w3.org/2000/svg">
<path d="M8.09044 9.18498C8.03346 9.11317 7.9627 9.05348 7.88231 9.00942C7.80192 8.96536 7.71353 8.93782 7.62234 8.92842C7.53115 8.91903 7.439 8.92797 7.35131 8.95471C7.26363 8.98145 7.18218 9.02547 7.11175 9.08415C7.04133 9.14284 6.98335 9.21502 6.94123 9.29644C6.89912 9.37787 6.87371 9.46689 6.86651 9.55828C6.8593 9.64967 6.87045 9.74158 6.89929 9.8286C6.92813 9.91561 6.97408 9.99598 7.03444 10.065L10.1048 13.75L7.03444 17.435C6.92289 17.5756 6.87073 17.7542 6.88913 17.9328C6.90752 18.1113 6.995 18.2756 7.13288 18.3905C7.27076 18.5054 7.4481 18.5618 7.62703 18.5477C7.80595 18.5336 7.97227 18.4501 8.09044 18.315L10.9999 14.8239L13.9094 18.3164C14.0263 18.4564 14.194 18.5443 14.3757 18.5606C14.4657 18.5687 14.5563 18.5591 14.6425 18.5321C14.7287 18.5052 14.8088 18.4615 14.8781 18.4037C14.9475 18.3458 15.0047 18.2748 15.0466 18.1948C15.0886 18.1148 15.1143 18.0274 15.1224 17.9374C15.1305 17.8475 15.1208 17.7568 15.0939 17.6706C15.067 17.5844 15.0233 17.5043 14.9654 17.435L11.8951 13.75L14.9654 10.065C15.077 9.92438 15.1292 9.74573 15.1108 9.5672C15.0924 9.38867 15.0049 9.2244 14.867 9.1095C14.7291 8.9946 14.5518 8.93818 14.3729 8.95228C14.1939 8.96638 14.0276 9.0499 13.9094 9.18498L10.9999 12.6761L8.09044 9.18498Z" fill="#596387"/>
<path d="M19.25 19.25V6.1875L13.0625 0H5.5C4.77065 0 4.07118 0.289731 3.55546 0.805456C3.03973 1.32118 2.75 2.02065 2.75 2.75V19.25C2.75 19.9793 3.03973 20.6788 3.55546 21.1945C4.07118 21.7103 4.77065 22 5.5 22H16.5C17.2293 22 17.9288 21.7103 18.4445 21.1945C18.9603 20.6788 19.25 19.9793 19.25 19.25ZM13.0625 4.125C13.0625 4.67201 13.2798 5.19661 13.6666 5.58341C14.0534 5.9702 14.578 6.1875 15.125 6.1875H17.875V19.25C17.875 19.6147 17.7301 19.9644 17.4723 20.2223C17.2144 20.4801 16.8647 20.625 16.5 20.625H5.5C5.13533 20.625 4.78559 20.4801 4.52773 20.2223C4.26987 19.9644 4.125 19.6147 4.125 19.25V2.75C4.125 2.38533 4.26987 2.03559 4.52773 1.77773C4.78559 1.51987 5.13533 1.375 5.5 1.375H13.0625V4.125Z" fill="#596387"/>
</svg>
