<svg width="22" height="22" viewBox="0 0 22 22" fill="none" xmlns="http://www.w3.org/2000/svg">
<path d="M11.6875 15.8128C11.6875 15.9951 11.6151 16.17 11.4862 16.2989C11.3572 16.4278 11.1824 16.5003 11 16.5003C10.8177 16.5003 10.6428 16.4278 10.5139 16.2989C10.3849 16.17 10.3125 15.9951 10.3125 15.8128V10.5974L8.73676 12.1745C8.60767 12.3036 8.43258 12.3761 8.25001 12.3761C8.06745 12.3761 7.89236 12.3036 7.76326 12.1745C7.63417 12.0454 7.56165 11.8703 7.56165 11.6878C7.56165 11.5052 7.63417 11.3301 7.76326 11.201L10.5133 8.451C10.5771 8.38698 10.653 8.33618 10.7365 8.30152C10.82 8.26686 10.9096 8.24902 11 8.24902C11.0904 8.24902 11.18 8.26686 11.2635 8.30152C11.347 8.33618 11.4229 8.38698 11.4868 8.451L14.2368 11.201C14.3659 11.3301 14.4384 11.5052 14.4384 11.6878C14.4384 11.8703 14.3659 12.0454 14.2368 12.1745C14.1077 12.3036 13.9326 12.3761 13.75 12.3761C13.5674 12.3761 13.3924 12.3036 13.2633 12.1745L11.6875 10.5974V15.8128Z" fill="#596387"/>
<path d="M19.25 19.25V6.1875L13.0625 0H5.5C4.77065 0 4.07118 0.289731 3.55546 0.805456C3.03973 1.32118 2.75 2.02065 2.75 2.75V19.25C2.75 19.9793 3.03973 20.6788 3.55546 21.1945C4.07118 21.7103 4.77065 22 5.5 22H16.5C17.2293 22 17.9288 21.7103 18.4445 21.1945C18.9603 20.6788 19.25 19.9793 19.25 19.25ZM13.0625 4.125C13.0625 4.67201 13.2798 5.19661 13.6666 5.58341C14.0534 5.9702 14.578 6.1875 15.125 6.1875H17.875V19.25C17.875 19.6147 17.7301 19.9644 17.4723 20.2223C17.2144 20.4801 16.8647 20.625 16.5 20.625H5.5C5.13533 20.625 4.78559 20.4801 4.52773 20.2223C4.26987 19.9644 4.125 19.6147 4.125 19.25V2.75C4.125 2.38533 4.26987 2.03559 4.52773 1.77773C4.78559 1.51987 5.13533 1.375 5.5 1.375H13.0625V4.125Z" fill="#596387"/>
</svg>
