<svg width="529" height="103" viewBox="0 0 529 103" fill="none" xmlns="http://www.w3.org/2000/svg">
<path d="M41.9015 25.3473C33.7212 24.2861 11.2254 63.8157 1 83.7131V102.45H528V5.44968C528 5.44968 467.434 61.1625 417.881 61.1625C360.647 61.1625 357.043 7.39583 291.512 1.50241C229.74 -4.0528 185.671 71.5001 108.76 61.1625C97.0887 59.5938 52.1269 26.6738 41.9015 25.3473Z" fill="url(#paint0_linear_42_6384)"/>
<path d="M1 83.7131C11.2254 63.8156 33.7212 24.2861 41.9015 25.3473C52.1269 26.6738 97.0263 60.0395 108.76 61.1624C201.106 70 224.228 -4.25798 285.999 1.29724C351.531 7.19066 360.647 61.1624 417.881 61.1624C467.434 61.1624 528 5.44962 528 5.44962" stroke="#0A4AF0" stroke-width="2" stroke-linecap="round"/>
<defs>
<linearGradient id="paint0_linear_42_6384" x1="1" y1="5.44971" x2="1" y2="102.45" gradientUnits="userSpaceOnUse">
<stop stop-color="#175DFF" stop-opacity="0.2"/>
<stop offset="1" stop-color="#175DFF" stop-opacity="0"/>
</linearGradient>
</defs>
</svg>
