<svg width="40" height="40" viewBox="0 0 40 40" fill="none" xmlns="http://www.w3.org/2000/svg">
<circle cx="20.5" cy="20.5" r="14.5" fill="white"/>
<mask id="mask0_42_4848" style="mask-type:alpha" maskUnits="userSpaceOnUse" x="0" y="0" width="40" height="40">
<rect width="40" height="40" fill="#D9D9D9"/>
</mask>
<g mask="url(#mask0_42_4848)">
<path d="M17.5833 23.5275L13.6666 19.6108C13.3981 19.3423 13.0647 19.208 12.6666 19.208C12.2684 19.208 11.9259 19.3515 11.6388 19.6386C11.3703 19.9071 11.236 20.2404 11.236 20.6386C11.236 21.0367 11.3703 21.3701 11.6388 21.6386L16.611 26.6386C16.8888 26.9163 17.2129 27.0552 17.5833 27.0552C17.9536 27.0552 18.2777 26.9163 18.5555 26.6386L28.3333 16.8608C28.6203 16.5737 28.7638 16.2311 28.7638 15.833C28.7638 15.4349 28.6203 15.0923 28.3333 14.8052C28.0462 14.5367 27.699 14.4071 27.2916 14.4163C26.8842 14.4256 26.5462 14.5645 26.2777 14.833L17.5833 23.5275ZM19.9999 36.6663C17.7129 36.6663 15.5555 36.2288 13.5277 35.3538C11.4999 34.4788 9.73141 33.2867 8.22213 31.7775C6.71288 30.2682 5.52075 28.4997 4.64575 26.4719C3.77075 24.4441 3.33325 22.2867 3.33325 19.9997C3.33325 17.6941 3.77075 15.5275 4.64575 13.4997C5.52075 11.4719 6.71288 9.70801 8.22213 8.20801C9.73141 6.70801 11.4999 5.52051 13.5277 4.64551C15.5555 3.77051 17.7129 3.33301 19.9999 3.33301C22.3055 3.33301 24.4721 3.77051 26.4999 4.64551C28.5277 5.52051 30.2916 6.70801 31.7916 8.20801C33.2916 9.70801 34.4791 11.4719 35.3541 13.4997C36.2291 15.5275 36.6666 17.6941 36.6666 19.9997C36.6666 22.2867 36.2291 24.4441 35.3541 26.4719C34.4791 28.4997 33.2916 30.2682 31.7916 31.7775C30.2916 33.2867 28.5277 34.4788 26.4999 35.3538C24.4721 36.2288 22.3055 36.6663 19.9999 36.6663Z" fill="#27A14A"/>
</g>
</svg>
