<svg width="88" height="83" viewBox="0 0 88 83" fill="none" xmlns="http://www.w3.org/2000/svg">
<path d="M36.3333 26.1667C35.3167 26.1667 34.3416 26.5706 33.6228 27.2895C32.9039 28.0084 32.5 28.9834 32.5 30.0001V53.0001C32.5 54.0167 32.9039 54.9918 33.6228 55.7107C34.3416 56.4295 35.3167 56.8334 36.3333 56.8334H51.6667C52.6833 56.8334 53.6584 56.4295 54.3772 55.7107C55.0961 54.9918 55.5 54.0167 55.5 53.0001V30.0001C55.5 28.9834 55.0961 28.0084 54.3772 27.2895C53.6584 26.5706 52.6833 26.1667 51.6667 26.1667H36.3333ZM36.3333 28.0834H51.6667C52.175 28.0834 52.6625 28.2853 53.022 28.6448C53.3814 29.0042 53.5833 29.4917 53.5833 30.0001V53.0001C53.5833 53.5084 53.3814 53.9959 53.022 54.3554C52.6625 54.7148 52.175 54.9167 51.6667 54.9167H36.3333C35.825 54.9167 35.3375 54.7148 34.978 54.3554C34.6186 53.9959 34.4167 53.5084 34.4167 53.0001V30.0001C34.4167 29.4917 34.6186 29.0042 34.978 28.6448C35.3375 28.2853 35.825 28.0834 36.3333 28.0834Z" fill="#596387"/>
<path d="M37.4889 49.3329C37.1142 49.1853 36.8126 48.8961 36.6494 48.5279C36.2756 47.7843 36.4002 47.0406 36.8027 46.4158C37.1822 45.8273 37.8109 45.3271 38.522 44.9074C39.4228 44.3968 40.3749 43.9824 41.3625 43.6711C42.1282 42.2915 42.808 40.866 43.398 39.4027C43.0464 38.6029 42.7704 37.7719 42.5738 36.9206C42.409 36.1539 42.3457 35.3949 42.4856 34.7433C42.6294 34.0648 43.0108 33.4553 43.7315 33.1659C44.0995 33.0183 44.4981 32.9359 44.8853 33.0183C45.0801 33.0597 45.2631 33.144 45.4213 33.265C45.5794 33.386 45.7086 33.5407 45.7996 33.7179C45.9682 34.0322 46.0296 34.4002 46.043 34.749C46.0564 35.1074 46.02 35.5061 45.9529 35.9259C45.7919 36.9034 45.4354 38.0994 44.9562 39.3644C45.4854 40.495 46.114 41.5764 46.8346 42.5958C47.6877 42.5293 48.5456 42.5614 49.3914 42.6917C50.0891 42.8163 50.7982 43.0654 51.2314 43.5829C51.4614 43.8589 51.6013 44.1963 51.6147 44.5758C51.6281 44.9438 51.5246 45.3079 51.3502 45.6549C51.1991 45.9763 50.9649 46.2516 50.6717 46.4522C50.3817 46.6407 50.0397 46.7333 49.6942 46.7167C49.0598 46.6899 48.4407 46.341 47.906 45.9174C47.2556 45.38 46.6696 44.7689 46.1599 44.0966C44.8637 44.2432 43.5829 44.5036 42.3323 44.8748C41.759 45.8906 41.1046 46.8585 40.3754 47.7689C39.8196 48.4398 39.2101 49.0243 38.6006 49.2773C38.25 49.4345 37.8533 49.4543 37.4889 49.3329ZM40.132 45.6894C39.8125 45.8363 39.5193 45.9883 39.2522 46.1455C38.6236 46.5174 38.2153 46.8796 38.0121 47.1939C37.832 47.4719 37.8281 47.6731 37.9355 47.8858C37.9559 47.9267 37.9725 47.9549 37.9853 47.9702L38.0524 47.9472C38.315 47.8399 38.7328 47.4968 39.2695 46.8509C39.5751 46.4775 39.8629 46.0899 40.132 45.6894ZM43.2753 43.1402C43.9154 42.9914 44.5612 42.868 45.2111 42.7703C44.8626 42.2359 44.5365 41.6873 44.2336 41.1258C43.9328 41.8053 43.6133 42.4764 43.2753 43.1383V43.1402ZM47.9635 44.0027C48.2522 44.3145 48.5302 44.5764 48.7972 44.7885C49.2572 45.1527 49.5773 45.2734 49.7517 45.2792C49.7985 45.2865 49.8462 45.2762 49.8859 45.2504C49.9661 45.1879 50.0282 45.1052 50.0661 45.0108C50.1339 44.894 50.1727 44.7625 50.1791 44.6275C50.1772 44.5827 50.1595 44.5399 50.1293 44.5068C50.0296 44.3879 49.746 44.2154 49.1365 44.1062C48.7487 44.0423 48.3565 44.0083 47.9635 44.0046V44.0027ZM44.1493 37.2829C44.3092 36.7621 44.4372 36.2321 44.5326 35.6959C44.5914 35.3355 44.6157 35.0384 44.6055 34.8046C44.6065 34.6756 44.5857 34.5473 44.5441 34.4251C44.4482 34.4365 44.3545 34.4623 44.2662 34.5018C44.0995 34.5689 43.9634 34.7049 43.8906 35.0442C43.8139 35.4122 43.8331 35.9431 43.9787 36.6197C44.0247 36.8331 44.0822 37.0541 44.1512 37.2829H44.1493Z" fill="#596387"/>
</svg>
