<svg width="24" height="25" viewBox="0 0 24 25" fill="none" xmlns="http://www.w3.org/2000/svg">
<mask id="mask0_1_42341" style="mask-type:alpha" maskUnits="userSpaceOnUse" x="0" y="0" width="24" height="25">
<rect y="0.5" width="24" height="24" fill="#D9D9D9"/>
</mask>
<g mask="url(#mask0_1_42341)">
<path d="M7.80005 20.9C7.30505 20.9 6.8813 20.7237 6.5288 20.3712C6.1763 20.0187 6.00005 19.595 6.00005 19.1V7.09998H4.80005V5.29998H9.60005V4.09998H14.4V5.29998H19.2V7.09998H18V19.0892C18 19.5964 17.8238 20.025 17.4713 20.375C17.1188 20.725 16.695 20.9 16.2 20.9H7.80005ZM16.2 7.09998H7.80005V19.1H16.2V7.09998ZM9.60005 17.3H11.4V8.89998H9.60005V17.3ZM12.6 17.3H14.4V8.89998H12.6V17.3Z" fill="#464852"/>
</g>
</svg>
