<svg width="20" height="20" viewBox="0 0 20 20" fill="none" xmlns="http://www.w3.org/2000/svg">
<mask id="mask0_8_12309" style="mask-type:alpha" maskUnits="userSpaceOnUse" x="0" y="0" width="20" height="20">
<rect width="20" height="20" fill="#D9D9D9"/>
</mask>
<g mask="url(#mask0_8_12309)">
<path d="M7.5 15V13.5H17V15H7.5ZM7.5 10.75V9.25H17V10.75H7.5ZM7.5 6.5V5H17V6.5H7.5ZM4.49562 15.75C4.08187 15.75 3.72917 15.6027 3.4375 15.3081C3.14583 15.0135 3 14.6594 3 14.2456C3 13.8319 3.14729 13.4792 3.44188 13.1875C3.73646 12.8958 4.09063 12.75 4.50438 12.75C4.91813 12.75 5.27083 12.8973 5.5625 13.1919C5.85417 13.4865 6 13.8406 6 14.2544C6 14.6681 5.85271 15.0208 5.55813 15.3125C5.26354 15.6042 4.90937 15.75 4.49562 15.75ZM4.49562 11.5C4.08187 11.5 3.72917 11.3527 3.4375 11.0581C3.14583 10.7635 3 10.4094 3 9.99563C3 9.58188 3.14729 9.22917 3.44188 8.9375C3.73646 8.64583 4.09063 8.5 4.50438 8.5C4.91813 8.5 5.27083 8.64729 5.5625 8.94188C5.85417 9.23646 6 9.59062 6 10.0044C6 10.4181 5.85271 10.7708 5.55813 11.0625C5.26354 11.3542 4.90937 11.5 4.49562 11.5ZM4.49562 7.25C4.08187 7.25 3.72917 7.10271 3.4375 6.80812C3.14583 6.51354 3 6.15937 3 5.74562C3 5.33187 3.14729 4.97917 3.44188 4.6875C3.73646 4.39583 4.09063 4.25 4.50438 4.25C4.91813 4.25 5.27083 4.39729 5.5625 4.69188C5.85417 4.98646 6 5.34063 6 5.75438C6 6.16813 5.85271 6.52083 5.55813 6.8125C5.26354 7.10417 4.90937 7.25 4.49562 7.25Z" fill="#596387"/>
</g>
</svg>
