<svg width="335" height="62" viewBox="0 0 335 62" fill="none" xmlns="http://www.w3.org/2000/svg">
<g clip-path="url(#clip0_42_4932)">
<path d="M18.5951 26.8402C17.6434 27.2743 15.3739 27.8531 12.5188 27.8531C4.24631 27.8531 0.000244141 22.7165 0.000244141 15.9884C0.000244141 7.88572 5.78368 3.47266 13.0313 3.47266C15.8132 3.47266 17.9362 4.05142 18.8879 4.55784L17.7166 8.75387C16.6185 8.3198 15.1543 7.88572 13.1777 7.88572C8.93163 7.88572 5.56406 10.4178 5.56406 15.699C5.56406 20.4015 8.41917 23.44 13.1777 23.44C14.8615 23.44 16.6185 23.1506 17.7166 22.6442L18.5951 26.8402Z" fill="white"/>
<path d="M31.7726 27.8531C24.7446 27.8531 20.4985 22.5718 20.4985 15.8437C20.4985 8.75387 25.1106 3.47266 32.1386 3.47266C39.4594 3.47266 43.4859 8.89856 43.4859 15.4096C43.5591 23.2229 38.8006 27.8531 31.7726 27.8531ZM32.0654 23.5847C35.7258 23.5847 37.7756 20.1844 37.7756 15.5543C37.7756 11.286 35.7258 7.66869 32.0654 7.66869C28.3318 7.66869 26.282 11.2136 26.282 15.6267C26.2088 20.1844 28.405 23.5847 32.0654 23.5847Z" fill="white"/>
<path d="M67.8641 18.4477C67.7909 15.6262 67.6445 12.226 67.6445 8.75339H67.5713C66.766 11.7919 65.8143 15.1198 64.8626 17.8689L61.9343 27.0568H57.6882L55.1259 17.9413C54.3206 15.1198 53.5886 11.7919 52.9297 8.68105H52.8565C52.7833 11.8642 52.6368 15.5539 52.4904 18.4477L52.1244 27.4908H47.1462L48.6836 3.90625H55.858L58.2007 11.7919C59.0059 14.4687 59.6648 17.4348 60.2505 20.184H60.3969C61.0558 17.4348 61.8611 14.3963 62.6663 11.7196L65.1554 3.90625H72.2566L73.5011 27.4908H68.2302L67.8641 18.4477Z" fill="white"/>
<path d="M83.5307 3.83398V17.3626C83.5307 21.4863 85.1413 23.5119 87.85 23.5119C90.7051 23.5119 92.2425 21.5586 92.2425 17.3626V3.83398H97.6599V17.0732C97.6599 24.3801 93.9263 27.8527 87.7036 27.8527C81.7005 27.8527 78.1865 24.5248 78.1865 17.0008V3.83398H83.5307Z" fill="white"/>
<path d="M102.931 27.4909V3.83398H109.227L114.205 12.5154C115.596 14.9752 116.987 17.9413 118.085 20.6181H118.158C117.865 17.5073 117.719 14.3241 117.719 10.7068V3.83398H122.697V27.4909H116.987L111.862 18.3754C110.471 15.8433 108.861 12.8048 107.689 10.0557H107.616C107.762 13.2389 107.836 16.5668 107.836 20.4011V27.4909H102.931Z" fill="white"/>
<path d="M133.385 3.83398V27.4909H127.968V3.83398H133.385Z" fill="white"/>
<path d="M138.583 4.19587C140.56 3.83414 143.122 3.68945 145.831 3.68945C150.37 3.68945 153.371 4.41291 155.641 6.1492C158.13 7.95783 159.667 10.924 159.667 15.12C159.667 19.6054 157.983 22.7886 155.714 24.6696C153.225 26.7676 149.345 27.7081 144.659 27.7081C141.878 27.7081 139.828 27.5634 138.51 27.3464V4.19587H138.583ZM143.927 23.4397C144.367 23.5844 145.172 23.5844 145.831 23.5844C150.736 23.5844 153.957 20.98 153.957 15.3371C153.957 10.2729 151.029 7.81314 146.343 7.81314C145.172 7.81314 144.367 7.88549 143.927 8.03018V23.4397Z" fill="white"/>
<path d="M169.331 21.4138L167.647 27.4908H162.01L169.331 3.90625H176.359L183.899 27.4908H178.116L176.285 21.4138H169.331ZM175.407 17.4348L173.943 12.443C173.577 11.0684 173.137 9.25981 172.771 7.88525H172.698C172.405 9.25981 171.966 11.0684 171.6 12.443L170.136 17.4348H175.407Z" fill="white"/>
<path d="M187.633 4.19587C189.609 3.83414 192.171 3.68945 194.88 3.68945C199.419 3.68945 202.421 4.41291 204.69 6.1492C207.179 7.95783 208.716 10.924 208.716 15.12C208.716 19.6054 207.033 22.7886 204.763 24.6696C202.274 26.7676 198.394 27.7081 193.709 27.7081C190.927 27.7081 188.877 27.5634 187.559 27.3464V4.19587H187.633ZM192.977 23.4397C193.416 23.5844 194.221 23.5844 194.88 23.5844C199.785 23.5844 203.006 20.98 203.006 15.3371C203.006 10.2729 200.078 7.81314 195.393 7.81314C194.221 7.81314 193.416 7.88549 192.977 8.03018V23.4397Z" fill="white"/>
<path d="M84.8484 55.7058L83.1646 61.7828H77.6008L84.9216 38.1982H91.9496L99.4168 61.7828H93.6334L91.8032 55.7058H84.8484ZM90.9247 51.7268L89.4605 46.735C89.0945 45.3604 88.6552 43.5518 88.2892 42.1772H88.216C87.9232 43.5518 87.4839 45.3604 87.1179 46.735L85.6537 51.7268H90.9247Z" fill="white"/>
<path d="M103.15 61.7828V38.1982H109.446L114.424 46.8797C115.815 49.3394 117.206 52.3056 118.304 54.9824H118.378C118.085 51.8715 117.938 48.6883 117.938 45.0711V38.1982H122.917V61.7828H117.206L112.082 52.6673C110.691 50.1352 109.08 47.0967 107.909 44.3476H107.762C107.909 47.5308 107.982 50.8587 107.982 54.693V61.7828H103.15Z" fill="white"/>
<path d="M128.114 38.4879C130.091 38.1261 132.653 37.9814 135.362 37.9814C139.901 37.9814 142.902 38.7049 145.172 40.4412C147.661 42.2498 149.198 45.216 149.198 49.412C149.198 53.9698 147.514 57.0806 145.245 58.9616C142.756 61.0596 138.876 62.0001 134.19 62.0001C131.409 62.0001 129.359 61.8554 128.041 61.6384V38.4879H128.114ZM133.532 57.7317C133.971 57.8764 134.776 57.8764 135.435 57.8764C140.34 57.9488 143.561 55.272 143.561 49.6291C143.561 44.5649 140.633 42.1051 135.947 42.1051C134.776 42.1051 133.971 42.2498 133.532 42.3222V57.7317Z" fill="white"/>
<path d="M158.788 38.1982V61.7828H153.371V38.1982H158.788Z" fill="white"/>
<path d="M163.986 61.7828V38.1982H170.282L175.26 46.8797C176.651 49.3394 178.042 52.3056 179.14 54.9824H179.214C178.921 51.8715 178.774 48.6883 178.774 45.0711V38.1982H183.752V61.7828H178.042L172.918 52.6673C171.527 50.1352 169.916 47.0967 168.745 44.3476H168.598C168.745 47.5308 168.818 50.8587 168.818 54.693V61.7828H163.986Z" fill="white"/>
<path d="M194.587 55.7058L192.903 61.7828H187.266L194.587 38.1982H201.615L209.082 61.7828H203.299L201.469 55.7058H194.587ZM200.59 51.7268L199.126 46.735C198.76 45.3604 198.321 43.5518 197.955 42.1772H197.882C197.589 43.5518 197.149 45.3604 196.783 46.735L195.319 51.7268H200.59Z" fill="white"/>
<path d="M334.854 62H330.242H279.655V20.9078H295.029V29.5893H303.74V38.6324H312.965V48.1097H320.944C317.357 28.3594 299.128 13.818 277.385 13.818C255.35 13.818 237.341 28.1424 233.827 48.1097H241.367V38.6324H250.591V29.6616H259.303V20.9802H274.677V62.0724H219.405L219.258 59.902C219.185 58.8892 219.185 57.6593 219.185 56.5018C219.185 41.2369 225.188 26.9848 236.169 16.4224C247.077 5.78763 261.573 0 277.093 0C292.613 0 307.108 5.78763 318.016 16.3501C328.997 26.9848 335 41.2369 335 56.4294V56.9358C335 57.8763 335 58.8892 334.927 59.7573L334.854 62ZM284.267 57.4422H330.315C330.315 57.2976 330.315 57.1529 330.315 57.0082V56.5018C330.315 27.4189 306.888 4.63011 277.093 4.63011C247.224 4.63011 223.87 27.4189 223.87 56.5018C223.87 56.7911 223.87 57.1529 223.87 57.4422H270.065V25.6103H263.988V34.2917H255.277V43.3349H245.979V52.8121H228.482L228.849 49.6289C230.313 38.3431 235.95 28.07 244.881 20.6908C253.739 13.3116 265.306 9.26021 277.312 9.26021C302.349 9.26021 323.214 26.9125 325.922 50.2077L326.215 52.7398H308.279V43.2625H299.055V34.2194H290.343V25.5379H284.267V57.4422Z" fill="#FFC000"/>
</g>
<defs>
<clipPath id="clip0_42_4932">
<rect width="335" height="62" fill="white"/>
</clipPath>
</defs>
</svg>
