<svg width="193" height="36" viewBox="0 0 193 36" fill="none" xmlns="http://www.w3.org/2000/svg">
<g clip-path="url(#clip0_11_16914)">
<path d="M10.6699 15.5847C10.1238 15.8367 8.82162 16.1728 7.18335 16.1728C2.43656 16.1728 0.000152588 13.1903 0.000152588 9.28361C0.000152588 4.57883 3.31871 2.0164 7.4774 2.0164C9.07367 2.0164 10.2919 2.35246 10.838 2.64651L10.1658 5.08291C9.53574 4.83087 8.6956 4.57883 7.56141 4.57883C5.12501 4.57883 3.19268 6.04908 3.19268 9.11559C3.19268 11.846 4.83096 13.6103 7.56141 13.6103C8.52757 13.6103 9.53574 13.4423 10.1658 13.1483L10.6699 15.5847Z" fill="#03488D"/>
<path d="M18.2312 16.1728C14.1985 16.1728 11.7621 13.1063 11.7621 9.1996C11.7621 5.08291 14.4085 2.0164 18.4412 2.0164C22.6419 2.0164 24.9523 5.16693 24.9523 8.94756C24.9943 13.4843 22.2638 16.1728 18.2312 16.1728ZM18.3992 13.6944C20.4995 13.6944 21.6757 11.72 21.6757 9.03157C21.6757 6.55316 20.4995 4.45281 18.3992 4.45281C16.2568 4.45281 15.0806 6.51115 15.0806 9.07358C15.0386 11.72 16.2988 13.6944 18.3992 13.6944Z" fill="#03488D"/>
<path d="M38.9407 10.7118C38.8986 9.07349 38.8146 7.09916 38.8146 5.08283H38.7726C38.3106 6.84712 37.7645 8.77944 37.2184 10.3757L35.5381 15.7106H33.1017L31.6314 10.4177C31.1694 8.77944 30.7493 6.84712 30.3712 5.04082H30.3292C30.2872 6.88913 30.2032 9.03148 30.1192 10.7118L29.9091 15.9626H27.0527L27.9348 2.26836H32.0515L33.3957 6.84712C33.8578 8.40138 34.2359 10.1237 34.5719 11.7199H34.6559C35.034 10.1237 35.4961 8.35937 35.9582 6.80511L37.3864 2.26836H41.4611L42.1752 15.9626H39.1507L38.9407 10.7118Z" fill="#03488D"/>
<path d="M47.9301 2.22646V10.0818C47.9301 12.4762 48.8543 13.6524 50.4085 13.6524C52.0468 13.6524 52.929 12.5182 52.929 10.0818V2.22646H56.0375V9.91374C56.0375 14.1564 53.8951 16.1728 50.3245 16.1728C46.88 16.1728 44.8636 14.2405 44.8636 9.87173V2.22646H47.9301Z" fill="#03488D"/>
<path d="M59.062 15.9627V2.22646H62.6746L65.5311 7.2673C66.3292 8.69553 67.1273 10.4178 67.7574 11.9721H67.7994C67.6314 10.1658 67.5474 8.31747 67.5474 6.21712V2.22646H70.4039V15.9627H67.1273L64.1868 10.6699C63.3887 9.19962 62.4645 7.43532 61.7924 5.83906H61.7504C61.8344 7.68737 61.8764 9.61969 61.8764 11.8461V15.9627H59.062Z" fill="#03488D"/>
<path d="M76.5369 2.22646V15.9627H73.4284V2.22646H76.5369Z" fill="#03488D"/>
<path d="M79.5194 2.43643C80.6536 2.22639 82.1239 2.14238 83.6781 2.14238C86.2826 2.14238 88.0048 2.56245 89.3071 3.57062C90.7353 4.62079 91.6174 6.34308 91.6174 8.77948C91.6174 11.3839 90.6513 13.2322 89.3491 14.3244C87.9208 15.5426 85.6945 16.0887 83.006 16.0887C81.4097 16.0887 80.2335 16.0047 79.4774 15.8787V2.43643H79.5194ZM82.5859 13.6103C82.838 13.6943 83.3001 13.6943 83.6781 13.6943C86.4926 13.6943 88.3409 12.1821 88.3409 8.90551C88.3409 5.96502 86.6606 4.53678 83.9722 4.53678C83.3001 4.53678 82.838 4.57879 82.5859 4.6628V13.6103Z" fill="#03488D"/>
<path d="M97.1624 12.4341L96.1962 15.9626H92.9617L97.1624 2.26836H101.195L105.522 15.9626H102.203L101.153 12.4341H97.1624ZM100.649 10.1237L99.8088 7.22518C99.5988 6.42705 99.3467 5.37687 99.1367 4.57874H99.0947C98.9267 5.37687 98.6746 6.42705 98.4646 7.22518L97.6244 10.1237H100.649Z" fill="#03488D"/>
<path d="M107.664 2.43643C108.798 2.22639 110.269 2.14238 111.823 2.14238C114.427 2.14238 116.149 2.56245 117.452 3.57062C118.88 4.62079 119.762 6.34308 119.762 8.77948C119.762 11.3839 118.796 13.2322 117.494 14.3244C116.065 15.5426 113.839 16.0887 111.151 16.0887C109.554 16.0887 108.378 16.0047 107.622 15.8787V2.43643H107.664ZM110.731 13.6103C110.983 13.6943 111.445 13.6943 111.823 13.6943C114.637 13.6943 116.486 12.1821 116.486 8.90551C116.486 5.96502 114.805 4.53678 112.117 4.53678C111.445 4.53678 110.983 4.57879 110.731 4.6628V13.6103Z" fill="#03488D"/>
<path d="M48.6863 32.3451L47.7201 35.8737H44.5276L48.7283 22.1794H52.7609L57.0456 35.8737H53.7271L52.6769 32.3451H48.6863ZM52.1728 30.0347L51.3327 27.1362C51.1227 26.3381 50.8706 25.2879 50.6606 24.4898H50.6186C50.4505 25.2879 50.1985 26.3381 49.9885 27.1362L49.1483 30.0347H52.1728Z" fill="#03488D"/>
<path d="M59.188 35.8737V22.1794H62.8007L65.6571 27.2202C66.4553 28.6485 67.2534 30.3708 67.8835 31.925H67.9255C67.7575 30.1187 67.6735 28.2704 67.6735 26.1701V22.1794H70.5299V35.8737H67.2534L64.3129 30.5808C63.5148 29.1106 62.5906 27.3463 61.9185 25.75H61.8345C61.9185 27.5983 61.9605 29.5306 61.9605 31.757V35.8737H59.188Z" fill="#03488D"/>
<path d="M73.5124 22.3478C74.6466 22.1377 76.1168 22.0537 77.6711 22.0537C80.2755 22.0537 81.9978 22.4738 83.3 23.4819C84.7283 24.5321 85.6104 26.2544 85.6104 28.6908C85.6104 31.3373 84.6443 33.1436 83.342 34.2357C81.9138 35.4539 79.6874 36 76.999 36C75.4027 36 74.2265 35.916 73.4704 35.79V22.3478H73.5124ZM76.6209 33.5216C76.873 33.6056 77.335 33.6056 77.7131 33.6056C80.5276 33.6476 82.3759 32.0934 82.3759 28.8168C82.3759 25.8763 80.6956 24.4481 78.0072 24.4481C77.335 24.4481 76.873 24.5321 76.6209 24.5741V33.5216Z" fill="#03488D"/>
<path d="M91.1133 22.1794V35.8737H88.0048V22.1794H91.1133Z" fill="#03488D"/>
<path d="M94.0958 35.8737V22.1794H97.7084L100.565 27.2202C101.363 28.6485 102.161 30.3708 102.791 31.925H102.833C102.665 30.1187 102.581 28.2704 102.581 26.1701V22.1794H105.438V35.8737H102.161L99.2207 30.5808C98.4225 29.1106 97.4984 27.3463 96.8263 25.75H96.7423C96.8263 27.5983 96.8683 29.5306 96.8683 31.757V35.8737H94.0958Z" fill="#03488D"/>
<path d="M111.655 32.3451L110.689 35.8737H107.454L111.655 22.1794H115.687L119.972 35.8737H116.654L115.603 32.3451H111.655ZM115.099 30.0347L114.259 27.1362C114.049 26.3381 113.797 25.2879 113.587 24.4898H113.545C113.377 25.2879 113.125 26.3381 112.915 27.1362L112.075 30.0347H115.099Z" fill="#03488D"/>
<path d="M192.14 35.9998H189.494H160.467V12.1398H169.288V17.1807H174.287V22.4315H179.58V27.9345H184.159C182.1 16.4665 171.641 8.02314 159.165 8.02314C146.521 8.02314 136.187 16.3405 134.17 27.9345H138.497V22.4315H143.79V17.2227H148.789V12.1818H157.61V36.0418H125.895L125.811 34.7816C125.769 34.1935 125.769 33.4794 125.769 32.8073C125.769 23.9438 129.214 15.6684 135.515 9.53539C141.774 3.36036 150.091 -0.000198364 158.997 -0.000198364C167.902 -0.000198364 176.219 3.36036 182.479 9.49338C188.78 15.6684 192.224 23.9438 192.224 32.7653V33.0593C192.224 33.6054 192.224 34.1935 192.182 34.6976L192.14 35.9998ZM163.113 33.3534H189.536C189.536 33.2694 189.536 33.1853 189.536 33.1013V32.8073C189.536 15.9205 176.093 2.68825 158.997 2.68825C141.858 2.68825 128.458 15.9205 128.458 32.8073C128.458 32.9753 128.458 33.1853 128.458 33.3534H154.964V14.8703H151.477V19.9111H146.479V25.162H141.144V30.6649H131.104L131.314 28.8166C132.154 22.2635 135.389 16.2985 140.514 12.0138C145.596 7.72909 152.233 5.3767 159.123 5.3767C173.489 5.3767 185.461 15.6264 187.015 29.1527L187.183 30.6229H176.892V25.12H171.599V19.8691H166.6V14.8283H163.113V33.3534Z" fill="#FFC000"/>
</g>
<defs>
<clipPath id="clip0_11_16914">
<rect width="192.224" height="36" fill="white"/>
</clipPath>
</defs>
</svg>
