<svg width="24" height="25" viewBox="0 0 24 25" fill="none" xmlns="http://www.w3.org/2000/svg">
<mask id="mask0_1_42324" style="mask-type:alpha" maskUnits="userSpaceOnUse" x="0" y="0" width="24" height="25">
<rect y="0.5" width="24" height="24" fill="#D9D9D9"/>
</mask>
<g mask="url(#mask0_1_42324)">
<path d="M5.4001 20.9C4.9051 20.9 4.48135 20.7237 4.12885 20.3712C3.77635 20.0187 3.6001 19.595 3.6001 19.1V5.89998C3.6001 5.40498 3.77635 4.98123 4.12885 4.62873C4.48135 4.27623 4.9051 4.09998 5.4001 4.09998H12.0001V5.89998H5.4001V19.1H12.0001V20.9H5.4001ZM16.2001 16.7L14.9251 15.425L16.9501 13.4H9.6001V11.6H16.9501L14.9251 9.57498L16.2001 8.29998L20.4001 12.5L16.2001 16.7Z" fill="#464852"/>
</g>
</svg>
