<svg width="24" height="24" viewBox="0 0 24 24" fill="none" xmlns="http://www.w3.org/2000/svg">
<path d="M6.00009 12H4.12509C3.52509 12 3.03809 12.487 3.03809 13.087V20.163C3.03809 20.763 3.52509 21.25 4.12509 21.25H5.99809C6.59809 21.25 7.08509 20.763 7.08509 20.163V13.087C7.08509 12.487 6.59809 12 5.99809 12M12.9371 7.375H11.0641C10.4641 7.375 9.97709 7.862 9.97709 8.462V20.163C9.97709 20.763 10.4631 21.25 11.0631 21.25H12.9371C13.5371 21.25 14.0241 20.763 14.0241 20.163V8.462C14.0241 7.862 13.5371 7.375 12.9371 7.375ZM19.8741 2.75H18.0011C17.4011 2.75 16.9141 3.237 16.9141 3.837V20.163C16.9141 20.763 17.4011 21.25 18.0011 21.25H19.8741C20.4741 21.25 20.9611 20.763 20.9611 20.163V3.837C20.9611 3.237 20.4741 2.75 19.8741 2.75Z" stroke="#596387" stroke-width="1.3" stroke-linecap="round" stroke-linejoin="round"/>
</svg>
