<svg width="24" height="24" viewBox="0 0 24 24" fill="none" xmlns="http://www.w3.org/2000/svg">
<path d="M5.14286 19.44H9.36229V13.6377C9.36229 13.3764 9.45105 13.1573 9.62857 12.9806C9.80533 12.803 10.0244 12.7143 10.2857 12.7143H13.7143C13.9756 12.7143 14.195 12.803 14.3726 12.9806C14.5493 13.1573 14.6377 13.3764 14.6377 13.6377V19.44H18.8571V9.50629C18.8571 9.38895 18.8316 9.28229 18.7806 9.18629C18.7295 9.09029 18.6598 9.00648 18.5714 8.93486L12.4183 4.29714C12.301 4.19505 12.1615 4.144 12 4.144C11.8385 4.144 11.6994 4.19505 11.5829 4.29714L5.42857 8.93486C5.34095 9.008 5.27124 9.09181 5.21943 9.18629C5.16762 9.28076 5.1421 9.38743 5.14286 9.50629V19.44ZM4 19.44V9.50629C4 9.21371 4.06552 8.93676 4.19657 8.67543C4.32762 8.4141 4.50819 8.19886 4.73829 8.02971L10.8926 3.36914C11.2149 3.12305 11.5829 3 11.9966 3C12.4103 3 12.7806 3.12305 13.1074 3.36914L19.2617 8.02857C19.4926 8.19771 19.6731 8.41333 19.8034 8.67543C19.9345 8.93676 20 9.21371 20 9.50629V19.44C20 19.7463 19.8861 20.0133 19.6583 20.2411C19.4305 20.469 19.1634 20.5829 18.8571 20.5829H14.4183C14.1562 20.5829 13.9368 20.4945 13.76 20.3177C13.5832 20.1402 13.4949 19.9208 13.4949 19.6594V13.8583H10.5051V19.6594C10.5051 19.9215 10.4168 20.141 10.24 20.3177C10.0632 20.4945 9.84419 20.5829 9.58286 20.5829H5.14286C4.83657 20.5829 4.56952 20.469 4.34171 20.2411C4.1139 20.0133 4 19.7463 4 19.44Z" fill="#596387"/>
</svg>
