<svg width="132" height="52" viewBox="0 0 132 52" fill="none" xmlns="http://www.w3.org/2000/svg">
<mask id="mask0_1_10204" style="mask-type:luminance" maskUnits="userSpaceOnUse" x="9" y="8" width="35" height="30">
<path d="M9.54541 8.99841H43.4558V37.4886H9.54541V8.99841Z" fill="white"/>
</mask>
<g mask="url(#mask0_1_10204)">
<path fill-rule="evenodd" clip-rule="evenodd" d="M26.5013 8.99841C17.1383 8.99841 9.5459 16.5954 9.5459 25.9671C9.5459 26.0084 9.54888 26.0484 9.54888 26.0897C9.55158 26.5439 9.57595 26.9936 9.61303 27.4391C10.2251 33.0901 15.0041 37.489 20.8135 37.489C22.8548 37.489 24.768 36.9421 26.4201 35.9913C23.0673 34.0239 20.8135 30.383 20.8135 26.2127C20.8135 22.0421 23.0673 18.4001 26.4201 16.4327C28.0975 15.4503 30.0479 14.8837 32.1336 14.8837C38.3565 14.8837 43.4052 19.9091 43.4523 26.1241C43.4523 26.0714 43.4566 26.02 43.4566 25.9671C43.4566 16.5954 35.8642 8.99841 26.5013 8.99841Z" fill="#2E20FF"/>
</g>
<path fill-rule="evenodd" clip-rule="evenodd" d="M32.0829 14.9047C30.0038 14.9047 28.0595 15.4709 26.3873 16.4563C29.7577 18.4055 32.0303 22.0608 32.0303 26.2524C32.0303 30.4425 29.7577 34.0979 26.3873 36.0471C24.7404 36.9995 22.8331 37.5473 20.7966 37.5473C15.0071 37.5473 10.2429 33.1411 9.63281 27.4808C10.3765 36.1773 17.6281 43.0016 26.4682 43.0016C35.3154 43.0016 42.5726 36.1629 43.3053 27.4551C43.3393 27.0291 43.3619 26.5985 43.3663 26.1639C43.318 19.9387 38.2851 14.9047 32.0829 14.9047Z" fill="#44F0B9"/>
<path d="M131.489 23.0504H128.176C128.082 22.5072 127.907 22.0259 127.653 21.6067C127.4 21.1815 127.084 20.8213 126.706 20.526C126.328 20.2308 125.897 20.0094 125.413 19.8617C124.934 19.7082 124.418 19.6314 123.862 19.6314C122.876 19.6314 122.002 19.8794 121.241 20.3755C120.479 20.8656 119.882 21.586 119.451 22.5367C119.02 23.4815 118.805 24.6359 118.805 26C118.805 27.3877 119.02 28.5569 119.451 29.5076C119.888 30.4524 120.485 31.1669 121.241 31.6511C122.002 32.1294 122.873 32.3685 123.854 32.3685C124.397 32.3685 124.905 32.2977 125.377 32.156C125.855 32.0083 126.284 31.7928 126.661 31.5094C127.045 31.2259 127.367 30.8775 127.627 30.4642C127.893 30.0508 128.076 29.5784 128.176 29.047L131.489 29.0647C131.365 29.9268 131.096 30.7358 130.683 31.4916C130.275 32.2475 129.741 32.9147 129.08 33.4934C128.418 34.0662 127.645 34.515 126.759 34.8398C125.873 35.1586 124.89 35.3181 123.809 35.3181C122.215 35.3181 120.792 34.949 119.54 34.2109C118.288 33.4728 117.302 32.4069 116.582 31.0133C115.861 29.6198 115.501 27.9486 115.501 26C115.501 24.0454 115.864 22.3743 116.59 20.9866C117.317 19.5931 118.306 18.5272 119.558 17.7891C120.81 17.0509 122.227 16.6819 123.809 16.6819C124.819 16.6819 125.758 16.8236 126.626 17.107C127.494 17.3905 128.268 17.8068 128.947 18.356C129.626 18.8992 130.184 19.5665 130.621 20.3578C131.064 21.1431 131.353 22.0407 131.489 23.0504Z" fill="#464852"/>
<path d="M101.095 35.0752H97.5874L103.974 16.9351H108.03L114.426 35.0752H110.918L106.073 20.6552H105.931L101.095 35.0752ZM101.21 27.9627H110.776V30.6022H101.21V27.9627Z" fill="#464852"/>
<path d="M95.184 16.9351V35.0752H92.2611L83.7136 22.719H83.563V35.0752H80.2769V16.9351H83.2175L91.7562 29.3001H91.9156V16.9351H95.184Z" fill="#464852"/>
<path d="M77.1703 26C77.1703 27.9545 76.8042 29.6286 76.072 31.0222C75.3457 32.4099 74.3536 33.4728 73.0959 34.2109C71.844 34.949 70.4239 35.3181 68.8354 35.3181C67.247 35.3181 65.8239 34.949 64.5661 34.2109C63.3142 33.4669 62.3222 32.401 61.59 31.0133C60.8636 29.6198 60.5005 27.9486 60.5005 26C60.5005 24.0454 60.8636 22.3743 61.59 20.9866C62.3222 19.5931 63.3142 18.5272 64.5661 17.7891C65.8239 17.0509 67.247 16.6819 68.8354 16.6819C70.4239 16.6819 71.844 17.0509 73.0959 17.7891C74.3536 18.5272 75.3457 19.5931 76.072 20.9866C76.8042 22.3743 77.1703 24.0454 77.1703 26ZM73.8665 26C73.8665 24.6241 73.6509 23.4638 73.2199 22.519C72.7947 21.5683 72.2042 20.8508 71.4484 20.3666C70.6925 19.8765 69.8215 19.6314 68.8354 19.6314C67.8493 19.6314 66.9783 19.8765 66.2224 20.3666C65.4666 20.8508 64.8731 21.5683 64.4421 22.519C64.0169 23.4638 63.8043 24.6241 63.8043 26C63.8043 27.3758 64.0169 28.5391 64.4421 29.4898C64.8731 30.4346 65.4666 31.1521 66.2224 31.6422C66.9783 32.1264 67.8493 32.3685 68.8354 32.3685C69.8215 32.3685 70.6925 32.1264 71.4484 31.6422C72.2042 31.1521 72.7947 30.4346 73.2199 29.4898C73.6509 28.5391 73.8665 27.3758 73.8665 26Z" fill="#464852"/>
</svg>
