<svg width="21" height="21" viewBox="0 0 21 21" fill="none" xmlns="http://www.w3.org/2000/svg">
<g clip-path="url(#clip0_2_12280)">
<path d="M15.5018 16.1653H8.80901C5.65833 16.1653 3.09473 13.6017 3.09473 10.4706C3.09473 7.31991 5.65833 4.77588 8.78944 4.77588H19.6309C19.9049 4.77588 20.1202 4.99114 20.1202 5.26512C20.1202 5.53909 19.9049 5.75435 19.6309 5.75435H8.80901C6.20627 5.75435 4.0732 7.86786 4.0732 10.4706C4.0732 13.0733 6.20627 15.1868 8.80901 15.1868H15.5018C15.7757 15.1868 15.991 15.4021 15.991 15.6761C15.991 15.95 15.7757 16.1653 15.5018 16.1653Z" fill="#C42A27"/>
<path d="M18.2219 13.8757H8.59376C6.65638 13.8757 5.09082 12.3102 5.09082 10.3728C5.09082 8.43543 6.65638 6.86987 8.59376 6.86987H13.2317C13.5057 6.86987 13.721 7.08514 13.721 7.35911C13.721 7.63308 13.5057 7.84835 13.2317 7.84835H8.59376C7.20432 7.84835 6.06929 8.98338 6.06929 10.3728C6.06929 11.7622 7.20432 12.8973 8.59376 12.8973H18.2219C18.4959 12.8973 18.7112 13.1125 18.7112 13.3865C18.7112 13.6605 18.4959 13.8757 18.2219 13.8757Z" fill="#C42A27"/>
<path d="M11.9015 12.0557H8.35939C7.5179 12.0557 6.85254 11.3708 6.85254 10.5488C6.85254 9.72692 7.53747 9.04199 8.35939 9.04199H16.2067C16.4807 9.04199 16.696 9.25726 16.696 9.53123C16.696 9.8052 16.4807 10.0205 16.2067 10.0205H8.35939C8.06585 10.0205 7.83101 10.2553 7.83101 10.5488C7.83101 10.8424 8.06585 11.0772 8.35939 11.0772H11.921C12.195 11.0772 12.4103 11.2925 12.4103 11.5665C12.4103 11.8404 12.1754 12.0557 11.9015 12.0557Z" fill="#C42A27"/>
<path d="M19.6508 18.3571H8.77021C4.44536 18.3571 0.922852 14.8346 0.922852 10.4902C0.922852 6.14576 4.44536 2.64282 8.77021 2.64282H17.4591C17.733 2.64282 17.9483 2.85809 17.9483 3.13206C17.9483 3.40603 17.7526 3.6213 17.4786 3.6213H8.77021C4.9933 3.6213 1.90133 6.71327 1.90133 10.4902C1.90133 14.2671 4.9933 17.3591 8.77021 17.3591H19.6313C19.9052 17.3591 20.1205 17.5743 20.1205 17.8483C20.1205 18.1223 19.9248 18.3571 19.6508 18.3571Z" fill="#C42A27"/>
</g>
<defs>
<clipPath id="clip0_2_12280">
<rect width="20" height="20" fill="white" transform="translate(0.521484 0.5)"/>
</clipPath>
</defs>
</svg>
