<svg width="52" height="52" viewBox="0 0 52 52" fill="none" xmlns="http://www.w3.org/2000/svg">
<path d="M16.6262 29.8838H21.8701C21.8701 29.8838 23.6273 31.5303 24.4574 33.8548C25.8549 31.0322 26.9618 26.6877 26.1039 18.9672H32.4962C32.4962 18.9672 31.8044 31.558 26.4222 40.4546C23.4751 40.4546 21.7041 40.4546 21.7041 40.4546C21.7041 40.4546 22.6449 35.944 16.6262 29.8838Z" fill="#F2CD22"/>
<path d="M23.0879 29.8838H28.3318C28.3318 29.8838 30.089 31.5303 30.9191 33.8548C32.3166 31.0322 33.4234 26.6877 32.5656 18.9672H38.9579C38.9579 18.9672 38.2661 31.558 32.8838 40.4546C29.9368 40.4546 28.1657 40.4546 28.1657 40.4546C28.1657 40.4546 29.1066 35.944 23.0879 29.8838Z" fill="#234C97"/>
<path d="M28.7607 29.8838H34.0046C34.0046 29.8838 35.7618 31.5303 36.592 33.8548C37.9894 31.0322 39.0963 26.6877 38.2385 18.9672H44.6307C44.6307 18.9672 43.9389 31.558 38.5567 40.4546C35.6096 40.4546 33.8386 40.4546 33.8386 40.4546C33.8386 40.4546 34.7794 35.944 28.7607 29.8838Z" fill="#C42A27"/>
<path d="M16.0449 35.6163L19.6561 40.4589C19.6561 40.4589 7.36963 36.9307 7.36963 27.1763C7.36963 17.4219 14.6612 10.8635 26.4634 11.5969C28.4282 11.8459 33.8381 12.9113 35.8166 14.959C31.6243 13.7276 15.3115 8.23469 10.6349 24.1462C10.0677 27.4253 10.6349 31.5208 16.0449 35.6163Z" fill="#F2CD22"/>
</svg>
