<svg width="52" height="52" viewBox="0 0 52 52" fill="none" xmlns="http://www.w3.org/2000/svg">
<mask id="mask0_1_42575" style="mask-type:luminance" maskUnits="userSpaceOnUse" x="9" y="8" width="34" height="30">
<path d="M9.04468 8.99841H42.9551V37.4886H9.04468V8.99841Z" fill="white"/>
</mask>
<g mask="url(#mask0_1_42575)">
<path fill-rule="evenodd" clip-rule="evenodd" d="M26.0005 8.99841C16.6375 8.99841 9.04517 16.5954 9.04517 25.9671C9.04517 26.0084 9.04814 26.0484 9.04814 26.0897C9.05085 26.5439 9.07521 26.9936 9.1123 27.4391C9.72433 33.0901 14.5034 37.489 20.3127 37.489C22.354 37.489 24.2673 36.9421 25.9193 35.9913C22.5665 34.0239 20.3127 30.383 20.3127 26.2127C20.3127 22.0421 22.5665 18.4001 25.9193 16.4327C27.5968 15.4503 29.5471 14.8837 31.6328 14.8837C37.8558 14.8837 42.9045 19.9091 42.9516 26.1241C42.9516 26.0714 42.9559 26.02 42.9559 25.9671C42.9559 16.5954 35.3635 8.99841 26.0005 8.99841Z" fill="#2E20FF"/>
</g>
<path fill-rule="evenodd" clip-rule="evenodd" d="M31.5824 14.9047C29.5033 14.9047 27.559 15.4709 25.8868 16.4563C29.2572 18.4055 31.5298 22.0608 31.5298 26.2524C31.5298 30.4425 29.2572 34.0979 25.8868 36.0471C24.2399 36.9995 22.3326 37.5473 20.2961 37.5473C14.5066 37.5473 9.74245 33.1411 9.13232 27.4808C9.87602 36.1773 17.1276 43.0016 25.9677 43.0016C34.8149 43.0016 42.0721 36.1629 42.8048 27.4551C42.8388 27.0291 42.8614 26.5985 42.8658 26.1639C42.8175 19.9387 37.7846 14.9047 31.5824 14.9047Z" fill="#44F0B9"/>
</svg>
