<svg width="20" height="20" viewBox="0 0 20 20" fill="none" xmlns="http://www.w3.org/2000/svg">
<path d="M0 9.99999C0 4.47718 4.47718 0 9.99999 0C15.5228 0 20 4.47718 20 9.99999L9.99999 10.8696L0 9.99999Z" fill="#FFDA44"/>
<path d="M1.33807 14.9998C3.06717 17.9887 6.29858 19.9998 9.99994 19.9998C13.7013 19.9998 16.9327 17.9887 18.6618 14.9998L9.99994 14.3477L1.33807 14.9998Z" fill="#D80027"/>
<path d="M18.6619 15C19.5127 13.5291 20 11.8215 20 10H0C0 11.8215 0.487265 13.5291 1.33812 15H18.6619Z" fill="#0052B4"/>
<path d="M9.99991 13.478C11.9209 13.478 13.4781 11.9207 13.4781 9.99972C13.4781 8.07874 11.9209 6.52148 9.99991 6.52148C8.07893 6.52148 6.52167 8.07874 6.52167 9.99972C6.52167 11.9207 8.07893 13.478 9.99991 13.478Z" fill="#FFDA44"/>
<path d="M10 12.1736C8.8013 12.1736 7.82611 11.1984 7.82611 9.99972V8.69539C7.82611 7.49668 8.80134 6.52148 10 6.52148C11.1987 6.52148 12.1739 7.49672 12.1739 8.69539V9.99972C12.1739 11.1984 11.1987 12.1736 10 12.1736Z" fill="#338AF3"/>
<path d="M13.4782 4.78265H10.8695C10.8695 4.30242 10.4802 3.91309 9.99994 3.91309C9.51971 3.91309 9.13037 4.30242 9.13037 4.78265H6.52167C6.52167 5.26293 6.93999 5.65222 7.42018 5.65222H7.39124C7.39124 6.13249 7.78053 6.52179 8.2608 6.52179C8.2608 7.00206 8.6501 7.39136 9.13037 7.39136H10.8695C11.3498 7.39136 11.7391 7.00206 11.7391 6.52179C12.2193 6.52179 12.6086 6.13249 12.6086 5.65222H12.5797C13.0599 5.65222 13.4782 5.26289 13.4782 4.78265Z" fill="#654811"/>
</svg>
