<svg width="32" height="32" viewBox="0 0 32 32" fill="none" xmlns="http://www.w3.org/2000/svg">
<g opacity="0.8">
<mask id="path-1-inside-1_8_4026" fill="white">
<path d="M0 0H32V32H0V0Z"/>
</mask>
<path d="M0 2H32V-2H0V2ZM32 30H0V34H32V30Z" fill="#F2F4F4" mask="url(#path-1-inside-1_8_4026)"/>
<path d="M11.5556 15.9999C11.5556 16.4714 11.3683 16.9236 11.0349 17.257C10.7015 17.5904 10.2493 17.7777 9.77778 17.7777C9.30628 17.7777 8.8541 17.5904 8.5207 17.257C8.1873 16.9236 8 16.4714 8 15.9999C8 15.5284 8.1873 15.0763 8.5207 14.7429C8.8541 14.4095 9.30628 14.2222 9.77778 14.2222C10.2493 14.2222 10.7015 14.4095 11.0349 14.7429C11.3683 15.0763 11.5556 15.5284 11.5556 15.9999ZM17.7778 15.9999C17.7778 16.4714 17.5905 16.9236 17.2571 17.257C16.9237 17.5904 16.4715 17.7777 16 17.7777C15.5285 17.7777 15.0763 17.5904 14.7429 17.257C14.4095 16.9236 14.2222 16.4714 14.2222 15.9999C14.2222 15.5284 14.4095 15.0763 14.7429 14.7429C15.0763 14.4095 15.5285 14.2222 16 14.2222C16.4715 14.2222 16.9237 14.4095 17.2571 14.7429C17.5905 15.0763 17.7778 15.5284 17.7778 15.9999ZM24 15.9999C24 16.4714 23.8127 16.9236 23.4793 17.257C23.1459 17.5904 22.6937 17.7777 22.2222 17.7777C21.7507 17.7777 21.2985 17.5904 20.9651 17.257C20.6317 16.9236 20.4444 16.4714 20.4444 15.9999C20.4444 15.5284 20.6317 15.0763 20.9651 14.7429C21.2985 14.4095 21.7507 14.2222 22.2222 14.2222C22.6937 14.2222 23.1459 14.4095 23.4793 14.7429C23.8127 15.0763 24 15.5284 24 15.9999Z" fill="#1773FC"/>
</g>
</svg>
