<svg width="16" height="19" viewBox="0 0 16 19" fill="none" xmlns="http://www.w3.org/2000/svg">
<path d="M13.2659 3.38475L10.6042 0.110846C10.5464 0.0398926 10.4682 0 10.3866 0H2.40146C2.23151 0 2.09375 0.169441 2.09375 0.378479V18.6215C2.09375 18.8306 2.23151 19 2.40146 19H13.0483C13.2182 19 13.356 18.8306 13.356 18.6215V3.65238C13.356 3.552 13.3236 3.45574 13.2659 3.38475ZM10.6943 1.29226L12.3054 3.2739H10.6943V1.29226ZM12.7406 18.243H2.70916V0.756957H10.0789V3.65238C10.0789 3.86142 10.2167 4.03086 10.3866 4.03086H12.7406V18.243Z" fill="#1773FC"/>
<path d="M8.50489 16.8809H3.59677C3.42682 16.8809 3.28906 17.0503 3.28906 17.2593C3.28906 17.4684 3.42682 17.6378 3.59677 17.6378H8.50489C8.67481 17.6378 8.8126 17.4684 8.8126 17.2593C8.8126 17.0503 8.67481 16.8809 8.50489 16.8809Z" fill="#1773FC"/>
<path d="M10.0791 16.8809H9.74521C9.57529 16.8809 9.4375 17.0503 9.4375 17.2593C9.4375 17.4684 9.57529 17.6378 9.74521 17.6378H10.0791C10.249 17.6378 10.3868 17.4684 10.3868 17.2593C10.3868 17.0503 10.249 16.8809 10.0791 16.8809Z" fill="#1773FC"/>
<path d="M9.40382 9.76537L11.6888 6.29438C11.7634 6.18097 11.7785 6.02493 11.7274 5.89327C11.6763 5.76156 11.5683 5.67773 11.4497 5.67773H8.88664C8.79378 5.67773 8.70592 5.72928 8.64751 5.81804L7.72635 7.21729L6.8052 5.81804C6.74679 5.72928 6.6589 5.67773 6.56607 5.67773H4.00305C3.88445 5.67773 3.77638 5.76156 3.7253 5.89327C3.67422 6.02493 3.68928 6.18101 3.76389 6.29438L6.04889 9.76537L3.76389 13.2364C3.68925 13.3498 3.67422 13.5058 3.7253 13.6375C3.77638 13.7691 3.88442 13.853 4.00305 13.853H6.56607C6.6589 13.853 6.74679 13.8015 6.8052 13.7127L7.72635 12.3135L8.64748 13.7127C8.70589 13.8015 8.79378 13.853 8.88661 13.853H11.4497C11.5683 13.853 11.6763 13.7692 11.7274 13.6375C11.7785 13.5058 11.7634 13.3498 11.6888 13.2364L9.40382 9.76537ZM9.03342 6.43469H10.8046L9.00786 9.1639L8.12231 7.81869L9.03342 6.43469ZM6.41929 13.096H4.64812L6.44481 10.3668L7.33037 11.7121L6.41929 13.096ZM9.03342 13.096L4.64812 6.43469H6.41929L10.8046 13.096H9.03342Z" fill="#1773FC"/>
</svg>
