<svg width="20" height="20" viewBox="0 0 20 20" fill="none" xmlns="http://www.w3.org/2000/svg">
<path fill-rule="evenodd" clip-rule="evenodd" d="M8.101 18.2066C8.40959 18.3335 8.80084 18.3335 9.58334 18.3335C10.3658 18.3335 10.7571 18.3335 11.0657 18.2066C11.4772 18.0375 11.8041 17.713 11.9745 17.3046C12.0523 17.1182 12.0828 16.9014 12.0947 16.5852C12.1122 16.1204 12.3524 15.6903 12.7582 15.4577C13.164 15.2252 13.6595 15.2339 14.0738 15.4512C14.3557 15.5991 14.5601 15.6813 14.7617 15.7076C15.2033 15.7653 15.6499 15.6466 16.0032 15.3775C16.2682 15.1757 16.4638 14.8394 16.8551 14.1669C17.2463 13.4944 17.4419 13.1581 17.4855 12.8294C17.5437 12.3912 17.424 11.9479 17.1529 11.5972C17.0291 11.4372 16.8552 11.3027 16.5853 11.1343C16.1884 10.8868 15.9331 10.4652 15.9331 10.0002C15.9331 9.53508 16.1885 9.11358 16.5853 8.86616C16.8552 8.69775 17.0292 8.56316 17.153 8.40308C17.4241 8.05241 17.5438 7.60925 17.4856 7.171C17.442 6.84233 17.2464 6.506 16.8552 5.8335C16.4639 5.161 16.2683 4.82467 16.0033 4.62292C15.6499 4.35383 15.2033 4.23508 14.7618 4.29275C14.5602 4.31908 14.3558 4.40133 14.0739 4.54916C13.6596 4.7665 13.1641 4.77517 12.7582 4.54267C12.3524 4.31008 12.1122 3.87992 12.0947 3.41508C12.0828 3.09892 12.0523 2.88208 11.9745 2.69567C11.8041 2.28733 11.4772 1.96283 11.0657 1.79367C10.7571 1.66683 10.3658 1.66683 9.58334 1.66683C8.80084 1.66683 8.40959 1.66683 8.101 1.79367C7.6895 1.96283 7.36259 2.28733 7.19217 2.69567C7.11434 2.88208 7.08384 3.09892 7.07192 3.41516C7.05442 3.87992 6.81434 4.31008 6.4085 4.54267C6.00267 4.77525 5.50717 4.7665 5.09284 4.54916C4.81092 4.40133 4.60659 4.31916 4.405 4.29283C3.96342 4.23508 3.51684 4.35383 3.1635 4.62292C2.89842 4.82475 2.70284 5.161 2.31159 5.83358C1.92034 6.50608 1.72475 6.84233 1.68109 7.171C1.623 7.60925 1.74267 8.0525 2.01375 8.40316C2.13759 8.56325 2.3115 8.69783 2.5815 8.86616C2.97825 9.11358 3.23359 9.53516 3.23359 10.0002C3.23359 10.4653 2.97825 10.8867 2.5815 11.1342C2.31142 11.3026 2.1375 11.4371 2.01367 11.5972C1.74259 11.9479 1.62292 12.3911 1.681 12.8294C1.72467 13.158 1.92025 13.4943 2.3115 14.1668C2.70275 14.8394 2.89834 15.1756 3.16342 15.3774C3.51675 15.6465 3.96334 15.7653 4.40492 15.7076C4.6065 15.6813 4.81092 15.599 5.09275 15.4512C5.50709 15.2338 6.00259 15.2251 6.40842 15.4577C6.81425 15.6902 7.05442 16.1204 7.072 16.5852C7.08392 16.9014 7.11434 17.1182 7.19217 17.3046C7.36259 17.713 7.6895 18.0375 8.101 18.2066ZM9.58334 7.50016C8.19209 7.50016 7.06434 8.61941 7.06434 10.0002C7.06434 11.3809 8.19209 12.5002 9.58334 12.5002C10.9746 12.5002 12.1024 11.3809 12.1024 10.0002C12.1024 8.61941 10.9746 7.50016 9.58334 7.50016Z" fill="#6E82A5"/>
</svg>
