<svg width="18" height="18" viewBox="0 0 18 18" fill="none" xmlns="http://www.w3.org/2000/svg">
<path d="M6.62697 10.0879H11.3742C11.9741 10.0879 12.4621 9.59986 12.4621 9.00001V5.04397C12.4621 4.44411 11.9741 3.95605 11.3742 3.95605H6.62697C6.02712 3.95605 5.53906 4.44411 5.53906 5.04397V9.00001C5.53906 9.59986 6.02712 10.0879 6.62697 10.0879ZM6.13247 5.04397C6.13247 4.77128 6.35428 4.54946 6.62697 4.54946H11.3742C11.6469 4.54946 11.8687 4.77128 11.8687 5.04397V9.00001C11.8687 9.2727 11.6469 9.49452 11.3742 9.49452H6.62697C6.35428 9.49452 6.13247 9.2727 6.13247 9.00001V5.04397Z" fill="#6E82A5"/>
<path d="M17.8472 8.74165C17.7541 8.689 17.6401 8.69038 17.5484 8.74541L9.63628 13.4927C9.52191 13.5613 9.46735 13.6978 9.503 13.8263C9.53856 13.9548 9.65554 14.0438 9.78894 14.0438H17.701C17.8649 14.0438 17.9977 13.911 17.9977 13.7471V8.99986C17.9977 8.89293 17.9403 8.79431 17.8472 8.74165ZM17.4043 13.4504H10.8601L17.4043 9.52384V13.4504Z" fill="#6E82A5"/>
<path d="M8.36142 13.4927L0.449327 8.74541C0.357706 8.69038 0.243574 8.689 0.150488 8.74165C0.0574813 8.79434 0 8.89297 0 8.99986V13.7471C0 13.911 0.132804 14.0438 0.296703 14.0438H8.20879C8.34215 14.0438 8.45913 13.9548 8.49473 13.8263C8.53034 13.6978 8.47579 13.5613 8.36142 13.4927ZM0.593407 13.4504V9.52388L7.13761 13.4504H0.593407Z" fill="#6E82A5"/>
</svg>
