<svg width="23" height="23" viewBox="0 0 23 23" fill="none" xmlns="http://www.w3.org/2000/svg">
<path d="M11.5575 18.2848C8.3375 18.2848 5.75 15.6973 5.75 12.4773C5.75 10.1486 7.13 8.04984 9.2575 7.15859C9.57375 7.01484 9.91875 7.15859 10.0625 7.47484C10.2063 7.79109 10.0625 8.13609 9.74625 8.27984C8.05 8.99859 6.9575 10.6661 6.9575 12.4773C6.9575 15.0073 9.0275 17.0773 11.5575 17.0773C14.0875 17.0773 16.1575 15.0073 16.1575 12.4773C16.1575 10.6373 15.065 8.96984 13.3688 8.25109C13.0525 8.10734 12.9088 7.76234 13.0525 7.44609C13.1963 7.12984 13.5413 6.98609 13.8575 7.12984C15.985 8.04984 17.365 10.1486 17.365 12.4486C17.3363 15.6973 14.7488 18.2848 11.5575 18.2848ZM11.5575 10.9248C11.2125 10.9248 10.9538 10.6661 10.9538 10.3211V5.31859C10.9538 4.97359 11.2125 4.71484 11.5575 4.71484C11.9025 4.71484 12.1613 4.97359 12.1613 5.31859V10.3498C12.1613 10.6661 11.8738 10.9248 11.5575 10.9248Z" fill="#6E82A5"/>
</svg>
