<svg width="23" height="18" viewBox="0 0 23 18" fill="none" xmlns="http://www.w3.org/2000/svg">
<path fill-rule="evenodd" clip-rule="evenodd" d="M21.25 0C21.9403 0 22.5 0.55965 22.5 1.25C22.5 1.94035 21.9403 2.5 21.25 2.5H1.25C0.559626 2.5 0 1.94035 0 1.25C0 0.55965 0.559626 0 1.25 0H21.25ZM22.5 8.75C22.5 8.05962 21.9403 7.5 21.25 7.5H1.25C0.559626 7.5 0 8.05962 0 8.75C0 9.44038 0.559626 10 1.25 10H21.25C21.9403 10 22.5 9.44038 22.5 8.75ZM22.5 16.25C22.5 15.5596 21.9403 15 21.25 15H1.25C0.559626 15 0 15.5596 0 16.25C0 16.9404 0.559626 17.5 1.25 17.5H21.25C21.9403 17.5 22.5 16.9404 22.5 16.25Z" fill="#6E82A5"/>
</svg>
