<svg width="20" height="20" viewBox="0 0 20 20" fill="none" xmlns="http://www.w3.org/2000/svg">
<path d="M5.7907 18.3337C4.69762 18.3291 3.65012 17.8951 2.87403 17.1253C2.486 16.7451 2.17773 16.2913 1.96728 15.7905C1.75684 15.2897 1.64844 14.7519 1.64844 14.2087C1.64844 13.6654 1.75684 13.1276 1.96728 12.6268C2.17773 12.126 2.486 11.6722 2.87403 11.292L5.87403 8.292C6.25422 7.90397 6.70802 7.5957 7.20885 7.38525C7.70967 7.17481 8.24746 7.06641 8.7907 7.06641C9.33394 7.06641 9.87173 7.17481 10.3726 7.38525C10.8734 7.5957 11.3272 7.90397 11.7074 8.292C11.8277 8.45248 11.8862 8.65098 11.8719 8.85108C11.8577 9.05117 11.7718 9.23941 11.63 9.38126C11.4881 9.5231 11.2999 9.60902 11.0998 9.62324C10.8997 9.63746 10.7012 9.57903 10.5407 9.45867C10.0734 9.0006 9.44508 8.74403 8.7907 8.74403C8.13632 8.74403 7.50802 9.0006 7.0407 9.45867L4.0407 12.4587C3.57657 12.9228 3.31583 13.5523 3.31583 14.2087C3.31583 14.865 3.57657 15.4945 4.0407 15.9587C4.50483 16.4228 5.13432 16.6835 5.7907 16.6835C6.44708 16.6835 7.07657 16.4228 7.5407 15.9587L9.4157 14.0003C9.57618 13.88 9.77468 13.8215 9.97477 13.8358C10.1749 13.85 10.3631 13.9359 10.505 14.0777C10.6468 14.2196 10.7327 14.4078 10.7469 14.6079C10.7612 14.808 10.7027 15.0065 10.5824 15.167L8.70737 17.1253C7.93128 17.8951 6.88378 18.3291 5.7907 18.3337Z" fill="#6E82A5"/>
<path d="M11.2083 12.9168C10.1153 12.9122 9.06775 12.4783 8.29167 11.7085C8.17131 11.548 8.11288 11.3495 8.1271 11.1494C8.14132 10.9493 8.22724 10.7611 8.36908 10.6192C8.51092 10.4774 8.69917 10.3915 8.89926 10.3773C9.09935 10.363 9.29786 10.4215 9.45833 10.5418C9.92566 10.9999 10.554 11.2565 11.2083 11.2565C11.8627 11.2565 12.491 10.9999 12.9583 10.5418L15.9583 7.54183C16.4225 7.0777 16.6832 6.4482 16.6832 5.79183C16.6832 5.13545 16.4225 4.50595 15.9583 4.04183C15.4942 3.5777 14.8647 3.31695 14.2083 3.31695C13.552 3.31695 12.9225 3.5777 12.4583 4.04183L10.5833 6.00016C10.4229 6.12052 10.2244 6.17895 10.0243 6.16473C9.82417 6.15051 9.63592 6.06459 9.49408 5.92275C9.35224 5.78091 9.26632 5.59266 9.2521 5.39257C9.23788 5.19248 9.29631 4.99397 9.41667 4.83349L11.2917 2.87516C12.0679 2.11448 13.1129 1.69085 14.1997 1.69634C15.2865 1.70183 16.3272 2.13599 17.0957 2.90447C17.8642 3.67296 18.2983 4.71367 18.3038 5.80046C18.3093 6.88724 17.8857 7.93228 17.125 8.70849L14.125 11.7085C13.3489 12.4783 12.3014 12.9122 11.2083 12.9168Z" fill="#6E82A5"/>
</svg>
