<svg width="19" height="19" viewBox="0 0 19 19" fill="none" xmlns="http://www.w3.org/2000/svg">
<path fill-rule="evenodd" clip-rule="evenodd" d="M2.74531 2.74287C1.58594 3.90223 1.58594 5.76821 1.58594 9.50016C1.58594 13.2321 1.58594 15.0981 2.74531 16.2574C3.90467 17.4168 5.77065 17.4168 9.5026 17.4168C13.2345 17.4168 15.1006 17.4168 16.2599 16.2574C17.4193 15.0981 17.4193 13.2321 17.4193 9.50016C17.4193 5.76821 17.4193 3.90223 16.2599 2.74287C15.1006 1.5835 13.2345 1.5835 9.5026 1.5835C5.77065 1.5835 3.90467 1.5835 2.74531 2.74287ZM7.88125 4.94808C7.54094 4.94802 7.22279 4.94797 6.96287 4.9868C6.66924 5.03067 6.3676 5.13436 6.12648 5.40227C5.89342 5.66123 5.81114 5.96981 5.77547 6.26457C5.74213 6.54009 5.74216 6.88163 5.74219 7.2673V7.71891C5.74219 8.04682 6.00802 8.31266 6.33594 8.31266C6.66385 8.31266 6.92969 8.04682 6.92969 7.71891V7.30109C6.92969 6.87128 6.93071 6.60275 6.95437 6.40722C6.96547 6.31549 6.97935 6.26263 6.99057 6.23233C7.00003 6.20677 7.00679 6.19928 7.00904 6.19678L7.00968 6.19604C7.01075 6.19474 7.01155 6.19379 7.01869 6.19052C7.03184 6.1845 7.0656 6.17213 7.13832 6.16127C7.29991 6.13713 7.52748 6.13558 7.91927 6.13558H8.90885V12.8647H7.52344C7.19552 12.8647 6.92969 13.1306 6.92969 13.4585C6.92969 13.7864 7.19552 14.0522 7.52344 14.0522H11.8776C12.2055 14.0522 12.4714 13.7864 12.4714 13.4585C12.4714 13.1306 12.2055 12.8647 11.8776 12.8647H10.0964V6.13558H11.0859C11.4777 6.13558 11.7053 6.13713 11.8669 6.16127C11.9396 6.17213 11.9734 6.1845 11.9865 6.19052C11.9937 6.19379 11.9945 6.19474 11.9956 6.19604C11.9979 6.19853 12.0051 6.20677 12.0146 6.23233C12.0259 6.26263 12.0397 6.31549 12.0508 6.40722C12.0745 6.60275 12.0755 6.87128 12.0755 7.30109V7.71891C12.0755 8.04682 12.3414 8.31266 12.6693 8.31266C12.9972 8.31266 13.263 8.04682 13.263 7.71891V7.26729C13.263 6.88163 13.2631 6.54009 13.2298 6.26457C13.1941 5.96981 13.1118 5.66123 12.8787 5.40227C12.6376 5.13436 12.336 5.03067 12.0423 4.9868C11.7824 4.94797 11.4643 4.94802 11.1239 4.94808H7.88125Z" fill="#6E82A5"/>
</svg>
