<svg width="22" height="22" viewBox="0 0 22 22" fill="none" xmlns="http://www.w3.org/2000/svg">
<g clip-path="url(#clip0_3463_33706)">
<path fill-rule="evenodd" clip-rule="evenodd" d="M4.58594 8.7085C4.58594 6.43032 6.43276 4.5835 8.71094 4.5835C10.9891 4.5835 12.8359 6.43032 12.8359 8.7085C12.8359 10.9867 10.9891 12.8335 8.71094 12.8335C6.43276 12.8335 4.58594 10.9867 4.58594 8.7085Z" fill="#6E82A5"/>
<path d="M13.1706 11.0579C13.1289 11.1369 13.1466 11.2355 13.2184 11.2887C13.7515 11.6833 14.4113 11.9167 15.1254 11.9167C16.8973 11.9167 18.3338 10.4802 18.3338 8.70833C18.3338 6.93642 16.8973 5.5 15.1254 5.5C14.4113 5.5 13.7515 5.73338 13.2184 6.12804C13.1466 6.1812 13.1289 6.2797 13.1706 6.35872C13.5409 7.06034 13.7504 7.85987 13.7504 8.70833C13.7504 9.5568 13.5409 10.3563 13.1706 11.0579Z" fill="#6E82A5"/>
<path fill-rule="evenodd" clip-rule="evenodd" d="M4.25117 14.391C5.38084 13.9007 6.86303 13.75 8.70507 13.75C10.5487 13.75 12.032 13.901 13.162 14.3924C14.393 14.9276 15.1412 15.8394 15.5334 17.1266C15.7172 17.73 15.264 18.3333 14.6394 18.3333H2.77246C2.14719 18.3333 1.69303 17.7291 1.87739 17.1246C2.27006 15.8372 3.01938 14.9257 4.25117 14.391Z" fill="#6E82A5"/>
<path d="M13.5816 12.8666C13.2021 12.8901 13.1798 13.4 13.5285 13.5516C14.4841 13.9671 15.2035 14.5788 15.7195 15.3595C16.1429 16.0002 16.8005 16.4999 17.5684 16.4999H19.2006C19.8488 16.4999 20.3218 15.8557 20.0938 15.2264C20.0807 15.1902 20.067 15.1543 20.0529 15.1186C19.739 14.3261 19.201 13.7426 18.4045 13.3707C17.6565 13.0216 16.7203 12.8775 15.6172 12.8339L15.5991 12.8332H15.581C14.9313 12.8332 14.2527 12.8249 13.5816 12.8666Z" fill="#6E82A5"/>
</g>
<defs>
<clipPath id="clip0_3463_33706">
<rect width="22" height="22" fill="white"/>
</clipPath>
</defs>
</svg>
