<svg width="19" height="19" viewBox="0 0 19 19" fill="none" xmlns="http://www.w3.org/2000/svg">
<path d="M16.312 3.38475L13.0381 0.110846C12.9671 0.0398926 12.8709 0 12.7705 0H2.94879C2.73975 0 2.57031 0.169441 2.57031 0.378479V18.6215C2.57031 18.8306 2.73975 19 2.94879 19H16.0444C16.2534 19 16.4229 18.8306 16.4229 18.6215V3.65238C16.4229 3.552 16.383 3.45574 16.312 3.38475ZM13.149 1.29226L15.1306 3.2739H13.149V1.29226ZM15.6659 18.243H3.32727V0.756957H12.392V3.65238C12.392 3.86142 12.5615 4.03086 12.7705 4.03086H15.6659V18.243Z" fill="#0244CE"/>
<path d="M10.4623 16.8804H4.42535C4.21632 16.8804 4.04688 17.0498 4.04688 17.2588C4.04688 17.4679 4.21632 17.6373 4.42535 17.6373H10.4623C10.6713 17.6373 10.8408 17.4679 10.8408 17.2588C10.8408 17.0498 10.6713 16.8804 10.4623 16.8804Z" fill="#0244CE"/>
<path d="M12.3985 16.8804H11.9879C11.7789 16.8804 11.6094 17.0498 11.6094 17.2588C11.6094 17.4679 11.7789 17.6373 11.9879 17.6373H12.3985C12.6075 17.6373 12.777 17.4679 12.777 17.2588C12.777 17.0498 12.6075 16.8804 12.3985 16.8804Z" fill="#0244CE"/>
<path d="M11.5605 9.76488L14.3711 6.29389C14.4628 6.18049 14.4814 6.02444 14.4185 5.89278C14.3557 5.76108 14.2228 5.67725 14.0769 5.67725H10.9244C10.8102 5.67725 10.7021 5.72879 10.6303 5.81756L9.49724 7.2168L8.36422 5.81756C8.29238 5.72879 8.18428 5.67725 8.07009 5.67725H4.91757C4.7717 5.67725 4.63877 5.76108 4.57595 5.89278C4.51312 6.02444 4.53164 6.18052 4.62341 6.29389L7.43396 9.76488L4.62341 13.2359C4.5316 13.3493 4.51312 13.5053 4.57595 13.637C4.63877 13.7686 4.77166 13.8525 4.91757 13.8525H8.07009C8.18428 13.8525 8.29238 13.801 8.36422 13.7122L9.49724 12.313L10.6302 13.7122C10.7021 13.801 10.8102 13.8526 10.9244 13.8526H14.0769C14.2228 13.8526 14.3557 13.7687 14.4185 13.637C14.4813 13.5054 14.4628 13.3493 14.371 13.2359L11.5605 9.76488ZM11.1049 6.4342H13.2835L11.0735 9.16341L9.98427 7.8182L11.1049 6.4342ZM7.88955 13.0956H5.71101L7.92095 10.3663L9.01018 11.7116L7.88955 13.0956ZM11.1049 13.0956L5.71101 6.4342H7.88955L13.2834 13.0956H11.1049Z" fill="#0244CE"/>
</svg>
