<svg width="18" height="18" viewBox="0 0 18 18" fill="none" xmlns="http://www.w3.org/2000/svg">
<path d="M6.3135 13.5H2.8125C2.66332 13.5 2.52024 13.4407 2.41475 13.3352C2.30926 13.2298 2.25 13.0867 2.25 12.9375V3.375H1.125C0.975816 3.375 0.832742 3.31574 0.727252 3.21025C0.621763 3.10476 0.5625 2.96168 0.5625 2.8125C0.5625 2.66332 0.621763 2.52024 0.727252 2.41475C0.832742 2.30926 0.975816 2.25 1.125 2.25H16.875C17.0242 2.25 17.1673 2.30926 17.2727 2.41475C17.3782 2.52024 17.4375 2.66332 17.4375 2.8125C17.4375 2.96168 17.3782 3.10476 17.2727 3.21025C17.1673 3.31574 17.0242 3.375 16.875 3.375H15.75V12.9375C15.75 13.0867 15.6907 13.2298 15.5852 13.3352C15.4798 13.4407 15.3367 13.5 15.1875 13.5H11.6932L13.6418 16.875H12.3435L10.395 13.5H7.61175L5.66325 16.875H4.365L6.3135 13.5ZM14.625 3.375H3.375V12.375H14.625V3.375ZM6.02325 9.39825C5.97095 9.45055 5.90886 9.49203 5.84053 9.52034C5.7722 9.54864 5.69896 9.56321 5.625 9.56321C5.55104 9.56321 5.4778 9.54864 5.40947 9.52034C5.34114 9.49203 5.27905 9.45055 5.22675 9.39825C5.17445 9.34595 5.13297 9.28386 5.10466 9.21553C5.07636 9.1472 5.06179 9.07396 5.06179 9C5.06179 8.92604 5.07636 8.8528 5.10466 8.78447C5.13297 8.71614 5.17445 8.65405 5.22675 8.60175L7.82212 6.0075L10.0271 7.66125L11.9362 5.274C11.9809 5.2124 12.0377 5.1605 12.103 5.12146C12.1683 5.08242 12.2409 5.05703 12.3163 5.04685C12.3917 5.03666 12.4684 5.04188 12.5417 5.0622C12.6151 5.08252 12.6835 5.11751 12.743 5.16505C12.8024 5.21259 12.8515 5.27169 12.8875 5.33878C12.9234 5.40587 12.9453 5.47956 12.9519 5.55537C12.9586 5.63119 12.9497 5.70755 12.926 5.77985C12.9022 5.85215 12.864 5.91888 12.8138 5.976L10.224 9.21488L7.92788 7.4925L6.02325 9.39712V9.39825Z" fill="#6E82A5"/>
</svg>
