<svg width="23" height="23" viewBox="0 0 23 23" fill="none" xmlns="http://www.w3.org/2000/svg">
<path fill-rule="evenodd" clip-rule="evenodd" d="M14.461 1.9165H3.91935V12.4582H5.83602V10.5415V9.53525V3.83317H13.6656L17.336 7.50359V9.53525V10.5415V12.4582H19.2527V6.70817L14.461 1.9165ZM3.84375 20.1248V14.3761H5.13794V19.1106H7.60865V20.1248H3.84375ZM10.7244 14.2746C11.6278 14.2746 12.3202 14.5613 12.8016 15.1347C13.2641 15.6838 13.4954 16.3897 13.4954 17.2525C13.4954 18.1964 13.2222 18.947 12.6759 19.5041C12.2052 19.9855 11.5548 20.2263 10.7244 20.2263C9.82107 20.2263 9.12868 19.9396 8.64725 19.3662C8.18475 18.8171 7.9535 18.1004 7.9535 17.216C7.9535 16.291 8.22667 15.5499 8.77301 14.9927C9.24633 14.514 9.8968 14.2746 10.7244 14.2746ZM10.7204 15.2889C10.2525 15.2889 9.89139 15.4836 9.63716 15.8731C9.40726 16.2247 9.29231 16.6764 9.29231 17.2281C9.29231 17.8664 9.4289 18.3614 9.70207 18.713C9.95901 19.0457 10.2998 19.212 10.7244 19.212C11.1896 19.212 11.5521 19.0159 11.8117 18.6237C12.0416 18.2775 12.1566 17.8205 12.1566 17.2525C12.1566 16.6277 12.02 16.1395 11.7468 15.7879C11.4899 15.4552 11.1477 15.2889 10.7204 15.2889ZM19.2928 16.9076V19.8408C18.9629 19.9517 18.7303 20.0248 18.595 20.0599C18.1758 20.1708 17.7255 20.2263 17.244 20.2263C16.2974 20.2263 15.5766 19.9883 15.0817 19.5122C14.5326 18.9875 14.2581 18.2559 14.2581 17.3174C14.2581 16.2382 14.5989 15.4241 15.2805 14.8751C15.7754 14.4748 16.4435 14.2746 17.2846 14.2746C18.0041 14.2746 18.6735 14.4058 19.2928 14.6682L18.8506 15.6784C18.5585 15.5323 18.3029 15.4302 18.0838 15.3721C17.8648 15.3139 17.6241 15.2848 17.3617 15.2848C16.7342 15.2848 16.2717 15.489 15.9742 15.8974C15.7227 16.2436 15.5969 16.6994 15.5969 17.2646C15.5969 17.9435 15.7862 18.4547 16.1649 18.7982C16.4678 19.0741 16.8438 19.212 17.2927 19.212C17.5551 19.212 17.8039 19.1674 18.0392 19.0781V17.9219H17.0493V16.9076H19.2928Z" fill="#6E82A5"/>
</svg>
