<svg width="14" height="14" viewBox="0 0 14 14" fill="none" xmlns="http://www.w3.org/2000/svg">
<path d="M2 12.5C2 12.8094 2.12292 13.1062 2.34171 13.325C2.5605 13.5438 2.85725 13.6667 3.16667 13.6667H11.3333C11.6428 13.6667 11.9395 13.5438 12.1583 13.325C12.3771 13.1062 12.5 12.8094 12.5 12.5C12.4942 11.4372 12.1259 10.4083 11.4558 9.58333C11.2715 9.35784 11.0094 9.20946 10.7212 9.16736C10.433 9.12526 10.1395 9.19249 9.89833 9.35583C9.11798 9.88599 8.19633 10.1695 7.25292 10.1695C6.30951 10.1695 5.38786 9.88599 4.6075 9.35583C4.36587 9.19079 4.07104 9.12258 3.78147 9.16471C3.4919 9.20685 3.22874 9.35627 3.04417 9.58333C2.37415 10.4083 2.00579 11.4372 2 12.5ZM7.25 9C6.55777 9 5.88108 8.79473 5.3055 8.41014C4.72993 8.02556 4.28133 7.47893 4.01642 6.83939C3.75151 6.19985 3.6822 5.49612 3.81725 4.81719C3.9523 4.13825 4.28564 3.51461 4.77513 3.02513C5.26461 2.53564 5.88825 2.2023 6.56718 2.06725C7.24612 1.9322 7.94985 2.00152 8.58939 2.26642C9.22893 2.53133 9.77556 2.97993 10.1601 3.55551C10.5447 4.13108 10.75 4.80777 10.75 5.5C10.75 6.42826 10.3813 7.3185 9.72487 7.97487C9.0685 8.63125 8.17826 9 7.25 9Z" fill="white"/>
</svg>
