<svg width="17" height="17" viewBox="0 0 17 17" fill="none" xmlns="http://www.w3.org/2000/svg">
<path d="M7.4375 2.65625C7.4375 2.51535 7.49347 2.38023 7.5931 2.2806C7.69273 2.18097 7.82785 2.125 7.96875 2.125H15.4062C15.5471 2.125 15.6823 2.18097 15.7819 2.2806C15.8815 2.38023 15.9375 2.51535 15.9375 2.65625V3.71875C15.9375 3.85965 15.8815 3.99477 15.7819 4.0944C15.6823 4.19403 15.5471 4.25 15.4062 4.25H7.96875C7.82785 4.25 7.69273 4.19403 7.5931 4.0944C7.49347 3.99477 7.4375 3.85965 7.4375 3.71875V2.65625ZM2.125 1.0625C1.56141 1.0625 1.02091 1.28638 0.622398 1.6849C0.223883 2.08341 0 2.62391 0 3.1875L0 5.3125C0 5.87609 0.223883 6.41659 0.622398 6.8151C1.02091 7.21362 1.56141 7.4375 2.125 7.4375H4.25C4.81359 7.4375 5.35409 7.21362 5.7526 6.8151C6.15112 6.41659 6.375 5.87609 6.375 5.3125V3.1875C6.375 2.62391 6.15112 2.08341 5.7526 1.6849C5.35409 1.28638 4.81359 1.0625 4.25 1.0625H2.125ZM2.125 9.5625C1.56141 9.5625 1.02091 9.78638 0.622398 10.1849C0.223883 10.5834 0 11.1239 0 11.6875L0 13.8125C0 14.3761 0.223883 14.9166 0.622398 15.3151C1.02091 15.7136 1.56141 15.9375 2.125 15.9375H4.25C4.81359 15.9375 5.35409 15.7136 5.7526 15.3151C6.15112 14.9166 6.375 14.3761 6.375 13.8125V11.6875C6.375 11.1239 6.15112 10.5834 5.7526 10.1849C5.35409 9.78638 4.81359 9.5625 4.25 9.5625H2.125ZM3.03238 5.68863C2.98303 5.7381 2.9244 5.77735 2.85986 5.80413C2.79532 5.83091 2.72613 5.8447 2.65625 5.8447C2.58637 5.8447 2.51718 5.83091 2.45264 5.80413C2.3881 5.77735 2.32947 5.7381 2.28012 5.68863L1.21763 4.62613C1.16823 4.57673 1.12905 4.51809 1.10232 4.45356C1.07559 4.38902 1.06183 4.31985 1.06183 4.25C1.06183 4.18015 1.07559 4.11098 1.10232 4.04644C1.12905 3.98191 1.16823 3.92327 1.21763 3.87387C1.26702 3.82448 1.32566 3.7853 1.39019 3.75857C1.45473 3.73184 1.5239 3.71808 1.59375 3.71808C1.6636 3.71808 1.73277 3.73184 1.79731 3.75857C1.86184 3.7853 1.92048 3.82448 1.96987 3.87387L2.65625 4.56131L4.40512 2.81137C4.45452 2.76198 4.51316 2.7228 4.57769 2.69607C4.64223 2.66934 4.7114 2.65558 4.78125 2.65558C4.8511 2.65558 4.92027 2.66934 4.98481 2.69607C5.04934 2.7228 5.10798 2.76198 5.15738 2.81137C5.20677 2.86077 5.24595 2.91941 5.27268 2.98394C5.29941 3.04848 5.31317 3.11765 5.31317 3.1875C5.31317 3.25735 5.29941 3.32652 5.27268 3.39106C5.24595 3.45559 5.20677 3.51423 5.15738 3.56363L3.03238 5.68863ZM3.03238 14.1886C2.98303 14.2381 2.9244 14.2774 2.85986 14.3041C2.79532 14.3309 2.72613 14.3447 2.65625 14.3447C2.58637 14.3447 2.51718 14.3309 2.45264 14.3041C2.3881 14.2774 2.32947 14.2381 2.28012 14.1886L1.21763 13.1261C1.11787 13.0264 1.06183 12.8911 1.06183 12.75C1.06183 12.6089 1.11787 12.4736 1.21763 12.3739C1.31738 12.2741 1.45268 12.2181 1.59375 12.2181C1.73482 12.2181 1.87012 12.2741 1.96987 12.3739L2.65625 13.0613L4.40512 11.3114C4.50488 11.2116 4.64018 11.1556 4.78125 11.1556C4.92232 11.1556 5.05762 11.2116 5.15738 11.3114C5.25713 11.4111 5.31317 11.5464 5.31317 11.6875C5.31317 11.8286 5.25713 11.9639 5.15738 12.0636L3.03238 14.1886ZM7.4375 11.1562C7.4375 11.0154 7.49347 10.8802 7.5931 10.7806C7.69273 10.681 7.82785 10.625 7.96875 10.625H15.4062C15.5471 10.625 15.6823 10.681 15.7819 10.7806C15.8815 10.8802 15.9375 11.0154 15.9375 11.1562V12.2188C15.9375 12.3596 15.8815 12.4948 15.7819 12.5944C15.6823 12.694 15.5471 12.75 15.4062 12.75H7.96875C7.82785 12.75 7.69273 12.694 7.5931 12.5944C7.49347 12.4948 7.4375 12.3596 7.4375 12.2188V11.1562ZM7.4375 5.84375C7.4375 5.70285 7.49347 5.56773 7.5931 5.4681C7.69273 5.36847 7.82785 5.3125 7.96875 5.3125H13.2812C13.4221 5.3125 13.5573 5.36847 13.6569 5.4681C13.7565 5.56773 13.8125 5.70285 13.8125 5.84375C13.8125 5.98465 13.7565 6.11977 13.6569 6.2194C13.5573 6.31903 13.4221 6.375 13.2812 6.375H7.96875C7.82785 6.375 7.69273 6.31903 7.5931 6.2194C7.49347 6.11977 7.4375 5.98465 7.4375 5.84375ZM7.4375 14.3438C7.4375 14.2029 7.49347 14.0677 7.5931 13.9681C7.69273 13.8685 7.82785 13.8125 7.96875 13.8125H13.2812C13.4221 13.8125 13.5573 13.8685 13.6569 13.9681C13.7565 14.0677 13.8125 14.2029 13.8125 14.3438C13.8125 14.4846 13.7565 14.6198 13.6569 14.7194C13.5573 14.819 13.4221 14.875 13.2812 14.875H7.96875C7.82785 14.875 7.69273 14.819 7.5931 14.7194C7.49347 14.6198 7.4375 14.4846 7.4375 14.3438Z" fill="#6E82A5"/>
</svg>
