<svg width="15" height="16" viewBox="0 0 15 16" fill="none" xmlns="http://www.w3.org/2000/svg">
<path d="M9.07324 2.78311C9.07324 2.04518 8.75113 1.64108 8.03663 1.52981C5.84628 1.19599 3.65594 0.868019 1.47145 0.534197C0.540265 0.387784 0.00146413 0.83288 0.00146413 1.77578V14.543C0.00146413 14.6309 -0.0043924 14.7187 0.00732067 14.8066C0.0366033 15.1053 0.259152 15.3629 0.551978 15.3688C0.774527 15.3747 1.62958 15.3747 2.72475 15.3747V10.9178H6.3558V15.3688C7.66181 15.3629 8.75113 15.3629 9.07324 15.3629V10.7831C9.07324 8.11255 9.07324 5.44783 9.07324 2.78311ZM5.53589 3.05836C5.91071 3.02322 6.29724 3.02908 6.67206 3.06422C6.91218 3.08765 7.04102 3.28677 7.02345 3.52689C7.00588 3.77872 6.85947 3.9427 6.59592 3.96027C6.43194 3.97198 6.2621 3.96027 6.09812 3.96027C5.93413 3.96027 5.76429 3.97198 5.60031 3.96027C5.33677 3.9427 5.1845 3.79043 5.16107 3.5386C5.1435 3.28091 5.28406 3.07593 5.53589 3.05836ZM3.90192 9.1433C3.8902 9.39513 3.74379 9.55912 3.48025 9.58254C3.31626 9.59426 3.14642 9.58254 2.98244 9.58254C2.80674 9.58254 2.63105 9.59426 2.45535 9.57669C2.20938 9.55326 2.06296 9.40685 2.04539 9.16087C2.02783 8.9149 2.1391 8.70992 2.37922 8.68649C2.76575 8.65135 3.15814 8.65135 3.53881 8.68064C3.78479 8.70406 3.91363 8.90318 3.90192 9.1433ZM2.42607 4.9266C2.79503 4.89732 3.16399 4.89732 3.53295 4.93245C3.79064 4.95588 3.92534 5.16086 3.90192 5.41269C3.88435 5.66452 3.72622 5.82265 3.46268 5.83436C3.29869 5.84022 3.12885 5.83436 2.96487 5.83436C2.80674 5.83436 2.65447 5.84022 2.49635 5.83436C2.23866 5.82265 2.08053 5.68795 2.04539 5.4244C2.01611 5.17257 2.16838 4.94417 2.42607 4.9266ZM3.90192 7.26921C3.8902 7.52104 3.74379 7.68503 3.48025 7.70845C3.31626 7.72016 3.14642 7.70845 2.98244 7.70845C2.80674 7.70845 2.63105 7.72016 2.45535 7.7026C2.20938 7.67917 2.06296 7.53276 2.04539 7.28678C2.02783 7.04081 2.1391 6.83583 2.37922 6.8124C2.76575 6.77726 3.15814 6.77726 3.53881 6.80655C3.78479 6.82997 3.91363 7.02909 3.90192 7.26921ZM3.90192 3.52103C3.8902 3.77286 3.74379 3.93684 3.48025 3.95441C3.31626 3.96613 3.14642 3.95441 2.98244 3.95441C2.80674 3.95441 2.63105 3.96613 2.45535 3.94856C2.20938 3.92513 2.06296 3.77872 2.04539 3.53274C2.02783 3.28677 2.1391 3.08179 2.37922 3.05836C2.76575 3.02322 3.15814 3.02322 3.53881 3.05251C3.78479 3.08179 3.91363 3.28091 3.90192 3.52103ZM7.02931 9.14916C7.01174 9.40099 6.86532 9.56497 6.60178 9.58254C6.4378 9.59426 6.26796 9.58254 6.10397 9.58254C5.93999 9.58254 5.77015 9.5884 5.60617 9.58254C5.34262 9.56497 5.19035 9.4127 5.16693 9.16087C5.1435 8.90318 5.28406 8.70406 5.53589 8.68064C5.91071 8.6455 6.29724 8.65135 6.67206 8.68649C6.91218 8.70992 7.04102 8.90319 7.02931 9.14916ZM7.02931 7.28092C7.01174 7.53276 6.85947 7.69088 6.59592 7.70845C6.43194 7.72016 6.2621 7.70845 6.09812 7.70845C5.93413 7.70845 5.76429 7.72016 5.60031 7.70845C5.33677 7.69088 5.1845 7.53861 5.16693 7.28092C5.14936 7.02324 5.28991 6.82411 5.54175 6.80655C5.91071 6.77141 6.28553 6.77141 6.64863 6.80655C6.90046 6.82411 7.04102 7.02324 7.02931 7.28092ZM7.02345 5.41855C7.00002 5.67038 6.8419 5.82265 6.57835 5.83436C6.41437 5.84022 6.24453 5.83436 6.08055 5.83436C5.91656 5.83436 5.74672 5.84607 5.58274 5.8285C5.33677 5.81093 5.1845 5.65866 5.16107 5.41855C5.13764 5.16086 5.26649 4.95588 5.51832 4.93245C5.89314 4.89732 6.27967 4.89732 6.65449 4.93245C6.91217 4.95588 7.05273 5.16086 7.02345 5.41855Z" fill="#6E82A5"/>
<path d="M9.69531 15.3754C9.69531 12.3066 9.69531 9.28465 9.69531 6.22754C10.4215 6.37981 11.1243 6.52037 11.8329 6.66678C12.5474 6.81319 13.2619 6.96546 13.9764 7.11773C14.6792 7.26415 14.9955 7.64482 14.9955 8.35932C14.9955 10.292 14.9955 12.2188 14.9955 14.1514C14.9955 14.9303 14.5562 15.3754 13.789 15.3754C12.4362 15.3754 11.0775 15.3754 9.69531 15.3754ZM12.1843 9.74732C12.3308 9.74732 12.4772 9.74732 12.6236 9.74732C12.6411 9.74732 12.6646 9.74732 12.6821 9.74732C12.9398 9.71803 13.1214 9.53062 13.1214 9.28465C13.1214 9.04453 12.9398 8.8337 12.688 8.82198C12.3542 8.80441 12.0262 8.80441 11.6924 8.82198C11.4347 8.8337 11.2531 9.03868 11.2531 9.27879C11.2531 9.51891 11.4347 9.72389 11.6865 9.74732C11.8505 9.75903 12.0145 9.74732 12.1843 9.74732ZM12.1726 11.6214C12.3483 11.6214 12.524 11.639 12.6997 11.6156C12.9515 11.5863 13.1038 11.4223 13.1155 11.1646C13.1331 10.9245 12.9457 10.7019 12.6939 10.6902C12.3542 10.6726 12.0086 10.6668 11.669 10.6902C11.4171 10.7078 11.2649 10.8776 11.2531 11.1353C11.2356 11.3754 11.423 11.5863 11.6748 11.6097C11.8388 11.6331 12.0086 11.6214 12.1726 11.6214ZM12.1785 13.4955C12.3249 13.4955 12.4713 13.4955 12.6177 13.4955C12.6353 13.4955 12.6587 13.4955 12.6763 13.4955C12.934 13.4662 13.1155 13.2788 13.1155 13.0328C13.1155 12.7927 12.934 12.5819 12.6821 12.5702C12.3483 12.5526 12.0204 12.5526 11.6865 12.5702C11.4288 12.5819 11.2473 12.7869 11.2473 13.027C11.2473 13.2671 11.4288 13.4721 11.6807 13.4955C11.8505 13.5072 12.0145 13.4955 12.1785 13.4955Z" fill="#6E82A5"/>
</svg>
