<svg width="18" height="18" viewBox="0 0 18 18" fill="none" xmlns="http://www.w3.org/2000/svg">
<g clip-path="url(#clip0_3463_33969)">
<path d="M11.8125 1.125C11.022 1.1248 10.2424 1.30978 9.53621 1.66512C8.83004 2.02046 8.21692 2.53629 7.746 3.17125C7.27508 3.80621 6.95945 4.54266 6.8244 5.32157C6.68935 6.10048 6.73863 6.9002 6.96831 7.65664L1.125 13.5V16.875H4.5L10.3433 11.0316C11.0396 11.2431 11.7734 11.3019 12.4945 11.2041C13.2156 11.1063 13.9072 10.8541 14.5221 10.4649C15.1369 10.0756 15.6606 9.55836 16.0575 8.94838C16.4544 8.33839 16.7151 7.65002 16.8218 6.93017C16.9286 6.21031 16.8789 5.47591 16.6761 4.777C16.4734 4.07809 16.1223 3.4311 15.6469 2.88015C15.1715 2.32919 14.5828 1.88721 13.9211 1.58432C13.2594 1.28144 12.5402 1.12477 11.8125 1.125ZM11.8125 10.125C11.4252 10.1248 11.04 10.0675 10.6694 9.95501L10.0243 9.75938L9.54776 10.2359L7.75839 12.0254L6.98293 11.25L6.1875 12.0454L6.96302 12.8209L6.07095 13.713L5.29543 12.9375L4.5 13.7329L5.27552 14.5084L4.03402 15.75H2.25V13.966L7.76379 8.45218L8.24034 7.97552L8.04499 7.3305C7.80456 6.53793 7.82018 5.68972 8.08963 4.90654C8.35907 4.12336 8.86862 3.44509 9.54578 2.9682C10.2229 2.49131 11.0332 2.2401 11.8614 2.2503C12.6896 2.2605 13.4935 2.53158 14.1587 3.025C14.8239 3.51842 15.3166 4.20903 15.5667 4.99861C15.8167 5.78819 15.8115 6.63652 15.5516 7.42293C15.2917 8.20934 14.7905 8.89379 14.1192 9.3789C13.4479 9.86401 12.6407 10.1251 11.8125 10.125Z" fill="#6E82A5"/>
<path d="M12.375 6.75C12.9963 6.75 13.5 6.24632 13.5 5.625C13.5 5.00368 12.9963 4.5 12.375 4.5C11.7537 4.5 11.25 5.00368 11.25 5.625C11.25 6.24632 11.7537 6.75 12.375 6.75Z" fill="#6E82A5"/>
</g>
<defs>
<clipPath id="clip0_3463_33969">
<rect width="18" height="18" fill="white"/>
</clipPath>
</defs>
</svg>
