<svg width="17" height="17" viewBox="0 0 17 17" fill="none" xmlns="http://www.w3.org/2000/svg">
<path d="M4.25 0C3.68641 0 3.14591 0.223883 2.7474 0.622398C2.34888 1.02091 2.125 1.56141 2.125 2.125V14.875C2.125 15.4386 2.34888 15.9791 2.7474 16.3776C3.14591 16.7761 3.68641 17 4.25 17H12.75C13.3136 17 13.8541 16.7761 14.2526 16.3776C14.6511 15.9791 14.875 15.4386 14.875 14.875V2.125C14.875 1.56141 14.6511 1.02091 14.2526 0.622398C13.8541 0.223883 13.3136 0 12.75 0L4.25 0ZM4.25 1.0625H12.75C13.0318 1.0625 13.302 1.17444 13.5013 1.3737C13.7006 1.57296 13.8125 1.84321 13.8125 2.125V14.875C13.8125 15.1568 13.7006 15.427 13.5013 15.6263C13.302 15.8256 13.0318 15.9375 12.75 15.9375H4.25C3.96821 15.9375 3.69796 15.8256 3.4987 15.6263C3.29944 15.427 3.1875 15.1568 3.1875 14.875V2.125C3.1875 1.84321 3.29944 1.57296 3.4987 1.3737C3.69796 1.17444 3.96821 1.0625 4.25 1.0625Z" fill="#FF3B30"/>
<path d="M4.89402 12.8424C4.68631 12.7605 4.51914 12.6002 4.42864 12.3961C4.22145 11.9839 4.29052 11.5716 4.51364 11.2253C4.72402 10.8991 5.07252 10.6218 5.4667 10.3891C5.96608 10.106 6.49387 9.87633 7.04133 9.70376C7.46579 8.93901 7.84263 8.14877 8.1697 7.33757C7.97479 6.8942 7.82183 6.43354 7.71283 5.96164C7.62145 5.53664 7.58639 5.11589 7.66395 4.75464C7.74364 4.37851 7.95508 4.04064 8.35458 3.8802C8.55858 3.79839 8.77958 3.7527 8.9942 3.79839C9.10217 3.82137 9.20366 3.86809 9.29132 3.93517C9.37898 4.00225 9.45061 4.088 9.50102 4.1862C9.59452 4.36045 9.62852 4.56445 9.63595 4.75782C9.64339 4.95651 9.6232 5.17751 9.58602 5.4102C9.49677 5.95207 9.29914 6.61507 9.03352 7.31632C9.32688 7.9431 9.67533 8.54258 10.0748 9.1077C10.5477 9.07079 11.0233 9.08862 11.4921 9.16082C11.8789 9.22989 12.272 9.36801 12.5121 9.65489C12.6396 9.80789 12.7172 9.99488 12.7246 10.2053C12.7321 10.4093 12.6747 10.6111 12.578 10.8034C12.4943 10.9817 12.3644 11.1343 12.2019 11.2454C12.0411 11.35 11.8516 11.4013 11.66 11.3921C11.3083 11.3772 10.9651 11.1838 10.6687 10.949C10.3082 10.6511 9.98335 10.3123 9.70077 9.93963C8.98221 10.0209 8.2722 10.1653 7.57895 10.371C7.26114 10.9341 6.89836 11.4707 6.49414 11.9754C6.18602 12.3473 5.84814 12.6713 5.51027 12.8116C5.31596 12.8987 5.09604 12.9097 4.89402 12.8424ZM6.3592 10.8226C6.18212 10.904 6.01956 10.9883 5.87152 11.0754C5.52302 11.2816 5.2967 11.4824 5.18408 11.6566C5.0842 11.8107 5.08208 11.9223 5.14158 12.0402C5.15291 12.0629 5.16212 12.0784 5.1692 12.0869L5.20639 12.0742C5.35195 12.0147 5.58358 11.8245 5.88108 11.4664C6.0505 11.2595 6.21005 11.0446 6.3592 10.8226ZM8.1017 9.40945C8.45657 9.32697 8.81456 9.25856 9.17483 9.20439C8.98164 8.90816 8.80086 8.60402 8.63295 8.29276C8.4662 8.66947 8.28905 9.04149 8.1017 9.40838V9.40945ZM10.7006 9.88757C10.8607 10.0604 11.0147 10.2056 11.1628 10.3232C11.4178 10.5251 11.5952 10.592 11.6919 10.5952C11.7178 10.5992 11.7443 10.5936 11.7663 10.5793C11.8107 10.5446 11.8452 10.4988 11.8661 10.4464C11.9038 10.3817 11.9253 10.3088 11.9288 10.2339C11.9277 10.2091 11.918 10.1854 11.9012 10.167C11.846 10.1011 11.6887 10.0055 11.3508 9.94495C11.1358 9.90954 10.9185 9.89071 10.7006 9.88864V9.88757ZM8.5862 6.16245C8.67483 5.87378 8.7458 5.57999 8.7987 5.2827C8.83129 5.08295 8.84475 4.91826 8.83908 4.78864C8.83963 4.7171 8.82814 4.64598 8.80508 4.57826C8.75188 4.58458 8.69993 4.59891 8.65102 4.62076C8.55858 4.65795 8.48314 4.73339 8.44277 4.92145C8.40027 5.12545 8.41089 5.41976 8.49164 5.79482C8.51714 5.91311 8.54902 6.03566 8.58727 6.16245H8.5862Z" fill="#FF3B30"/>
</svg>
