<svg width="213" height="40" viewBox="0 0 213 40" fill="none" xmlns="http://www.w3.org/2000/svg">
<g clip-path="url(#clip0_3462_33623)">
<path d="M11.823 17.3161C11.2179 17.5961 9.77491 17.9695 7.95957 17.9695C2.69974 17.9695 0 14.6556 0 10.3149C0 5.08738 3.67723 2.24023 8.2854 2.24023C10.0542 2.24023 11.4041 2.61363 12.0092 2.94035L11.2644 5.64747C10.5662 5.36742 9.63527 5.08738 8.3785 5.08738C5.67876 5.08738 3.53759 6.72098 3.53759 10.1282C3.53759 13.1621 5.35293 15.1224 8.3785 15.1224C9.44908 15.1224 10.5662 14.9357 11.2644 14.609L11.823 17.3161Z" fill="#03488D"/>
<path d="M20.1995 17.9695C15.731 17.9695 13.0312 14.5623 13.0312 10.2216C13.0312 5.64747 15.9637 2.24023 20.4323 2.24023C25.087 2.24023 27.6471 5.74082 27.6471 9.94152C27.6936 14.9824 24.6681 17.9695 20.1995 17.9695ZM20.3857 15.2157C22.7131 15.2157 24.0164 13.022 24.0164 10.0349C24.0164 7.28108 22.7131 4.94735 20.3857 4.94735C18.0118 4.94735 16.7085 7.2344 16.7085 10.0815C16.6619 13.022 18.0583 15.2157 20.3857 15.2157Z" fill="#03488D"/>
<path d="M43.1494 11.9016C43.1029 10.0813 43.0098 7.88758 43.0098 5.64721H42.9632C42.4512 7.60753 41.8461 9.75456 41.241 11.5282L39.3791 17.4558H36.6794L35.0502 11.5749C34.5382 9.75456 34.0727 7.60753 33.6538 5.60053H33.6072C33.5607 7.65421 33.4676 10.0346 33.3745 11.9016L33.1418 17.7359H29.9766L30.9541 2.52002H35.5157L37.0052 7.60753C37.5172 9.33449 37.9361 11.2481 38.3085 13.0218H38.4016C38.8205 11.2481 39.3326 9.28782 39.8446 7.56086L41.4272 2.52002H45.9423L46.7336 17.7359H43.3822L43.1494 11.9016Z" fill="#03488D"/>
<path d="M53.1089 2.47363V11.2018C53.1089 13.8622 54.1329 15.1691 55.8552 15.1691C57.6705 15.1691 58.648 13.9089 58.648 11.2018V2.47363H62.0925V11.0151C62.0925 15.7292 59.7186 17.9695 55.7621 17.9695C51.9452 17.9695 49.7109 15.8225 49.7109 10.9684V2.47363H53.1089Z" fill="#03488D"/>
<path d="M65.4453 17.7362V2.47363H69.4484L72.6136 8.07457C73.498 9.6615 74.3824 11.5751 75.0806 13.3021H75.1271C74.9409 11.2951 74.8478 9.24143 74.8478 6.90771V2.47363H78.0131V17.7362H74.3824L71.1241 11.8552C70.2397 10.2216 69.2156 8.26126 68.4709 6.48763H68.4243C68.5174 8.54131 68.564 10.6883 68.564 13.1621V17.7362H65.4453Z" fill="#03488D"/>
<path d="M84.8117 2.47363V17.7362H81.3672V2.47363H84.8117Z" fill="#03488D"/>
<path d="M88.1169 2.70709C89.3736 2.47372 91.0028 2.38037 92.725 2.38037C95.611 2.38037 97.5194 2.84712 98.9624 3.9673C100.545 5.13416 101.522 7.04781 101.522 9.75493C101.522 12.6487 100.452 14.7024 99.0089 15.916C97.4263 17.2695 94.9593 17.8763 91.9803 17.8763C90.2115 17.8763 88.9082 17.7829 88.0703 17.6429V2.70709H88.1169ZM91.5148 15.1225C91.7941 15.2158 92.3061 15.2158 92.725 15.2158C95.8437 15.2158 97.8918 13.5356 97.8918 9.89496C97.8918 6.62775 96.0299 5.04081 93.0509 5.04081C92.3061 5.04081 91.7941 5.08749 91.5148 5.18084V15.1225Z" fill="#03488D"/>
<path d="M107.663 13.8152L106.592 17.7359H103.008L107.663 2.52002H112.131L116.925 17.7359H113.248L112.085 13.8152H107.663ZM111.526 11.2481L110.595 8.02761C110.362 7.14079 110.083 5.97393 109.85 5.08711H109.804C109.618 5.97393 109.338 7.14079 109.105 8.02761L108.175 11.2481H111.526Z" fill="#03488D"/>
<path d="M119.304 2.70709C120.561 2.47372 122.19 2.38037 123.913 2.38037C126.798 2.38037 128.707 2.84712 130.15 3.9673C131.732 5.13416 132.71 7.04781 132.71 9.75493C132.71 12.6487 131.639 14.7024 130.196 15.916C128.614 17.2695 126.147 17.8763 123.168 17.8763C121.399 17.8763 120.096 17.7829 119.258 17.6429V2.70709H119.304ZM122.702 15.1225C122.982 15.2158 123.494 15.2158 123.913 15.2158C127.031 15.2158 129.079 13.5356 129.079 9.89496C129.079 6.62775 127.217 5.04081 124.238 5.04081C123.494 5.04081 122.982 5.08749 122.702 5.18084V15.1225Z" fill="#03488D"/>
<path d="M53.9519 35.9388L52.8813 39.8594H49.3438L53.9985 24.6436H58.467L63.2148 39.8594H59.5376L58.3739 35.9388H53.9519ZM57.8153 33.3717L56.8844 30.1511C56.6517 29.2643 56.3724 28.0975 56.1396 27.2106H56.0931C55.9069 28.0975 55.6276 29.2643 55.3949 30.1511L54.4639 33.3717H57.8153Z" fill="#03488D"/>
<path d="M65.5859 39.8594V24.6436H69.589L72.7542 30.2445C73.6386 31.8314 74.523 33.7451 75.2212 35.472H75.2678C75.0816 33.465 74.9885 31.4113 74.9885 29.0776V24.6436H78.1537V39.8594H74.523L71.2647 33.9784C70.3803 32.3448 69.3563 30.3845 68.6115 28.6109H68.5184C68.6115 30.6646 68.6581 32.8116 68.6581 35.2853V39.8594H65.5859Z" fill="#03488D"/>
<path d="M81.4606 24.8306C82.7174 24.5973 84.3465 24.5039 86.0688 24.5039C88.9547 24.5039 90.8631 24.9707 92.3061 26.0908C93.8887 27.2577 94.8662 29.1714 94.8662 31.8785C94.8662 34.819 93.7956 36.826 92.3527 38.0395C90.7701 39.3931 88.3031 39.9998 85.324 39.9998C83.5552 39.9998 82.2519 39.9065 81.4141 39.7664V24.8306H81.4606ZM84.9051 37.246C85.1844 37.3394 85.6964 37.3394 86.1153 37.3394C89.234 37.3861 91.2821 35.6591 91.2821 32.0185C91.2821 28.7513 89.4202 27.1644 86.4412 27.1644C85.6964 27.1644 85.1844 27.2577 84.9051 27.3044V37.246Z" fill="#03488D"/>
<path d="M100.96 24.6436V39.8594H97.5156V24.6436H100.96Z" fill="#03488D"/>
<path d="M104.266 39.8594V24.6436H108.269L111.434 30.2445C112.318 31.8314 113.203 33.7451 113.901 35.472H113.947C113.761 33.465 113.668 31.4113 113.668 29.0776V24.6436H116.833V39.8594H113.203L109.944 33.9784C109.06 32.3448 108.036 30.3845 107.291 28.6109H107.198C107.291 30.6646 107.338 32.8116 107.338 35.2853V39.8594H104.266Z" fill="#03488D"/>
<path d="M123.725 35.9388L122.654 39.8594H119.07L123.725 24.6436H128.194L132.941 39.8594H129.264L128.1 35.9388H123.725ZM127.542 33.3717L126.611 30.1511C126.378 29.2643 126.099 28.0975 125.866 27.2106H125.82C125.633 28.0975 125.354 29.2643 125.121 30.1511L124.19 33.3717H127.542Z" fill="#03488D"/>
<path d="M212.904 40H209.971H177.807V13.4889H187.582V19.0899H193.121V24.9242H198.986V31.0385H204.06C201.779 18.2964 190.189 8.91482 176.364 8.91482C162.354 8.91482 150.903 18.1564 148.669 31.0385H153.463V24.9242H159.328V19.1365H164.867V13.5356H174.642V40.0467H139.499L139.406 38.6464C139.359 37.993 139.359 37.1995 139.359 36.4527C139.359 26.6044 143.176 17.4096 150.158 10.5951C157.094 3.73396 166.31 0 176.178 0C186.046 0 195.263 3.73396 202.198 10.5484C209.18 17.4096 212.997 26.6044 212.997 36.4061V36.7328C212.997 37.3396 212.997 37.993 212.951 38.5531L212.904 40ZM180.74 37.0595H210.018C210.018 36.9662 210.018 36.8728 210.018 36.7795V36.4527C210.018 17.6896 195.123 2.98716 176.178 2.98716C157.187 2.98716 142.338 17.6896 142.338 36.4527C142.338 36.6394 142.338 36.8728 142.338 37.0595H171.71V16.5228H167.846V22.1237H162.307V27.958H156.396V34.0723H145.271L145.504 32.0187C146.435 24.7375 150.019 18.1097 155.697 13.3489C161.33 8.5881 168.684 5.97433 176.318 5.97433C192.237 5.97433 205.503 17.3629 207.225 32.3921L207.411 34.0257H196.007V27.9113H190.142V22.077H184.603V16.4761H180.74V37.0595Z" fill="#FFC000"/>
</g>
<defs>
<clipPath id="clip0_3462_33623">
<rect width="213" height="40" fill="white"/>
</clipPath>
</defs>
</svg>
