<svg width="21" height="20" viewBox="0 0 21 20" fill="none" xmlns="http://www.w3.org/2000/svg">
<mask id="mask0_8_7826" style="mask-type:alpha" maskUnits="userSpaceOnUse" x="0" y="0" width="21" height="20">
<rect x="0.399414" width="20" height="20" fill="#D9D9D9"/>
</mask>
<g mask="url(#mask0_8_7826)">
<path d="M9.64954 11.125V5.75C9.64954 5.54167 9.72246 5.36458 9.86829 5.21875C10.0141 5.07292 10.1912 5 10.3995 5C10.6079 5 10.785 5.07292 10.9308 5.21875C11.0766 5.36458 11.1495 5.54167 11.1495 5.75V11.125L12.8162 9.45833C12.969 9.30556 13.1461 9.22917 13.3475 9.22917C13.5488 9.22917 13.7259 9.30556 13.8787 9.45833C14.0315 9.61111 14.1079 9.78819 14.1079 9.98958C14.1079 10.191 14.0315 10.3681 13.8787 10.5208L10.9204 13.4792C10.7676 13.6319 10.594 13.7083 10.3995 13.7083C10.2051 13.7083 10.0315 13.6319 9.87871 13.4792L6.92037 10.5208C6.7676 10.3681 6.69468 10.191 6.70162 9.98958C6.70857 9.78819 6.78843 9.61111 6.94121 9.45833C7.09399 9.30556 7.27107 9.22917 7.47246 9.22917C7.67385 9.22917 7.85093 9.30556 8.00371 9.45833L9.64954 11.125Z" fill="#464852"/>
</g>
</svg>
