<svg width="21" height="20" viewBox="0 0 21 20" fill="none" xmlns="http://www.w3.org/2000/svg">
<mask id="mask0_1_16604" style="mask-type:alpha" maskUnits="userSpaceOnUse" x="0" y="0" width="21" height="20">
<rect x="0.714844" width="20" height="20" fill="#D9D9D9"/>
</mask>
<g mask="url(#mask0_1_16604)">
<path d="M9.96497 11.125V5.75C9.96497 5.54167 10.0379 5.36458 10.1837 5.21875C10.3296 5.07292 10.5066 5 10.715 5C10.9233 5 11.1004 5.07292 11.2462 5.21875C11.3921 5.36458 11.465 5.54167 11.465 5.75V11.125L13.1316 9.45833C13.2844 9.30556 13.4615 9.22917 13.6629 9.22917C13.8643 9.22917 14.0414 9.30556 14.1941 9.45833C14.3469 9.61111 14.4233 9.78819 14.4233 9.98958C14.4233 10.191 14.3469 10.3681 14.1941 10.5208L11.2358 13.4792C11.083 13.6319 10.9094 13.7083 10.715 13.7083C10.5205 13.7083 10.3469 13.6319 10.1941 13.4792L7.2358 10.5208C7.08303 10.3681 7.01011 10.191 7.01705 9.98958C7.024 9.78819 7.10386 9.61111 7.25664 9.45833C7.40942 9.30556 7.5865 9.22917 7.78789 9.22917C7.98928 9.22917 8.16636 9.30556 8.31914 9.45833L9.96497 11.125Z" fill="#464852"/>
</g>
</svg>
