<svg width="26" height="25" viewBox="0 0 26 25" fill="none" xmlns="http://www.w3.org/2000/svg">
<g clip-path="url(#clip0_8_12434)">
<path d="M6.75 0C5.9212 0 5.12634 0.32924 4.54029 0.915291C3.95424 1.50134 3.625 2.2962 3.625 3.125V21.875C3.625 22.7038 3.95424 23.4987 4.54029 24.0847C5.12634 24.6708 5.9212 25 6.75 25H19.25C20.0788 25 20.8737 24.6708 21.4597 24.0847C22.0458 23.4987 22.375 22.7038 22.375 21.875V3.125C22.375 2.2962 22.0458 1.50134 21.4597 0.915291C20.8737 0.32924 20.0788 0 19.25 0L6.75 0ZM6.75 1.5625H19.25C19.6644 1.5625 20.0618 1.72712 20.3549 2.02015C20.6479 2.31317 20.8125 2.7106 20.8125 3.125V21.875C20.8125 22.2894 20.6479 22.6868 20.3549 22.9799C20.0618 23.2729 19.6644 23.4375 19.25 23.4375H6.75C6.3356 23.4375 5.93817 23.2729 5.64515 22.9799C5.35212 22.6868 5.1875 22.2894 5.1875 21.875V3.125C5.1875 2.7106 5.35212 2.31317 5.64515 2.02015C5.93817 1.72712 6.3356 1.5625 6.75 1.5625Z" fill="#1773FC"/>
<path d="M7.69186 18.886C7.3864 18.7656 7.14057 18.5299 7.00748 18.2297C6.70279 17.6235 6.80436 17.0172 7.13248 16.5078C7.44186 16.0281 7.95436 15.6203 8.53404 15.2781C9.26843 14.8619 10.0446 14.5241 10.8497 14.2703C11.4739 13.1457 12.0281 11.9836 12.509 10.7906C12.2224 10.1386 11.9975 9.46119 11.8372 8.76721C11.7028 8.14221 11.6512 7.52346 11.7653 6.99221C11.8825 6.43909 12.1934 5.94221 12.7809 5.70627C13.0809 5.58596 13.4059 5.51877 13.7215 5.58596C13.8803 5.61976 14.0296 5.68847 14.1585 5.78712C14.2874 5.88576 14.3927 6.01186 14.4669 6.15627C14.6044 6.41252 14.6544 6.71252 14.6653 6.9969C14.6762 7.28909 14.6465 7.61409 14.5919 7.95627C14.4606 8.75315 14.17 9.72815 13.7794 10.7594C14.2108 11.6811 14.7232 12.5627 15.3106 13.3938C16.0061 13.3395 16.7055 13.3657 17.395 13.4719C17.9637 13.5735 18.5419 13.7766 18.895 14.1985C19.0825 14.4235 19.1965 14.6985 19.2075 15.0078C19.2184 15.3078 19.134 15.6047 18.9919 15.8875C18.8687 16.1496 18.6777 16.374 18.4387 16.5375C18.2023 16.6912 17.9235 16.7667 17.6419 16.7531C17.1247 16.7313 16.62 16.4469 16.184 16.1016C15.6538 15.6634 15.1762 15.1653 14.7606 14.6172C13.7039 14.7367 12.6598 14.949 11.6403 15.2516C11.1729 16.0797 10.6394 16.8687 10.045 17.611C9.59186 18.1578 9.09498 18.6344 8.59811 18.8406C8.31236 18.9687 7.98895 18.9849 7.69186 18.886ZM9.84654 15.9156C9.58613 16.0354 9.34706 16.1594 9.12936 16.2875C8.61686 16.5906 8.28404 16.886 8.11842 17.1422C7.97154 17.3688 7.96842 17.5328 8.05592 17.7063C8.07258 17.7396 8.08613 17.7625 8.09654 17.775L8.15123 17.7563C8.36529 17.6688 8.70592 17.3891 9.14342 16.8625C9.39256 16.5581 9.6272 16.2422 9.84654 15.9156ZM12.409 13.8375C12.9309 13.7162 13.4574 13.6156 13.9872 13.536C13.7031 13.1003 13.4372 12.6531 13.1903 12.1953C12.9451 12.7493 12.6846 13.2964 12.409 13.836V13.8375ZM16.2309 14.5406C16.4663 14.7948 16.6929 15.0084 16.9106 15.1813C17.2856 15.4781 17.5465 15.5766 17.6887 15.5813C17.7268 15.5872 17.7658 15.5789 17.7981 15.5578C17.8635 15.5069 17.9142 15.4395 17.945 15.3625C18.0003 15.2672 18.0319 15.1601 18.0372 15.05C18.0356 15.0135 18.0212 14.9786 17.9965 14.9516C17.9153 14.8547 17.684 14.7141 17.1872 14.625C16.871 14.5729 16.5513 14.5453 16.2309 14.5422V14.5406ZM13.1215 9.06252C13.2519 8.63802 13.3562 8.20597 13.434 7.76877C13.482 7.47502 13.5018 7.23284 13.4934 7.04221C13.4942 6.93701 13.4773 6.83243 13.4434 6.73284C13.3652 6.74213 13.2888 6.7632 13.2169 6.79534C13.0809 6.85002 12.97 6.96096 12.9106 7.23752C12.8481 7.53752 12.8637 7.97034 12.9825 8.5219C13.02 8.69586 13.0669 8.87607 13.1231 9.06252H13.1215Z" fill="#1773FC"/>
</g>
<defs>
<clipPath id="clip0_8_12434">
<rect width="25" height="25" fill="white" transform="translate(0.5)"/>
</clipPath>
</defs>
</svg>
