<svg width="53" height="53" viewBox="0 0 53 53" fill="none" xmlns="http://www.w3.org/2000/svg">
<g filter="url(#filter0_d_1_42350)">
<g clip-path="url(#clip0_1_42350)">
<path d="M15.25 8C14.2886 8 13.3666 8.38192 12.6867 9.06174C12.0069 9.74156 11.625 10.6636 11.625 11.625V33.375C11.625 34.3364 12.0069 35.2584 12.6867 35.9383C13.3666 36.6181 14.2886 37 15.25 37H29.75C30.7114 37 31.6334 36.6181 32.3133 35.9383C32.9931 35.2584 33.375 34.3364 33.375 33.375V11.625C33.375 10.6636 32.9931 9.74156 32.3133 9.06174C31.6334 8.38192 30.7114 8 29.75 8H15.25ZM15.25 9.8125H29.75C30.2307 9.8125 30.6917 10.0035 31.0316 10.3434C31.3715 10.6833 31.5625 11.1443 31.5625 11.625V33.375C31.5625 33.8557 31.3715 34.3167 31.0316 34.6566C30.6917 34.9965 30.2307 35.1875 29.75 35.1875H15.25C14.7693 35.1875 14.3083 34.9965 13.9684 34.6566C13.6285 34.3167 13.4375 33.8557 13.4375 33.375V11.625C13.4375 11.1443 13.6285 10.6833 13.9684 10.3434C14.3083 10.0035 14.7693 9.8125 15.25 9.8125Z" fill="#596387"/>
<path d="M16.343 29.9076C15.9886 29.768 15.7035 29.4945 15.5491 29.1464C15.1957 28.4431 15.3135 27.7399 15.6941 27.149C16.053 26.5926 16.6475 26.1195 17.3199 25.7226C18.1718 25.2397 19.0721 24.8479 20.006 24.5535C20.7301 23.2489 21.373 21.9009 21.9309 20.5171C21.5984 19.7607 21.3375 18.9749 21.1515 18.1699C20.9957 17.4449 20.9358 16.7271 21.0682 16.1109C21.2041 15.4693 21.5648 14.8929 22.2463 14.6192C22.5943 14.4796 22.9713 14.4017 23.3374 14.4796C23.5216 14.5188 23.6947 14.5985 23.8443 14.713C23.9938 14.8274 24.116 14.9737 24.202 15.1412C24.3615 15.4384 24.4195 15.7864 24.4322 16.1163C24.4448 16.4553 24.4104 16.8323 24.347 17.2292C24.1947 18.1536 23.8576 19.2846 23.4045 20.4808C23.9049 21.55 24.4993 22.5727 25.1807 23.5367C25.9875 23.4737 26.7988 23.5041 27.5986 23.6273C28.2583 23.7451 28.929 23.9808 29.3386 24.4701C29.5561 24.7311 29.6884 25.0501 29.7011 25.409C29.7138 25.757 29.6159 26.1014 29.451 26.4294C29.3081 26.7335 29.0866 26.9938 28.8093 27.1834C28.5351 27.3617 28.2117 27.4492 27.885 27.4336C27.285 27.4082 26.6996 27.0783 26.1939 26.6778C25.5789 26.1695 25.0248 25.5917 24.5427 24.9559C23.3169 25.0945 22.1058 25.3408 20.9232 25.6918C20.381 26.6524 19.7621 27.5677 19.0726 28.4286C18.547 29.063 17.9706 29.6158 17.3942 29.8551C17.0628 30.0036 16.6876 30.0224 16.343 29.9076ZM18.8424 26.4621C18.5403 26.601 18.263 26.7448 18.0105 26.8934C17.416 27.2451 17.0299 27.5876 16.8378 27.8849C16.6674 28.1477 16.6638 28.338 16.7653 28.5392C16.7846 28.5779 16.8003 28.6044 16.8124 28.6189L16.8758 28.5972C17.1242 28.4957 17.5193 28.1713 18.0268 27.5604C18.3158 27.2074 18.588 26.8408 18.8424 26.4621ZM21.8149 24.0514C22.4203 23.9107 23.031 23.794 23.6455 23.7016C23.316 23.1963 23.0076 22.6775 22.7212 22.1465C22.4367 22.7891 22.1345 23.4237 21.8149 24.0496V24.0514ZM26.2483 24.8671C26.5214 25.1619 26.7842 25.4096 27.0367 25.6102C27.4717 25.9546 27.7744 26.0688 27.9393 26.0742C27.9835 26.0811 28.0287 26.0714 28.0662 26.047C28.142 25.9879 28.2008 25.9097 28.2366 25.8204C28.3008 25.7099 28.3374 25.5856 28.3435 25.4579C28.3417 25.4155 28.325 25.3751 28.2964 25.3438C28.2022 25.2314 27.9339 25.0683 27.3575 24.9649C26.9908 24.9045 26.62 24.8724 26.2483 24.8689V24.8671ZM22.6414 18.5124C22.7926 18.02 22.9137 17.5188 23.0039 17.0117C23.0595 16.6709 23.0825 16.39 23.0728 16.1689C23.0737 16.0468 23.0541 15.9255 23.0148 15.81C22.924 15.8208 22.8354 15.8452 22.752 15.8825C22.5943 15.9459 22.4656 16.0746 22.3967 16.3954C22.3242 16.7434 22.3423 17.2455 22.4801 17.8853C22.5236 18.0871 22.578 18.2961 22.6432 18.5124H22.6414Z" fill="#596387"/>
</g>
</g>
<defs>
<filter id="filter0_d_1_42350" x="-2" y="-4" width="57" height="61" filterUnits="userSpaceOnUse" color-interpolation-filters="sRGB">
<feFlood flood-opacity="0" result="BackgroundImageFix"/>
<feColorMatrix in="SourceAlpha" type="matrix" values="0 0 0 0 0 0 0 0 0 0 0 0 0 0 0 0 0 0 127 0" result="hardAlpha"/>
<feOffset dx="4" dy="4"/>
<feGaussianBlur stdDeviation="6"/>
<feComposite in2="hardAlpha" operator="out"/>
<feColorMatrix type="matrix" values="0 0 0 0 0.00979167 0 0 0 0 0.329281 0 0 0 0 0.391667 0 0 0 0.08 0"/>
<feBlend mode="normal" in2="BackgroundImageFix" result="effect1_dropShadow_1_42350"/>
<feBlend mode="normal" in="SourceGraphic" in2="effect1_dropShadow_1_42350" result="shape"/>
</filter>
<clipPath id="clip0_1_42350">
<rect width="29" height="29" fill="white" transform="translate(8 8)"/>
</clipPath>
</defs>
</svg>
