<svg width="24" height="24" viewBox="0 0 24 24" fill="none" xmlns="http://www.w3.org/2000/svg">
<path d="M18.7998 20.25L14.0998 15.45C13.5998 15.85 13.0248 16.1667 12.3748 16.4C11.7248 16.6333 11.0331 16.75 10.2998 16.75C8.48314 16.75 6.94564 16.1208 5.6873 14.8625C4.42897 13.6042 3.7998 12.0667 3.7998 10.25C3.7998 8.43333 4.42897 6.89583 5.6873 5.6375C6.94564 4.37917 8.48314 3.75 10.2998 3.75C12.1165 3.75 13.654 4.37917 14.9123 5.6375C16.1706 6.89583 16.7998 8.43333 16.7998 10.25C16.7998 10.9833 16.6831 11.675 16.4498 12.325C16.2165 12.975 15.8998 13.55 15.4998 14.05L20.1998 18.85L18.7998 20.25ZM10.2998 14.75C11.5498 14.75 12.6123 14.3125 13.4873 13.4375C14.3623 12.5625 14.7998 11.5 14.7998 10.25C14.7998 9 14.3623 7.9375 13.4873 7.0625C12.6123 6.1875 11.5498 5.75 10.2998 5.75C9.0498 5.75 7.9873 6.1875 7.1123 7.0625C6.2373 7.9375 5.7998 9 5.7998 10.25C5.7998 11.5 6.2373 12.5625 7.1123 13.4375C7.9873 14.3125 9.0498 14.75 10.2998 14.75Z" fill="#596387"/>
</svg>
