<svg width="1125" height="40" viewBox="0 0 1125 40" fill="none" xmlns="http://www.w3.org/2000/svg">
<g clip-path="url(#clip0_1_9854)">
<path d="M11.823 17.3163C11.2179 17.5964 9.77491 17.9698 7.95957 17.9698C2.69974 17.9698 0 14.6559 0 10.3152C0 5.08762 3.67723 2.24048 8.2854 2.24048C10.0542 2.24048 11.4041 2.61387 12.0092 2.9406L11.2644 5.64771C10.5662 5.36767 9.63527 5.08762 8.3785 5.08762C5.67876 5.08762 3.53759 6.72123 3.53759 10.1285C3.53759 13.1623 5.35293 15.1226 8.3785 15.1226C9.44908 15.1226 10.5662 14.9359 11.2644 14.6092L11.823 17.3163Z" fill="#03488D"/>
<path d="M20.2015 17.9698C15.7329 17.9698 13.0332 14.5625 13.0332 10.2218C13.0332 5.64771 15.9657 2.24048 20.4342 2.24048C25.0889 2.24048 27.649 5.74106 27.649 9.94176C27.6956 14.9826 24.67 17.9698 20.2015 17.9698ZM20.3877 15.216C22.715 15.216 24.0183 13.0223 24.0183 10.0351C24.0183 7.28132 22.715 4.9476 20.3877 4.9476C18.0138 4.9476 16.7104 7.23464 16.7104 10.0818C16.6639 13.0223 18.0603 15.216 20.3877 15.216Z" fill="#03488D"/>
<path d="M43.1494 11.9021C43.1029 10.0818 43.0098 7.88807 43.0098 5.6477H42.9632C42.4512 7.60802 41.8461 9.75505 41.241 11.5287L39.3791 17.4563H36.6794L35.0502 11.5754C34.5382 9.75505 34.0727 7.60802 33.6538 5.60102H33.6072C33.5607 7.6547 33.4676 10.0351 33.3745 11.9021L33.1418 17.7364H29.9766L30.9541 2.52051H35.5157L37.0052 7.60802C37.5172 9.33498 37.9361 11.2486 38.3085 13.0223H38.4016C38.8205 11.2486 39.3326 9.2883 39.8446 7.56135L41.4272 2.52051H45.9423L46.7336 17.7364H43.3822L43.1494 11.9021Z" fill="#03488D"/>
<path d="M53.1103 2.47388V11.202C53.1103 13.8624 54.1344 15.1693 55.8566 15.1693C57.672 15.1693 58.6495 13.9091 58.6495 11.202V2.47388H62.094V11.0153C62.094 15.7294 59.7201 17.9698 55.7635 17.9698C51.9467 17.9698 49.7124 15.8228 49.7124 10.9686V2.47388H53.1103Z" fill="#03488D"/>
<path d="M65.4453 17.7364V2.47388H69.4484L72.6136 8.07481C73.498 9.66174 74.3824 11.5754 75.0806 13.3023H75.1271C74.9409 11.2953 74.8478 9.24167 74.8478 6.90795V2.47388H78.0131V17.7364H74.3824L71.1241 11.8554C70.2397 10.2218 69.2156 8.26151 68.4709 6.48788H68.4243C68.5174 8.54155 68.564 10.6886 68.564 13.1623V17.7364H65.4453Z" fill="#03488D"/>
<path d="M84.8092 2.47388V17.7364H81.3647V2.47388H84.8092Z" fill="#03488D"/>
<path d="M88.1139 2.70709C89.3707 2.47372 90.9999 2.38037 92.7221 2.38037C95.608 2.38037 97.5165 2.84712 98.9594 3.9673C100.542 5.13416 101.52 7.04781 101.52 9.75493C101.52 12.6487 100.449 14.7024 99.006 15.916C97.4234 17.2695 94.9564 17.8763 91.9774 17.8763C90.2086 17.8763 88.9052 17.7829 88.0674 17.6429V2.70709H88.1139ZM91.5119 15.1225C91.7912 15.2158 92.3032 15.2158 92.7221 15.2158C95.8408 15.2158 97.8888 13.5356 97.8888 9.89496C97.8888 6.62775 96.027 5.04081 93.0479 5.04081C92.3032 5.04081 91.7912 5.08749 91.5119 5.18084V15.1225Z" fill="#03488D"/>
<path d="M107.664 13.8157L106.593 17.7364H103.009L107.664 2.52051H112.132L116.926 17.7364H113.249L112.085 13.8157H107.664ZM111.527 11.2486L110.596 8.02809C110.363 7.14128 110.084 5.97442 109.851 5.0876H109.805C109.618 5.97442 109.339 7.14128 109.106 8.02809L108.176 11.2486H111.527Z" fill="#03488D"/>
<path d="M119.3 2.70709C120.557 2.47372 122.186 2.38037 123.909 2.38037C126.795 2.38037 128.703 2.84712 130.146 3.9673C131.729 5.13416 132.706 7.04781 132.706 9.75493C132.706 12.6487 131.635 14.7024 130.193 15.916C128.61 17.2695 126.143 17.8763 123.164 17.8763C121.395 17.8763 120.092 17.7829 119.254 17.6429V2.70709H119.3ZM122.698 15.1225C122.978 15.2158 123.49 15.2158 123.909 15.2158C127.027 15.2158 129.075 13.5356 129.075 9.89496C129.075 6.62775 127.213 5.04081 124.234 5.04081C123.49 5.04081 122.978 5.08749 122.698 5.18084V15.1225Z" fill="#03488D"/>
<path d="M53.948 35.939L52.8774 39.8597H49.3398L53.9946 24.6438H58.4631L63.2109 39.8597H59.5337L58.37 35.939H53.948ZM57.8114 33.3719L56.8805 30.1514C56.6478 29.2646 56.3685 28.0977 56.1357 27.2109H56.0892C55.903 28.0977 55.6237 29.2646 55.391 30.1514L54.46 33.3719H57.8114Z" fill="#03488D"/>
<path d="M65.585 39.8597V24.6438H69.588L72.7532 30.2447C73.6376 31.8317 74.522 33.7453 75.2202 35.4723H75.2668C75.0806 33.4653 74.9875 31.4116 74.9875 29.0779V24.6438H78.1527V39.8597H74.522L71.2637 33.9787C70.3793 32.3451 69.3553 30.3848 68.6105 28.6111H68.5174C68.6105 30.6648 68.6571 32.8118 68.6571 35.2856V39.8597H65.585Z" fill="#03488D"/>
<path d="M81.4577 24.8309C82.7145 24.5975 84.3436 24.5042 86.0659 24.5042C88.9518 24.5042 90.8602 24.9709 92.3032 26.0911C93.8858 27.2579 94.8633 29.1716 94.8633 31.8787C94.8633 34.8192 93.7927 36.8262 92.3497 38.0397C90.7671 39.3933 88.3001 40.0001 85.3211 40.0001C83.5523 40.0001 82.249 39.9067 81.4111 39.7667V24.8309H81.4577ZM84.9022 37.2463C85.1815 37.3396 85.6935 37.3396 86.1124 37.3396C89.2311 37.3863 91.2791 35.6593 91.2791 32.0187C91.2791 28.7515 89.4173 27.1646 86.4382 27.1646C85.6935 27.1646 85.1815 27.2579 84.9022 27.3046V37.2463Z" fill="#03488D"/>
<path d="M100.961 24.6438V39.8597H97.5166V24.6438H100.961Z" fill="#03488D"/>
<path d="M104.266 39.8597V24.6438H108.269L111.434 30.2447C112.318 31.8317 113.203 33.7453 113.901 35.4723H113.947C113.761 33.4653 113.668 31.4116 113.668 29.0779V24.6438H116.833V39.8597H113.203L109.944 33.9787C109.06 32.3451 108.036 30.3848 107.291 28.6111H107.198C107.291 30.6648 107.338 32.8118 107.338 35.2856V39.8597H104.266Z" fill="#03488D"/>
<path d="M123.723 35.939L122.652 39.8597H119.068L123.723 24.6438H128.191L132.939 39.8597H129.262L128.098 35.939H123.723ZM127.539 33.3719L126.609 30.1514C126.376 29.2646 126.096 28.0977 125.864 27.2109H125.817C125.631 28.0977 125.352 29.2646 125.119 30.1514L124.188 33.3719H127.539Z" fill="#03488D"/>
<path d="M212.907 39.9998H209.974H177.81V13.4887H187.585V19.0896H193.124V24.9239H198.989V31.0383H204.063C201.782 18.2961 190.192 8.91458 176.367 8.91458C162.357 8.91458 150.906 18.1561 148.672 31.0383H153.466V24.9239H159.331V19.1363H164.87V13.5353H174.645V40.0464H139.502L139.409 38.6462C139.362 37.9928 139.362 37.1993 139.362 36.4525C139.362 26.6042 143.179 17.4093 150.161 10.5949C157.097 3.73371 166.313 -0.000244141 176.181 -0.000244141C186.049 -0.000244141 195.265 3.73371 202.201 10.5482C209.183 17.4093 213 26.6042 213 36.4058V36.7325C213 37.3393 213 37.9928 212.953 38.5529L212.907 39.9998ZM180.743 37.0593H210.021C210.021 36.9659 210.021 36.8726 210.021 36.7792V36.4525C210.021 17.6894 195.126 2.98692 176.181 2.98692C157.19 2.98692 142.341 17.6894 142.341 36.4525C142.341 36.6392 142.341 36.8726 142.341 37.0593H171.713V16.5225H167.849V22.1234H162.31V27.9578H156.399V34.0721H145.274L145.507 32.0184C146.437 24.7372 150.022 18.1094 155.7 13.3486C161.333 8.58786 168.687 5.97409 176.321 5.97409C192.24 5.97409 205.506 17.3627 207.228 32.3918L207.414 34.0254H196.01V27.9111H190.145V22.0768H184.606V16.4758H180.743V37.0593Z" fill="#FFC000"/>
</g>
<defs>
<clipPath id="clip0_1_9854">
<rect width="213" height="40" fill="white"/>
</clipPath>
</defs>
</svg>
