<svg width="37" height="37" viewBox="0 0 37 37" fill="none" xmlns="http://www.w3.org/2000/svg">
<rect x="0.5" y="0.5" width="36" height="36" rx="18" fill="#F0F1F5"/>
<path d="M23.9478 24.6999H16.6267C13.1803 24.6999 10.376 21.8956 10.376 18.4706C10.376 15.0241 13.1803 12.2412 16.6053 12.2412H28.4647C28.7644 12.2412 28.9998 12.4767 28.9998 12.7764C28.9998 13.0761 28.7644 13.3115 28.4647 13.3115H16.6267C13.7796 13.3115 11.4463 15.6235 11.4463 18.4706C11.4463 21.3177 13.7796 23.6296 16.6267 23.6296H23.9478C24.2475 23.6296 24.483 23.8651 24.483 24.1648C24.483 24.4645 24.2475 24.6999 23.9478 24.6999Z" fill="#C42A27"/>
<path d="M26.9245 22.1939H16.3924C14.2731 22.1939 12.5605 20.4813 12.5605 18.3621C12.5605 16.2428 14.2731 14.5303 16.3924 14.5303H21.4657C21.7654 14.5303 22.0009 14.7657 22.0009 15.0654C22.0009 15.3651 21.7654 15.6006 21.4657 15.6006H16.3924C14.8725 15.6006 13.6309 16.8422 13.6309 18.3621C13.6309 19.882 14.8725 21.1235 16.3924 21.1235H26.9245C27.2242 21.1235 27.4596 21.359 27.4596 21.6587C27.4596 21.9584 27.2242 22.1939 26.9245 22.1939Z" fill="#C42A27"/>
<path d="M20.0093 20.2019H16.1346C15.2142 20.2019 14.4863 19.4527 14.4863 18.5536C14.4863 17.6545 15.2356 16.9053 16.1346 16.9053H24.7187C25.0184 16.9053 25.2539 17.1407 25.2539 17.4404C25.2539 17.7401 25.0184 17.9756 24.7187 17.9756H16.1346C15.8135 17.9756 15.5567 18.2325 15.5567 18.5536C15.5567 18.8747 15.8135 19.1316 16.1346 19.1316H20.0307C20.3304 19.1316 20.5658 19.367 20.5658 19.6667C20.5658 19.9664 20.309 20.2019 20.0093 20.2019Z" fill="#C42A27"/>
<path d="M28.4862 27.0949H16.5841C11.8532 27.0949 8 23.2417 8 18.4894C8 13.7371 11.8532 9.90527 16.5841 9.90527H26.0887C26.3884 9.90527 26.6239 10.1407 26.6239 10.4404C26.6239 10.7401 26.4098 10.9756 26.1101 10.9756H16.5841C12.4526 10.9756 9.07034 14.3579 9.07034 18.4894C9.07034 22.6209 12.4526 26.0031 16.5841 26.0031H28.4648C28.7645 26.0031 29 26.2386 29 26.5383C29 26.838 28.7859 27.0949 28.4862 27.0949Z" fill="#C42A27"/>
</svg>
