<svg width="24" height="25" viewBox="0 0 24 25" fill="none" xmlns="http://www.w3.org/2000/svg">
<mask id="mask0_1_42321" style="mask-type:alpha" maskUnits="userSpaceOnUse" x="0" y="0" width="24" height="25">
<rect y="0.5" width="24" height="24" fill="#D9D9D9"/>
</mask>
<g mask="url(#mask0_1_42321)">
<path d="M12 16.1L7.20005 11.3L8.47505 10.025L11.1 12.65V4.09998H12.9V12.65L15.525 10.025L16.8 11.3L12 16.1ZM6.59305 19.7C6.09772 19.7 5.67505 19.5237 5.32505 19.1712C4.97505 18.8187 4.80005 18.395 4.80005 17.9V16.1H6.60005V17.9H17.4V16.1H19.2V17.9C19.2 18.395 19.0237 18.8187 18.671 19.1712C18.3184 19.5237 17.8944 19.7 17.399 19.7H6.59305Z" fill="#464852"/>
</g>
</svg>
