<svg width="24" height="25" viewBox="0 0 24 25" fill="none" xmlns="http://www.w3.org/2000/svg">
<mask id="mask0_1_42336" style="mask-type:alpha" maskUnits="userSpaceOnUse" x="0" y="0" width="24" height="25">
<rect y="0.5" width="24" height="24" fill="#D9D9D9"/>
</mask>
<g mask="url(#mask0_1_42336)">
<path d="M5.4001 19.1H6.6751L16.0501 9.72498L14.7751 8.44998L5.4001 17.825V19.1ZM3.6001 20.9V17.075L16.0501 4.62498C16.2334 4.44164 16.4321 4.30831 16.6461 4.22498C16.8599 4.14164 17.0849 4.09998 17.3211 4.09998C17.5571 4.09998 17.7834 4.14164 18.0001 4.22498C18.2168 4.30831 18.4168 4.44164 18.6001 4.62498L19.8751 5.89998C20.0584 6.08331 20.1918 6.28331 20.2751 6.49998C20.3584 6.71664 20.4001 6.93781 20.4001 7.16347C20.4001 7.40431 20.3583 7.63381 20.2746 7.85198C20.1909 8.07014 20.0578 8.26948 19.8751 8.44998L7.4251 20.9H3.6001ZM15.4013 9.09873L14.7751 8.44998L16.0501 9.72498L15.4013 9.09873Z" fill="#464852"/>
</g>
</svg>
