<svg width="63" height="89" viewBox="0 0 63 89" fill="none" xmlns="http://www.w3.org/2000/svg">
<rect x="13.5" y="26.5" width="36" height="36" rx="18" fill="#F0F1F5"/>
<path d="M25.7139 46.9024H28.9509C28.9509 46.9024 30.0356 47.9187 30.5481 49.3536C31.4107 47.6113 32.094 44.9295 31.5645 40.1638H35.5104C35.5104 40.1638 35.0834 47.9358 31.7609 53.4275C29.9417 53.4275 28.8484 53.4275 28.8484 53.4275C28.8484 53.4275 29.4292 50.6432 25.7139 46.9024Z" fill="#F2CD22"/>
<path d="M29.7031 46.9024H32.9402C32.9402 46.9024 34.0249 47.9187 34.5373 49.3536C35.4 47.6113 36.0833 44.9295 35.5537 40.1638H39.4997C39.4997 40.1638 39.0726 47.9358 35.7502 53.4275C33.9309 53.4275 32.8377 53.4275 32.8377 53.4275C32.8377 53.4275 33.4185 50.6432 29.7031 46.9024Z" fill="#234C97"/>
<path d="M33.2041 46.9024H36.4411C36.4411 46.9024 37.5259 47.9187 38.0383 49.3536C38.901 47.6113 39.5842 44.9295 39.0547 40.1638H43.0006C43.0006 40.1638 42.5736 47.9358 39.2511 53.4275C37.4319 53.4275 36.3387 53.4275 36.3387 53.4275C36.3387 53.4275 36.9194 50.6432 33.2041 46.9024Z" fill="#C42A27"/>
<path d="M25.3552 50.4333L27.5844 53.4226C27.5844 53.4226 20 51.2447 20 45.2235C20 39.2024 24.5011 35.1541 31.7866 35.6067C32.9994 35.7605 36.339 36.4181 37.5603 37.6821C34.9724 36.922 24.9025 33.5314 22.0157 43.3531C21.6655 45.3773 22.0157 47.9053 25.3552 50.4333Z" fill="#F2CD22"/>
</svg>
