<svg width="120" height="24" viewBox="0 0 120 24" fill="none" xmlns="http://www.w3.org/2000/svg">
<path d="M7.8 2H16.2C19.4 2 22 4.6 22 7.8V16.2C22 17.7383 21.3889 19.2135 20.3012 20.3012C19.2135 21.3889 17.7383 22 16.2 22H7.8C4.6 22 2 19.4 2 16.2V7.8C2 6.26174 2.61107 4.78649 3.69878 3.69878C4.78649 2.61107 6.26174 2 7.8 2ZM7.6 4C6.64522 4 5.72955 4.37928 5.05442 5.05442C4.37928 5.72955 4 6.64522 4 7.6V16.4C4 18.39 5.61 20 7.6 20H16.4C17.3548 20 18.2705 19.6207 18.9456 18.9456C19.6207 18.2705 20 17.3548 20 16.4V7.6C20 5.61 18.39 4 16.4 4H7.6ZM17.25 5.5C17.5815 5.5 17.8995 5.6317 18.1339 5.86612C18.3683 6.10054 18.5 6.41848 18.5 6.75C18.5 7.08152 18.3683 7.39946 18.1339 7.63388C17.8995 7.8683 17.5815 8 17.25 8C16.9185 8 16.6005 7.8683 16.3661 7.63388C16.1317 7.39946 16 7.08152 16 6.75C16 6.41848 16.1317 6.10054 16.3661 5.86612C16.6005 5.6317 16.9185 5.5 17.25 5.5ZM12 7C13.3261 7 14.5979 7.52678 15.5355 8.46447C16.4732 9.40215 17 10.6739 17 12C17 13.3261 16.4732 14.5979 15.5355 15.5355C14.5979 16.4732 13.3261 17 12 17C10.6739 17 9.40215 16.4732 8.46447 15.5355C7.52678 14.5979 7 13.3261 7 12C7 10.6739 7.52678 9.40215 8.46447 8.46447C9.40215 7.52678 10.6739 7 12 7ZM12 9C11.2044 9 10.4413 9.31607 9.87868 9.87868C9.31607 10.4413 9 11.2044 9 12C9 12.7956 9.31607 13.5587 9.87868 14.1213C10.4413 14.6839 11.2044 15 12 15C12.7956 15 13.5587 14.6839 14.1213 14.1213C14.6839 13.5587 15 12.7956 15 12C15 11.2044 14.6839 10.4413 14.1213 9.87868C13.5587 9.31607 12.7956 9 12 9Z" fill="#03488D"/>
<path d="M45.0809 10.712L40.2949 4.002C40.2394 3.92404 40.166 3.86049 40.081 3.81666C39.9959 3.77282 39.9016 3.74996 39.8059 3.75H37.2799C37.1698 3.75014 37.0619 3.78057 36.9679 3.83797C36.8739 3.89536 36.7976 3.9775 36.7472 4.07539C36.6968 4.17328 36.6743 4.28315 36.6822 4.39296C36.6901 4.50278 36.728 4.60831 36.7919 4.698L42.9189 13.288M45.0809 10.712L51.2079 19.302C51.2718 19.3917 51.3097 19.4972 51.3176 19.607C51.3255 19.7169 51.303 19.8267 51.2526 19.9246C51.2022 20.0225 51.1258 20.1046 51.0319 20.162C50.9379 20.2194 50.83 20.2499 50.7199 20.25H48.1939C48.0982 20.25 48.0039 20.2272 47.9188 20.1833C47.8337 20.1395 47.7604 20.076 47.7049 19.998L42.9189 13.288M45.0809 10.712L50.9229 3.75M42.9189 13.288L37.0769 20.25" stroke="#03488D" stroke-width="1.5" stroke-linecap="round" stroke-linejoin="round"/>
<path d="M83 3C83.5304 3 84.0391 3.21071 84.4142 3.58579C84.7893 3.96086 85 4.46957 85 5V19C85 19.5304 84.7893 20.0391 84.4142 20.4142C84.0391 20.7893 83.5304 21 83 21H69C68.4696 21 67.9609 20.7893 67.5858 20.4142C67.2107 20.0391 67 19.5304 67 19V5C67 4.46957 67.2107 3.96086 67.5858 3.58579C67.9609 3.21071 68.4696 3 69 3H83ZM82.5 18.5V13.2C82.5 12.3354 82.1565 11.5062 81.5452 10.8948C80.9338 10.2835 80.1046 9.94 79.24 9.94C78.39 9.94 77.4 10.46 76.92 11.24V10.13H74.13V18.5H76.92V13.57C76.92 12.8 77.54 12.17 78.31 12.17C78.6813 12.17 79.0374 12.3175 79.2999 12.5801C79.5625 12.8426 79.71 13.1987 79.71 13.57V18.5H82.5ZM70.88 8.56C71.3256 8.56 71.7529 8.383 72.0679 8.06794C72.383 7.75288 72.56 7.32556 72.56 6.88C72.56 5.95 71.81 5.19 70.88 5.19C70.4318 5.19 70.0019 5.36805 69.685 5.68499C69.3681 6.00193 69.19 6.43178 69.19 6.88C69.19 7.81 69.95 8.56 70.88 8.56ZM72.27 18.5V10.13H69.5V18.5H72.27Z" fill="#03488D"/>
<path d="M110 13.5H112.5L113.5 9.5H110V7.5C110 6.47 110 5.5 112 5.5H113.5V2.14C113.174 2.097 111.943 2 110.643 2C107.928 2 106 3.657 106 6.7V9.5H103V13.5H106V22H110V13.5Z" fill="#03488D"/>
</svg>
