<svg width="30" height="30" viewBox="0 0 30 30" fill="none" xmlns="http://www.w3.org/2000/svg">
<path d="M18.1465 4.55256C18.1465 3.07671 17.5023 2.2685 16.0733 2.04595C11.6926 1.3783 7.31191 0.72237 2.94292 0.0547222C1.08053 -0.238106 0.00292828 0.652091 0.00292828 2.5379V28.0725C0.00292828 28.2482 -0.00878484 28.4239 0.0146414 28.5996C0.073207 29.1969 0.518305 29.7123 1.10396 29.724C1.54906 29.7358 3.25917 29.7358 5.44953 29.7358V20.8221H12.7117V29.724C15.3237 29.7123 17.5023 29.7123 18.1465 29.7123V20.5527C18.1465 15.2115 18.1465 9.88202 18.1465 4.55256ZM11.0718 5.10307C11.8215 5.03279 12.5945 5.04451 13.3442 5.11479C13.8244 5.16164 14.0821 5.55988 14.047 6.04012C14.0118 6.54379 13.719 6.87175 13.1919 6.90689C12.8639 6.93032 12.5242 6.90689 12.1963 6.90689C11.8683 6.90689 11.5286 6.93032 11.2007 6.90689C10.6736 6.87175 10.369 6.56721 10.3222 6.06355C10.287 5.54817 10.5682 5.13821 11.0718 5.10307ZM7.80386 17.273C7.78044 17.7767 7.48761 18.1046 6.96052 18.1515C6.63255 18.1749 6.29287 18.1515 5.9649 18.1515C5.61351 18.1515 5.26212 18.1749 4.91072 18.1398C4.41877 18.0929 4.12594 17.8001 4.09081 17.3081C4.05567 16.8162 4.27821 16.4062 4.75845 16.3594C5.53152 16.2891 6.3163 16.2891 7.07765 16.3477C7.5696 16.3945 7.82729 16.7928 7.80386 17.273ZM4.85216 8.83956C5.59008 8.78099 6.32801 8.78099 7.06594 8.85127C7.58131 8.89812 7.85071 9.30808 7.80386 9.81175C7.76872 10.3154 7.45247 10.6317 6.92538 10.6551C6.59741 10.6668 6.25773 10.6551 5.92976 10.6551C5.61351 10.6551 5.30897 10.6668 4.99271 10.6551C4.47734 10.6317 4.16108 10.3623 4.09081 9.83517C4.03224 9.33151 4.33678 8.8747 4.85216 8.83956ZM7.80386 13.5248C7.78044 14.0285 7.48761 14.3564 6.96052 14.4033C6.63255 14.4267 6.29287 14.4033 5.9649 14.4033C5.61351 14.4033 5.26212 14.4267 4.91072 14.3916C4.41877 14.3447 4.12594 14.0519 4.09081 13.5599C4.05567 13.068 4.27821 12.658 4.75845 12.6112C5.53152 12.5409 6.3163 12.5409 7.07765 12.5995C7.5696 12.6463 7.82729 13.0446 7.80386 13.5248ZM7.80386 6.02841C7.78044 6.53207 7.48761 6.86004 6.96052 6.89518C6.63255 6.91861 6.29287 6.89518 5.9649 6.89518C5.61351 6.89518 5.26212 6.91861 4.91072 6.88347C4.41877 6.83661 4.12594 6.54379 4.09081 6.05184C4.05567 5.55989 4.27821 5.14993 4.75845 5.10307C5.53152 5.03279 6.3163 5.03279 7.07765 5.09136C7.5696 5.14993 7.82729 5.54817 7.80386 6.02841ZM14.0587 17.2847C14.0235 17.7884 13.7307 18.1163 13.2036 18.1515C12.8756 18.1749 12.536 18.1515 12.208 18.1515C11.88 18.1515 11.5403 18.1632 11.2124 18.1515C10.6853 18.1163 10.3807 17.8118 10.3339 17.3081C10.287 16.7928 10.5682 16.3945 11.0718 16.3477C11.8215 16.2774 12.5945 16.2891 13.3442 16.3594C13.8244 16.4062 14.0821 16.7928 14.0587 17.2847ZM14.0587 13.5482C14.0235 14.0519 13.719 14.3681 13.1919 14.4033C12.8639 14.4267 12.5242 14.4033 12.1963 14.4033C11.8683 14.4033 11.5286 14.4267 11.2007 14.4033C10.6736 14.3681 10.369 14.0636 10.3339 13.5482C10.2988 13.0329 10.5799 12.6346 11.0835 12.5995C11.8215 12.5292 12.5711 12.5292 13.2973 12.5995C13.801 12.6346 14.0821 13.0329 14.0587 13.5482ZM14.047 9.82346C14.0001 10.3271 13.6838 10.6317 13.1568 10.6551C12.8288 10.6668 12.4891 10.6551 12.1611 10.6551C11.8332 10.6551 11.4935 10.6785 11.1655 10.6434C10.6736 10.6082 10.369 10.3037 10.3222 9.82346C10.2753 9.30808 10.533 8.89812 11.0367 8.85127C11.7863 8.78099 12.5594 8.78099 13.309 8.85127C13.8244 8.89812 14.1055 9.30808 14.047 9.82346Z" fill="#464852"/>
<path d="M19.3997 29.7372C19.3997 23.5995 19.3997 17.5555 19.3997 11.4413C20.8521 11.7458 22.2577 12.0269 23.6749 12.3198C25.1039 12.6126 26.5329 12.9171 27.9619 13.2217C29.3675 13.5145 30 14.2759 30 15.7049C30 19.5702 30 23.4238 30 27.2891C30 28.847 29.1215 29.7372 27.5871 29.7372C24.8814 29.7372 22.164 29.7372 19.3997 29.7372ZM24.3777 18.4809C24.6706 18.4809 24.9634 18.4809 25.2562 18.4809C25.2914 18.4809 25.3382 18.4809 25.3733 18.4809C25.8887 18.4223 26.2518 18.0475 26.2518 17.5555C26.2518 17.0753 25.8887 16.6536 25.3851 16.6302C24.7174 16.5951 24.0615 16.5951 23.3938 16.6302C22.8785 16.6536 22.5153 17.0636 22.5153 17.5438C22.5153 18.0241 22.8785 18.434 23.3821 18.4809C23.7101 18.5043 24.0381 18.4809 24.3777 18.4809ZM24.3543 22.2291C24.7057 22.2291 25.0571 22.2642 25.4085 22.2173C25.9121 22.1588 26.2167 21.8308 26.2401 21.3154C26.2753 20.8352 25.9004 20.3901 25.3968 20.3667C24.7174 20.3315 24.0263 20.3198 23.347 20.3667C22.8433 20.4018 22.5388 20.7415 22.5153 21.2569C22.4802 21.7371 22.855 22.1588 23.3587 22.2056C23.6867 22.2525 24.0263 22.2291 24.3543 22.2291ZM24.366 25.9773C24.6588 25.9773 24.9517 25.9773 25.2445 25.9773C25.2796 25.9773 25.3265 25.9773 25.3616 25.9773C25.877 25.9187 26.2401 25.5439 26.2401 25.0519C26.2401 24.5717 25.877 24.15 25.3733 24.1266C24.7057 24.0914 24.0498 24.0914 23.3821 24.1266C22.8667 24.15 22.5036 24.56 22.5036 25.0402C22.5036 25.5204 22.8667 25.9304 23.3704 25.9773C23.7101 26.0007 24.038 25.9773 24.366 25.9773Z" fill="#464852"/>
</svg>
