<svg width="52" height="52" viewBox="0 0 52 52" fill="none" xmlns="http://www.w3.org/2000/svg">
<path d="M35.5986 36.9067H22.6994C16.627 36.9067 11.686 31.9658 11.686 25.9311C11.686 19.8587 16.627 14.9554 22.6617 14.9554H43.5569C44.0849 14.9554 44.4998 15.3703 44.4998 15.8984C44.4998 16.4264 44.0849 16.8413 43.5569 16.8413H22.6994C17.683 16.8413 13.5719 20.9147 13.5719 25.9311C13.5719 30.9475 17.683 35.0209 22.6994 35.0209H35.5986C36.1267 35.0209 36.5415 35.4358 36.5415 35.9638C36.5415 36.4919 36.1267 36.9067 35.5986 36.9067Z" fill="#C42A27"/>
<path d="M40.8406 32.5002H22.2838C18.5498 32.5002 15.5325 29.4829 15.5325 25.7489C15.5325 22.0149 18.5498 18.9976 22.2838 18.9976H31.2227C31.7508 18.9976 32.1657 19.4124 32.1657 19.9405C32.1657 20.4685 31.7508 20.8834 31.2227 20.8834H22.2838C19.6059 20.8834 17.4183 23.071 17.4183 25.7489C17.4183 28.4268 19.6059 30.6144 22.2838 30.6144H40.8406C41.3686 30.6144 41.7835 31.0293 41.7835 31.5573C41.7835 32.0854 41.3686 32.5002 40.8406 32.5002Z" fill="#C42A27"/>
<path d="M28.6585 29.0047H21.8317C20.2099 29.0047 18.9275 27.6846 18.9275 26.1005C18.9275 24.5164 20.2476 23.1963 21.8317 23.1963H36.9562C37.4843 23.1963 37.8991 23.6112 37.8991 24.1392C37.8991 24.6673 37.4843 25.0821 36.9562 25.0821H21.8317C21.2659 25.0821 20.8133 25.5347 20.8133 26.1005C20.8133 26.6663 21.2659 27.1189 21.8317 27.1189H28.6962C29.2242 27.1189 29.6391 27.5337 29.6391 28.0618C29.6391 28.5898 29.1865 29.0047 28.6585 29.0047Z" fill="#C42A27"/>
<path d="M43.5949 41.1433H22.6243C14.2888 41.1433 7.49976 34.3543 7.49976 25.9811C7.49976 17.6079 14.2888 10.8566 22.6243 10.8566H39.3706C39.8987 10.8566 40.3136 11.2715 40.3136 11.7995C40.3136 12.3275 39.9364 12.7424 39.4083 12.7424H22.6243C15.3449 12.7424 9.38561 18.7017 9.38561 25.9811C9.38561 33.2605 15.3449 39.2198 22.6243 39.2198H43.5572C44.0853 39.2198 44.5001 39.6346 44.5001 40.1627C44.5001 40.6907 44.123 41.1433 43.5949 41.1433Z" fill="#C42A27"/>
</svg>
