<svg width="20" height="20" viewBox="0 0 20 20" fill="none" xmlns="http://www.w3.org/2000/svg">
<mask id="mask0_1_13375" style="mask-type:luminance" maskUnits="userSpaceOnUse" x="2" y="2" width="16" height="14">
<path d="M2.16113 2.14282H17.8388V15.3146H2.16113V2.14282Z" fill="white"/>
</mask>
<g mask="url(#mask0_1_13375)">
<path fill-rule="evenodd" clip-rule="evenodd" d="M10 2.14246C5.67129 2.14246 2.16113 5.65474 2.16113 9.9875C2.16113 10.0066 2.16251 10.0251 2.16251 10.0442C2.16376 10.2542 2.17502 10.4621 2.19217 10.6681C2.47513 13.2807 4.68462 15.3144 7.37042 15.3144C8.31416 15.3144 9.19871 15.0615 9.96249 14.6219C8.41241 13.7124 7.37042 12.0291 7.37042 10.1011C7.37042 8.1729 8.41241 6.48909 9.96249 5.57953C10.738 5.12532 11.6397 4.86336 12.604 4.86336C15.481 4.86336 17.8152 7.18677 17.8369 10.0601C17.8369 10.0357 17.8389 10.012 17.8389 9.9875C17.8389 5.65474 14.3288 2.14246 10 2.14246Z" fill="#2E20FF"/>
</g>
<path fill-rule="evenodd" clip-rule="evenodd" d="M12.5795 4.86719C11.6182 4.86719 10.7193 5.12895 9.94621 5.58454C11.5044 6.48571 12.5551 8.17567 12.5551 10.1135C12.5551 12.0507 11.5044 13.7407 9.94621 14.6419C9.18482 15.0822 8.30304 15.3355 7.36151 15.3355C4.68485 15.3355 2.48227 13.2984 2.2002 10.6815C2.54402 14.7021 5.89661 17.8571 9.98364 17.8571C14.0739 17.8571 17.4291 14.6954 17.7678 10.6696C17.7836 10.4726 17.794 10.2736 17.796 10.0726C17.7737 7.19455 15.4469 4.86719 12.5795 4.86719Z" fill="#44F0B9"/>
</svg>
