<svg width="148" height="52" viewBox="0 0 148 52" fill="none" xmlns="http://www.w3.org/2000/svg">
<path d="M35.8501 36.9067H22.9509C16.8784 36.9067 11.9375 31.9658 11.9375 25.9311C11.9375 19.8587 16.8784 14.9554 22.9131 14.9554H43.8084C44.3364 14.9554 44.7513 15.3703 44.7513 15.8984C44.7513 16.4264 44.3364 16.8413 43.8084 16.8413H22.9509C17.9345 16.8413 13.8234 20.9147 13.8234 25.9311C13.8234 30.9475 17.9345 35.0209 22.9509 35.0209H35.8501C36.3781 35.0209 36.793 35.4358 36.793 35.9638C36.793 36.4919 36.3781 36.9067 35.8501 36.9067Z" fill="#C42A27"/>
<path d="M41.0918 32.5002H22.535C18.8011 32.5002 15.7837 29.4829 15.7837 25.7489C15.7837 22.0149 18.8011 18.9976 22.535 18.9976H31.474C32.002 18.9976 32.4169 19.4124 32.4169 19.9405C32.4169 20.4685 32.002 20.8834 31.474 20.8834H22.535C19.8571 20.8834 17.6695 23.071 17.6695 25.7489C17.6695 28.4268 19.8571 30.6144 22.535 30.6144H41.0918C41.6198 30.6144 42.0347 31.0293 42.0347 31.5573C42.0347 32.0854 41.6198 32.5002 41.0918 32.5002Z" fill="#C42A27"/>
<path d="M28.9097 29.0047H22.0829C20.4611 29.0047 19.1787 27.6846 19.1787 26.1005C19.1787 24.5164 20.4988 23.1963 22.0829 23.1963H37.2074C37.7355 23.1963 38.1504 23.6112 38.1504 24.1392C38.1504 24.6673 37.7355 25.0821 37.2074 25.0821H22.0829C21.5172 25.0821 21.0646 25.5347 21.0646 26.1005C21.0646 26.6663 21.5172 27.1189 22.0829 27.1189H28.9474C29.4755 27.1189 29.8903 27.5337 29.8903 28.0618C29.8903 28.5898 29.4377 29.0047 28.9097 29.0047Z" fill="#C42A27"/>
<path d="M43.8462 41.1433H22.8755C14.54 41.1433 7.75098 34.3543 7.75098 25.9811C7.75098 17.6079 14.54 10.8566 22.8755 10.8566H39.6218C40.1499 10.8566 40.5648 11.2715 40.5648 11.7995C40.5648 12.3275 40.1876 12.7424 39.6596 12.7424H22.8755C15.5961 12.7424 9.63683 18.7017 9.63683 25.9811C9.63683 33.2605 15.5961 39.2198 22.8755 39.2198H43.8084C44.3365 39.2198 44.7514 39.6346 44.7514 40.1627C44.7514 40.6907 44.3742 41.1433 43.8462 41.1433Z" fill="#C42A27"/>
<path d="M136.475 34.7693V17.2433H139.65V32.1079H147.369V34.7693H136.475Z" fill="#464852"/>
<path d="M121.288 34.7693H117.899L124.069 17.2433H127.989L134.167 34.7693H130.779L126.098 20.8375H125.961L121.288 34.7693ZM121.399 27.8975H130.642V30.4477H121.399V27.8975Z" fill="#464852"/>
<path d="M116.341 23.1504H113.14C113.049 22.6255 112.881 22.1605 112.636 21.7555C112.39 21.3447 112.085 20.9967 111.72 20.7114C111.355 20.4262 110.938 20.2122 110.47 20.0696C110.008 19.9213 109.509 19.8471 108.973 19.8471C108.02 19.8471 107.176 20.0867 106.44 20.566C105.704 21.0395 105.128 21.7355 104.711 22.654C104.295 23.5668 104.087 24.6822 104.087 26C104.087 27.3407 104.295 28.4703 104.711 29.3889C105.133 30.3017 105.71 30.992 106.44 31.4598C107.176 31.9219 108.017 32.153 108.964 32.153C109.489 32.153 109.98 32.0845 110.436 31.9476C110.898 31.805 111.312 31.5967 111.677 31.3229C112.048 31.049 112.359 30.7124 112.61 30.3131C112.867 29.9137 113.043 29.4573 113.14 28.9439L116.341 28.961C116.221 29.7939 115.962 30.5755 115.562 31.3058C115.169 32.036 114.652 32.6807 114.013 33.2398C113.374 33.7932 112.627 34.2268 111.771 34.5405C110.915 34.8486 109.966 35.0027 108.922 35.0027C107.381 35.0027 106.006 34.6461 104.797 33.933C103.587 33.2198 102.635 32.1901 101.939 30.8437C101.243 29.4973 100.895 27.8827 100.895 26C100.895 24.1117 101.245 22.4971 101.947 21.1564C102.649 19.81 103.604 18.7803 104.814 18.0671C106.023 17.354 107.393 16.9974 108.922 16.9974C109.897 16.9974 110.804 17.1344 111.643 17.4082C112.482 17.682 113.229 18.0843 113.885 18.6148C114.541 19.1397 115.08 19.7844 115.502 20.5488C115.93 21.3076 116.21 22.1748 116.341 23.1504Z" fill="#464852"/>
<path d="M86.9767 34.7693H83.5879L89.7579 17.2433H93.6773L99.8559 34.7693H96.4671L91.7861 20.8375H91.6492L86.9767 34.7693ZM87.088 27.8975H96.3302V30.4477H87.088V27.8975Z" fill="#464852"/>
<path d="M81.2662 17.2433V34.7693H78.4422L70.1841 22.8314H70.0386V34.7693H66.8638V17.2433H69.7049L77.9544 29.1897H78.1085V17.2433H81.2662Z" fill="#464852"/>
<path d="M63.4259 17.2433V34.7693H60.251V17.2433H63.4259Z" fill="#464852"/>
</svg>
