<svg width="24" height="25" viewBox="0 0 24 25" fill="none" xmlns="http://www.w3.org/2000/svg">
<mask id="mask0_1_42328" style="mask-type:alpha" maskUnits="userSpaceOnUse" x="0" y="0" width="24" height="25">
<rect y="0.5" width="24" height="24" fill="#D9D9D9"/>
</mask>
<g mask="url(#mask0_1_42328)">
<path d="M10.0751 22.1L9.5251 19.25C9.14176 19.1 8.77093 18.925 8.4126 18.725C8.05426 18.525 7.71676 18.2917 7.4001 18.025L4.6501 18.95L2.7251 15.625L4.9001 13.725C4.86676 13.525 4.84176 13.325 4.8251 13.125C4.80843 12.925 4.8001 12.7167 4.8001 12.5C4.8001 12.2834 4.80843 12.075 4.8251 11.875C4.84176 11.675 4.86676 11.475 4.9001 11.275L2.7251 9.37502L4.6501 6.05002L7.4001 6.97502C7.71676 6.70836 8.05426 6.47502 8.4126 6.27502C8.77093 6.07502 9.14176 5.90002 9.5251 5.75002L10.0751 2.90002H13.9251L14.4751 5.75002C14.8584 5.90002 15.2293 6.07502 15.5876 6.27502C15.9459 6.47502 16.2834 6.70836 16.6001 6.97502L19.3501 6.05002L21.2751 9.37502L19.1001 11.275C19.1334 11.475 19.1584 11.675 19.1751 11.875C19.1918 12.075 19.2001 12.2834 19.2001 12.5C19.2001 12.7167 19.1918 12.925 19.1751 13.125C19.1584 13.325 19.1334 13.525 19.1001 13.725L21.2751 15.625L19.3501 18.95L16.6001 18.025C16.2834 18.2917 15.9459 18.525 15.5876 18.725C15.2293 18.925 14.8584 19.1 14.4751 19.25L13.9251 22.1H10.0751ZM11.5501 20.3H12.4501L12.9251 17.825C13.5584 17.7084 14.1501 17.4917 14.7001 17.175C15.2501 16.8584 15.7251 16.4584 16.1251 15.975L18.5251 16.775L18.9751 16.025L17.0751 14.35C17.1751 14.0667 17.2543 13.7709 17.3126 13.4625C17.3709 13.1542 17.4001 12.8334 17.4001 12.5C17.4001 12.1667 17.3709 11.8459 17.3126 11.5375C17.2543 11.2292 17.1751 10.9334 17.0751 10.65L18.9751 8.97502L18.5251 8.22502L16.1251 9.02503C15.7251 8.54169 15.2501 8.14169 14.7001 7.82502C14.1501 7.50836 13.5584 7.29169 12.9251 7.17502L12.4501 4.70002H11.5501L11.0751 7.17502C10.4418 7.29169 9.8501 7.50836 9.3001 7.82502C8.7501 8.14169 8.2751 8.54169 7.8751 9.02503L5.4751 8.22502L5.0251 8.97502L6.9251 10.65C6.8251 10.9334 6.74593 11.2292 6.6876 11.5375C6.62926 11.8459 6.6001 12.1667 6.6001 12.5C6.6001 12.8334 6.62926 13.1542 6.6876 13.4625C6.74593 13.7709 6.8251 14.0667 6.9251 14.35L5.0251 16.025L5.4751 16.775L7.8751 15.975C8.2751 16.4584 8.7501 16.8584 9.3001 17.175C9.8501 17.4917 10.4418 17.7084 11.0751 17.825L11.5501 20.3ZM12.0001 16.1C13.0001 16.1 13.8501 15.75 14.5501 15.05C15.2501 14.35 15.6001 13.5 15.6001 12.5C15.6001 11.5 15.2501 10.65 14.5501 9.95002C13.8501 9.25002 13.0001 8.90002 12.0001 8.90002C11.0001 8.90002 10.1501 9.25002 9.4501 9.95002C8.7501 10.65 8.4001 11.5 8.4001 12.5C8.4001 13.5 8.7501 14.35 9.4501 15.05C10.1501 15.75 11.0001 16.1 12.0001 16.1Z" fill="#464852"/>
</g>
</svg>
