<svg width="32" height="32" viewBox="0 0 32 32" fill="none" xmlns="http://www.w3.org/2000/svg">
<g opacity="0.8">
<mask id="path-1-inside-1_8_11463" fill="white">
<path d="M0 0H32V32H0V0Z"/>
</mask>
<path d="M0 2H32V-2H0V2ZM32 30H0V34H32V30Z" fill="#F2F4F4" mask="url(#path-1-inside-1_8_11463)"/>
<path d="M11.5556 16C11.5556 16.4715 11.3683 16.9237 11.0349 17.2571C10.7015 17.5905 10.2493 17.7778 9.77778 17.7778C9.30628 17.7778 8.8541 17.5905 8.5207 17.2571C8.1873 16.9237 8 16.4715 8 16C8 15.5285 8.1873 15.0763 8.5207 14.7429C8.8541 14.4095 9.30628 14.2222 9.77778 14.2222C10.2493 14.2222 10.7015 14.4095 11.0349 14.7429C11.3683 15.0763 11.5556 15.5285 11.5556 16ZM17.7778 16C17.7778 16.4715 17.5905 16.9237 17.2571 17.2571C16.9237 17.5905 16.4715 17.7778 16 17.7778C15.5285 17.7778 15.0763 17.5905 14.7429 17.2571C14.4095 16.9237 14.2222 16.4715 14.2222 16C14.2222 15.5285 14.4095 15.0763 14.7429 14.7429C15.0763 14.4095 15.5285 14.2222 16 14.2222C16.4715 14.2222 16.9237 14.4095 17.2571 14.7429C17.5905 15.0763 17.7778 15.5285 17.7778 16ZM24 16C24 16.4715 23.8127 16.9237 23.4793 17.2571C23.1459 17.5905 22.6937 17.7778 22.2222 17.7778C21.7507 17.7778 21.2985 17.5905 20.9651 17.2571C20.6317 16.9237 20.4444 16.4715 20.4444 16C20.4444 15.5285 20.6317 15.0763 20.9651 14.7429C21.2985 14.4095 21.7507 14.2222 22.2222 14.2222C22.6937 14.2222 23.1459 14.4095 23.4793 14.7429C23.8127 15.0763 24 15.5285 24 16Z" fill="#1773FC"/>
</g>
</svg>
