<svg width="62" height="62" viewBox="0 0 62 62" fill="none" xmlns="http://www.w3.org/2000/svg">
<g filter="url(#filter0_d_8_11165)">
<rect width="54" height="54" rx="8" fill="#DFE1EB"/>
<path d="M30.1465 16.6839C30.1465 15.2081 29.5023 14.3998 28.0733 14.1773C23.6926 13.5097 19.3119 12.8537 14.9429 12.1861C13.0805 11.8932 12.0029 12.7834 12.0029 14.6693V40.2038C12.0029 40.3795 11.9912 40.5552 12.0146 40.7309C12.0732 41.3283 12.5183 41.8437 13.104 41.8554C13.5491 41.8671 15.2592 41.8671 17.4495 41.8671V32.9534H24.7117V41.8554C27.3237 41.8437 29.5023 41.8437 30.1465 41.8437V32.684C30.1465 27.3428 30.1465 22.0134 30.1465 16.6839ZM23.0718 17.2344C23.8215 17.1641 24.5945 17.1759 25.3442 17.2461C25.8244 17.293 26.0821 17.6912 26.047 18.1715C26.0118 18.6751 25.719 19.0031 25.1919 19.0382C24.8639 19.0617 24.5242 19.0382 24.1963 19.0382C23.8683 19.0382 23.5286 19.0617 23.2007 19.0382C22.6736 19.0031 22.369 18.6986 22.3222 18.1949C22.287 17.6795 22.5682 17.2696 23.0718 17.2344ZM19.8039 29.4043C19.7804 29.908 19.4876 30.236 18.9605 30.2828C18.6326 30.3063 18.2929 30.2828 17.9649 30.2828C17.6135 30.2828 17.2621 30.3063 16.9107 30.2711C16.4188 30.2243 16.1259 29.9314 16.0908 29.4395C16.0557 28.9475 16.2782 28.5376 16.7585 28.4907C17.5315 28.4204 18.3163 28.4204 19.0776 28.479C19.5696 28.5259 19.8273 28.9241 19.8039 29.4043ZM16.8522 20.9709C17.5901 20.9123 18.328 20.9123 19.0659 20.9826C19.5813 21.0295 19.8507 21.4394 19.8039 21.9431C19.7687 22.4468 19.4525 22.763 18.9254 22.7864C18.5974 22.7982 18.2577 22.7864 17.9298 22.7864C17.6135 22.7864 17.309 22.7982 16.9927 22.7864C16.4773 22.763 16.1611 22.4936 16.0908 21.9665C16.0322 21.4629 16.3368 21.006 16.8522 20.9709ZM19.8039 25.6561C19.7804 26.1598 19.4876 26.4878 18.9605 26.5346C18.6326 26.5581 18.2929 26.5346 17.9649 26.5346C17.6135 26.5346 17.2621 26.5581 16.9107 26.5229C16.4188 26.4761 16.1259 26.1832 16.0908 25.6913C16.0557 25.1993 16.2782 24.7894 16.7585 24.7425C17.5315 24.6722 18.3163 24.6722 19.0776 24.7308C19.5696 24.7777 19.8273 25.1759 19.8039 25.6561ZM19.8039 18.1598C19.7804 18.6634 19.4876 18.9914 18.9605 19.0265C18.6326 19.05 18.2929 19.0265 17.9649 19.0265C17.6135 19.0265 17.2621 19.05 16.9107 19.0148C16.4188 18.968 16.1259 18.6751 16.0908 18.1832C16.0557 17.6912 16.2782 17.2813 16.7585 17.2344C17.5315 17.1641 18.3163 17.1641 19.0776 17.2227C19.5696 17.2813 19.8273 17.6795 19.8039 18.1598ZM26.0587 29.4161C26.0235 29.9197 25.7307 30.2477 25.2036 30.2828C24.8756 30.3063 24.536 30.2828 24.208 30.2828C23.88 30.2828 23.5403 30.2945 23.2124 30.2828C22.6853 30.2477 22.3807 29.9431 22.3339 29.4395C22.287 28.9241 22.5682 28.5259 23.0718 28.479C23.8215 28.4087 24.5945 28.4204 25.3442 28.4907C25.8244 28.5376 26.0821 28.9241 26.0587 29.4161ZM26.0587 25.6796C26.0235 26.1832 25.719 26.4995 25.1919 26.5346C24.8639 26.5581 24.5242 26.5346 24.1963 26.5346C23.8683 26.5346 23.5286 26.5581 23.2007 26.5346C22.6736 26.4995 22.369 26.195 22.3339 25.6796C22.2988 25.1642 22.5799 24.766 23.0835 24.7308C23.8215 24.6605 24.5711 24.6605 25.2973 24.7308C25.801 24.766 26.0821 25.1642 26.0587 25.6796ZM26.047 21.9548C26.0001 22.4585 25.6838 22.763 25.1568 22.7864C24.8288 22.7982 24.4891 22.7864 24.1611 22.7864C23.8332 22.7864 23.4935 22.8099 23.1655 22.7747C22.6736 22.7396 22.369 22.435 22.3222 21.9548C22.2753 21.4394 22.533 21.0295 23.0367 20.9826C23.7863 20.9123 24.5594 20.9123 25.309 20.9826C25.8244 21.0295 26.1055 21.4394 26.047 21.9548Z" fill="#464852"/>
<path d="M31.3994 41.8686C31.3994 35.731 31.3994 29.687 31.3994 23.5728C32.8518 23.8773 34.2574 24.1584 35.6747 24.4512C37.1037 24.7441 38.5327 25.0486 39.9617 25.3531C41.3673 25.646 41.9998 26.4073 41.9998 27.8363C41.9998 31.7017 41.9998 35.5553 41.9998 39.4206C41.9998 40.9784 41.1213 41.8686 39.5869 41.8686C36.8811 41.8686 34.1637 41.8686 31.3994 41.8686ZM36.3775 30.6123C36.6703 30.6123 36.9631 30.6123 37.256 30.6123C37.2911 30.6123 37.338 30.6123 37.3731 30.6123C37.8885 30.5538 38.2516 30.1789 38.2516 29.687C38.2516 29.2068 37.8885 28.7851 37.3848 28.7617C36.7172 28.7265 36.0612 28.7265 35.3936 28.7617C34.8782 28.7851 34.5151 29.195 34.5151 29.6753C34.5151 30.1555 34.8782 30.5655 35.3819 30.6123C35.7098 30.6358 36.0378 30.6123 36.3775 30.6123ZM36.3541 34.3605C36.7055 34.3605 37.0568 34.3957 37.4082 34.3488C37.9119 34.2903 38.2164 33.9623 38.2399 33.4469C38.275 32.9667 37.9002 32.5216 37.3965 32.4981C36.7172 32.463 36.0261 32.4513 35.3467 32.4981C34.8431 32.5333 34.5385 32.873 34.5151 33.3883C34.48 33.8686 34.8548 34.2903 35.3584 34.3371C35.6864 34.384 36.0261 34.3605 36.3541 34.3605ZM36.3658 38.1087C36.6586 38.1087 36.9514 38.1087 37.2443 38.1087C37.2794 38.1087 37.3262 38.1087 37.3614 38.1087C37.8768 38.0502 38.2399 37.6753 38.2399 37.1834C38.2399 36.7032 37.8768 36.2815 37.3731 36.2581C36.7055 36.2229 36.0495 36.2229 35.3819 36.2581C34.8665 36.2815 34.5034 36.6914 34.5034 37.1717C34.5034 37.6519 34.8665 38.0619 35.3702 38.1087C35.7098 38.1322 36.0378 38.1087 36.3658 38.1087Z" fill="#464852"/>
</g>
<defs>
<filter id="filter0_d_8_11165" x="0" y="0" width="62" height="62" filterUnits="userSpaceOnUse" color-interpolation-filters="sRGB">
<feFlood flood-opacity="0" result="BackgroundImageFix"/>
<feColorMatrix in="SourceAlpha" type="matrix" values="0 0 0 0 0 0 0 0 0 0 0 0 0 0 0 0 0 0 127 0" result="hardAlpha"/>
<feOffset dx="4" dy="4"/>
<feGaussianBlur stdDeviation="2"/>
<feComposite in2="hardAlpha" operator="out"/>
<feColorMatrix type="matrix" values="0 0 0 0 0.00979167 0 0 0 0 0.329281 0 0 0 0 0.391667 0 0 0 0.02 0"/>
<feBlend mode="normal" in2="BackgroundImageFix" result="effect1_dropShadow_8_11165"/>
<feBlend mode="normal" in="SourceGraphic" in2="effect1_dropShadow_8_11165" result="shape"/>
</filter>
</defs>
</svg>
