<svg width="21" height="20" viewBox="0 0 21 20" fill="none" xmlns="http://www.w3.org/2000/svg">
<mask id="mask0_1_16592" style="mask-type:alpha" maskUnits="userSpaceOnUse" x="0" y="0" width="21" height="20">
<rect x="0.428711" width="20" height="20" fill="#D9D9D9"/>
</mask>
<g mask="url(#mask0_1_16592)">
<path d="M9.67884 11.125V5.75C9.67884 5.54167 9.75176 5.36458 9.89759 5.21875C10.0434 5.07292 10.2205 5 10.4288 5C10.6372 5 10.8143 5.07292 10.9601 5.21875C11.1059 5.36458 11.1788 5.54167 11.1788 5.75V11.125L12.8455 9.45833C12.9983 9.30556 13.1754 9.22917 13.3768 9.22917C13.5781 9.22917 13.7552 9.30556 13.908 9.45833C14.0608 9.61111 14.1372 9.78819 14.1372 9.98958C14.1372 10.191 14.0608 10.3681 13.908 10.5208L10.9497 13.4792C10.7969 13.6319 10.6233 13.7083 10.4288 13.7083C10.2344 13.7083 10.0608 13.6319 9.90801 13.4792L6.94967 10.5208C6.79689 10.3681 6.72398 10.191 6.73092 9.98958C6.73787 9.78819 6.81773 9.61111 6.9705 9.45833C7.12328 9.30556 7.30037 9.22917 7.50175 9.22917C7.70314 9.22917 7.88023 9.30556 8.033 9.45833L9.67884 11.125Z" fill="#464852"/>
</g>
</svg>
