<svg width="21" height="20" viewBox="0 0 21 20" fill="none" xmlns="http://www.w3.org/2000/svg">
<mask id="mask0_8_7936" style="mask-type:alpha" maskUnits="userSpaceOnUse" x="0" y="0" width="21" height="20">
<rect x="0.143555" width="20" height="20" fill="#D9D9D9"/>
</mask>
<g mask="url(#mask0_8_7936)">
<path d="M9.39368 11.125V5.75C9.39368 5.54167 9.4666 5.36458 9.61243 5.21875C9.75827 5.07292 9.93535 5 10.1437 5C10.352 5 10.5291 5.07292 10.6749 5.21875C10.8208 5.36458 10.8937 5.54167 10.8937 5.75V11.125L12.5603 9.45833C12.7131 9.30556 12.8902 9.22917 13.0916 9.22917C13.293 9.22917 13.4701 9.30556 13.6228 9.45833C13.7756 9.61111 13.852 9.78819 13.852 9.98958C13.852 10.191 13.7756 10.3681 13.6228 10.5208L10.6645 13.4792C10.5117 13.6319 10.3381 13.7083 10.1437 13.7083C9.94924 13.7083 9.77563 13.6319 9.62285 13.4792L6.66452 10.5208C6.51174 10.3681 6.43882 10.191 6.44577 9.98958C6.45271 9.78819 6.53257 9.61111 6.68535 9.45833C6.83813 9.30556 7.01521 9.22917 7.2166 9.22917C7.41799 9.22917 7.59507 9.30556 7.74785 9.45833L9.39368 11.125Z" fill="#464852"/>
</g>
</svg>
