<svg width="21" height="20" viewBox="0 0 21 20" fill="none" xmlns="http://www.w3.org/2000/svg">
<mask id="mask0_8_3551" style="mask-type:alpha" maskUnits="userSpaceOnUse" x="0" y="0" width="21" height="20">
<rect x="0.286133" width="20" height="20" fill="#D9D9D9"/>
</mask>
<g mask="url(#mask0_8_3551)">
<path d="M9.53626 11.125V5.75C9.53626 5.54167 9.60918 5.36458 9.75501 5.21875C9.90084 5.07292 10.0779 5 10.2863 5C10.4946 5 10.6717 5.07292 10.8175 5.21875C10.9633 5.36458 11.0363 5.54167 11.0363 5.75V11.125L12.7029 9.45833C12.8557 9.30556 13.0328 9.22917 13.2342 9.22917C13.4356 9.22917 13.6126 9.30556 13.7654 9.45833C13.9182 9.61111 13.9946 9.78819 13.9946 9.98958C13.9946 10.191 13.9182 10.3681 13.7654 10.5208L10.8071 13.4792C10.6543 13.6319 10.4807 13.7083 10.2863 13.7083C10.0918 13.7083 9.9182 13.6319 9.76543 13.4792L6.80709 10.5208C6.65432 10.3681 6.5814 10.191 6.58834 9.98958C6.59529 9.78819 6.67515 9.61111 6.82793 9.45833C6.9807 9.30556 7.15779 9.22917 7.35918 9.22917C7.56057 9.22917 7.73765 9.30556 7.89043 9.45833L9.53626 11.125Z" fill="#464852"/>
</g>
</svg>
