<svg width="21" height="20" viewBox="0 0 21 20" fill="none" xmlns="http://www.w3.org/2000/svg">
<mask id="mask0_8_3375" style="mask-type:alpha" maskUnits="userSpaceOnUse" x="0" y="0" width="21" height="20">
<rect x="0.572266" width="20" height="20" fill="#D9D9D9"/>
</mask>
<g mask="url(#mask0_8_3375)">
<path d="M9.82239 11.125V5.75C9.82239 5.54167 9.89531 5.36458 10.0411 5.21875C10.187 5.07292 10.3641 5 10.5724 5C10.7807 5 10.9578 5.07292 11.1036 5.21875C11.2495 5.36458 11.3224 5.54167 11.3224 5.75V11.125L12.9891 9.45833C13.1418 9.30556 13.3189 9.22917 13.5203 9.22917C13.7217 9.22917 13.8988 9.30556 14.0516 9.45833C14.2043 9.61111 14.2807 9.78819 14.2807 9.98958C14.2807 10.191 14.2043 10.3681 14.0516 10.5208L11.0932 13.4792C10.9404 13.6319 10.7668 13.7083 10.5724 13.7083C10.3779 13.7083 10.2043 13.6319 10.0516 13.4792L7.09323 10.5208C6.94045 10.3681 6.86753 10.191 6.87448 9.98958C6.88142 9.78819 6.96128 9.61111 7.11406 9.45833C7.26684 9.30556 7.44392 9.22917 7.64531 9.22917C7.8467 9.22917 8.02378 9.30556 8.17656 9.45833L9.82239 11.125Z" fill="#464852"/>
</g>
</svg>
