<svg width="20" height="20" viewBox="0 0 20 20" fill="none" xmlns="http://www.w3.org/2000/svg">
<mask id="mask0_42_13042" style="mask-type:alpha" maskUnits="userSpaceOnUse" x="0" y="0" width="20" height="20">
<rect width="20" height="20" fill="#D9D9D9"/>
</mask>
<g mask="url(#mask0_42_13042)">
<path d="M9.25001 11.125V5.75C9.25001 5.54167 9.32292 5.36458 9.46876 5.21875C9.61459 5.07292 9.79167 5 10 5C10.2083 5 10.3854 5.07292 10.5313 5.21875C10.6771 5.36458 10.75 5.54167 10.75 5.75V11.125L12.4167 9.45833C12.5694 9.30556 12.7465 9.22917 12.9479 9.22917C13.1493 9.22917 13.3264 9.30556 13.4792 9.45833C13.6319 9.61111 13.7083 9.78819 13.7083 9.98958C13.7083 10.191 13.6319 10.3681 13.4792 10.5208L10.5208 13.4792C10.3681 13.6319 10.1944 13.7083 10 13.7083C9.80556 13.7083 9.63195 13.6319 9.47917 13.4792L6.52084 10.5208C6.36806 10.3681 6.29514 10.191 6.30209 9.98958C6.30903 9.78819 6.38889 9.61111 6.54167 9.45833C6.69445 9.30556 6.87153 9.22917 7.07292 9.22917C7.27431 9.22917 7.45139 9.30556 7.60417 9.45833L9.25001 11.125Z" fill="#464852"/>
</g>
</svg>
