<svg width="56" height="56" viewBox="0 0 56 56" fill="none" xmlns="http://www.w3.org/2000/svg">
<g filter="url(#filter0_d_42_11170)">
<rect width="48" height="48" rx="24" fill="#DCDCDC" shape-rendering="crispEdges"/>
<rect x="1.5" y="1.5" width="45" height="45" rx="22.5" stroke="white" stroke-width="3" shape-rendering="crispEdges"/>
<mask id="mask0_42_11170" style="mask-type:alpha" maskUnits="userSpaceOnUse" x="7" y="8" width="33" height="33">
<rect x="7.5022" y="8.18164" width="32" height="32" fill="#D9D9D9"/>
</mask>
<g mask="url(#mask0_42_11170)">
<path d="M15.0354 31.4486C16.3465 30.5671 17.6909 29.8912 19.0687 29.421C20.4465 28.9505 21.9243 28.7153 23.502 28.7153C25.0798 28.7153 26.5613 28.9505 27.9464 29.421C29.3317 29.8912 30.6799 30.5671 31.991 31.4486C32.9021 30.3449 33.5669 29.193 33.9854 27.993C34.4038 26.793 34.613 25.5226 34.613 24.182C34.613 21.0486 33.5446 18.4134 31.4077 16.2763C29.2706 14.1394 26.6354 13.071 23.502 13.071C20.3687 13.071 17.7335 14.1394 15.5964 16.2763C13.4595 18.4134 12.391 21.0486 12.391 24.182C12.391 25.5226 12.6039 26.793 13.0297 27.993C13.4557 29.193 14.1243 30.3449 15.0354 31.4486ZM23.498 25.293C22.2045 25.293 21.115 24.8491 20.2297 23.9613C19.3446 23.0733 18.902 21.9825 18.902 20.689C18.902 19.3954 19.346 18.3061 20.234 17.421C21.1218 16.5356 22.2125 16.093 23.506 16.093C24.7996 16.093 25.889 16.537 26.7744 17.425C27.6595 18.313 28.102 19.4037 28.102 20.6973C28.102 21.9909 27.658 23.0802 26.77 23.9653C25.8823 24.8504 24.7916 25.293 23.498 25.293ZM23.493 37.5153C21.6464 37.5153 19.911 37.1653 18.287 36.4653C16.6628 35.7653 15.25 34.8116 14.0487 33.6043C12.8471 32.3967 11.9001 30.9831 11.2077 29.3633C10.515 27.7435 10.1687 26.0127 10.1687 24.171C10.1687 22.3292 10.5187 20.5983 11.2187 18.9783C11.9187 17.3585 12.8724 15.9486 14.0797 14.7486C15.2873 13.5486 16.7009 12.5986 18.3207 11.8986C19.9405 11.1986 21.6713 10.8486 23.513 10.8486C25.3548 10.8486 27.0857 11.1986 28.7057 11.8986C30.3255 12.5986 31.7354 13.5486 32.9354 14.7486C34.1354 15.9486 35.0854 17.3597 35.7854 18.982C36.4854 20.6042 36.8354 22.3355 36.8354 24.176C36.8354 26.0166 36.4854 27.7463 35.7854 29.365C35.0854 30.9836 34.1354 32.3967 32.9354 33.6043C31.7354 34.8116 30.3233 35.7653 28.699 36.4653C27.075 37.1653 25.3397 37.5153 23.493 37.5153Z" fill="#1C1B1F"/>
</g>
</g>
<defs>
<filter id="filter0_d_42_11170" x="0" y="0" width="56" height="56" filterUnits="userSpaceOnUse" color-interpolation-filters="sRGB">
<feFlood flood-opacity="0" result="BackgroundImageFix"/>
<feColorMatrix in="SourceAlpha" type="matrix" values="0 0 0 0 0 0 0 0 0 0 0 0 0 0 0 0 0 0 127 0" result="hardAlpha"/>
<feOffset dx="4" dy="4"/>
<feGaussianBlur stdDeviation="2"/>
<feComposite in2="hardAlpha" operator="out"/>
<feColorMatrix type="matrix" values="0 0 0 0 0.00979167 0 0 0 0 0.329281 0 0 0 0 0.391667 0 0 0 0.02 0"/>
<feBlend mode="normal" in2="BackgroundImageFix" result="effect1_dropShadow_42_11170"/>
<feBlend mode="normal" in="SourceGraphic" in2="effect1_dropShadow_42_11170" result="shape"/>
</filter>
</defs>
</svg>
