<svg width="24" height="24" viewBox="0 0 24 24" fill="none" xmlns="http://www.w3.org/2000/svg">
<path d="M7 5.125C7 4.95924 7.06585 4.80027 7.18306 4.68306C7.30027 4.56585 7.45924 4.5 7.625 4.5H8.875C9.04076 4.5 9.19973 4.56585 9.31694 4.68306C9.43415 4.80027 9.5 4.95924 9.5 5.125V6.375C9.5 6.54076 9.43415 6.69973 9.31694 6.81694C9.19973 6.93415 9.04076 7 8.875 7H7.625C7.45924 7 7.30027 6.93415 7.18306 6.81694C7.06585 6.69973 7 6.54076 7 6.375V5.125ZM10.75 5.125C10.75 4.95924 10.8158 4.80027 10.9331 4.68306C11.0503 4.56585 11.2092 4.5 11.375 4.5H12.625C12.7908 4.5 12.9497 4.56585 13.0669 4.68306C13.1842 4.80027 13.25 4.95924 13.25 5.125V6.375C13.25 6.54076 13.1842 6.69973 13.0669 6.81694C12.9497 6.93415 12.7908 7 12.625 7H11.375C11.2092 7 11.0503 6.93415 10.9331 6.81694C10.8158 6.69973 10.75 6.54076 10.75 6.375V5.125ZM15.125 4.5C14.9592 4.5 14.8003 4.56585 14.6831 4.68306C14.5658 4.80027 14.5 4.95924 14.5 5.125V6.375C14.5 6.54076 14.5658 6.69973 14.6831 6.81694C14.8003 6.93415 14.9592 7 15.125 7H16.375C16.5408 7 16.6997 6.93415 16.8169 6.81694C16.9342 6.69973 17 6.54076 17 6.375V5.125C17 4.95924 16.9342 4.80027 16.8169 4.68306C16.6997 4.56585 16.5408 4.5 16.375 4.5H15.125ZM7 8.875C7 8.70924 7.06585 8.55027 7.18306 8.43306C7.30027 8.31585 7.45924 8.25 7.625 8.25H8.875C9.04076 8.25 9.19973 8.31585 9.31694 8.43306C9.43415 8.55027 9.5 8.70924 9.5 8.875V10.125C9.5 10.2908 9.43415 10.4497 9.31694 10.5669C9.19973 10.6842 9.04076 10.75 8.875 10.75H7.625C7.45924 10.75 7.30027 10.6842 7.18306 10.5669C7.06585 10.4497 7 10.2908 7 10.125V8.875ZM11.375 8.25C11.2092 8.25 11.0503 8.31585 10.9331 8.43306C10.8158 8.55027 10.75 8.70924 10.75 8.875V10.125C10.75 10.2908 10.8158 10.4497 10.9331 10.5669C11.0503 10.6842 11.2092 10.75 11.375 10.75H12.625C12.7908 10.75 12.9497 10.6842 13.0669 10.5669C13.1842 10.4497 13.25 10.2908 13.25 10.125V8.875C13.25 8.70924 13.1842 8.55027 13.0669 8.43306C12.9497 8.31585 12.7908 8.25 12.625 8.25H11.375ZM14.5 8.875C14.5 8.70924 14.5658 8.55027 14.6831 8.43306C14.8003 8.31585 14.9592 8.25 15.125 8.25H16.375C16.5408 8.25 16.6997 8.31585 16.8169 8.43306C16.9342 8.55027 17 8.70924 17 8.875V10.125C17 10.2908 16.9342 10.4497 16.8169 10.5669C16.6997 10.6842 16.5408 10.75 16.375 10.75H15.125C14.9592 10.75 14.8003 10.6842 14.6831 10.5669C14.5658 10.4497 14.5 10.2908 14.5 10.125V8.875ZM7.625 12C7.45924 12 7.30027 12.0658 7.18306 12.1831C7.06585 12.3003 7 12.4592 7 12.625V13.875C7 14.0408 7.06585 14.1997 7.18306 14.3169C7.30027 14.4342 7.45924 14.5 7.625 14.5H8.875C9.04076 14.5 9.19973 14.4342 9.31694 14.3169C9.43415 14.1997 9.5 14.0408 9.5 13.875V12.625C9.5 12.4592 9.43415 12.3003 9.31694 12.1831C9.19973 12.0658 9.04076 12 8.875 12H7.625ZM10.75 12.625C10.75 12.4592 10.8158 12.3003 10.9331 12.1831C11.0503 12.0658 11.2092 12 11.375 12H12.625C12.7908 12 12.9497 12.0658 13.0669 12.1831C13.1842 12.3003 13.25 12.4592 13.25 12.625V13.875C13.25 14.0408 13.1842 14.1997 13.0669 14.3169C12.9497 14.4342 12.7908 14.5 12.625 14.5H11.375C11.2092 14.5 11.0503 14.4342 10.9331 14.3169C10.8158 14.1997 10.75 14.0408 10.75 13.875V12.625ZM15.125 12C14.9592 12 14.8003 12.0658 14.6831 12.1831C14.5658 12.3003 14.5 12.4592 14.5 12.625V13.875C14.5 14.0408 14.5658 14.1997 14.6831 14.3169C14.8003 14.4342 14.9592 14.5 15.125 14.5H16.375C16.5408 14.5 16.6997 14.4342 16.8169 14.3169C16.9342 14.1997 17 14.0408 17 13.875V12.625C17 12.4592 16.9342 12.3003 16.8169 12.1831C16.6997 12.0658 16.5408 12 16.375 12H15.125Z" fill="#596387"/>
<path d="M4.5 3.25C4.5 2.91848 4.6317 2.60054 4.86612 2.36612C5.10054 2.1317 5.41848 2 5.75 2H18.25C18.5815 2 18.8995 2.1317 19.1339 2.36612C19.3683 2.60054 19.5 2.91848 19.5 3.25V20.75C19.5 21.0815 19.3683 21.3995 19.1339 21.6339C18.8995 21.8683 18.5815 22 18.25 22H5.75C5.41848 22 5.10054 21.8683 4.86612 21.6339C4.6317 21.3995 4.5 21.0815 4.5 20.75V3.25ZM18.25 3.25H5.75V20.75H9.5V17.625C9.5 17.4592 9.56585 17.3003 9.68306 17.1831C9.80027 17.0658 9.95924 17 10.125 17H13.875C14.0408 17 14.1997 17.0658 14.3169 17.1831C14.4342 17.3003 14.5 17.4592 14.5 17.625V20.75H18.25V3.25Z" fill="#596387"/>
</svg>
