<svg width="24" height="24" viewBox="0 0 24 24" fill="none" xmlns="http://www.w3.org/2000/svg">
<path d="M20.9375 5.125C21.1198 5.125 21.2947 5.19743 21.4236 5.32636C21.5526 5.4553 21.625 5.63016 21.625 5.8125V18.1875C21.625 18.3698 21.5526 18.5447 21.4236 18.6736C21.2947 18.8026 21.1198 18.875 20.9375 18.875H3.0625C2.88016 18.875 2.7053 18.8026 2.57636 18.6736C2.44743 18.5447 2.375 18.3698 2.375 18.1875V5.8125C2.375 5.63016 2.44743 5.4553 2.57636 5.32636C2.7053 5.19743 2.88016 5.125 3.0625 5.125H20.9375ZM3.0625 3.75C2.51549 3.75 1.99089 3.9673 1.60409 4.35409C1.2173 4.74089 1 5.26549 1 5.8125L1 18.1875C1 18.7345 1.2173 19.2591 1.60409 19.6459C1.99089 20.0327 2.51549 20.25 3.0625 20.25H20.9375C21.4845 20.25 22.0091 20.0327 22.3959 19.6459C22.7827 19.2591 23 18.7345 23 18.1875V5.8125C23 5.26549 22.7827 4.74089 22.3959 4.35409C22.0091 3.9673 21.4845 3.75 20.9375 3.75H3.0625Z" fill="#596387"/>
<path d="M10.6251 8.56226C10.6251 8.37993 10.6975 8.20506 10.8264 8.07613C10.9554 7.9472 11.1302 7.87476 11.3126 7.87476H18.1876C18.3699 7.87476 18.5448 7.9472 18.6737 8.07613C18.8026 8.20506 18.8751 8.37993 18.8751 8.56226C18.8751 8.7446 18.8026 8.91947 18.6737 9.0484C18.5448 9.17733 18.3699 9.24976 18.1876 9.24976H11.3126C11.1302 9.24976 10.9554 9.17733 10.8264 9.0484C10.6975 8.91947 10.6251 8.7446 10.6251 8.56226ZM8.56806 7.38801C8.63209 7.45188 8.68288 7.52774 8.71754 7.61127C8.7522 7.69479 8.77004 7.78433 8.77004 7.87476C8.77004 7.96519 8.7522 8.05474 8.71754 8.13826C8.68288 8.22178 8.63209 8.29765 8.56806 8.36151L6.50556 10.424C6.4417 10.488 6.36583 10.5388 6.28231 10.5735C6.19878 10.6082 6.10924 10.626 6.01881 10.626C5.92838 10.626 5.83884 10.6082 5.75532 10.5735C5.67179 10.5388 5.59593 10.488 5.53206 10.424L4.84456 9.73651C4.78064 9.67259 4.72994 9.59671 4.69534 9.51319C4.66075 9.42967 4.64294 9.34016 4.64294 9.24976C4.64294 9.0672 4.71547 8.89211 4.84456 8.76301C4.97366 8.63392 5.14875 8.5614 5.33131 8.5614C5.51388 8.5614 5.68897 8.63392 5.81806 8.76301L6.01881 8.96514L7.59456 7.38801C7.65843 7.32399 7.73429 7.27319 7.81782 7.23853C7.90134 7.20387 7.99088 7.18604 8.08131 7.18604C8.17174 7.18604 8.26128 7.20387 8.34481 7.23853C8.42833 7.27319 8.5042 7.32399 8.56806 7.38801ZM10.6251 14.0623C10.6251 13.8799 10.6975 13.7051 10.8264 13.5761C10.9554 13.4472 11.1302 13.3748 11.3126 13.3748H18.1876C18.3699 13.3748 18.5448 13.4472 18.6737 13.5761C18.8026 13.7051 18.8751 13.8799 18.8751 14.0623C18.8751 14.2446 18.8026 14.4195 18.6737 14.5484C18.5448 14.6773 18.3699 14.7498 18.1876 14.7498H11.3126C11.1302 14.7498 10.9554 14.6773 10.8264 14.5484C10.6975 14.4195 10.6251 14.2446 10.6251 14.0623ZM8.56806 12.888C8.63209 12.9519 8.68288 13.0277 8.71754 13.1113C8.7522 13.1948 8.77004 13.2843 8.77004 13.3748C8.77004 13.4652 8.7522 13.5547 8.71754 13.6383C8.68288 13.7218 8.63209 13.7977 8.56806 13.8615L6.50556 15.924C6.4417 15.988 6.36583 16.0388 6.28231 16.0735C6.19878 16.1082 6.10924 16.126 6.01881 16.126C5.92838 16.126 5.83884 16.1082 5.75532 16.0735C5.67179 16.0388 5.59593 15.988 5.53206 15.924L4.84456 15.2365C4.78064 15.1726 4.72994 15.0967 4.69534 15.0132C4.66075 14.9297 4.64294 14.8402 4.64294 14.7498C4.64294 14.6594 4.66075 14.5699 4.69534 14.4863C4.72994 14.4028 4.78064 14.3269 4.84456 14.263C4.90848 14.1991 4.98437 14.1484 5.06789 14.1138C5.1514 14.0792 5.24092 14.0614 5.33131 14.0614C5.42171 14.0614 5.51122 14.0792 5.59474 14.1138C5.67826 14.1484 5.75414 14.1991 5.81806 14.263L6.01881 14.4651L7.59456 12.888C7.65843 12.824 7.73429 12.7732 7.81782 12.7385C7.90134 12.7039 7.99088 12.686 8.08131 12.686C8.17174 12.686 8.26128 12.7039 8.34481 12.7385C8.42833 12.7732 8.5042 12.824 8.56806 12.888Z" fill="#596387"/>
</svg>
