<svg width="25" height="25" viewBox="0 0 25 25" fill="none" xmlns="http://www.w3.org/2000/svg">
<g clip-path="url(#clip0_1_50328)">
<path d="M6.25 0C5.4212 0 4.62634 0.32924 4.04029 0.915291C3.45424 1.50134 3.125 2.2962 3.125 3.125V21.875C3.125 22.7038 3.45424 23.4987 4.04029 24.0847C4.62634 24.6708 5.4212 25 6.25 25H18.75C19.5788 25 20.3737 24.6708 20.9597 24.0847C21.5458 23.4987 21.875 22.7038 21.875 21.875V3.125C21.875 2.2962 21.5458 1.50134 20.9597 0.915291C20.3737 0.32924 19.5788 0 18.75 0L6.25 0ZM6.25 1.5625H18.75C19.1644 1.5625 19.5618 1.72712 19.8549 2.02015C20.1479 2.31317 20.3125 2.7106 20.3125 3.125V21.875C20.3125 22.2894 20.1479 22.6868 19.8549 22.9799C19.5618 23.2729 19.1644 23.4375 18.75 23.4375H6.25C5.8356 23.4375 5.43817 23.2729 5.14515 22.9799C4.85212 22.6868 4.6875 22.2894 4.6875 21.875V3.125C4.6875 2.7106 4.85212 2.31317 5.14515 2.02015C5.43817 1.72712 5.8356 1.5625 6.25 1.5625Z" fill="white"/>
<path d="M7.1921 18.8862C6.88664 18.7658 6.64081 18.5301 6.50772 18.23C6.20304 17.6237 6.3046 17.0175 6.63272 16.5081C6.9421 16.0284 7.4546 15.6206 8.03429 15.2784C8.76867 14.8622 9.54482 14.5244 10.3499 14.2706C10.9741 13.1459 11.5283 11.9838 12.0093 10.7909C11.7226 10.1389 11.4977 9.46143 11.3374 8.76746C11.203 8.14246 11.1515 7.52371 11.2655 6.99246C11.3827 6.43933 11.6937 5.94246 12.2812 5.70652C12.5812 5.58621 12.9062 5.51902 13.2218 5.58621C13.3806 5.62 13.5298 5.68872 13.6587 5.78736C13.7876 5.88601 13.893 6.01211 13.9671 6.15652C14.1046 6.41277 14.1546 6.71277 14.1655 6.99714C14.1765 7.28933 14.1468 7.61433 14.0921 7.95652C13.9608 8.75339 13.6702 9.72839 13.2796 10.7596C13.711 11.6814 14.2234 12.563 14.8109 13.394C15.5063 13.3397 16.2058 13.366 16.8952 13.4721C17.464 13.5737 18.0421 13.7768 18.3952 14.1987C18.5827 14.4237 18.6968 14.6987 18.7077 15.0081C18.7187 15.3081 18.6343 15.605 18.4921 15.8878C18.3689 16.1498 18.178 16.3743 17.939 16.5378C17.7026 16.6915 17.4238 16.7669 17.1421 16.7534C16.6249 16.7315 16.1202 16.4471 15.6843 16.1018C15.1541 15.6637 14.6764 15.1656 14.2608 14.6175C13.2041 14.737 12.16 14.9492 11.1405 15.2518C10.6732 16.08 10.1397 16.869 9.54522 17.6112C9.0921 18.1581 8.59522 18.6346 8.09835 18.8409C7.81261 18.969 7.4892 18.9851 7.1921 18.8862ZM9.34679 15.9159C9.08637 16.0357 8.84731 16.1596 8.6296 16.2878C8.1171 16.5909 7.78429 16.8862 7.61866 17.1425C7.47179 17.369 7.46866 17.5331 7.55616 17.7065C7.57283 17.7399 7.58637 17.7628 7.59679 17.7753L7.65147 17.7565C7.86554 17.669 8.20616 17.3893 8.64366 16.8628C8.8928 16.5584 9.12744 16.2424 9.34679 15.9159ZM11.9093 13.8378C12.4311 13.7165 12.9576 13.6159 13.4874 13.5362C13.2033 13.1006 12.9375 12.6533 12.6905 12.1956C12.4453 12.7496 12.1848 13.2966 11.9093 13.8362V13.8378ZM15.7312 14.5409C15.9666 14.7951 16.1931 15.0086 16.4109 15.1815C16.7859 15.4784 17.0468 15.5768 17.189 15.5815C17.2271 15.5875 17.266 15.5791 17.2983 15.5581C17.3637 15.5071 17.4144 15.4397 17.4452 15.3628C17.5005 15.2675 17.5322 15.1603 17.5374 15.0503C17.5358 15.0137 17.5214 14.9789 17.4968 14.9518C17.4155 14.855 17.1843 14.7143 16.6874 14.6253C16.3713 14.5732 16.0516 14.5455 15.7312 14.5425V14.5409ZM12.6218 9.06277C12.7521 8.63826 12.8565 8.20621 12.9343 7.76902C12.9822 7.47527 13.002 7.23308 12.9937 7.04246C12.9945 6.93726 12.9776 6.83267 12.9437 6.73308C12.8654 6.74237 12.789 6.76344 12.7171 6.79558C12.5812 6.85027 12.4702 6.96121 12.4108 7.23777C12.3483 7.53777 12.364 7.97058 12.4827 8.52214C12.5202 8.6961 12.5671 8.87631 12.6234 9.06277H12.6218Z" fill="white"/>
</g>
<defs>
<clipPath id="clip0_1_50328">
<rect width="25" height="25" fill="white"/>
</clipPath>
</defs>
</svg>
