<svg width="25" height="25" viewBox="0 0 25 25" fill="none" xmlns="http://www.w3.org/2000/svg">
<g clip-path="url(#clip0_2_6129)">
<path d="M6.25 0C5.4212 0 4.62634 0.32924 4.04029 0.915291C3.45424 1.50134 3.125 2.2962 3.125 3.125V21.875C3.125 22.7038 3.45424 23.4987 4.04029 24.0847C4.62634 24.6708 5.4212 25 6.25 25H18.75C19.5788 25 20.3737 24.6708 20.9597 24.0847C21.5458 23.4987 21.875 22.7038 21.875 21.875V3.125C21.875 2.2962 21.5458 1.50134 20.9597 0.915291C20.3737 0.32924 19.5788 0 18.75 0L6.25 0ZM6.25 1.5625H18.75C19.1644 1.5625 19.5618 1.72712 19.8549 2.02015C20.1479 2.31317 20.3125 2.7106 20.3125 3.125V21.875C20.3125 22.2894 20.1479 22.6868 19.8549 22.9799C19.5618 23.2729 19.1644 23.4375 18.75 23.4375H6.25C5.8356 23.4375 5.43817 23.2729 5.14515 22.9799C4.85212 22.6868 4.6875 22.2894 4.6875 21.875V3.125C4.6875 2.7106 4.85212 2.31317 5.14515 2.02015C5.43817 1.72712 5.8356 1.5625 6.25 1.5625Z" fill="#596387"/>
<path d="M7.19186 18.886C6.8864 18.7656 6.64057 18.5299 6.50748 18.2297C6.20279 17.6235 6.30436 17.0172 6.63248 16.5078C6.94186 16.0281 7.45436 15.6203 8.03404 15.2781C8.76843 14.8619 9.54458 14.5241 10.3497 14.2703C10.9739 13.1457 11.5281 11.9836 12.009 10.7906C11.7224 10.1386 11.4975 9.46119 11.3372 8.76721C11.2028 8.14221 11.1512 7.52346 11.2653 6.99221C11.3825 6.43909 11.6934 5.94221 12.2809 5.70627C12.5809 5.58596 12.9059 5.51877 13.2215 5.58596C13.3803 5.61976 13.5296 5.68847 13.6585 5.78712C13.7874 5.88576 13.8927 6.01186 13.9669 6.15627C14.1044 6.41252 14.1544 6.71252 14.1653 6.9969C14.1762 7.28909 14.1465 7.61409 14.0919 7.95627C13.9606 8.75315 13.67 9.72815 13.2794 10.7594C13.7108 11.6811 14.2232 12.5627 14.8106 13.3938C15.5061 13.3395 16.2055 13.3657 16.895 13.4719C17.4637 13.5735 18.0419 13.7766 18.395 14.1985C18.5825 14.4235 18.6965 14.6985 18.7075 15.0078C18.7184 15.3078 18.634 15.6047 18.4919 15.8875C18.3687 16.1496 18.1777 16.374 17.9387 16.5375C17.7023 16.6912 17.4235 16.7667 17.1419 16.7531C16.6247 16.7313 16.12 16.4469 15.684 16.1016C15.1538 15.6634 14.6762 15.1653 14.2606 14.6172C13.2039 14.7367 12.1598 14.949 11.1403 15.2516C10.6729 16.0797 10.1394 16.8687 9.54498 17.611C9.09186 18.1578 8.59498 18.6344 8.09811 18.8406C7.81236 18.9687 7.48895 18.9849 7.19186 18.886ZM9.34654 15.9156C9.08613 16.0354 8.84706 16.1594 8.62936 16.2875C8.11686 16.5906 7.78404 16.886 7.61842 17.1422C7.47154 17.3688 7.46842 17.5328 7.55592 17.7063C7.57258 17.7396 7.58613 17.7625 7.59654 17.775L7.65123 17.7563C7.86529 17.6688 8.20592 17.3891 8.64342 16.8625C8.89256 16.5581 9.1272 16.2422 9.34654 15.9156ZM11.909 13.8375C12.4309 13.7162 12.9574 13.6156 13.4872 13.536C13.2031 13.1003 12.9372 12.6531 12.6903 12.1953C12.4451 12.7493 12.1846 13.2964 11.909 13.836V13.8375ZM15.7309 14.5406C15.9663 14.7948 16.1929 15.0084 16.4106 15.1813C16.7856 15.4781 17.0465 15.5766 17.1887 15.5813C17.2268 15.5872 17.2658 15.5789 17.2981 15.5578C17.3635 15.5069 17.4142 15.4395 17.445 15.3625C17.5003 15.2672 17.5319 15.1601 17.5372 15.05C17.5356 15.0135 17.5212 14.9786 17.4965 14.9516C17.4153 14.8547 17.184 14.7141 16.6872 14.625C16.371 14.5729 16.0513 14.5453 15.7309 14.5422V14.5406ZM12.6215 9.06252C12.7519 8.63802 12.8562 8.20597 12.934 7.76877C12.982 7.47502 13.0018 7.23284 12.9934 7.04221C12.9942 6.93701 12.9773 6.83243 12.9434 6.73284C12.8652 6.74213 12.7888 6.7632 12.7169 6.79534C12.5809 6.85002 12.47 6.96096 12.4106 7.23752C12.3481 7.53752 12.3637 7.97034 12.4825 8.5219C12.52 8.69586 12.5669 8.87607 12.6231 9.06252H12.6215Z" fill="#596387"/>
</g>
<defs>
<clipPath id="clip0_2_6129">
<rect width="25" height="25" fill="white"/>
</clipPath>
</defs>
</svg>
