<svg width="42" height="42" viewBox="0 0 42 42" fill="none" xmlns="http://www.w3.org/2000/svg">
<mask id="mask0_43_5856" style="mask-type:alpha" maskUnits="userSpaceOnUse" x="0" y="0" width="42" height="42">
<rect width="42" height="42" fill="#D9D9D9"/>
</mask>
<g mask="url(#mask0_43_5856)">
<path d="M11.0833 35.0001C8.52639 35.0001 6.3316 34.0911 4.49894 32.273C2.66631 30.455 1.75 28.2675 1.75 25.7105C1.75 23.4355 2.45973 21.423 3.87918 19.673C5.29861 17.923 7.13611 16.8487 9.39168 16.4501C10.0236 13.6696 11.4236 11.4043 13.5917 9.6543C15.7597 7.9043 18.2486 7.0293 21.0583 7.0293C24.3931 7.0293 27.2004 8.21784 29.4802 10.5949C31.7601 12.972 32.9 15.8376 32.9 19.1918V19.8918C34.9708 19.9307 36.7135 20.672 38.1281 22.1157C39.5427 23.5595 40.25 25.3362 40.25 27.446C40.25 29.5168 39.5087 31.2935 38.0261 32.7762C36.5434 34.2588 34.7667 35.0001 32.6959 35.0001H22.4583C21.6708 35.0001 20.9878 34.7109 20.4094 34.1324C19.8309 33.554 19.5417 32.871 19.5417 32.0835V21.5543L16.1875 24.8793L14.1167 22.8084L21 15.9251L27.8833 22.8084L25.8125 24.8793L22.4583 21.5543V32.0835H32.6959C33.9792 32.0835 35.0729 31.6314 35.9771 30.7272C36.8813 29.8231 37.3334 28.7293 37.3334 27.446C37.3334 26.1626 36.8813 25.0689 35.9771 24.1647C35.0729 23.2605 33.9792 22.8084 32.6959 22.8084H29.9833V19.1918C29.9833 16.6543 29.1108 14.4789 27.3656 12.6657C25.6205 10.8525 23.4792 9.94594 20.9417 9.94594C18.4042 9.94594 16.258 10.8525 14.5031 12.6657C12.7483 14.4789 11.8708 16.6543 11.8708 19.1918H11.025C9.25555 19.1918 7.75346 19.814 6.51875 21.0584C5.28401 22.3029 4.66664 23.8293 4.66664 25.6376C4.66664 27.4071 5.29304 28.9237 6.54583 30.1876C7.7986 31.4515 9.31109 32.0835 11.0833 32.0835H16.625V35.0001H11.0833Z" fill="#1C1B1F"/>
</g>
</svg>
