<svg width="16" height="16" viewBox="0 0 16 16" fill="none" xmlns="http://www.w3.org/2000/svg">
<path d="M8 10.8637C8.79545 10.8637 9.47159 10.5852 10.0284 10.0284C10.5852 9.47161 10.8636 8.79548 10.8636 8.00002C10.8636 7.20457 10.5852 6.52843 10.0284 5.97161C9.47159 5.41479 8.79545 5.13639 8 5.13639C7.20455 5.13639 6.52841 5.41479 5.97159 5.97161C5.41477 6.52843 5.13636 7.20457 5.13636 8.00002C5.13636 8.79548 5.41477 9.47161 5.97159 10.0284C6.52841 10.5852 7.20455 10.8637 8 10.8637ZM8 9.7182C7.52273 9.7182 7.11705 9.55116 6.78295 9.21707C6.44886 8.88298 6.28182 8.47729 6.28182 8.00002C6.28182 7.52275 6.44886 7.11707 6.78295 6.78298C7.11705 6.44889 7.52273 6.28184 8 6.28184C8.47727 6.28184 8.88295 6.44889 9.21705 6.78298C9.55114 7.11707 9.71818 7.52275 9.71818 8.00002C9.71818 8.47729 9.55114 8.88298 9.21705 9.21707C8.88295 9.55116 8.47727 9.7182 8 9.7182ZM8 12.7727C6.45152 12.7727 5.04091 12.3406 3.76818 11.4762C2.49545 10.6118 1.57273 9.45305 1 8.00002C1.57273 6.54699 2.49545 5.38828 3.76818 4.52389C5.04091 3.65949 6.45152 3.22729 8 3.22729C9.54848 3.22729 10.9591 3.65949 12.2318 4.52389C13.5045 5.38828 14.4273 6.54699 15 8.00002C14.4273 9.45305 13.5045 10.6118 12.2318 11.4762C10.9591 12.3406 9.54848 12.7727 8 12.7727ZM8 11.5C9.19848 11.5 10.2989 11.1845 11.3011 10.5534C12.3034 9.92237 13.0697 9.07123 13.6 8.00002C13.0697 6.92881 12.3034 6.07767 11.3011 5.44661C10.2989 4.81555 9.19848 4.50002 8 4.50002C6.80151 4.50002 5.70114 4.81555 4.69886 5.44661C3.69659 6.07767 2.9303 6.92881 2.4 8.00002C2.9303 9.07123 3.69659 9.92237 4.69886 10.5534C5.70114 11.1845 6.80151 11.5 8 11.5Z" fill="#596387"/>
</svg>
