<svg width="37" height="37" viewBox="0 0 37 37" fill="none" xmlns="http://www.w3.org/2000/svg">
<rect x="0.5" y="0.5" width="36" height="36" rx="18" fill="#F0F1F5"/>
<mask id="mask0_8_9415" style="mask-type:luminance" maskUnits="userSpaceOnUse" x="7" y="6" width="23" height="21">
<path d="M7 6.97437H30.0004V26.2983H7V6.97437Z" fill="white"/>
</mask>
<g mask="url(#mask0_8_9415)">
<path fill-rule="evenodd" clip-rule="evenodd" d="M18.5003 6.97559C12.1497 6.97559 7 12.1284 7 18.4849C7 18.5129 7.00202 18.54 7.00202 18.5681C7.00386 18.8762 7.02038 19.1811 7.04553 19.4833C7.46066 23.3162 10.7022 26.2998 14.6424 26.2998C16.027 26.2998 17.3247 25.9289 18.4452 25.284C16.1711 23.9496 14.6424 21.4801 14.6424 18.6515C14.6424 15.8227 16.1711 13.3524 18.4452 12.0181C19.583 11.3517 20.9058 10.9674 22.3205 10.9674C26.5413 10.9674 29.9657 14.376 29.9976 18.5914C29.9976 18.5556 30.0006 18.5208 30.0006 18.4849C30.0006 12.1284 24.8509 6.97559 18.5003 6.97559Z" fill="#2E20FF"/>
</g>
<path fill-rule="evenodd" clip-rule="evenodd" d="M22.2848 10.9683C20.8746 10.9683 19.5559 11.3523 18.4216 12.0207C20.7077 13.3428 22.2491 15.8221 22.2491 18.665C22.2491 21.5071 20.7077 23.9864 18.4216 25.3085C17.3046 25.9545 16.011 26.326 14.6297 26.326C10.7028 26.326 7.47144 23.3375 7.05762 19.4983C7.56204 25.3968 12.4806 30.0255 18.4765 30.0255C24.4773 30.0255 29.3997 25.3871 29.8966 19.4808C29.9196 19.1919 29.935 18.8998 29.9379 18.605C29.9052 14.3827 26.4915 10.9683 22.2848 10.9683Z" fill="#44F0B9"/>
</svg>
