<svg width="20" height="21" viewBox="0 0 20 21" fill="none" xmlns="http://www.w3.org/2000/svg">
<mask id="mask0_42_12475" style="mask-type:alpha" maskUnits="userSpaceOnUse" x="0" y="0" width="20" height="21">
<rect y="0.5" width="20" height="20" fill="#D9D9D9"/>
</mask>
<g mask="url(#mask0_42_12475)">
<path d="M4.5 16H5.5625L13.375 8.1875L12.3125 7.125L4.5 14.9375V16ZM3 17.5V14.3125L13.375 3.9375C13.5278 3.78472 13.6933 3.67361 13.8717 3.60417C14.0499 3.53472 14.2374 3.5 14.4342 3.5C14.6308 3.5 14.8194 3.53472 15 3.60417C15.1806 3.67361 15.3472 3.78472 15.5 3.9375L16.5625 5C16.7153 5.15278 16.8264 5.31944 16.8958 5.5C16.9653 5.68056 17 5.86486 17 6.05292C17 6.25361 16.9651 6.44486 16.8954 6.62667C16.8257 6.80847 16.7147 6.97458 16.5625 7.125L6.1875 17.5H3ZM12.8344 7.66563L12.3125 7.125L13.375 8.1875L12.8344 7.66563Z" fill="#1C1B1F"/>
</g>
</svg>
