<svg width="64" height="64" viewBox="0 0 24 24" fill="none" xmlns="http://www.w3.org/2000/svg">
  <path fill="#A0A0A0" d="M19.14 12.94c.04-.3.06-.61.06-.94s-.02-.64-.06-.94l2.03-1.58a.5.5 0 00.12-.63l-1.92-3.32a.5.5 0 00-.6-.22l-2.39.96a7.03 7.03 0 00-1.62-.94l-.36-2.54A.5.5 0 0014.4 2h-4.8a.5.5 0 00-.49.42l-.36 2.54a6.993 6.993 0 00-1.62.94l-2.39-.96a.5.5 0 00-.6.22L2.71 8.48a.5.5 0 00.12.63l2.03 1.58c-.04.3-.06.61-.06.94s.02.64.06.94l-2.03 1.58a.5.5 0 00-.12.63l1.92 3.32a.5.5 0 00.6.22l2.39-.96c.5.39 1.04.71 1.62.94l.36 2.54a.5.5 0 00.49.42h4.8a.5.5 0 00.49-.42l.36-2.54a7.03 7.03 0 001.62-.94l2.39.96a.5.5 0 00.6-.22l1.92-3.32a.5.5 0 00-.12-.63l-2.03-1.58zM12 15.5A3.5 3.5 0 1115.5 12 3.5 3.5 0 0112 15.5z"></path>
</svg>
