<svg width="278" height="53" viewBox="0 0 278 53" fill="none" xmlns="http://www.w3.org/2000/svg">
<g clip-path="url(#clip0_2_848)">
<path d="M15.4309 22.9441C14.6412 23.3152 12.7579 23.8099 10.3885 23.8099C3.5236 23.8099 0 19.419 0 13.6676C0 6.74109 4.79939 2.96863 10.8138 2.96863C13.1224 2.96863 14.8842 3.46338 15.674 3.89628L14.7019 7.48321C13.7906 7.11215 12.5756 6.74109 10.9353 6.74109C7.41171 6.74109 4.61713 8.90562 4.61713 13.4202C4.61713 17.44 6.98645 20.0375 10.9353 20.0375C12.3326 20.0375 13.7906 19.7901 14.7019 19.3572L15.4309 22.9441Z" fill="white"/>
<path d="M26.3665 23.8099C20.5343 23.8099 17.0107 19.2953 17.0107 13.5439C17.0107 7.48321 20.8381 2.96863 26.6703 2.96863C32.7454 2.96863 36.0868 7.6069 36.0868 13.1728C36.1475 19.8519 32.1987 23.8099 26.3665 23.8099ZM26.6095 20.1612C29.6471 20.1612 31.3482 17.2545 31.3482 13.2965C31.3482 9.64774 29.6471 6.55556 26.6095 6.55556C23.5112 6.55556 21.8101 9.5859 21.8101 13.3584C21.7494 17.2545 23.5719 20.1612 26.6095 20.1612Z" fill="white"/>
<path d="M56.3168 15.7702C56.256 13.3583 56.1345 10.4516 56.1345 7.48312H56.0738C55.4055 10.0806 54.6157 12.9254 53.8259 15.2754L51.3959 23.1296H47.8723L45.746 15.3373C45.0777 12.9254 44.4702 10.0806 43.9234 7.42128H43.8627C43.8019 10.1424 43.6804 13.2964 43.5589 15.7702L43.2551 23.5006H39.124L40.3998 3.3396H46.3535L48.2975 10.0806C48.9658 12.3688 49.5126 14.9044 49.9986 17.2544H50.1201C50.6669 14.9044 51.3351 12.3069 52.0034 10.0187L54.069 3.3396H59.9619L60.9947 23.5006H56.6205L56.3168 15.7702Z" fill="white"/>
<path d="M69.3177 3.27783V14.8426C69.3177 18.3677 70.6542 20.0993 72.902 20.0993C75.2714 20.0993 76.5471 18.4295 76.5471 14.8426V3.27783H81.0428V14.5952C81.0428 20.8414 77.9444 23.8099 72.7805 23.8099C67.7989 23.8099 64.8828 20.9651 64.8828 14.5334V3.27783H69.3177Z" fill="white"/>
<path d="M85.417 23.5007V3.27783H90.6416L94.7728 10.6991C95.927 12.8018 97.0813 15.3373 97.9926 17.6256H98.0533C97.8103 14.9663 97.6888 12.2452 97.6888 9.15298V3.27783H101.82V23.5007H97.0813L92.8287 15.7084C91.6744 13.5439 90.3379 10.9464 89.3659 8.59639H89.3051C89.4266 11.3175 89.4874 14.1623 89.4874 17.44V23.5007H85.417Z" fill="white"/>
<path d="M110.69 3.27783V23.5007H106.194V3.27783H110.69Z" fill="white"/>
<path d="M115.003 3.58696C116.643 3.27774 118.77 3.15405 121.018 3.15405C124.784 3.15405 127.275 3.77249 129.158 5.25674C131.224 6.80283 132.5 9.33842 132.5 12.9253C132.5 16.7597 131.102 19.4808 129.219 21.0887C127.153 22.8822 123.934 23.6861 120.046 23.6861C117.737 23.6861 116.036 23.5625 114.942 23.3769V3.58696H115.003ZM119.438 20.0374C119.803 20.1611 120.471 20.1611 121.018 20.1611C125.088 20.1611 127.761 17.9347 127.761 13.1109C127.761 8.78182 125.331 6.67914 121.443 6.67914C120.471 6.67914 119.803 6.74098 119.438 6.86467V20.0374Z" fill="white"/>
<path d="M140.519 18.3058L139.121 23.5006H134.443L140.519 3.3396H146.351L152.608 23.5006H147.809L146.29 18.3058H140.519ZM145.561 14.9044L144.346 10.6371C144.042 9.46212 143.678 7.91603 143.374 6.741H143.313C143.07 7.91603 142.706 9.46212 142.402 10.6371L141.187 14.9044H145.561Z" fill="white"/>
<path d="M155.706 3.58696C157.347 3.27774 159.473 3.15405 161.721 3.15405C165.487 3.15405 167.978 3.77249 169.861 5.25674C171.927 6.80283 173.203 9.33842 173.203 12.9253C173.203 16.7597 171.805 19.4808 169.922 21.0887C167.857 22.8822 164.637 23.6861 160.749 23.6861C158.44 23.6861 156.739 23.5625 155.646 23.3769V3.58696H155.706ZM160.141 20.0374C160.506 20.1611 161.174 20.1611 161.721 20.1611C165.791 20.1611 168.464 17.9347 168.464 13.1109C168.464 8.78182 166.034 6.67914 162.146 6.67914C161.174 6.67914 160.506 6.74098 160.141 6.86467V20.0374Z" fill="white"/>
<path d="M70.4109 47.6192L69.0136 52.8141H64.3965L70.4717 32.6531H76.3038L82.5005 52.8141H77.7011L76.1823 47.6192H70.4109ZM75.4533 44.2178L74.2383 39.9506C73.9345 38.7756 73.57 37.2295 73.2662 36.0545H73.2055C72.9625 37.2295 72.598 38.7756 72.2942 39.9506L71.0792 44.2178H75.4533Z" fill="white"/>
<path d="M85.5996 52.8141V32.6531H90.8243L94.9554 40.0743C96.1097 42.177 97.264 44.7126 98.1752 47.0008H98.236C97.993 44.3415 97.8715 41.6204 97.8715 38.5282V32.6531H102.003V52.8141H97.264L93.0113 45.0218C91.857 42.8573 90.5205 40.2598 89.5485 37.9098H89.427C89.5485 40.6309 89.6092 43.4757 89.6092 46.7534V52.8141H85.5996Z" fill="white"/>
<path d="M106.316 32.9009C107.956 32.5917 110.082 32.468 112.33 32.468C116.097 32.468 118.587 33.0865 120.471 34.5707C122.536 36.1168 123.812 38.6524 123.812 42.2393C123.812 46.1355 122.415 48.7947 120.532 50.4027C118.466 52.1961 115.246 53.0001 111.358 53.0001C109.049 53.0001 107.348 52.8764 106.255 52.6909V32.9009H106.316ZM110.811 49.3513C111.176 49.475 111.844 49.475 112.391 49.475C116.461 49.5369 119.134 47.2486 119.134 42.4248C119.134 38.0958 116.704 35.9931 112.816 35.9931C111.844 35.9931 111.176 36.1168 110.811 36.1786V49.3513Z" fill="white"/>
<path d="M131.771 32.6531V52.8141H127.275V32.6531H131.771Z" fill="white"/>
<path d="M136.084 52.8141V32.6531H141.309L145.44 40.0743C146.594 42.177 147.748 44.7126 148.66 47.0008H148.72C148.477 44.3415 148.356 41.6204 148.356 38.5282V32.6531H152.487V52.8141H147.748L143.496 45.0218C142.341 42.8573 141.005 40.2598 140.033 37.9098H139.911C140.033 40.6309 140.094 43.4757 140.094 46.7534V52.8141H136.084Z" fill="white"/>
<path d="M161.478 47.6192L160.081 52.8141H155.403L161.478 32.6531H167.311L173.507 52.8141H168.708L167.189 47.6192H161.478ZM166.46 44.2178L165.245 39.9506C164.941 38.7756 164.577 37.2295 164.273 36.0545H164.212C163.969 37.2295 163.605 38.7756 163.301 39.9506L162.086 44.2178H166.46Z" fill="white"/>
<path d="M277.878 52.9998H274.051H232.072V17.8726H244.829V25.2938H252.059V33.0243H259.714V41.1258H266.336C263.359 24.2425 248.232 11.8119 230.188 11.8119C211.902 11.8119 196.957 24.0569 194.041 41.1258H200.298V33.0243H207.953V25.3556H215.183V17.9344H227.94V53.0616H182.073L181.951 51.2063C181.891 50.3405 181.891 49.2891 181.891 48.2996C181.891 35.2506 186.872 23.0674 195.985 14.0383C205.037 4.94725 217.066 -0.000244141 229.945 -0.000244141C242.825 -0.000244141 254.853 4.94725 263.905 13.9764C273.018 23.0674 278 35.2506 278 48.2378V48.6707C278 49.4747 278 50.3405 277.939 51.0826L277.878 52.9998ZM235.899 49.1036H274.112C274.112 48.9799 274.112 48.8562 274.112 48.7326V48.2996C274.112 23.4385 254.671 3.95775 229.945 3.95775C205.159 3.95775 185.779 23.4385 185.779 48.2996C185.779 48.547 185.779 48.8562 185.779 49.1036H224.113V21.8924H219.071V29.3136H211.841V37.0441H204.126V45.1456H189.606L189.91 42.4245C191.125 32.7769 195.803 23.9951 203.214 17.687C210.565 11.379 220.164 7.91574 230.128 7.91574C250.905 7.91574 268.219 23.0056 270.467 42.9192L270.71 45.0838H255.826V36.9823H248.171V29.2518H240.941V21.8306H235.899V49.1036Z" fill="#FFC000"/>
</g>
<defs>
<clipPath id="clip0_2_848">
<rect width="278" height="53" fill="white"/>
</clipPath>
</defs>
</svg>
