<svg width="20" height="20" viewBox="0 0 20 20" fill="none" xmlns="http://www.w3.org/2000/svg">
<mask id="mask0_1_15579" style="mask-type:alpha" maskUnits="userSpaceOnUse" x="2" y="2" width="20" height="20">
<rect x="2" y="2" width="20" height="20" fill="#D9D9D9"/>
</mask>
<g mask="url(#mask0_1_15579)">
<path d="M4.58301 15C4.23926 15 3.94499 14.8775 3.7002 14.6326C3.4554 14.3877 3.33301 14.0933 3.33301 13.7493V6.24514C3.33301 5.90116 3.4554 5.60764 3.7002 5.36458C3.94499 5.12153 4.23926 5 4.58301 5H15.4163C15.7601 5 16.0544 5.12245 16.2992 5.36736C16.5439 5.61227 16.6663 5.90671 16.6663 6.25069V13.7549C16.6663 14.0988 16.5439 14.3924 16.2992 14.6354C16.0544 14.8785 15.7601 15 15.4163 15H4.58301ZM9.99967 10.8333L4.58301 7.72569V13.75H15.4163V7.72569L9.99967 10.8333ZM9.99967 9.35764L15.4163 6.25H4.58301L9.99967 9.35764ZM4.58301 7.72569V6.25V13.75V7.72569Z" fill="#596387"/>
</g>
</svg>
