<svg width="21" height="20" viewBox="0 0 21 20" fill="none" xmlns="http://www.w3.org/2000/svg">
<mask id="mask0_8_8843" style="mask-type:alpha" maskUnits="userSpaceOnUse" x="2" y="2" width="21" height="20">
<rect x="2.5" y="2" width="20" height="20" fill="#D9D9D9"/>
</mask>
<g mask="url(#mask0_8_8843)">
<path d="M15.083 9.98275C15.083 8.72117 14.6345 7.64189 13.7376 6.7449C12.8406 5.84791 11.7613 5.39941 10.4997 5.39941V4.14941C11.3099 4.14941 12.0687 4.30335 12.7763 4.61122C13.4839 4.91909 14.0996 5.335 14.6235 5.85896C15.1474 6.38281 15.5634 6.99855 15.8712 7.70619C16.1791 8.41371 16.333 9.17256 16.333 9.98275H15.083ZM12.583 9.98275C12.583 9.40404 12.3805 8.91215 11.9754 8.50705C11.5703 8.10196 11.0784 7.89941 10.4997 7.89941V6.64941C11.4256 6.64941 12.2127 6.97441 12.8608 7.62441C13.509 8.27441 13.833 9.06053 13.833 9.98275H12.583ZM15.4129 15.8161C14.0124 15.7119 12.6843 15.3676 11.4285 14.7831C10.1727 14.1986 9.04716 13.4087 8.05179 12.4133C7.05642 11.4179 6.26938 10.2924 5.69068 9.03657C5.11197 7.78078 4.77054 6.45266 4.66637 5.05219C4.64322 4.80914 4.71435 4.59791 4.87974 4.41851C5.04502 4.23911 5.25167 4.14941 5.49971 4.14941H7.86082C8.05758 4.14941 8.22829 4.21018 8.37297 4.33171C8.51765 4.45323 8.61313 4.60659 8.65943 4.79178L9.07609 6.64941C9.09924 6.79988 9.09056 6.94455 9.05005 7.08344C9.00954 7.22233 8.94299 7.33807 8.8504 7.43066L7.16637 9.13205C7.39785 9.57187 7.66406 9.99432 7.96498 10.3994C8.26591 10.8045 8.60138 11.1863 8.97141 11.5449C9.31898 11.8924 9.68952 12.2137 10.083 12.5088C10.4766 12.8039 10.8932 13.0672 11.333 13.2987L13.0518 11.6321C13.1444 11.5395 13.2601 11.4729 13.399 11.4324C13.5379 11.3919 13.6826 11.3832 13.833 11.4064L15.6907 11.8057C15.8874 11.8635 16.0437 11.9648 16.1594 12.1095C16.2752 12.2542 16.333 12.4249 16.333 12.6216V14.9827C16.333 15.2308 16.2404 15.4374 16.0553 15.6027C15.8701 15.7681 15.656 15.8392 15.4129 15.8161ZM6.59346 7.91678L7.80873 6.7015L7.51082 5.39941H5.95109C6.00897 5.83923 6.08998 6.26747 6.19415 6.68414C6.29832 7.1008 6.43142 7.51168 6.59346 7.91678ZM12.5657 13.889C12.9719 14.0538 13.386 14.1847 13.8079 14.2817C14.2297 14.3787 14.6548 14.4561 15.083 14.514V12.9515L13.781 12.6737L12.5657 13.889Z" fill="#596387"/>
</g>
</svg>
