<svg width="20" height="20" viewBox="0 0 20 20" fill="none" xmlns="http://www.w3.org/2000/svg">
<mask id="mask0_1_15576" style="mask-type:alpha" maskUnits="userSpaceOnUse" x="2" y="2" width="20" height="20">
<rect x="2" y="2" width="20" height="20" fill="#D9D9D9"/>
</mask>
<g mask="url(#mask0_1_15576)">
<path d="M14.583 9.98275C14.583 8.72117 14.1345 7.64189 13.2376 6.7449C12.3406 5.84791 11.2613 5.39941 9.99971 5.39941V4.14941C10.8099 4.14941 11.5687 4.30335 12.2763 4.61122C12.9839 4.91909 13.5996 5.335 14.1235 5.85896C14.6474 6.38281 15.0634 6.99855 15.3712 7.70619C15.6791 8.41371 15.833 9.17256 15.833 9.98275H14.583ZM12.083 9.98275C12.083 9.40404 11.8805 8.91215 11.4754 8.50705C11.0703 8.10196 10.5784 7.89941 9.99971 7.89941V6.64941C10.9256 6.64941 11.7127 6.97441 12.3608 7.62441C13.009 8.27441 13.333 9.06053 13.333 9.98275H12.083ZM14.9129 15.8161C13.5124 15.7119 12.1843 15.3676 10.9285 14.7831C9.67274 14.1986 8.54716 13.4087 7.55179 12.4133C6.55642 11.4179 5.76938 10.2924 5.19068 9.03657C4.61197 7.78078 4.27054 6.45266 4.16637 5.05219C4.14322 4.80914 4.21435 4.59791 4.37974 4.41851C4.54502 4.23911 4.75167 4.14941 4.99971 4.14941H7.36082C7.55758 4.14941 7.72829 4.21018 7.87297 4.33171C8.01765 4.45323 8.11313 4.60659 8.15943 4.79178L8.57609 6.64941C8.59924 6.79988 8.59056 6.94455 8.55005 7.08344C8.50954 7.22233 8.44299 7.33807 8.3504 7.43066L6.66637 9.13205C6.89785 9.57187 7.16406 9.99432 7.46498 10.3994C7.76591 10.8045 8.10138 11.1863 8.47141 11.5449C8.81898 11.8924 9.18952 12.2137 9.58304 12.5088C9.97656 12.8039 10.3932 13.0672 10.833 13.2987L12.5518 11.6321C12.6444 11.5395 12.7601 11.4729 12.899 11.4324C13.0379 11.3919 13.1826 11.3832 13.333 11.4064L15.1907 11.8057C15.3874 11.8635 15.5437 11.9648 15.6594 12.1095C15.7752 12.2542 15.833 12.4249 15.833 12.6216V14.9827C15.833 15.2308 15.7404 15.4374 15.5553 15.6027C15.3701 15.7681 15.156 15.8392 14.9129 15.8161ZM6.09346 7.91678L7.30873 6.7015L7.01082 5.39941H5.45109C5.50897 5.83923 5.58998 6.26747 5.69415 6.68414C5.79832 7.1008 5.93142 7.51168 6.09346 7.91678ZM12.0657 13.889C12.4719 14.0538 12.886 14.1847 13.3079 14.2817C13.7297 14.3787 14.1548 14.4561 14.583 14.514V12.9515L13.281 12.6737L12.0657 13.889Z" fill="#596387"/>
</g>
</svg>
