<svg width="523" height="96" viewBox="0 0 523 96" fill="none" xmlns="http://www.w3.org/2000/svg">
<g clip-path="url(#clip0_0_5899)">
<path d="M29.0306 41.5592C27.5448 42.2313 24.0017 43.1275 19.5443 43.1275C6.62933 43.1275 0.000396729 35.1742 0.000396729 24.7564C0.000396729 12.2103 9.02946 5.3772 20.3444 5.3772C24.6875 5.3772 28.0019 6.27335 29.4877 7.05748L27.6591 13.5546C25.9447 12.8824 23.6588 12.2103 20.573 12.2103C13.944 12.2103 8.68659 16.131 8.68659 24.3084C8.68659 31.5896 13.144 36.2944 20.573 36.2944C23.2017 36.2944 25.9447 35.8463 27.6591 35.0621L29.0306 41.5592Z" fill="white"/>
<path d="M49.603 43.1275C38.631 43.1275 32.0021 34.9501 32.0021 24.5324C32.0021 13.5546 39.2025 5.3772 50.1745 5.3772C61.6037 5.3772 67.8898 13.7786 67.8898 23.8603C68.0041 35.9583 60.5751 43.1275 49.603 43.1275ZM50.0602 36.5184C55.7748 36.5184 58.975 31.2535 58.975 24.0843C58.975 17.4752 55.7748 11.8743 50.0602 11.8743C44.2313 11.8743 41.0311 17.3632 41.0311 24.1963C40.9169 31.2535 44.3456 36.5184 50.0602 36.5184Z" fill="white"/>
<path d="M105.949 28.5648C105.835 24.1961 105.606 18.9312 105.606 13.5543H105.492C104.235 18.2591 102.749 23.412 101.263 27.6687L96.6915 41.895H90.0625L86.0623 27.7807C84.8051 23.412 83.6622 18.2591 82.6336 13.4423H82.5193C82.405 18.3711 82.1764 24.0841 81.9478 28.5648L81.3763 42.5672H73.6045L76.0046 6.04907H87.2052L90.8626 18.2591C92.1198 22.4038 93.1484 26.9966 94.0628 31.2533H94.2913C95.32 26.9966 96.5772 22.2918 97.8344 18.1471L101.72 6.04907H112.807L114.75 42.5672H106.521L105.949 28.5648Z" fill="white"/>
<path d="M130.408 5.93726V26.8847C130.408 33.2698 132.922 36.4063 137.151 36.4063C141.608 36.4063 144.008 33.3818 144.008 26.8847V5.93726H152.466V26.4367C152.466 37.7506 146.637 43.1275 136.922 43.1275C127.55 43.1275 122.064 37.9746 122.064 26.3247V5.93726H130.408Z" fill="white"/>
<path d="M160.695 42.5674V5.93726H170.524L178.296 19.3795C180.467 23.1881 182.639 27.7809 184.353 31.9256H184.468C184.01 27.1088 183.782 22.18 183.782 16.579V5.93726H191.554V42.5674H182.639L174.639 28.453C172.467 24.5324 169.953 19.8276 168.124 15.5709H168.01C168.238 20.4997 168.352 25.6525 168.352 31.5895V42.5674H160.695Z" fill="white"/>
<path d="M208.24 5.93726V42.5674H199.783V5.93726H208.24Z" fill="white"/>
<path d="M216.355 6.49727C219.441 5.93717 223.441 5.71313 227.67 5.71313C234.756 5.71313 239.442 6.83332 242.985 9.52177C246.871 12.3222 249.271 16.915 249.271 23.4121C249.271 30.3572 246.643 35.2861 243.099 38.1985C239.214 41.4471 233.156 42.9033 225.841 42.9033C221.498 42.9033 218.298 42.6793 216.241 42.3432V6.49727H216.355ZM224.698 36.2942C225.384 36.5183 226.641 36.5183 227.67 36.5183C235.328 36.5183 240.356 32.4856 240.356 23.7481C240.356 15.9068 235.785 12.0982 228.47 12.0982C226.641 12.0982 225.384 12.2102 224.698 12.4343V36.2942Z" fill="white"/>
<path d="M264.358 33.1576L261.729 42.5672H252.929L264.358 6.04907H275.33L287.102 42.5672H278.073L275.216 33.1576H264.358ZM273.844 26.9966L271.558 19.2673C270.987 17.1389 270.301 14.3385 269.73 12.2101H269.615C269.158 14.3385 268.472 17.1389 267.901 19.2673L265.615 26.9966H273.844Z" fill="white"/>
<path d="M292.931 6.49727C296.017 5.93717 300.017 5.71313 304.246 5.71313C311.332 5.71313 316.018 6.83332 319.561 9.52177C323.447 12.3222 325.847 16.915 325.847 23.4121C325.847 30.3572 323.218 35.2861 319.675 38.1985C315.789 41.4471 309.732 42.9033 302.417 42.9033C298.074 42.9033 294.874 42.6793 292.816 42.3432V6.49727H292.931ZM301.274 36.2942C301.96 36.5183 303.217 36.5183 304.246 36.5183C311.903 36.5183 316.932 32.4856 316.932 23.7481C316.932 15.9068 312.36 12.0982 305.046 12.0982C303.217 12.0982 301.96 12.2102 301.274 12.4343V36.2942Z" fill="white"/>
<path d="M132.465 86.2538L129.836 95.6634H121.15L132.579 59.1453H143.551L155.209 95.6634H146.18L143.322 86.2538H132.465ZM141.951 80.0928L139.665 72.3635C139.094 70.2351 138.408 67.4346 137.836 65.3063H137.722C137.265 67.4346 136.579 70.2351 136.008 72.3635L133.722 80.0928H141.951Z" fill="white"/>
<path d="M161.038 95.6634V59.1453H170.867L178.639 72.5875C180.81 76.3961 182.982 80.9889 184.696 85.1336H184.811C184.353 80.3168 184.125 75.388 184.125 69.787V59.1453H191.897V95.6634H182.982L174.981 81.549C172.81 77.6283 170.295 72.9236 168.467 68.6669H168.238C168.467 73.5957 168.581 78.7485 168.581 84.6855V95.6634H161.038Z" fill="white"/>
<path d="M200.011 59.5942C203.097 59.0341 207.097 58.8101 211.326 58.8101C218.412 58.8101 223.098 59.9302 226.641 62.6187C230.527 65.4192 232.927 70.0119 232.927 76.509C232.927 83.5662 230.299 88.383 226.756 91.2955C222.87 94.544 216.812 96.0003 209.498 96.0003C205.154 96.0003 201.954 95.7762 199.897 95.4402V59.5942H200.011ZM208.469 89.3912C209.155 89.6152 210.412 89.6152 211.441 89.6152C219.098 89.7272 224.127 85.5825 224.127 76.8451C224.127 69.0038 219.555 65.1951 212.241 65.1951C210.412 65.1951 209.155 65.4192 208.469 65.5312V89.3912Z" fill="white"/>
<path d="M247.9 59.1453V95.6634H239.442V59.1453H247.9Z" fill="white"/>
<path d="M256.014 95.6634V59.1453H265.844L273.615 72.5875C275.787 76.3961 277.958 80.9889 279.673 85.1336H279.787C279.33 80.3168 279.101 75.388 279.101 69.787V59.1453H286.873V95.6634H277.958L269.958 81.549C267.786 77.6283 265.272 72.9236 263.443 68.6669H263.215C263.443 73.5957 263.558 78.7485 263.558 84.6855V95.6634H256.014Z" fill="white"/>
<path d="M303.788 86.2538L301.16 95.6634H292.359L303.788 59.1453H314.76L326.418 95.6634H317.389L314.532 86.2538H303.788ZM313.16 80.0928L310.875 72.3635C310.303 70.2351 309.617 67.4346 309.046 65.3063H308.932C308.474 67.4346 307.789 70.2351 307.217 72.3635L304.931 80.0928H313.16Z" fill="white"/>
<path d="M522.772 95.9995H515.571H436.596V32.3729H460.597V45.8152H474.198V59.8175H488.598V74.4919H501.056C495.456 43.9108 466.997 21.3951 433.053 21.3951C398.651 21.3951 370.535 43.5748 365.049 74.4919H376.821V59.8175H391.222V45.9272H404.822V32.4849H428.824V96.1115H342.533L342.305 92.751C342.19 91.1827 342.19 89.2784 342.19 87.4861C342.19 63.8502 351.562 41.7825 368.706 25.4278C385.736 8.96101 408.366 -0.000488281 432.595 -0.000488281C456.825 -0.000488281 479.455 8.96101 496.485 25.3157C513.628 41.7825 523 63.8502 523 87.3741V88.1582C523 89.6145 523 91.1827 522.886 92.5269L522.772 95.9995ZM443.796 88.9423H515.686C515.686 88.7183 515.686 88.4943 515.686 88.2702V87.4861C515.686 42.4546 479.112 7.16871 432.595 7.16871C385.964 7.16871 349.505 42.4546 349.505 87.4861C349.505 87.9342 349.505 88.4943 349.505 88.9423H421.623V39.6541H412.137V53.0964H398.536V67.0987H384.021V81.7731H356.706L357.277 76.8443C359.563 59.3694 368.363 43.4628 382.307 32.0369C396.136 20.611 414.194 14.3379 432.938 14.3379C472.026 14.3379 504.599 41.6705 508.828 77.7405L509.285 81.6611H481.284V66.9867H466.883V52.9843H453.282V39.5421H443.796V88.9423Z" fill="#FFC000"/>
</g>
<defs>
<clipPath id="clip0_0_5899">
<rect width="523" height="96" fill="white"/>
</clipPath>
</defs>
</svg>
