<svg width="24" height="24" viewBox="0 0 24 24" fill="none" xmlns="http://www.w3.org/2000/svg">
<path d="M5.99999 12H4.12499C3.52499 12 3.03799 12.487 3.03799 13.087V20.163C3.03799 20.763 3.52499 21.25 4.12499 21.25H5.99799C6.59799 21.25 7.08499 20.763 7.08499 20.163V13.087C7.08499 12.487 6.59799 12 5.99799 12M12.937 7.375H11.064C10.464 7.375 9.97699 7.862 9.97699 8.462V20.163C9.97699 20.763 10.463 21.25 11.063 21.25H12.937C13.537 21.25 14.024 20.763 14.024 20.163V8.462C14.024 7.862 13.537 7.375 12.937 7.375ZM19.874 2.75H18.001C17.401 2.75 16.914 3.237 16.914 3.837V20.163C16.914 20.763 17.401 21.25 18.001 21.25H19.874C20.474 21.25 20.961 20.763 20.961 20.163V3.837C20.961 3.237 20.474 2.75 19.874 2.75Z" stroke="#1773FC" stroke-width="1.3" stroke-linecap="round" stroke-linejoin="round"/>
</svg>
