<svg width="24" height="24" viewBox="0 0 24 24" fill="none" xmlns="http://www.w3.org/2000/svg">
<path d="M5.14286 19.4398H9.36229V13.6375C9.36229 13.3761 9.45105 13.1571 9.62857 12.9803C9.80533 12.8028 10.0244 12.714 10.2857 12.714H13.7143C13.9756 12.714 14.195 12.8028 14.3726 12.9803C14.5493 13.1571 14.6377 13.3761 14.6377 13.6375V19.4398H18.8571V9.50604C18.8571 9.38871 18.8316 9.28204 18.7806 9.18604C18.7295 9.09004 18.6598 9.00623 18.5714 8.93461L12.4183 4.2969C12.301 4.1948 12.1615 4.14376 12 4.14376C11.8385 4.14376 11.6994 4.1948 11.5829 4.2969L5.42857 8.93461C5.34095 9.00776 5.27124 9.09157 5.21943 9.18604C5.16762 9.28052 5.1421 9.38718 5.14286 9.50604V19.4398ZM4 19.4398V9.50604C4 9.21347 4.06552 8.93652 4.19657 8.67518C4.32762 8.41385 4.50819 8.19861 4.73829 8.02947L10.8926 3.3689C11.2149 3.1228 11.5829 2.99976 11.9966 2.99976C12.4103 2.99976 12.7806 3.1228 13.1074 3.3689L19.2617 8.02833C19.4926 8.19747 19.6731 8.41309 19.8034 8.67518C19.9345 8.93652 20 9.21347 20 9.50604V19.4398C20 19.746 19.8861 20.0131 19.6583 20.2409C19.4305 20.4687 19.1634 20.5826 18.8571 20.5826H14.4183C14.1562 20.5826 13.9368 20.4942 13.76 20.3175C13.5832 20.1399 13.4949 19.9205 13.4949 19.6592V13.858H10.5051V19.6592C10.5051 19.9213 10.4168 20.1407 10.24 20.3175C10.0632 20.4942 9.84419 20.5826 9.58286 20.5826H5.14286C4.83657 20.5826 4.56952 20.4687 4.34171 20.2409C4.1139 20.0131 4 19.746 4 19.4398Z" fill="#1773FC"/>
</svg>
