<svg width="24" height="24" viewBox="0 0 24 24" fill="none" xmlns="http://www.w3.org/2000/svg">
<path d="M12 9.75H17.193V8.625H12V9.75ZM12 15.375H17.193V14.25H12V15.375ZM8.625 10.5712C9.01275 10.5712 9.3405 10.4377 9.60825 10.1707C9.876 9.90375 10.0099 9.576 10.0099 9.1875C10.0099 8.799 9.876 8.47125 9.60825 8.20425C9.3405 7.93725 9.01275 7.80337 8.625 7.80262C8.23725 7.80187 7.9095 7.93575 7.64175 8.20425C7.374 8.47275 7.24012 8.8005 7.24012 9.1875C7.24012 9.5745 7.374 9.90225 7.64175 10.1707C7.9095 10.4392 8.23725 10.5731 8.625 10.5724M8.625 16.1974C9.01275 16.1974 9.3405 16.0635 9.60825 15.7957C9.876 15.528 10.0099 15.2002 10.0099 14.8125C10.0099 14.4247 9.876 14.097 9.60825 13.8292C9.3405 13.5615 9.01275 13.4276 8.625 13.4276C8.23725 13.4276 7.9095 13.5615 7.64175 13.8292C7.374 14.097 7.24012 14.4247 7.24012 14.8125C7.24012 15.2002 7.374 15.528 7.64175 15.7957C7.9095 16.0635 8.23725 16.1974 8.625 16.1974ZM4.818 21C4.29975 21 3.86737 20.8267 3.52087 20.4802C3.17437 20.1337 3.00075 19.701 3 19.182V4.818C3 4.29975 3.17362 3.86737 3.52087 3.52087C3.86812 3.17437 4.3005 3.00075 4.818 3H19.1831C19.7006 3 20.133 3.17362 20.4802 3.52087C20.8275 3.86812 21.0007 4.3005 21 4.818V19.1831C21 19.7006 20.8267 20.133 20.4802 20.4802C20.1337 20.8275 19.701 21.0007 19.182 21H4.818ZM4.818 19.875H19.1831C19.3556 19.875 19.5142 19.803 19.659 19.659C19.8037 19.515 19.8757 19.356 19.875 19.182V4.818C19.875 4.64475 19.803 4.48575 19.659 4.341C19.515 4.19625 19.356 4.12425 19.182 4.125H4.818C4.64475 4.125 4.48575 4.197 4.341 4.341C4.19625 4.485 4.12425 4.644 4.125 4.818V19.1831C4.125 19.3556 4.197 19.5142 4.341 19.659C4.485 19.8037 4.64362 19.8757 4.81687 19.875" fill="#596387"/>
</svg>
