<svg width="30" height="30" viewBox="0 0 30 30" fill="none" xmlns="http://www.w3.org/2000/svg">
<rect width="30" height="30" rx="15" fill="#F0F1F5"/>
<path d="M19.1734 19.7506H13.5644C10.9239 19.7506 8.77539 17.6021 8.77539 14.978C8.77539 12.3375 10.9239 10.2054 13.548 10.2054H22.634C22.8636 10.2054 23.044 10.3858 23.044 10.6154C23.044 10.845 22.8636 11.0254 22.634 11.0254H13.5644C11.3831 11.0254 9.59543 12.7967 9.59543 14.978C9.59543 17.1593 11.3831 18.9306 13.5644 18.9306H19.1734C19.403 18.9306 19.5835 19.111 19.5835 19.3406C19.5835 19.5702 19.403 19.7506 19.1734 19.7506Z" fill="#C42A27"/>
<path d="M21.4541 17.8265H13.3849C11.7613 17.8265 10.4492 16.5145 10.4492 14.8908C10.4492 13.2671 11.7613 11.9551 13.3849 11.9551H17.2719C17.5015 11.9551 17.6819 12.1355 17.6819 12.3651C17.6819 12.5947 17.5015 12.7751 17.2719 12.7751H13.3849C12.2205 12.7751 11.2693 13.7264 11.2693 14.8908C11.2693 16.0553 12.2205 17.0065 13.3849 17.0065H21.4541C21.6837 17.0065 21.8641 17.1869 21.8641 17.4165C21.8641 17.6461 21.6837 17.8265 21.4541 17.8265Z" fill="#C42A27"/>
<path d="M16.1562 16.2997H13.1877C12.4824 16.2997 11.9248 15.7257 11.9248 15.0368C11.9248 14.348 12.4988 13.774 13.1877 13.774H19.7643C19.994 13.774 20.1744 13.9544 20.1744 14.184C20.1744 14.4136 19.994 14.594 19.7643 14.594H13.1877C12.9416 14.594 12.7448 14.7908 12.7448 15.0368C12.7448 15.2829 12.9416 15.4797 13.1877 15.4797H16.1726C16.4022 15.4797 16.5826 15.6601 16.5826 15.8897C16.5826 16.1193 16.3858 16.2997 16.1562 16.2997Z" fill="#C42A27"/>
<path d="M22.6506 21.5849H13.5318C9.90721 21.5849 6.95508 18.6327 6.95508 14.9918C6.95508 11.3508 9.90721 8.4151 13.5318 8.4151H20.8137C21.0433 8.4151 21.2237 8.59551 21.2237 8.82512C21.2237 9.05473 21.0597 9.23514 20.8301 9.23514H13.5318C10.3664 9.23514 7.77511 11.8264 7.77511 14.9918C7.77511 18.1571 10.3664 20.7484 13.5318 20.7484H22.6342C22.8638 20.7484 23.0442 20.9288 23.0442 21.1585C23.0442 21.3881 22.8802 21.5849 22.6506 21.5849Z" fill="#C42A27"/>
</svg>
