<svg width="50" height="30" viewBox="0 0 50 30" fill="none" xmlns="http://www.w3.org/2000/svg">
<path d="M16.248 18.6301H21.144C21.144 18.6301 22.7846 20.1673 23.5597 22.3376C24.8644 19.7023 25.8979 15.646 25.097 8.43768H31.0651C31.0651 8.43768 30.4192 20.1932 25.3941 28.4995C22.6425 28.4995 20.989 28.4995 20.989 28.4995C20.989 28.4995 21.8674 24.2882 16.248 18.6301Z" fill="#F2CD22"/>
<path d="M22.2812 18.6299H27.1772C27.1772 18.6299 28.8178 20.1672 29.5929 22.3374C30.8976 19.7021 31.9311 15.6458 31.1302 8.4375H37.0983C37.0983 8.4375 36.4524 20.193 31.4273 28.4993C28.6757 28.4993 27.0222 28.4993 27.0222 28.4993C27.0222 28.4993 27.9006 24.288 22.2812 18.6299Z" fill="#234C97"/>
<path d="M27.5781 18.6299H32.4741C32.4741 18.6299 34.1147 20.1672 34.8898 22.3374C36.1945 19.7021 37.228 15.6458 36.427 8.4375H42.3952C42.3952 8.4375 41.7493 20.193 36.7241 28.4993C33.9726 28.4993 32.3191 28.4993 32.3191 28.4993C32.3191 28.4993 33.1975 24.288 27.5781 18.6299Z" fill="#C42A27"/>
<path d="M15.7051 23.9784L19.0768 28.4997C19.0768 28.4997 7.60547 25.2056 7.60547 16.0983C7.60547 6.99103 14.4133 0.867845 25.4325 1.5525C27.2668 1.78503 32.3178 2.77973 34.1651 4.69161C30.2509 3.54189 15.0205 -1.5866 10.6541 13.2692C10.1245 16.3308 10.6541 20.1546 15.7051 23.9784Z" fill="#F2CD22"/>
</svg>
