<svg width="20" height="21" viewBox="0 0 20 21" fill="none" xmlns="http://www.w3.org/2000/svg">
<path d="M5.1377 12.5168H7.85774C7.85774 12.5168 8.76921 13.3709 9.19983 14.5766C9.92469 13.1125 10.4988 10.859 10.0539 6.85425H13.3696C13.3696 6.85425 13.0108 13.3852 10.2189 18C8.69027 18 7.77162 18 7.77162 18C7.77162 18 8.25965 15.6603 5.1377 12.5168Z" fill="#F2CD22"/>
<path d="M8.48926 12.5168H11.2093C11.2093 12.5168 12.1208 13.3709 12.5514 14.5766C13.2763 13.1125 13.8504 10.859 13.4054 6.85425H16.7212C16.7212 6.85425 16.3623 13.3852 13.5705 18C12.0418 18 11.1232 18 11.1232 18C11.1232 18 11.6112 15.6603 8.48926 12.5168Z" fill="#234C97"/>
<path d="M11.4316 12.5168H14.1517C14.1517 12.5168 15.0632 13.3709 15.4938 14.5766C16.2186 13.1125 16.7928 10.859 16.3478 6.85425H19.6636C19.6636 6.85425 19.3047 13.3852 16.5129 18C14.9842 18 14.0656 18 14.0656 18C14.0656 18 14.5536 15.6603 11.4316 12.5168Z" fill="#C42A27"/>
<path d="M4.83586 15.4881L6.70903 18C6.70903 18 0.335938 16.1699 0.335938 11.1102C0.335938 6.05045 4.11817 2.64859 10.2401 3.02897C11.2592 3.15815 14.0654 3.71077 15.0917 4.77296C12.9171 4.13421 4.45548 1.28498 2.02969 9.53842C1.73543 11.2394 2.02969 13.3637 4.83586 15.4881Z" fill="#F2CD22"/>
</svg>
