<svg width="116" height="36" viewBox="0 0 116 36" fill="none" xmlns="http://www.w3.org/2000/svg">
<mask id="mask0_1_10261" style="mask-type:luminance" maskUnits="userSpaceOnUse" x="1" y="0" width="35" height="30">
<path d="M1.91406 0.998413H35.8245V29.4886H1.91406V0.998413Z" fill="white"/>
</mask>
<g mask="url(#mask0_1_10261)">
<path fill-rule="evenodd" clip-rule="evenodd" d="M18.8699 0.998413C9.50693 0.998413 1.91455 8.5954 1.91455 17.9671C1.91455 18.0084 1.91753 18.0484 1.91753 18.0897C1.92024 18.5439 1.9446 18.9936 1.98168 19.4391C2.59372 25.0901 7.37279 29.489 13.1821 29.489C15.2234 29.489 17.1367 28.9421 18.7887 27.9913C15.4359 26.0239 13.1821 22.383 13.1821 18.2127C13.1821 14.0421 15.4359 10.4001 18.7887 8.43274C20.4662 7.45028 22.4165 6.88367 24.5022 6.88367C30.7252 6.88367 35.7738 11.9091 35.8209 18.1241C35.8209 18.0714 35.8253 18.02 35.8253 17.9671C35.8253 8.5954 28.2329 0.998413 18.8699 0.998413Z" fill="#2E20FF"/>
</g>
<path fill-rule="evenodd" clip-rule="evenodd" d="M24.4516 6.90466C22.3724 6.90466 20.4282 7.47086 18.7559 8.45628C22.1263 10.4055 24.3989 14.0608 24.3989 18.2524C24.3989 22.4425 22.1263 26.0979 18.7559 28.0471C17.1091 28.9995 15.2018 29.5473 13.1653 29.5473C7.37572 29.5473 2.61159 25.1411 2.00146 19.4808C2.74516 28.1773 9.99673 35.0016 18.8369 35.0016C27.6841 35.0016 34.9413 28.1629 35.6739 19.4551C35.7079 19.0291 35.7306 18.5985 35.7349 18.1639C35.6866 11.9387 30.6537 6.90466 24.4516 6.90466Z" fill="#44F0B9"/>
<path d="M115.857 15.0504H112.545C112.45 14.5072 112.276 14.0259 112.022 13.6067C111.768 13.1815 111.452 12.8213 111.074 12.526C110.696 12.2308 110.265 12.0094 109.781 11.8617C109.303 11.7082 108.786 11.6314 108.231 11.6314C107.245 11.6314 106.371 11.8794 105.609 12.3755C104.848 12.8656 104.251 13.586 103.82 14.5367C103.389 15.4815 103.173 16.6359 103.173 18C103.173 19.3877 103.389 20.5569 103.82 21.5076C104.257 22.4524 104.853 23.1669 105.609 23.6511C106.371 24.1294 107.242 24.3685 108.222 24.3685C108.766 24.3685 109.273 24.2977 109.746 24.156C110.224 24.0083 110.652 23.7928 111.03 23.5094C111.414 23.2259 111.736 22.8775 111.996 22.4642C112.261 22.0508 112.444 21.5784 112.545 21.047L115.857 21.0647C115.733 21.9268 115.465 22.7358 115.051 23.4916C114.644 24.2475 114.11 24.9147 113.448 25.4934C112.787 26.0662 112.013 26.515 111.128 26.8398C110.242 27.1586 109.259 27.3181 108.178 27.3181C106.584 27.3181 105.161 26.949 103.909 26.2109C102.657 25.4728 101.671 24.4069 100.95 23.0133C100.23 21.6198 99.8696 19.9486 99.8696 18C99.8696 16.0454 100.233 14.3743 100.959 12.9866C101.685 11.5931 102.675 10.5272 103.926 9.78907C105.178 9.05095 106.595 8.68188 108.178 8.68188C109.188 8.68188 110.127 8.8236 110.995 9.10704C111.863 9.39049 112.636 9.80679 113.315 10.356C113.994 10.8992 114.552 11.5665 114.989 12.3578C115.432 13.1431 115.722 14.0407 115.857 15.0504Z" fill="#464852"/>
<path d="M85.4636 27.0752H81.9561L88.3423 8.93506H92.3991L98.7942 27.0752H95.2866L90.4415 12.6552H90.2998L85.4636 27.0752ZM85.5788 19.9627H95.1449V22.6022H85.5788V19.9627Z" fill="#464852"/>
<path d="M79.5527 8.93506V27.0752H76.6297L68.0822 14.719H67.9316V27.0752H64.6455V8.93506H67.5862L76.1248 21.3001H76.2843V8.93506H79.5527Z" fill="#464852"/>
<path d="M61.539 18C61.539 19.9545 61.1729 21.6286 60.4406 23.0222C59.7143 24.4099 58.7223 25.4728 57.4645 26.2109C56.2127 26.949 54.7925 27.3181 53.2041 27.3181C51.6156 27.3181 50.1925 26.949 48.9347 26.2109C47.6829 25.4669 46.6908 24.401 45.9586 23.0133C45.2323 21.6198 44.8691 19.9486 44.8691 18C44.8691 16.0454 45.2323 14.3743 45.9586 12.9866C46.6908 11.5931 47.6829 10.5272 48.9347 9.78907C50.1925 9.05095 51.6156 8.68188 53.2041 8.68188C54.7925 8.68188 56.2127 9.05095 57.4645 9.78907C58.7223 10.5272 59.7143 11.5931 60.4406 12.9866C61.1729 14.3743 61.539 16.0454 61.539 18ZM58.2351 18C58.2351 16.6241 58.0196 15.4638 57.5885 14.519C57.1634 13.5683 56.5729 12.8508 55.817 12.3666C55.0612 11.8765 54.1902 11.6314 53.2041 11.6314C52.2179 11.6314 51.3469 11.8765 50.5911 12.3666C49.8353 12.8508 49.2418 13.5683 48.8107 14.519C48.3856 15.4638 48.173 16.6241 48.173 18C48.173 19.3758 48.3856 20.5391 48.8107 21.4898C49.2418 22.4346 49.8353 23.1521 50.5911 23.6422C51.3469 24.1264 52.2179 24.3685 53.2041 24.3685C54.1902 24.3685 55.0612 24.1264 55.817 23.6422C56.5729 23.1521 57.1634 22.4346 57.5885 21.4898C58.0196 20.5391 58.2351 19.3758 58.2351 18Z" fill="#464852"/>
</svg>
