<svg width="1181" height="274" viewBox="0 0 1181 274" fill="none" xmlns="http://www.w3.org/2000/svg">
<rect width="1181" height="274" fill="#D9D9D9" fill-opacity="0.24"/>
<path d="M488.511 131.364V143H487.148L480.807 133.864H480.693V143H479.284V131.364H480.648L487.011 140.523H487.125V131.364H488.511ZM494.695 143.182C493.907 143.182 493.215 142.994 492.621 142.619C492.03 142.244 491.568 141.72 491.234 141.045C490.905 140.371 490.74 139.583 490.74 138.682C490.74 137.773 490.905 136.979 491.234 136.301C491.568 135.623 492.03 135.097 492.621 134.722C493.215 134.347 493.907 134.159 494.695 134.159C495.482 134.159 496.172 134.347 496.763 134.722C497.357 135.097 497.82 135.623 498.149 136.301C498.482 136.979 498.649 137.773 498.649 138.682C498.649 139.583 498.482 140.371 498.149 141.045C497.82 141.72 497.357 142.244 496.763 142.619C496.172 142.994 495.482 143.182 494.695 143.182ZM494.695 141.977C495.293 141.977 495.786 141.824 496.172 141.517C496.558 141.21 496.844 140.807 497.03 140.307C497.215 139.807 497.308 139.265 497.308 138.682C497.308 138.098 497.215 137.555 497.03 137.051C496.844 136.547 496.558 136.14 496.172 135.83C495.786 135.519 495.293 135.364 494.695 135.364C494.096 135.364 493.604 135.519 493.217 135.83C492.831 136.14 492.545 136.547 492.359 137.051C492.174 137.555 492.081 138.098 492.081 138.682C492.081 139.265 492.174 139.807 492.359 140.307C492.545 140.807 492.831 141.21 493.217 141.517C493.604 141.824 494.096 141.977 494.695 141.977ZM506.537 137.75V143H505.196V131.364H506.537V135.636H506.651C506.855 135.186 507.162 134.828 507.571 134.562C507.984 134.294 508.533 134.159 509.219 134.159C509.813 134.159 510.334 134.278 510.781 134.517C511.228 134.752 511.575 135.114 511.821 135.602C512.071 136.087 512.196 136.705 512.196 137.455V143H510.855V137.545C510.855 136.852 510.675 136.316 510.315 135.938C509.959 135.555 509.465 135.364 508.832 135.364C508.393 135.364 507.999 135.456 507.651 135.642C507.306 135.828 507.033 136.098 506.832 136.455C506.635 136.811 506.537 137.242 506.537 137.75ZM517.217 143.205C516.664 143.205 516.162 143.1 515.712 142.892C515.261 142.68 514.903 142.375 514.638 141.977C514.373 141.576 514.24 141.091 514.24 140.523C514.24 140.023 514.339 139.617 514.536 139.307C514.732 138.992 514.996 138.746 515.325 138.568C515.655 138.39 516.018 138.258 516.416 138.17C516.818 138.08 517.221 138.008 517.626 137.955C518.157 137.886 518.587 137.835 518.916 137.801C519.25 137.763 519.492 137.701 519.643 137.614C519.799 137.527 519.876 137.375 519.876 137.159V137.114C519.876 136.553 519.723 136.117 519.416 135.807C519.113 135.496 518.653 135.341 518.036 135.341C517.395 135.341 516.893 135.481 516.53 135.761C516.166 136.042 515.911 136.341 515.763 136.659L514.49 136.205C514.717 135.674 515.02 135.261 515.399 134.966C515.782 134.667 516.198 134.458 516.649 134.341C517.104 134.22 517.551 134.159 517.99 134.159C518.27 134.159 518.592 134.193 518.956 134.261C519.323 134.326 519.678 134.46 520.018 134.665C520.363 134.869 520.649 135.178 520.876 135.591C521.104 136.004 521.217 136.557 521.217 137.25V143H519.876V141.818H519.808C519.717 142.008 519.566 142.21 519.354 142.426C519.142 142.642 518.859 142.826 518.507 142.977C518.155 143.129 517.725 143.205 517.217 143.205ZM517.422 142C517.952 142 518.399 141.896 518.763 141.688C519.13 141.479 519.407 141.21 519.592 140.881C519.782 140.551 519.876 140.205 519.876 139.841V138.614C519.82 138.682 519.695 138.744 519.501 138.801C519.312 138.854 519.092 138.902 518.842 138.943C518.596 138.981 518.356 139.015 518.121 139.045C517.89 139.072 517.702 139.095 517.558 139.114C517.21 139.159 516.884 139.233 516.581 139.335C516.282 139.434 516.039 139.583 515.854 139.784C515.672 139.981 515.581 140.25 515.581 140.591C515.581 141.057 515.753 141.409 516.098 141.648C516.446 141.883 516.888 142 517.422 142ZM524.216 146.273C523.989 146.273 523.786 146.254 523.608 146.216C523.43 146.182 523.307 146.148 523.239 146.114L523.58 144.932C523.905 145.015 524.193 145.045 524.443 145.023C524.693 145 524.915 144.888 525.108 144.688C525.305 144.491 525.485 144.17 525.648 143.727L525.898 143.045L522.67 134.273H524.125L526.534 141.227H526.625L529.034 134.273H530.489L526.784 144.273C526.617 144.723 526.411 145.097 526.165 145.392C525.919 145.691 525.633 145.913 525.307 146.057C524.985 146.201 524.621 146.273 524.216 146.273ZM536.759 143V134.273H538.054V135.591H538.145C538.304 135.159 538.592 134.809 539.009 134.54C539.425 134.271 539.895 134.136 540.418 134.136C540.516 134.136 540.639 134.138 540.787 134.142C540.935 134.146 541.046 134.152 541.122 134.159V135.523C541.077 135.511 540.973 135.494 540.81 135.472C540.651 135.445 540.482 135.432 540.304 135.432C539.88 135.432 539.501 135.521 539.168 135.699C538.838 135.873 538.577 136.116 538.384 136.426C538.194 136.733 538.099 137.083 538.099 137.477V143H536.759ZM546.105 143.182C545.264 143.182 544.539 142.996 543.929 142.625C543.323 142.25 542.855 141.727 542.526 141.057C542.2 140.383 542.037 139.598 542.037 138.705C542.037 137.811 542.2 137.023 542.526 136.341C542.855 135.655 543.313 135.121 543.901 134.739C544.491 134.352 545.181 134.159 545.969 134.159C546.423 134.159 546.872 134.235 547.315 134.386C547.759 134.538 548.162 134.784 548.526 135.125C548.889 135.462 549.179 135.909 549.395 136.466C549.611 137.023 549.719 137.708 549.719 138.523V139.091H542.991V137.932H548.355C548.355 137.439 548.257 137 548.06 136.614C547.866 136.227 547.59 135.922 547.23 135.699C546.874 135.475 546.454 135.364 545.969 135.364C545.435 135.364 544.973 135.496 544.582 135.761C544.196 136.023 543.899 136.364 543.69 136.784C543.482 137.205 543.378 137.655 543.378 138.136V138.909C543.378 139.568 543.491 140.127 543.719 140.585C543.95 141.04 544.27 141.386 544.679 141.625C545.088 141.86 545.563 141.977 546.105 141.977C546.457 141.977 546.776 141.928 547.06 141.83C547.348 141.727 547.596 141.576 547.804 141.375C548.012 141.17 548.173 140.917 548.287 140.614L549.582 140.977C549.446 141.417 549.217 141.803 548.895 142.136C548.573 142.466 548.175 142.723 547.702 142.909C547.228 143.091 546.696 143.182 546.105 143.182ZM555.281 146.455C554.634 146.455 554.077 146.371 553.611 146.205C553.145 146.042 552.757 145.826 552.446 145.557C552.139 145.292 551.895 145.008 551.713 144.705L552.781 143.955C552.902 144.114 553.056 144.295 553.241 144.5C553.427 144.708 553.681 144.888 554.003 145.04C554.329 145.195 554.755 145.273 555.281 145.273C555.986 145.273 556.567 145.102 557.026 144.761C557.484 144.42 557.713 143.886 557.713 143.159V141.386H557.599C557.501 141.545 557.361 141.742 557.179 141.977C557.001 142.208 556.743 142.415 556.406 142.597C556.073 142.775 555.622 142.864 555.054 142.864C554.349 142.864 553.717 142.697 553.156 142.364C552.599 142.03 552.158 141.545 551.832 140.909C551.51 140.273 551.349 139.5 551.349 138.591C551.349 137.697 551.507 136.919 551.821 136.256C552.135 135.589 552.573 135.074 553.134 134.71C553.694 134.343 554.342 134.159 555.077 134.159C555.645 134.159 556.096 134.254 556.429 134.443C556.766 134.629 557.024 134.841 557.202 135.08C557.384 135.314 557.524 135.508 557.622 135.659H557.759V134.273H559.054V143.25C559.054 144 558.884 144.61 558.543 145.08C558.205 145.553 557.751 145.9 557.179 146.119C556.611 146.343 555.978 146.455 555.281 146.455ZM555.236 141.659C555.774 141.659 556.228 141.536 556.599 141.29C556.971 141.044 557.253 140.689 557.446 140.227C557.639 139.765 557.736 139.212 557.736 138.568C557.736 137.939 557.641 137.384 557.452 136.903C557.262 136.422 556.982 136.045 556.611 135.773C556.24 135.5 555.781 135.364 555.236 135.364C554.668 135.364 554.194 135.508 553.815 135.795C553.44 136.083 553.158 136.47 552.969 136.955C552.783 137.439 552.69 137.977 552.69 138.568C552.69 139.174 552.785 139.71 552.974 140.176C553.168 140.638 553.452 141.002 553.827 141.267C554.205 141.528 554.675 141.659 555.236 141.659ZM561.509 143V134.273H562.849V143H561.509ZM562.19 132.818C561.929 132.818 561.704 132.729 561.514 132.551C561.329 132.373 561.236 132.159 561.236 131.909C561.236 131.659 561.329 131.445 561.514 131.267C561.704 131.089 561.929 131 562.19 131C562.452 131 562.675 131.089 562.861 131.267C563.05 131.445 563.145 131.659 563.145 131.909C563.145 132.159 563.05 132.373 562.861 132.551C562.675 132.729 562.452 132.818 562.19 132.818ZM571.487 136.227L570.283 136.568C570.207 136.367 570.095 136.172 569.947 135.983C569.804 135.79 569.607 135.631 569.357 135.506C569.107 135.381 568.786 135.318 568.396 135.318C567.862 135.318 567.417 135.441 567.061 135.688C566.709 135.93 566.533 136.239 566.533 136.614C566.533 136.947 566.654 137.21 566.896 137.403C567.139 137.597 567.518 137.758 568.033 137.886L569.328 138.205C570.108 138.394 570.69 138.684 571.072 139.074C571.455 139.46 571.646 139.958 571.646 140.568C571.646 141.068 571.502 141.515 571.214 141.909C570.93 142.303 570.533 142.614 570.021 142.841C569.51 143.068 568.915 143.182 568.237 143.182C567.347 143.182 566.61 142.989 566.027 142.602C565.444 142.216 565.074 141.652 564.919 140.909L566.192 140.591C566.313 141.061 566.542 141.413 566.879 141.648C567.22 141.883 567.665 142 568.214 142C568.839 142 569.336 141.867 569.703 141.602C570.074 141.333 570.26 141.011 570.26 140.636C570.26 140.333 570.154 140.08 569.942 139.875C569.73 139.667 569.404 139.511 568.964 139.409L567.51 139.068C566.711 138.879 566.124 138.585 565.749 138.188C565.377 137.786 565.192 137.284 565.192 136.682C565.192 136.189 565.33 135.754 565.607 135.375C565.887 134.996 566.268 134.699 566.749 134.483C567.233 134.267 567.783 134.159 568.396 134.159C569.26 134.159 569.938 134.348 570.43 134.727C570.927 135.106 571.279 135.606 571.487 136.227ZM577.46 134.273V135.409H572.938V134.273H577.46ZM574.256 132.182H575.597V140.5C575.597 140.879 575.652 141.163 575.761 141.352C575.875 141.538 576.019 141.663 576.193 141.727C576.371 141.788 576.559 141.818 576.756 141.818C576.903 141.818 577.025 141.811 577.119 141.795C577.214 141.777 577.29 141.761 577.347 141.75L577.619 142.955C577.528 142.989 577.402 143.023 577.239 143.057C577.076 143.095 576.869 143.114 576.619 143.114C576.241 143.114 575.869 143.032 575.506 142.869C575.146 142.706 574.847 142.458 574.608 142.125C574.373 141.792 574.256 141.371 574.256 140.864V132.182ZM579.477 143V134.273H580.773V135.591H580.864C581.023 135.159 581.311 134.809 581.727 134.54C582.144 134.271 582.614 134.136 583.136 134.136C583.235 134.136 583.358 134.138 583.506 134.142C583.653 134.146 583.765 134.152 583.841 134.159V135.523C583.795 135.511 583.691 135.494 583.528 135.472C583.369 135.445 583.201 135.432 583.023 135.432C582.598 135.432 582.22 135.521 581.886 135.699C581.557 135.873 581.295 136.116 581.102 136.426C580.913 136.733 580.818 137.083 580.818 137.477V143H579.477ZM588.71 143.182C587.922 143.182 587.231 142.994 586.636 142.619C586.045 142.244 585.583 141.72 585.25 141.045C584.92 140.371 584.756 139.583 584.756 138.682C584.756 137.773 584.92 136.979 585.25 136.301C585.583 135.623 586.045 135.097 586.636 134.722C587.231 134.347 587.922 134.159 588.71 134.159C589.498 134.159 590.188 134.347 590.778 134.722C591.373 135.097 591.835 135.623 592.165 136.301C592.498 136.979 592.665 137.773 592.665 138.682C592.665 139.583 592.498 140.371 592.165 141.045C591.835 141.72 591.373 142.244 590.778 142.619C590.188 142.994 589.498 143.182 588.71 143.182ZM588.71 141.977C589.309 141.977 589.801 141.824 590.188 141.517C590.574 141.21 590.86 140.807 591.045 140.307C591.231 139.807 591.324 139.265 591.324 138.682C591.324 138.098 591.231 137.555 591.045 137.051C590.86 136.547 590.574 136.14 590.188 135.83C589.801 135.519 589.309 135.364 588.71 135.364C588.112 135.364 587.619 135.519 587.233 135.83C586.847 136.14 586.561 136.547 586.375 137.051C586.189 137.555 586.097 138.098 586.097 138.682C586.097 139.265 586.189 139.807 586.375 140.307C586.561 140.807 586.847 141.21 587.233 141.517C587.619 141.824 588.112 141.977 588.71 141.977ZM600.893 136.227L599.689 136.568C599.613 136.367 599.501 136.172 599.354 135.983C599.21 135.79 599.013 135.631 598.763 135.506C598.513 135.381 598.193 135.318 597.803 135.318C597.268 135.318 596.823 135.441 596.467 135.688C596.115 135.93 595.939 136.239 595.939 136.614C595.939 136.947 596.06 137.21 596.303 137.403C596.545 137.597 596.924 137.758 597.439 137.886L598.734 138.205C599.515 138.394 600.096 138.684 600.479 139.074C600.861 139.46 601.053 139.958 601.053 140.568C601.053 141.068 600.909 141.515 600.621 141.909C600.337 142.303 599.939 142.614 599.428 142.841C598.916 143.068 598.321 143.182 597.643 143.182C596.753 143.182 596.017 142.989 595.433 142.602C594.85 142.216 594.481 141.652 594.325 140.909L595.598 140.591C595.719 141.061 595.948 141.413 596.286 141.648C596.626 141.883 597.071 142 597.621 142C598.246 142 598.742 141.867 599.109 141.602C599.481 141.333 599.666 141.011 599.666 140.636C599.666 140.333 599.56 140.08 599.348 139.875C599.136 139.667 598.81 139.511 598.371 139.409L596.916 139.068C596.117 138.879 595.53 138.585 595.155 138.188C594.784 137.786 594.598 137.284 594.598 136.682C594.598 136.189 594.736 135.754 595.013 135.375C595.293 134.996 595.674 134.699 596.155 134.483C596.64 134.267 597.189 134.159 597.803 134.159C598.666 134.159 599.344 134.348 599.837 134.727C600.333 135.106 600.685 135.606 600.893 136.227ZM607.571 146.273V134.273H608.866V135.659H609.026C609.124 135.508 609.26 135.314 609.435 135.08C609.613 134.841 609.866 134.629 610.196 134.443C610.529 134.254 610.98 134.159 611.548 134.159C612.283 134.159 612.931 134.343 613.491 134.71C614.052 135.078 614.49 135.598 614.804 136.273C615.118 136.947 615.276 137.742 615.276 138.659C615.276 139.583 615.118 140.384 614.804 141.062C614.49 141.737 614.054 142.259 613.497 142.631C612.94 142.998 612.298 143.182 611.571 143.182C611.01 143.182 610.562 143.089 610.224 142.903C609.887 142.714 609.628 142.5 609.446 142.261C609.264 142.019 609.124 141.818 609.026 141.659H608.912V146.273H607.571ZM608.889 138.636C608.889 139.295 608.986 139.877 609.179 140.381C609.372 140.881 609.654 141.273 610.026 141.557C610.397 141.837 610.851 141.977 611.389 141.977C611.95 141.977 612.418 141.83 612.793 141.534C613.171 141.235 613.455 140.833 613.645 140.33C613.838 139.822 613.935 139.258 613.935 138.636C613.935 138.023 613.84 137.47 613.651 136.977C613.465 136.481 613.183 136.089 612.804 135.801C612.429 135.509 611.957 135.364 611.389 135.364C610.844 135.364 610.385 135.502 610.014 135.778C609.643 136.051 609.363 136.434 609.173 136.926C608.984 137.415 608.889 137.985 608.889 138.636ZM619.889 143.205C619.336 143.205 618.834 143.1 618.384 142.892C617.933 142.68 617.575 142.375 617.31 141.977C617.045 141.576 616.912 141.091 616.912 140.523C616.912 140.023 617.01 139.617 617.207 139.307C617.404 138.992 617.668 138.746 617.997 138.568C618.327 138.39 618.69 138.258 619.088 138.17C619.49 138.08 619.893 138.008 620.298 137.955C620.829 137.886 621.259 137.835 621.588 137.801C621.921 137.763 622.164 137.701 622.315 137.614C622.471 137.527 622.548 137.375 622.548 137.159V137.114C622.548 136.553 622.395 136.117 622.088 135.807C621.785 135.496 621.325 135.341 620.707 135.341C620.067 135.341 619.565 135.481 619.202 135.761C618.838 136.042 618.582 136.341 618.435 136.659L617.162 136.205C617.389 135.674 617.692 135.261 618.071 134.966C618.454 134.667 618.87 134.458 619.321 134.341C619.776 134.22 620.223 134.159 620.662 134.159C620.942 134.159 621.264 134.193 621.628 134.261C621.995 134.326 622.349 134.46 622.69 134.665C623.035 134.869 623.321 135.178 623.548 135.591C623.776 136.004 623.889 136.557 623.889 137.25V143H622.548V141.818H622.48C622.389 142.008 622.238 142.21 622.026 142.426C621.813 142.642 621.531 142.826 621.179 142.977C620.827 143.129 620.397 143.205 619.889 143.205ZM620.094 142C620.624 142 621.071 141.896 621.435 141.688C621.802 141.479 622.079 141.21 622.264 140.881C622.454 140.551 622.548 140.205 622.548 139.841V138.614C622.491 138.682 622.366 138.744 622.173 138.801C621.984 138.854 621.764 138.902 621.514 138.943C621.268 138.981 621.027 139.015 620.793 139.045C620.562 139.072 620.374 139.095 620.23 139.114C619.882 139.159 619.556 139.233 619.253 139.335C618.954 139.434 618.711 139.583 618.526 139.784C618.344 139.981 618.253 140.25 618.253 140.591C618.253 141.057 618.425 141.409 618.77 141.648C619.118 141.883 619.56 142 620.094 142ZM626.337 143V134.273H627.632V135.591H627.723C627.882 135.159 628.17 134.809 628.587 134.54C629.003 134.271 629.473 134.136 629.996 134.136C630.094 134.136 630.217 134.138 630.365 134.142C630.513 134.146 630.625 134.152 630.7 134.159V135.523C630.655 135.511 630.551 135.494 630.388 135.472C630.229 135.445 630.06 135.432 629.882 135.432C629.458 135.432 629.079 135.521 628.746 135.699C628.416 135.873 628.155 136.116 627.962 136.426C627.772 136.733 627.678 137.083 627.678 137.477V143H626.337ZM634.858 143.205C634.305 143.205 633.803 143.1 633.352 142.892C632.902 142.68 632.544 142.375 632.278 141.977C632.013 141.576 631.881 141.091 631.881 140.523C631.881 140.023 631.979 139.617 632.176 139.307C632.373 138.992 632.636 138.746 632.966 138.568C633.295 138.39 633.659 138.258 634.057 138.17C634.458 138.08 634.862 138.008 635.267 137.955C635.797 137.886 636.227 137.835 636.557 137.801C636.89 137.763 637.133 137.701 637.284 137.614C637.439 137.527 637.517 137.375 637.517 137.159V137.114C637.517 136.553 637.364 136.117 637.057 135.807C636.754 135.496 636.294 135.341 635.676 135.341C635.036 135.341 634.534 135.481 634.17 135.761C633.807 136.042 633.551 136.341 633.403 136.659L632.131 136.205C632.358 135.674 632.661 135.261 633.04 134.966C633.422 134.667 633.839 134.458 634.29 134.341C634.744 134.22 635.191 134.159 635.631 134.159C635.911 134.159 636.233 134.193 636.597 134.261C636.964 134.326 637.318 134.46 637.659 134.665C638.004 134.869 638.29 135.178 638.517 135.591C638.744 136.004 638.858 136.557 638.858 137.25V143H637.517V141.818H637.449C637.358 142.008 637.206 142.21 636.994 142.426C636.782 142.642 636.5 142.826 636.148 142.977C635.795 143.129 635.366 143.205 634.858 143.205ZM635.062 142C635.593 142 636.04 141.896 636.403 141.688C636.771 141.479 637.047 141.21 637.233 140.881C637.422 140.551 637.517 140.205 637.517 139.841V138.614C637.46 138.682 637.335 138.744 637.142 138.801C636.953 138.854 636.733 138.902 636.483 138.943C636.237 138.981 635.996 139.015 635.761 139.045C635.53 139.072 635.343 139.095 635.199 139.114C634.85 139.159 634.525 139.233 634.222 139.335C633.922 139.434 633.68 139.583 633.494 139.784C633.313 139.981 633.222 140.25 633.222 140.591C633.222 141.057 633.394 141.409 633.739 141.648C634.087 141.883 634.528 142 635.062 142ZM645.805 143V134.273H647.101V135.636H647.214C647.396 135.17 647.69 134.809 648.095 134.551C648.5 134.29 648.987 134.159 649.555 134.159C650.131 134.159 650.61 134.29 650.993 134.551C651.379 134.809 651.68 135.17 651.896 135.636H651.987C652.211 135.186 652.546 134.828 652.993 134.562C653.44 134.294 653.976 134.159 654.601 134.159C655.381 134.159 656.019 134.403 656.516 134.892C657.012 135.377 657.26 136.133 657.26 137.159V143H655.919V137.159C655.919 136.515 655.743 136.055 655.391 135.778C655.038 135.502 654.624 135.364 654.146 135.364C653.533 135.364 653.057 135.549 652.72 135.92C652.383 136.288 652.214 136.754 652.214 137.318V143H650.851V137.023C650.851 136.527 650.69 136.127 650.368 135.824C650.046 135.517 649.631 135.364 649.124 135.364C648.775 135.364 648.449 135.456 648.146 135.642C647.847 135.828 647.605 136.085 647.419 136.415C647.237 136.741 647.146 137.117 647.146 137.545V143H645.805ZM663.257 143.182C662.469 143.182 661.778 142.994 661.183 142.619C660.592 142.244 660.13 141.72 659.797 141.045C659.467 140.371 659.303 139.583 659.303 138.682C659.303 137.773 659.467 136.979 659.797 136.301C660.13 135.623 660.592 135.097 661.183 134.722C661.778 134.347 662.469 134.159 663.257 134.159C664.045 134.159 664.734 134.347 665.325 134.722C665.92 135.097 666.382 135.623 666.712 136.301C667.045 136.979 667.212 137.773 667.212 138.682C667.212 139.583 667.045 140.371 666.712 141.045C666.382 141.72 665.92 142.244 665.325 142.619C664.734 142.994 664.045 143.182 663.257 143.182ZM663.257 141.977C663.856 141.977 664.348 141.824 664.734 141.517C665.121 141.21 665.407 140.807 665.592 140.307C665.778 139.807 665.871 139.265 665.871 138.682C665.871 138.098 665.778 137.555 665.592 137.051C665.407 136.547 665.121 136.14 664.734 135.83C664.348 135.519 663.856 135.364 663.257 135.364C662.659 135.364 662.166 135.519 661.78 135.83C661.393 136.14 661.107 136.547 660.922 137.051C660.736 137.555 660.643 138.098 660.643 138.682C660.643 139.265 660.736 139.807 660.922 140.307C661.107 140.807 661.393 141.21 661.78 141.517C662.166 141.824 662.659 141.977 663.257 141.977ZM675.44 136.227L674.236 136.568C674.16 136.367 674.048 136.172 673.901 135.983C673.757 135.79 673.56 135.631 673.31 135.506C673.06 135.381 672.74 135.318 672.349 135.318C671.815 135.318 671.37 135.441 671.014 135.688C670.662 135.93 670.486 136.239 670.486 136.614C670.486 136.947 670.607 137.21 670.849 137.403C671.092 137.597 671.471 137.758 671.986 137.886L673.281 138.205C674.062 138.394 674.643 138.684 675.026 139.074C675.408 139.46 675.599 139.958 675.599 140.568C675.599 141.068 675.455 141.515 675.168 141.909C674.884 142.303 674.486 142.614 673.974 142.841C673.463 143.068 672.868 143.182 672.19 143.182C671.3 143.182 670.563 142.989 669.98 142.602C669.397 142.216 669.027 141.652 668.872 140.909L670.145 140.591C670.266 141.061 670.495 141.413 670.832 141.648C671.173 141.883 671.618 142 672.168 142C672.793 142 673.289 141.867 673.656 141.602C674.027 141.333 674.213 141.011 674.213 140.636C674.213 140.333 674.107 140.08 673.895 139.875C673.683 139.667 673.357 139.511 672.918 139.409L671.463 139.068C670.664 138.879 670.077 138.585 669.702 138.188C669.33 137.786 669.145 137.284 669.145 136.682C669.145 136.189 669.283 135.754 669.56 135.375C669.84 134.996 670.221 134.699 670.702 134.483C671.187 134.267 671.736 134.159 672.349 134.159C673.213 134.159 673.891 134.348 674.384 134.727C674.88 135.106 675.232 135.606 675.44 136.227ZM681.413 134.273V135.409H676.891V134.273H681.413ZM678.209 132.182H679.55V140.5C679.55 140.879 679.605 141.163 679.714 141.352C679.828 141.538 679.972 141.663 680.146 141.727C680.324 141.788 680.512 141.818 680.709 141.818C680.857 141.818 680.978 141.811 681.072 141.795C681.167 141.777 681.243 141.761 681.3 141.75L681.572 142.955C681.482 142.989 681.355 143.023 681.192 143.057C681.029 143.095 680.822 143.114 680.572 143.114C680.194 143.114 679.822 143.032 679.459 142.869C679.099 142.706 678.8 142.458 678.561 142.125C678.326 141.792 678.209 141.371 678.209 140.864V132.182ZM683.43 143V134.273H684.726V135.591H684.817C684.976 135.159 685.264 134.809 685.68 134.54C686.097 134.271 686.567 134.136 687.089 134.136C687.188 134.136 687.311 134.138 687.459 134.142C687.607 134.146 687.718 134.152 687.794 134.159V135.523C687.749 135.511 687.644 135.494 687.482 135.472C687.322 135.445 687.154 135.432 686.976 135.432C686.552 135.432 686.173 135.521 685.839 135.699C685.51 135.873 685.249 136.116 685.055 136.426C684.866 136.733 684.771 137.083 684.771 137.477V143H683.43ZM691.952 143.205C691.399 143.205 690.897 143.1 690.446 142.892C689.995 142.68 689.637 142.375 689.372 141.977C689.107 141.576 688.974 141.091 688.974 140.523C688.974 140.023 689.073 139.617 689.27 139.307C689.467 138.992 689.73 138.746 690.06 138.568C690.389 138.39 690.753 138.258 691.151 138.17C691.552 138.08 691.955 138.008 692.361 137.955C692.891 137.886 693.321 137.835 693.651 137.801C693.984 137.763 694.226 137.701 694.378 137.614C694.533 137.527 694.611 137.375 694.611 137.159V137.114C694.611 136.553 694.457 136.117 694.151 135.807C693.848 135.496 693.387 135.341 692.77 135.341C692.13 135.341 691.628 135.481 691.264 135.761C690.901 136.042 690.645 136.341 690.497 136.659L689.224 136.205C689.452 135.674 689.755 135.261 690.134 134.966C690.516 134.667 690.933 134.458 691.384 134.341C691.838 134.22 692.285 134.159 692.724 134.159C693.005 134.159 693.327 134.193 693.69 134.261C694.058 134.326 694.412 134.46 694.753 134.665C695.098 134.869 695.384 135.178 695.611 135.591C695.838 136.004 695.952 136.557 695.952 137.25V143H694.611V141.818H694.543C694.452 142.008 694.3 142.21 694.088 142.426C693.876 142.642 693.594 142.826 693.241 142.977C692.889 143.129 692.459 143.205 691.952 143.205ZM692.156 142C692.687 142 693.134 141.896 693.497 141.688C693.865 141.479 694.141 141.21 694.327 140.881C694.516 140.551 694.611 140.205 694.611 139.841V138.614C694.554 138.682 694.429 138.744 694.236 138.801C694.046 138.854 693.827 138.902 693.577 138.943C693.33 138.981 693.09 139.015 692.855 139.045C692.624 139.072 692.437 139.095 692.293 139.114C691.944 139.159 691.618 139.233 691.315 139.335C691.016 139.434 690.774 139.583 690.588 139.784C690.406 139.981 690.315 140.25 690.315 140.591C690.315 141.057 690.488 141.409 690.832 141.648C691.181 141.883 691.622 142 692.156 142ZM698.399 143V134.273H699.695V135.591H699.786C699.945 135.159 700.232 134.809 700.649 134.54C701.066 134.271 701.536 134.136 702.058 134.136C702.157 134.136 702.28 134.138 702.428 134.142C702.575 134.146 702.687 134.152 702.763 134.159V135.523C702.717 135.511 702.613 135.494 702.45 135.472C702.291 135.445 702.123 135.432 701.945 135.432C701.52 135.432 701.142 135.521 700.808 135.699C700.479 135.873 700.217 136.116 700.024 136.426C699.835 136.733 699.74 137.083 699.74 137.477V143H698.399Z" fill="#1C1D21"/>
</svg>
