<svg width="5" height="13" viewBox="0 0 5 13" fill="none" xmlns="http://www.w3.org/2000/svg">
<path fill-rule="evenodd" clip-rule="evenodd" d="M1.49362 0.950272C1.73459 0.921046 1.81142 0.914551 2.42524 0.914551C3.03906 0.914551 3.11589 0.921587 3.35665 0.950272C3.59741 0.978957 3.76175 1.08017 3.90555 1.22684C4.05613 1.37676 4.19274 1.61112 4.30573 1.91421C4.42077 2.21134 4.50951 2.57072 4.56621 2.96798C4.62209 3.34685 4.6603 3.77983 4.67139 4.41307C4.68248 5.04902 4.68495 5.25144 4.68495 6.8681C4.68495 8.4853 4.68228 8.68772 4.67139 9.32259C4.6605 9.95583 4.62209 10.3888 4.56621 10.7677C4.50951 11.165 4.42062 11.525 4.30573 11.8225C4.19274 12.1256 4.05613 12.3594 3.90555 12.5088C3.76175 12.656 3.59741 12.7567 3.35706 12.7859C3.11589 12.8152 3.03906 12.8216 2.42524 12.8216C1.81142 12.8216 1.73459 12.8146 1.49362 12.7859C1.25327 12.7572 1.08893 12.656 0.945127 12.5088C0.794327 12.3594 0.657696 12.1252 0.544748 11.8225C0.429786 11.5252 0.340822 11.1654 0.284059 10.7682C0.228388 10.3894 0.190179 9.95637 0.179086 9.32313C0.167992 8.68718 0.165527 8.48476 0.165527 6.8681C0.165527 5.2509 0.168198 5.04848 0.179086 4.41415C0.189973 3.77983 0.228388 3.34685 0.284059 2.96798C0.340906 2.57076 0.429938 2.21097 0.544953 1.91366C0.657741 1.61085 0.794234 1.37646 0.944922 1.22684C1.08872 1.08017 1.25306 0.979499 1.49341 0.950272H1.49362ZM3.33836 2.02191C3.10007 1.99323 3.02858 1.98727 2.42524 1.98727C1.82189 1.98727 1.75041 1.99323 1.51211 2.02191C1.29168 2.04843 1.17213 2.14531 1.09242 2.22704C0.987034 2.33528 0.911642 2.46356 0.832553 2.67193C0.75758 2.8641 0.699883 3.09803 0.663691 3.35659C0.632671 3.56659 0.595899 3.88158 0.585833 4.46232C0.574946 5.09015 0.572686 5.2785 0.572686 6.8681C0.572686 8.4577 0.574946 8.64605 0.585833 9.27387C0.595899 9.85462 0.632671 10.1696 0.663691 10.3796C0.699846 10.6378 0.757571 10.8721 0.832553 11.0643C0.90548 11.2618 0.99443 11.4139 1.09242 11.5092C1.17213 11.5909 1.29168 11.6878 1.51211 11.7143C1.75041 11.743 1.82169 11.7489 2.42524 11.7489C3.02878 11.7489 3.10007 11.743 3.33836 11.7143C3.55879 11.6878 3.67835 11.5909 3.75805 11.5092C3.86344 11.4009 3.93883 11.2726 4.01792 11.0643C4.0929 10.8721 4.15063 10.6378 4.18678 10.3796C4.2178 10.1696 4.25457 9.85462 4.26464 9.27387C4.27553 8.64605 4.27779 8.4577 4.27779 6.8681C4.27779 5.2785 4.27553 5.09015 4.26464 4.46232C4.25457 3.88158 4.2178 3.56659 4.18678 3.35659C4.1457 3.07894 4.09701 2.8803 4.01792 2.67193C3.94498 2.47442 3.85619 2.32241 3.75805 2.22704C3.67835 2.14531 3.55879 2.04843 3.33836 2.02191V2.02191ZM2.13661 8.70342C2.2978 8.8802 2.47729 8.90406 2.64441 8.77092C2.81154 8.63778 2.95594 8.3559 3.05295 7.97343C3.14995 7.59095 3.19355 7.13161 3.17629 6.67385C3.15903 6.2161 3.08199 5.78833 2.95832 5.4636C2.87949 5.25603 2.78416 5.09709 2.67921 4.99822C2.57427 4.89936 2.4623 4.86303 2.35138 4.89185C2.24047 4.92068 2.13335 5.01394 2.03776 5.16491C1.94216 5.31589 1.86046 5.52084 1.79854 5.76499C1.73661 6.00914 1.69601 6.28643 1.67964 6.5769C1.66327 6.86736 1.67155 7.16377 1.70388 7.44479C1.73622 7.72581 1.7918 7.98445 1.86662 8.20208C1.94145 8.41972 2.03365 8.59094 2.13661 8.70342ZM1.60394 4.70426C1.71179 4.42009 1.83983 4.19469 1.98075 4.0409C2.12167 3.88711 2.27271 3.80796 2.42524 3.80796C2.57777 3.80796 2.7288 3.88711 2.86972 4.0409C3.01064 4.19469 3.13868 4.42009 3.24654 4.70426C3.35439 4.98842 3.43995 5.32576 3.49832 5.69704C3.55669 6.06831 3.58673 6.46624 3.58673 6.8681C3.58673 7.26996 3.55669 7.66789 3.49832 8.03916C3.43995 8.41044 3.35439 8.74778 3.24654 9.03194C3.02872 9.60583 2.73328 9.92824 2.42524 9.92824C2.11719 9.92824 1.82176 9.60583 1.60394 9.03194C1.38611 8.45806 1.26374 7.6797 1.26374 6.8681C1.26374 6.0565 1.38611 5.27814 1.60394 4.70426V4.70426ZM3.84433 4.26369C3.87106 4.19727 3.89246 4.11739 3.90726 4.02878C3.92206 3.94018 3.92996 3.84465 3.93049 3.74786C3.93103 3.65107 3.92419 3.55498 3.91038 3.46527C3.89656 3.37557 3.87606 3.29408 3.85008 3.22563C3.8241 3.15718 3.79317 3.10316 3.75912 3.06677C3.72507 3.03038 3.6886 3.01235 3.65186 3.01376C3.61512 3.01517 3.57887 3.03599 3.54524 3.07498C3.51161 3.11398 3.48129 3.17035 3.45608 3.24076C3.40704 3.37771 3.3802 3.55962 3.38124 3.74786C3.38228 3.93611 3.41113 4.11587 3.46165 4.24899C3.51218 4.38212 3.58041 4.45812 3.65186 4.46086C3.72331 4.46361 3.79236 4.39288 3.84433 4.26369V4.26369Z" fill="#5B7DF5"/>
</svg>
