<svg width="20" height="20" viewBox="0 0 20 20" fill="none" xmlns="http://www.w3.org/2000/svg">
<path d="M10.0013 11.6667C11.8396 11.6667 13.3346 10.1717 13.3346 8.33333C13.3346 6.495 11.8396 5 10.0013 5C8.16297 5 6.66797 6.495 6.66797 8.33333C6.66797 10.1717 8.16297 11.6667 10.0013 11.6667ZM10.0013 6.66667C10.9205 6.66667 11.668 7.41417 11.668 8.33333C11.668 9.2525 10.9205 10 10.0013 10C9.08214 10 8.33464 9.2525 8.33464 8.33333C8.33464 7.41417 9.08214 6.66667 10.0013 6.66667Z" fill="#596387"/>
<path d="M9.51544 18.1782C9.65657 18.2787 9.82552 18.3327 9.99877 18.3327C10.172 18.3327 10.341 18.2787 10.4821 18.1782C10.7354 17.999 16.6896 13.6998 16.6654 8.33317C16.6654 4.65734 13.6746 1.6665 9.99877 1.6665C6.32294 1.6665 3.3321 4.65734 3.3321 8.329C3.30794 13.6998 9.2621 17.999 9.51544 18.1782ZM9.99877 3.33317C12.7563 3.33317 14.9988 5.57567 14.9988 8.33734C15.0163 12.0357 11.3421 15.3565 9.99877 16.4457C8.65627 15.3557 4.98127 12.034 4.99877 8.33317C4.99877 5.57567 7.24127 3.33317 9.99877 3.33317Z" fill="#596387"/>
</svg>
