<svg width="24" height="24" viewBox="0 0 24 24" fill="none" xmlns="http://www.w3.org/2000/svg">
<path d="M18.8008 20.25L14.1008 15.45C13.6008 15.85 13.0258 16.1667 12.3758 16.4C11.7258 16.6333 11.0341 16.75 10.3008 16.75C8.48411 16.75 6.94661 16.1208 5.68828 14.8625C4.42995 13.6042 3.80078 12.0667 3.80078 10.25C3.80078 8.43333 4.42995 6.89583 5.68828 5.6375C6.94661 4.37917 8.48411 3.75 10.3008 3.75C12.1174 3.75 13.6549 4.37917 14.9133 5.6375C16.1716 6.89583 16.8008 8.43333 16.8008 10.25C16.8008 10.9833 16.6841 11.675 16.4508 12.325C16.2174 12.975 15.9008 13.55 15.5008 14.05L20.2008 18.85L18.8008 20.25ZM10.3008 14.75C11.5508 14.75 12.6133 14.3125 13.4883 13.4375C14.3633 12.5625 14.8008 11.5 14.8008 10.25C14.8008 9 14.3633 7.9375 13.4883 7.0625C12.6133 6.1875 11.5508 5.75 10.3008 5.75C9.05078 5.75 7.98828 6.1875 7.11328 7.0625C6.23828 7.9375 5.80078 9 5.80078 10.25C5.80078 11.5 6.23828 12.5625 7.11328 13.4375C7.98828 14.3125 9.05078 14.75 10.3008 14.75Z" fill="#596387"/>
</svg>
