<svg width="14" height="14" viewBox="0 0 14 14" fill="none" xmlns="http://www.w3.org/2000/svg">
<path d="M1.75 11.6665C1.75 11.9759 1.87292 12.2727 2.09171 12.4915C2.3105 12.7103 2.60725 12.8332 2.91667 12.8332H11.0833C11.3928 12.8332 11.6895 12.7103 11.9083 12.4915C12.1271 12.2727 12.25 11.9759 12.25 11.6665C12.2442 10.6037 11.8759 9.5748 11.2058 8.74984C11.0215 8.52434 10.7594 8.37596 10.4712 8.33386C10.183 8.29176 9.88949 8.35899 9.64833 8.52234C8.86798 9.0525 7.94633 9.33596 7.00292 9.33596C6.05951 9.33596 5.13786 9.0525 4.3575 8.52234C4.11587 8.3573 3.82104 8.28908 3.53147 8.33122C3.2419 8.37336 2.97874 8.52277 2.79417 8.74984C2.12415 9.5748 1.75579 10.6037 1.75 11.6665ZM7 8.16651C6.30777 8.16651 5.63108 7.96123 5.0555 7.57665C4.47993 7.19206 4.03133 6.64544 3.76642 6.0059C3.50151 5.36636 3.4322 4.66262 3.56725 3.98369C3.7023 3.30476 4.03564 2.68112 4.52513 2.19163C5.01461 1.70215 5.63825 1.36881 6.31718 1.23376C6.99612 1.09871 7.69985 1.16802 8.33939 1.43293C8.97893 1.69783 9.52556 2.14644 9.91014 2.72201C10.2947 3.29758 10.5 3.97427 10.5 4.66651C10.5 5.59476 10.1313 6.485 9.47487 7.14138C8.8185 7.79776 7.92826 8.16651 7 8.16651Z" fill="black"/>
</svg>
