<svg width="168" height="34" viewBox="0 0 168 34" fill="none" xmlns="http://www.w3.org/2000/svg">
<g clip-path="url(#clip0_1_9881)">
<path d="M9.32518 14.8511C8.8479 15.0753 7.70979 15.3743 6.27797 15.3743C2.12937 15.3743 0 12.7208 0 9.24509C0 5.0593 2.90035 2.77954 6.53497 2.77954C7.93007 2.77954 8.99476 3.07853 9.47203 3.34014L8.88462 5.50778C8.33392 5.28354 7.59965 5.0593 6.60839 5.0593C4.47902 5.0593 2.79021 6.36736 2.79021 9.0956C2.79021 11.5249 4.22203 13.0945 6.60839 13.0945C7.4528 13.0945 8.33392 12.945 8.88462 12.6834L9.32518 14.8511Z" fill="#03488D"/>
<path d="M15.9336 15.3743C12.4092 15.3743 10.2798 12.646 10.2798 9.17035C10.2798 5.50778 12.5927 2.77954 16.1172 2.77954C19.7885 2.77954 21.8078 5.58253 21.8078 8.94611C21.8445 12.9824 19.4581 15.3743 15.9336 15.3743ZM16.0805 13.1693C17.9161 13.1693 18.9441 11.4127 18.9441 9.02085C18.9441 6.81584 17.9161 4.94718 16.0805 4.94718C14.2081 4.94718 13.1801 6.77847 13.1801 9.05823C13.1434 11.4127 14.2448 13.1693 16.0805 13.1693Z" fill="#03488D"/>
<path d="M34.0334 10.5157C33.9967 9.05817 33.9233 7.30163 33.9233 5.50772H33.8866C33.4827 7.0774 33.0054 8.79656 32.5282 10.2167L31.0596 14.9631H28.9303L27.6453 10.2541C27.2415 8.79656 26.8743 7.0774 26.5439 5.47035H26.5072C26.4705 7.11477 26.397 9.0208 26.3236 10.5157L26.1401 15.1874H23.6436L24.4145 3.00372H28.0124L29.1873 7.0774C29.5911 8.4602 29.9215 9.9925 30.2152 11.4127H30.2887C30.6191 9.9925 31.0229 8.42283 31.4268 7.04002L32.675 3.00372H36.2362L36.8603 15.1874H34.217L34.0334 10.5157Z" fill="#03488D"/>
<path d="M41.89 2.96643V9.95521C41.89 12.0855 42.6977 13.1319 44.0561 13.1319C45.4879 13.1319 46.2589 12.1228 46.2589 9.95521V2.96643H48.9757V9.80571C48.9757 13.5804 47.1033 15.3743 43.9827 15.3743C40.9722 15.3743 39.21 13.6551 39.21 9.76834V2.96643H41.89Z" fill="#03488D"/>
<path d="M51.6187 15.1874V2.96643H54.776L57.2725 7.45121C57.97 8.72189 58.6676 10.2542 59.2183 11.637H59.255C59.1082 10.03 59.0347 8.38554 59.0347 6.51688V2.96643H61.5312V15.1874H58.6676L56.0977 10.4784C55.4001 9.17037 54.5924 7.6007 54.005 6.18052H53.9683C54.0417 7.82494 54.0784 9.5441 54.0784 11.5249V15.1874H51.6187Z" fill="#03488D"/>
<path d="M66.8916 2.96643V15.1874H64.1748V2.96643H66.8916Z" fill="#03488D"/>
<path d="M69.4981 3.15321C70.4894 2.96635 71.7744 2.8916 73.1328 2.8916C75.409 2.8916 76.9142 3.26533 78.0523 4.16229C79.3006 5.09662 80.0716 6.62891 80.0716 8.79656C80.0716 11.1137 79.2272 12.7581 78.0891 13.7298C76.8408 14.8136 74.895 15.2995 72.5453 15.2995C71.1502 15.2995 70.1223 15.2247 69.4614 15.1126V3.15321H69.4981ZM72.1782 13.0945C72.3985 13.1692 72.8023 13.1692 73.1328 13.1692C75.5925 13.1692 77.2079 11.8238 77.2079 8.90868C77.2079 6.29256 75.7394 5.02187 73.3897 5.02187C72.8023 5.02187 72.3985 5.05924 72.1782 5.13399V13.0945Z" fill="#03488D"/>
<path d="M84.9179 12.048L84.0735 15.1874H81.2466L84.9179 3.00372H88.4424L92.2239 15.1874H89.3235L88.4057 12.048H84.9179ZM87.9651 9.9925L87.2308 7.41375C87.0473 6.70366 86.827 5.76934 86.6434 5.05925H86.6067C86.4599 5.76934 86.2396 6.70366 86.056 7.41375L85.3218 9.9925H87.9651Z" fill="#03488D"/>
<path d="M94.0963 3.15321C95.0875 2.96635 96.3725 2.8916 97.7309 2.8916C100.007 2.8916 101.512 3.26533 102.65 4.16229C103.899 5.09662 104.67 6.62891 104.67 8.79656C104.67 11.1137 103.825 12.7581 102.687 13.7298C101.439 14.8136 99.4931 15.2995 97.1435 15.2995C95.7484 15.2995 94.7204 15.2247 94.0596 15.1126V3.15321H94.0963ZM96.7764 13.0945C96.9966 13.1692 97.4005 13.1692 97.7309 13.1692C100.191 13.1692 101.806 11.8238 101.806 8.90868C101.806 6.29256 100.338 5.02187 97.9879 5.02187C97.4005 5.02187 96.9966 5.05924 96.7764 5.13399V13.0945Z" fill="#03488D"/>
<path d="M42.5506 29.7626L41.7062 32.902H38.916L42.5873 20.7183H46.1118L49.8566 32.902H46.9562L46.0384 29.7626H42.5506ZM45.5978 27.7071L44.8636 25.1284C44.68 24.4183 44.4597 23.4839 44.2762 22.7738H44.2394C44.0926 23.4839 43.8723 24.4183 43.6887 25.1284L42.9545 27.7071H45.5978Z" fill="#03488D"/>
<path d="M51.729 32.902V20.7183H54.8863L57.3829 25.2031C58.0804 26.4738 58.778 28.0061 59.3287 29.3889H59.3654C59.2185 27.7818 59.1451 26.1374 59.1451 24.2688V20.7183H61.6416V32.902H58.778L56.208 28.193C55.5105 26.8849 54.7028 25.3152 54.1154 23.895H54.0419C54.1154 25.5395 54.1521 27.2586 54.1521 29.2394V32.902H51.729Z" fill="#03488D"/>
<path d="M64.2481 20.8681C65.2394 20.6813 66.5244 20.6065 67.8828 20.6065C70.159 20.6065 71.6642 20.9802 72.8023 21.8772C74.0506 22.8115 74.8216 24.3438 74.8216 26.5115C74.8216 28.866 73.9772 30.473 72.8391 31.4447C71.5908 32.5285 69.645 33.0144 67.2953 33.0144C65.9002 33.0144 64.8723 32.9396 64.2114 32.8275V20.8681H64.2481ZM66.9649 30.8094C67.1852 30.8841 67.5891 30.8841 67.9195 30.8841C70.3793 30.9215 71.9946 29.5387 71.9946 26.6236C71.9946 24.0075 70.5261 22.7368 68.1765 22.7368C67.5891 22.7368 67.1852 22.8115 66.9649 22.8489V30.8094Z" fill="#03488D"/>
<path d="M79.6313 20.7183V32.902H76.9146V20.7183H79.6313Z" fill="#03488D"/>
<path d="M82.2378 32.902V20.7183H85.3951L87.8916 25.2031C88.5892 26.4738 89.2867 28.0061 89.8374 29.3889H89.8742C89.7273 27.7818 89.6539 26.1374 89.6539 24.2688V20.7183H92.1504V32.902H89.2867L86.7168 28.193C86.0193 26.8849 85.2116 25.3152 84.6242 23.895H84.5507C84.6242 25.5395 84.6609 27.2586 84.6609 29.2394V32.902H82.2378Z" fill="#03488D"/>
<path d="M97.5839 29.7626L96.7395 32.902H93.9126L97.5839 20.7183H101.108L104.853 32.902H101.953L101.035 29.7626H97.5839ZM100.594 27.7071L99.8602 25.1284C99.6766 24.4183 99.4563 23.4839 99.2727 22.7738H99.236C99.0892 23.4839 98.8689 24.4183 98.6853 25.1284L97.9511 27.7071H100.594Z" fill="#03488D"/>
<path d="M167.927 33.0142H165.614H140.245V11.7862H147.955V16.271H152.324V20.9427H156.95V25.8385H160.951C159.152 15.6357 150.011 8.12368 139.107 8.12368C128.056 8.12368 119.025 15.5236 117.263 25.8385H121.044V20.9427H125.67V16.3084H130.039V11.8236H137.749V33.0516H110.03L109.957 31.9304C109.92 31.4071 109.92 30.7718 109.92 30.1738C109.92 22.2881 112.93 14.9256 118.437 9.46911C123.908 3.97526 131.177 0.985413 138.96 0.985413C146.743 0.985413 154.013 3.97526 159.483 9.43174C164.99 14.9256 168 22.2881 168 30.1365V30.3981C168 30.8839 168 31.4071 167.964 31.8556L167.927 33.0142ZM142.558 30.6597H165.651C165.651 30.5849 165.651 30.5102 165.651 30.4354V30.1738C165.651 15.1498 153.902 3.37729 138.96 3.37729C123.981 3.37729 112.27 15.1498 112.27 30.1738C112.27 30.3233 112.27 30.5102 112.27 30.6597H135.436V14.2155H132.388V18.7003H128.02V23.3719H123.357V28.2678H114.583L114.766 26.6234C115.5 20.7932 118.327 15.4862 122.806 11.6741C127.249 7.86207 133.049 5.76917 139.07 5.76917C151.626 5.76917 162.089 14.8882 163.448 26.9224L163.595 28.2304H154.6V23.3345H149.974V18.6629H145.605V14.1781H142.558V30.6597Z" fill="#FFC000"/>
</g>
<defs>
<clipPath id="clip0_1_9881">
<rect width="168" height="32.0288" fill="white" transform="translate(0 0.985596)"/>
</clipPath>
</defs>
</svg>
