<svg width="21" height="21" viewBox="0 0 21 21" fill="none" xmlns="http://www.w3.org/2000/svg">
<path d="M12.6564 3.43184C12.6564 2.42061 12.215 1.86684 11.2359 1.71436C8.23426 1.25689 5.23267 0.807457 2.2391 0.349995C0.963023 0.149354 0.224663 0.759303 0.224663 2.05143V19.5474C0.224663 19.6677 0.216637 19.7881 0.232688 19.9085C0.272817 20.3178 0.577791 20.6709 0.979074 20.679C1.28405 20.687 2.45579 20.687 3.95659 20.687V14.5795H8.9325V20.679C10.7222 20.6709 12.215 20.6709 12.6564 20.6709V14.3949C12.6564 10.7352 12.6564 7.08352 12.6564 3.43184ZM7.8089 3.80905C8.32255 3.7609 8.85224 3.76892 9.36588 3.81708C9.69493 3.84918 9.8715 4.12205 9.84742 4.4511C9.82334 4.79621 9.6227 5.02092 9.26155 5.045C9.03683 5.06105 8.80408 5.045 8.57937 5.045C8.35465 5.045 8.1219 5.06105 7.89719 5.045C7.53603 5.02092 7.32736 4.81226 7.29526 4.46715C7.27119 4.11403 7.4638 3.83313 7.8089 3.80905ZM5.56975 12.1477C5.5537 12.4928 5.35305 12.7175 4.9919 12.7496C4.76718 12.7657 4.53444 12.7496 4.30972 12.7496C4.06895 12.7496 3.82818 12.7657 3.58741 12.7416C3.25033 12.7095 3.04969 12.5089 3.02562 12.1718C3.00154 11.8347 3.15403 11.5538 3.48308 11.5217C4.01277 11.4735 4.55049 11.4735 5.07216 11.5137C5.40923 11.5458 5.5858 11.8187 5.56975 12.1477ZM3.54728 6.36923C4.0529 6.3291 4.55852 6.3291 5.06413 6.37726C5.41726 6.40936 5.60185 6.69026 5.56975 7.03536C5.54567 7.38047 5.32898 7.59716 4.96782 7.61321C4.7431 7.62123 4.51036 7.61321 4.28564 7.61321C4.06895 7.61321 3.86028 7.62123 3.64359 7.61321C3.29046 7.59716 3.07377 7.41257 3.02562 7.05141C2.98549 6.70631 3.19415 6.39331 3.54728 6.36923ZM5.56975 9.57949C5.5537 9.9246 5.35305 10.1493 4.9919 10.1814C4.76718 10.1975 4.53444 10.1814 4.30972 10.1814C4.06895 10.1814 3.82818 10.1975 3.58741 10.1734C3.25033 10.1413 3.04969 9.94065 3.02562 9.60357C3.00154 9.26649 3.15403 8.9856 3.48308 8.95349C4.01277 8.90534 4.55049 8.90534 5.07216 8.94547C5.40923 8.97757 5.5858 9.25044 5.56975 9.57949ZM5.56975 4.44308C5.5537 4.78818 5.35305 5.0129 4.9919 5.03698C4.76718 5.05303 4.53444 5.03698 4.30972 5.03698C4.06895 5.03698 3.82818 5.05303 3.58741 5.02895C3.25033 4.99685 3.04969 4.79621 3.02562 4.45913C3.00154 4.12205 3.15403 3.84115 3.48308 3.80905C4.01277 3.7609 4.55049 3.7609 5.07216 3.80102C5.40923 3.84115 5.5858 4.11403 5.56975 4.44308ZM9.85545 12.1557C9.83137 12.5008 9.63073 12.7255 9.26957 12.7496C9.04485 12.7657 8.81211 12.7496 8.58739 12.7496C8.36267 12.7496 8.12993 12.7577 7.90521 12.7496C7.54406 12.7255 7.33539 12.5169 7.30329 12.1718C7.27118 11.8187 7.4638 11.5458 7.8089 11.5137C8.32255 11.4655 8.85224 11.4735 9.36588 11.5217C9.69493 11.5538 9.8715 11.8187 9.85545 12.1557ZM9.85545 9.59554C9.83137 9.94065 9.6227 10.1573 9.26155 10.1814C9.03683 10.1975 8.80408 10.1814 8.57937 10.1814C8.35465 10.1814 8.1219 10.1975 7.89719 10.1814C7.53603 10.1573 7.32736 9.94867 7.30329 9.59554C7.27921 9.24242 7.47183 8.96954 7.81693 8.94547C8.32255 8.89731 8.83619 8.89731 9.33378 8.94547C9.67888 8.96954 9.8715 9.24242 9.85545 9.59554ZM9.84742 7.04339C9.81532 7.38849 9.59863 7.59716 9.23747 7.61321C9.01275 7.62123 8.78001 7.61321 8.55529 7.61321C8.33057 7.61321 8.09783 7.62926 7.87311 7.60518C7.53603 7.58111 7.32736 7.37244 7.29526 7.04339C7.26316 6.69026 7.43972 6.40936 7.78483 6.37726C8.29847 6.3291 8.82816 6.3291 9.3418 6.37726C9.69493 6.40936 9.88755 6.69026 9.84742 7.04339Z" fill="#464852"/>
<path d="M13.5156 20.6879C13.5156 16.4825 13.5156 12.3412 13.5156 8.15186C14.5108 8.36052 15.4739 8.55314 16.445 8.75378C17.4241 8.95442 18.4032 9.16309 19.3824 9.37175C20.3455 9.5724 20.7788 10.0941 20.7788 11.0732C20.7788 13.7217 20.7788 16.3621 20.7788 19.0106C20.7788 20.078 20.1769 20.6879 19.1256 20.6879C17.2716 20.6879 15.4097 20.6879 13.5156 20.6879ZM16.9265 12.9753C17.1272 12.9753 17.3278 12.9753 17.5285 12.9753C17.5525 12.9753 17.5846 12.9753 17.6087 12.9753C17.9618 12.9351 18.2106 12.6783 18.2106 12.3412C18.2106 12.0122 17.9618 11.7233 17.6167 11.7072C17.1593 11.6831 16.7098 11.6831 16.2524 11.7072C15.8992 11.7233 15.6504 12.0042 15.6504 12.3332C15.6504 12.6623 15.8992 12.9432 16.2443 12.9753C16.4691 12.9913 16.6938 12.9753 16.9265 12.9753ZM16.9105 15.5435C17.1512 15.5435 17.392 15.5676 17.6328 15.5355C17.9779 15.4953 18.1866 15.2706 18.2026 14.9175C18.2267 14.5884 17.9699 14.2835 17.6248 14.2674C17.1593 14.2433 16.6858 14.2353 16.2203 14.2674C15.8752 14.2915 15.6665 14.5242 15.6504 14.8774C15.6264 15.2064 15.8832 15.4953 16.2283 15.5274C16.453 15.5595 16.6858 15.5435 16.9105 15.5435ZM16.9185 18.1117C17.1191 18.1117 17.3198 18.1117 17.5204 18.1117C17.5445 18.1117 17.5766 18.1117 17.6007 18.1117C17.9538 18.0716 18.2026 17.8147 18.2026 17.4777C18.2026 17.1486 17.9538 16.8597 17.6087 16.8436C17.1512 16.8196 16.7018 16.8196 16.2443 16.8436C15.8912 16.8597 15.6424 17.1406 15.6424 17.4696C15.6424 17.7987 15.8912 18.0796 16.2363 18.1117C16.4691 18.1277 16.6938 18.1117 16.9185 18.1117Z" fill="#464852"/>
</svg>
