<svg width="49" height="49" viewBox="0 0 49 49" fill="none" xmlns="http://www.w3.org/2000/svg">
<g filter="url(#filter0_d_3337_32991)">
<g clip-path="url(#clip0_3337_32991)">
<path d="M14.25 8C13.4212 8 12.6263 8.32924 12.0403 8.91529C11.4542 9.50134 11.125 10.2962 11.125 11.125V29.875C11.125 30.7038 11.4542 31.4987 12.0403 32.0847C12.6263 32.6708 13.4212 33 14.25 33H26.75C27.5788 33 28.3737 32.6708 28.9597 32.0847C29.5458 31.4987 29.875 30.7038 29.875 29.875V11.125C29.875 10.2962 29.5458 9.50134 28.9597 8.91529C28.3737 8.32924 27.5788 8 26.75 8H14.25ZM14.25 9.5625H26.75C27.1644 9.5625 27.5618 9.72712 27.8549 10.0201C28.1479 10.3132 28.3125 10.7106 28.3125 11.125V29.875C28.3125 30.2894 28.1479 30.6868 27.8549 30.9799C27.5618 31.2729 27.1644 31.4375 26.75 31.4375H14.25C13.8356 31.4375 13.4382 31.2729 13.1451 30.9799C12.8521 30.6868 12.6875 30.2894 12.6875 29.875V11.125C12.6875 10.7106 12.8521 10.3132 13.1451 10.0201C13.4382 9.72712 13.8356 9.5625 14.25 9.5625Z" fill="#596387"/>
<path d="M15.1909 26.8862C14.8854 26.7658 14.6396 26.5301 14.5065 26.23C14.2018 25.6237 14.3034 25.0175 14.6315 24.5081C14.9409 24.0284 15.4534 23.6206 16.0331 23.2784C16.7674 22.8622 17.5436 22.5244 18.3487 22.2706C18.9729 21.1459 19.5271 19.9838 20.0081 18.7909C19.7214 18.1389 19.4965 17.4614 19.3362 16.7675C19.2018 16.1425 19.1503 15.5237 19.2643 14.9925C19.3815 14.4393 19.6924 13.9425 20.2799 13.7065C20.5799 13.5862 20.9049 13.519 21.2206 13.5862C21.3793 13.62 21.5286 13.6887 21.6575 13.7874C21.7864 13.886 21.8918 14.0121 21.9659 14.1565C22.1034 14.4128 22.1534 14.7128 22.1643 14.9971C22.1753 15.2893 22.1456 15.6143 22.0909 15.9565C21.9596 16.7534 21.669 17.7284 21.2784 18.7596C21.7098 19.6814 22.2222 20.563 22.8096 21.394C23.5051 21.3397 24.2045 21.366 24.894 21.4721C25.4628 21.5737 26.0409 21.7768 26.394 22.1987C26.5815 22.4237 26.6956 22.6987 26.7065 23.0081C26.7174 23.3081 26.6331 23.605 26.4909 23.8878C26.3677 24.1498 26.1768 24.3743 25.9378 24.5378C25.7013 24.6915 25.4225 24.7669 25.1409 24.7534C24.6237 24.7315 24.119 24.4471 23.6831 24.1018C23.1529 23.6637 22.6752 23.1656 22.2596 22.6175C21.2029 22.737 20.1588 22.9492 19.1393 23.2518C18.6719 24.08 18.1384 24.869 17.544 25.6112C17.0909 26.1581 16.594 26.6346 16.0971 26.8409C15.8114 26.969 15.488 26.9851 15.1909 26.8862ZM17.3456 23.9159C17.0851 24.0357 16.8461 24.1596 16.6284 24.2878C16.1159 24.5909 15.7831 24.8862 15.6174 25.1425C15.4706 25.369 15.4674 25.5331 15.5549 25.7065C15.5716 25.7399 15.5851 25.7628 15.5956 25.7753L15.6503 25.7565C15.8643 25.669 16.2049 25.3893 16.6424 24.8628C16.8916 24.5584 17.1262 24.2424 17.3456 23.9159ZM19.9081 21.8378C20.4299 21.7165 20.9564 21.6159 21.4862 21.5362C21.2021 21.1006 20.9362 20.6533 20.6893 20.1956C20.4441 20.7496 20.1836 21.2966 19.9081 21.8362V21.8378ZM23.7299 22.5409C23.9654 22.7951 24.1919 23.0086 24.4096 23.1815C24.7846 23.4784 25.0456 23.5768 25.1878 23.5815C25.2259 23.5875 25.2648 23.5791 25.2971 23.5581C25.3625 23.5071 25.4132 23.4397 25.444 23.3628C25.4993 23.2675 25.5309 23.1603 25.5362 23.0503C25.5346 23.0137 25.5202 22.9789 25.4956 22.9518C25.4143 22.855 25.1831 22.7143 24.6862 22.6253C24.37 22.5732 24.0503 22.5455 23.7299 22.5425V22.5409ZM20.6206 17.0628C20.7509 16.6383 20.8553 16.2062 20.9331 15.769C20.981 15.4753 21.0008 15.2331 20.9924 15.0425C20.9933 14.9373 20.9763 14.8327 20.9424 14.7331C20.8642 14.7424 20.7878 14.7634 20.7159 14.7956C20.5799 14.8503 20.469 14.9612 20.4096 15.2378C20.3471 15.5378 20.3628 15.9706 20.4815 16.5221C20.519 16.6961 20.5659 16.8763 20.6221 17.0628H20.6206Z" fill="#596387"/>
</g>
</g>
<defs>
<filter id="filter0_d_3337_32991" x="-4" y="-4" width="57" height="57" filterUnits="userSpaceOnUse" color-interpolation-filters="sRGB">
<feFlood flood-opacity="0" result="BackgroundImageFix"/>
<feColorMatrix in="SourceAlpha" type="matrix" values="0 0 0 0 0 0 0 0 0 0 0 0 0 0 0 0 0 0 127 0" result="hardAlpha"/>
<feOffset dx="4" dy="4"/>
<feGaussianBlur stdDeviation="6"/>
<feComposite in2="hardAlpha" operator="out"/>
<feColorMatrix type="matrix" values="0 0 0 0 0.00979167 0 0 0 0 0.329281 0 0 0 0 0.391667 0 0 0 0.08 0"/>
<feBlend mode="normal" in2="BackgroundImageFix" result="effect1_dropShadow_3337_32991"/>
<feBlend mode="normal" in="SourceGraphic" in2="effect1_dropShadow_3337_32991" result="shape"/>
</filter>
<clipPath id="clip0_3337_32991">
<rect width="25" height="25" fill="white" transform="translate(8 8)"/>
</clipPath>
</defs>
</svg>
