<svg width="36" height="28" viewBox="0 0 36 28" fill="none" xmlns="http://www.w3.org/2000/svg">
<mask id="mask0_3307_27976" style="mask-type:alpha" maskUnits="userSpaceOnUse" x="8" y="4" width="20" height="20">
<rect x="8" y="4" width="20" height="20" fill="#D9D9D9"/>
</mask>
<g mask="url(#mask0_3307_27976)">
<path d="M15.5 19V17.5H25V19H15.5ZM15.5 14.75V13.25H25V14.75H15.5ZM15.5 10.5V9H25V10.5H15.5ZM12.4956 19.75C12.0819 19.75 11.7292 19.6027 11.4375 19.3081C11.1458 19.0135 11 18.6594 11 18.2456C11 17.8319 11.1473 17.4792 11.4419 17.1875C11.7365 16.8958 12.0906 16.75 12.5044 16.75C12.9181 16.75 13.2708 16.8973 13.5625 17.1919C13.8542 17.4865 14 17.8406 14 18.2544C14 18.6681 13.8527 19.0208 13.5581 19.3125C13.2635 19.6042 12.9094 19.75 12.4956 19.75ZM12.4956 15.5C12.0819 15.5 11.7292 15.3527 11.4375 15.0581C11.1458 14.7635 11 14.4094 11 13.9956C11 13.5819 11.1473 13.2292 11.4419 12.9375C11.7365 12.6458 12.0906 12.5 12.5044 12.5C12.9181 12.5 13.2708 12.6473 13.5625 12.9419C13.8542 13.2365 14 13.5906 14 14.0044C14 14.4181 13.8527 14.7708 13.5581 15.0625C13.2635 15.3542 12.9094 15.5 12.4956 15.5ZM12.4956 11.25C12.0819 11.25 11.7292 11.1027 11.4375 10.8081C11.1458 10.5135 11 10.1594 11 9.74562C11 9.33187 11.1473 8.97917 11.4419 8.6875C11.7365 8.39583 12.0906 8.25 12.5044 8.25C12.9181 8.25 13.2708 8.39729 13.5625 8.69188C13.8542 8.98646 14 9.34063 14 9.75438C14 10.1681 13.8527 10.5208 13.5581 10.8125C13.2635 11.1042 12.9094 11.25 12.4956 11.25Z" fill="#596387"/>
</g>
</svg>
