<svg width="21" height="20" viewBox="0 0 21 20" fill="none" xmlns="http://www.w3.org/2000/svg">
<mask id="mask0_8_7964" style="mask-type:alpha" maskUnits="userSpaceOnUse" x="0" y="0" width="21" height="20">
<rect x="0.857422" width="20" height="20" fill="#D9D9D9"/>
</mask>
<g mask="url(#mask0_8_7964)">
<path d="M10.1075 11.125V5.75C10.1075 5.54167 10.1805 5.36458 10.3263 5.21875C10.4721 5.07292 10.6492 5 10.8575 5C11.0659 5 11.243 5.07292 11.3888 5.21875C11.5346 5.36458 11.6075 5.54167 11.6075 5.75V11.125L13.2742 9.45833C13.427 9.30556 13.6041 9.22917 13.8055 9.22917C14.0069 9.22917 14.1839 9.30556 14.3367 9.45833C14.4895 9.61111 14.5659 9.78819 14.5659 9.98958C14.5659 10.191 14.4895 10.3681 14.3367 10.5208L11.3784 13.4792C11.2256 13.6319 11.052 13.7083 10.8575 13.7083C10.6631 13.7083 10.4895 13.6319 10.3367 13.4792L7.37838 10.5208C7.2256 10.3681 7.15269 10.191 7.15963 9.98958C7.16658 9.78819 7.24644 9.61111 7.39922 9.45833C7.55199 9.30556 7.72908 9.22917 7.93047 9.22917C8.13185 9.22917 8.30894 9.30556 8.46172 9.45833L10.1075 11.125Z" fill="#464852"/>
</g>
</svg>
