<svg width="21" height="20" viewBox="0 0 21 20" fill="none" xmlns="http://www.w3.org/2000/svg">
<mask id="mask0_8_7239" style="mask-type:alpha" maskUnits="userSpaceOnUse" x="0" y="0" width="21" height="20">
<rect x="0.199219" width="20" height="20" fill="#D9D9D9"/>
</mask>
<g mask="url(#mask0_8_7239)">
<path d="M9.44935 11.125V5.75C9.44935 5.54167 9.52226 5.36458 9.6681 5.21875C9.81393 5.07292 9.99101 5 10.1993 5C10.4077 5 10.5848 5.07292 10.7306 5.21875C10.8764 5.36458 10.9493 5.54167 10.9493 5.75V11.125L12.616 9.45833C12.7688 9.30556 12.9459 9.22917 13.1473 9.22917C13.3487 9.22917 13.5257 9.30556 13.6785 9.45833C13.8313 9.61111 13.9077 9.78819 13.9077 9.98958C13.9077 10.191 13.8313 10.3681 13.6785 10.5208L10.7202 13.4792C10.5674 13.6319 10.3938 13.7083 10.1993 13.7083C10.0049 13.7083 9.83129 13.6319 9.67851 13.4792L6.72018 10.5208C6.5674 10.3681 6.49449 10.191 6.50143 9.98958C6.50837 9.78819 6.58824 9.61111 6.74101 9.45833C6.89379 9.30556 7.07087 9.22917 7.27226 9.22917C7.47365 9.22917 7.65074 9.30556 7.80351 9.45833L9.44935 11.125Z" fill="#464852"/>
</g>
</svg>
