<svg width="30" height="29" viewBox="0 0 30 29" fill="none" xmlns="http://www.w3.org/2000/svg">
<g clip-path="url(#clip0_2_9466)">
<path d="M7.75 0C6.78859 0 5.86656 0.381919 5.18674 1.06174C4.50692 1.74156 4.125 2.66359 4.125 3.625V25.375C4.125 26.3364 4.50692 27.2584 5.18674 27.9383C5.86656 28.6181 6.78859 29 7.75 29H22.25C23.2114 29 24.1334 28.6181 24.8133 27.9383C25.4931 27.2584 25.875 26.3364 25.875 25.375V3.625C25.875 2.66359 25.4931 1.74156 24.8133 1.06174C24.1334 0.381919 23.2114 0 22.25 0L7.75 0ZM7.75 1.8125H22.25C22.7307 1.8125 23.1917 2.00346 23.5316 2.34337C23.8715 2.68328 24.0625 3.14429 24.0625 3.625V25.375C24.0625 25.8557 23.8715 26.3167 23.5316 26.6566C23.1917 26.9965 22.7307 27.1875 22.25 27.1875H7.75C7.26929 27.1875 6.80828 26.9965 6.46837 26.6566C6.12846 26.3167 5.9375 25.8557 5.9375 25.375V3.625C5.9375 3.14429 6.12846 2.68328 6.46837 2.34337C6.80828 2.00346 7.26929 1.8125 7.75 1.8125Z" fill="#596387"/>
<path d="M8.84322 21.9076C8.48889 21.768 8.20372 21.4945 8.04934 21.1464C7.6959 20.4431 7.81372 19.7399 8.19434 19.149C8.55322 18.5926 9.14772 18.1195 9.82015 17.7226C10.672 17.2397 11.5724 16.8479 12.5063 16.5535C13.2304 15.2489 13.8732 13.9009 14.4312 12.5171C14.0986 11.7607 13.8377 10.9749 13.6518 10.1699C13.4959 9.44488 13.4361 8.72713 13.5684 8.11088C13.7043 7.46925 14.065 6.89288 14.7465 6.61919C15.0945 6.47963 15.4715 6.40169 15.8377 6.47963C16.0218 6.51883 16.195 6.59854 16.3445 6.71297C16.494 6.8274 16.6162 6.97367 16.7022 7.14119C16.8617 7.43844 16.9197 7.78644 16.9324 8.11632C16.9451 8.45525 16.9107 8.83225 16.8472 9.22919C16.695 10.1536 16.3578 11.2846 15.9047 12.4808C16.4052 13.55 16.9996 14.5727 17.681 15.5367C18.4877 15.4737 19.2991 15.5041 20.0988 15.6273C20.7586 15.7451 21.4292 15.9808 21.8388 16.4701C22.0563 16.7311 22.1887 17.0501 22.2013 17.409C22.214 17.757 22.1162 18.1014 21.9512 18.4294C21.8083 18.7335 21.5868 18.9938 21.3096 19.1834C21.0353 19.3617 20.712 19.4492 20.3852 19.4336C19.7853 19.4082 19.1998 19.0783 18.6942 18.6778C18.0791 18.1695 17.525 17.5917 17.043 16.9559C15.8172 17.0945 14.606 17.3408 13.4234 17.6918C12.8813 18.6524 12.2624 19.5677 11.5728 20.4286C11.0472 21.063 10.4708 21.6158 9.89447 21.8551C9.563 22.0036 9.18785 22.0224 8.84322 21.9076ZM11.3427 18.4621C11.0406 18.601 10.7633 18.7448 10.5107 18.8934C9.91622 19.2451 9.53015 19.5876 9.33803 19.8849C9.16765 20.1477 9.16403 20.338 9.26553 20.5392C9.28486 20.5779 9.30057 20.6044 9.31265 20.6189L9.37609 20.5972C9.6244 20.4957 10.0195 20.1713 10.527 19.5604C10.816 19.2074 11.0882 18.8408 11.3427 18.4621ZM14.3152 16.0514C14.9205 15.9107 15.5312 15.794 16.1458 15.7016C15.8162 15.1963 15.5078 14.6775 15.2214 14.1465C14.9369 14.7891 14.6347 15.4237 14.3152 16.0496V16.0514ZM18.7485 16.8671C19.0216 17.1619 19.2844 17.4096 19.537 17.6102C19.972 17.9546 20.2747 18.0688 20.4396 18.0742C20.4838 18.0811 20.529 18.0714 20.5665 18.047C20.6423 17.9879 20.7011 17.9097 20.7368 17.8204C20.801 17.7099 20.8377 17.5856 20.8438 17.4579C20.8419 17.4155 20.8252 17.3751 20.7967 17.3438C20.7024 17.2314 20.4342 17.0683 19.8578 16.9649C19.491 16.9045 19.1202 16.8724 18.7485 16.8689V16.8671ZM15.1417 10.5124C15.2928 10.02 15.4139 9.51884 15.5042 9.01169C15.5597 8.67094 15.5827 8.39 15.573 8.16888C15.574 8.04685 15.5544 7.92553 15.515 7.81C15.4243 7.82078 15.3357 7.84522 15.2522 7.8825C15.0945 7.94594 14.9658 8.07463 14.897 8.39544C14.8245 8.74344 14.8426 9.2455 14.9803 9.88531C15.0238 10.0871 15.0782 10.2961 15.1435 10.5124H15.1417Z" fill="#596387"/>
</g>
<defs>
<clipPath id="clip0_2_9466">
<rect width="29" height="29" fill="white" transform="translate(0.5)"/>
</clipPath>
</defs>
</svg>
