<svg width="88" height="86" viewBox="0 0 88 86" fill="none" xmlns="http://www.w3.org/2000/svg">
<path d="M36.3333 27.6667C35.3167 27.6667 34.3416 28.0706 33.6228 28.7895C32.9039 29.5084 32.5 30.4834 32.5 31.5001V54.5001C32.5 55.5167 32.9039 56.4918 33.6228 57.2107C34.3416 57.9295 35.3167 58.3334 36.3333 58.3334H51.6667C52.6833 58.3334 53.6584 57.9295 54.3772 57.2107C55.0961 56.4918 55.5 55.5167 55.5 54.5001V31.5001C55.5 30.4834 55.0961 29.5084 54.3772 28.7895C53.6584 28.0706 52.6833 27.6667 51.6667 27.6667H36.3333ZM36.3333 29.5834H51.6667C52.175 29.5834 52.6625 29.7853 53.022 30.1448C53.3814 30.5042 53.5833 30.9917 53.5833 31.5001V54.5001C53.5833 55.0084 53.3814 55.4959 53.022 55.8554C52.6625 56.2148 52.175 56.4167 51.6667 56.4167H36.3333C35.825 56.4167 35.3375 56.2148 34.978 55.8554C34.6186 55.4959 34.4167 55.0084 34.4167 54.5001V31.5001C34.4167 30.9917 34.6186 30.5042 34.978 30.1448C35.3375 29.7853 35.825 29.5834 36.3333 29.5834Z" fill="#596387"/>
<path d="M37.4889 50.8329C37.1142 50.6853 36.8126 50.3961 36.6494 50.0279C36.2756 49.2843 36.4002 48.5406 36.8027 47.9158C37.1822 47.3273 37.8109 46.8271 38.522 46.4074C39.4228 45.8968 40.3749 45.4824 41.3625 45.1711C42.1282 43.7915 42.808 42.366 43.398 40.9027C43.0464 40.1029 42.7704 39.2719 42.5738 38.4206C42.409 37.6539 42.3457 36.8949 42.4856 36.2433C42.6294 35.5648 43.0108 34.9553 43.7315 34.6659C44.0995 34.5183 44.4981 34.4359 44.8853 34.5183C45.0801 34.5597 45.2631 34.644 45.4213 34.765C45.5794 34.886 45.7086 35.0407 45.7996 35.2179C45.9682 35.5322 46.0296 35.9002 46.043 36.249C46.0564 36.6074 46.02 37.0061 45.9529 37.4259C45.7919 38.4034 45.4354 39.5994 44.9562 40.8644C45.4854 41.995 46.114 43.0764 46.8346 44.0958C47.6877 44.0293 48.5456 44.0614 49.3914 44.1917C50.0891 44.3163 50.7982 44.5654 51.2314 45.0829C51.4614 45.3589 51.6013 45.6963 51.6147 46.0758C51.6281 46.4438 51.5246 46.8079 51.3502 47.1549C51.1991 47.4763 50.9649 47.7516 50.6717 47.9522C50.3817 48.1407 50.0397 48.2333 49.6942 48.2167C49.0598 48.1899 48.4407 47.841 47.906 47.4174C47.2556 46.88 46.6696 46.2689 46.1599 45.5966C44.8637 45.7432 43.5829 46.0036 42.3323 46.3748C41.759 47.3906 41.1046 48.3585 40.3754 49.2689C39.8196 49.9398 39.2101 50.5243 38.6006 50.7773C38.25 50.9345 37.8533 50.9543 37.4889 50.8329ZM40.132 47.1894C39.8125 47.3363 39.5193 47.4883 39.2522 47.6455C38.6236 48.0174 38.2153 48.3796 38.0121 48.6939C37.832 48.9719 37.8281 49.1731 37.9355 49.3858C37.9559 49.4267 37.9725 49.4549 37.9853 49.4702L38.0524 49.4472C38.315 49.3399 38.7328 48.9968 39.2695 48.3509C39.5751 47.9775 39.8629 47.5899 40.132 47.1894ZM43.2753 44.6402C43.9154 44.4914 44.5612 44.368 45.2111 44.2703C44.8626 43.7359 44.5365 43.1873 44.2336 42.6258C43.9328 43.3053 43.6133 43.9764 43.2753 44.6383V44.6402ZM47.9635 45.5027C48.2522 45.8145 48.5302 46.0764 48.7972 46.2885C49.2572 46.6527 49.5773 46.7734 49.7517 46.7792C49.7985 46.7865 49.8462 46.7762 49.8859 46.7504C49.9661 46.6879 50.0282 46.6052 50.0661 46.5108C50.1339 46.394 50.1727 46.2625 50.1791 46.1275C50.1772 46.0827 50.1595 46.0399 50.1293 46.0068C50.0296 45.8879 49.746 45.7154 49.1365 45.6062C48.7487 45.5423 48.3565 45.5083 47.9635 45.5046V45.5027ZM44.1493 38.7829C44.3092 38.2621 44.4372 37.7321 44.5326 37.1959C44.5914 36.8355 44.6157 36.5384 44.6055 36.3046C44.6065 36.1756 44.5857 36.0473 44.5441 35.9251C44.4482 35.9365 44.3545 35.9623 44.2662 36.0018C44.0995 36.0689 43.9634 36.2049 43.8906 36.5442C43.8139 36.9122 43.8331 37.4431 43.9787 38.1197C44.0247 38.3331 44.0822 38.5541 44.1512 38.7829H44.1493Z" fill="#596387"/>
</svg>
