<svg width="193" height="36" viewBox="0 0 193 36" fill="none" xmlns="http://www.w3.org/2000/svg">
<g clip-path="url(#clip0_11_17759)">
<path d="M10.6699 15.5846C10.1238 15.8367 8.82162 16.1727 7.18335 16.1727C2.43656 16.1727 0.000152588 13.1902 0.000152588 9.28357C0.000152588 4.57878 3.31871 2.01636 7.4774 2.01636C9.07367 2.01636 10.2919 2.35241 10.838 2.64646L10.1658 5.08287C9.53574 4.83083 8.6956 4.57878 7.56141 4.57878C5.12501 4.57878 3.19268 6.04903 3.19268 9.11554C3.19268 11.846 4.83096 13.6103 7.56141 13.6103C8.52757 13.6103 9.53574 13.4423 10.1658 13.1482L10.6699 15.5846Z" fill="#03488D"/>
<path d="M18.2312 16.1727C14.1985 16.1727 11.7621 13.1062 11.7621 9.19955C11.7621 5.08287 14.4085 2.01636 18.4412 2.01636C22.6419 2.01636 24.9523 5.16688 24.9523 8.94751C24.9943 13.4843 22.2638 16.1727 18.2312 16.1727ZM18.3992 13.6943C20.4995 13.6943 21.6757 11.72 21.6757 9.03153C21.6757 6.55311 20.4995 4.45276 18.3992 4.45276C16.2568 4.45276 15.0806 6.51111 15.0806 9.07353C15.0386 11.72 16.2988 13.6943 18.3992 13.6943Z" fill="#03488D"/>
<path d="M38.9407 10.7117C38.8986 9.07345 38.8146 7.09912 38.8146 5.08278H38.7726C38.3106 6.84707 37.7645 8.7794 37.2184 10.3757L35.5381 15.7106H33.1017L31.6314 10.4177C31.1694 8.7794 30.7493 6.84707 30.3712 5.04077H30.3292C30.2872 6.88908 30.2032 9.03144 30.1192 10.7117L29.9091 15.9626H27.0527L27.9348 2.26831H32.0515L33.3957 6.84707C33.8578 8.40133 34.2359 10.1236 34.5719 11.7199H34.6559C35.034 10.1236 35.4961 8.35933 35.9582 6.80507L37.3864 2.26831H41.4611L42.1752 15.9626H39.1507L38.9407 10.7117Z" fill="#03488D"/>
<path d="M47.9301 2.22632V10.0816C47.9301 12.476 48.8543 13.6522 50.4085 13.6522C52.0468 13.6522 52.929 12.518 52.929 10.0816V2.22632H56.0375V9.9136C56.0375 14.1563 53.8951 16.1726 50.3245 16.1726C46.88 16.1726 44.8636 14.2403 44.8636 9.87159V2.22632H47.9301Z" fill="#03488D"/>
<path d="M59.062 15.9626V2.22632H62.6746L65.5311 7.26716C66.3292 8.6954 67.1273 10.4177 67.7574 11.9719H67.7994C67.6314 10.1656 67.5474 8.31733 67.5474 6.21698V2.22632H70.4039V15.9626H67.1273L64.1868 10.6697C63.3887 9.19948 62.4645 7.43519 61.7924 5.83892H61.7504C61.8344 7.68723 61.8764 9.61955 61.8764 11.8459V15.9626H59.062Z" fill="#03488D"/>
<path d="M76.5369 2.22632V15.9626H73.4284V2.22632H76.5369Z" fill="#03488D"/>
<path d="M79.5194 2.43638C80.6536 2.22635 82.1239 2.14233 83.6781 2.14233C86.2826 2.14233 88.0048 2.5624 89.3071 3.57057C90.7353 4.62075 91.6174 6.34303 91.6174 8.77944C91.6174 11.3839 90.6513 13.2322 89.3491 14.3244C87.9208 15.5426 85.6945 16.0887 83.006 16.0887C81.4097 16.0887 80.2335 16.0046 79.4774 15.8786V2.43638H79.5194ZM82.5859 13.6102C82.838 13.6943 83.3001 13.6943 83.6781 13.6943C86.4926 13.6943 88.3409 12.182 88.3409 8.90546C88.3409 5.96497 86.6606 4.53673 83.9722 4.53673C83.3001 4.53673 82.838 4.57874 82.5859 4.66275V13.6102Z" fill="#03488D"/>
<path d="M97.1624 12.434L96.1962 15.9626H92.9617L97.1624 2.26831H101.195L105.522 15.9626H102.203L101.153 12.434H97.1624ZM100.649 10.1236L99.8088 7.22514C99.5988 6.427 99.3467 5.37683 99.1367 4.5787H99.0947C98.9267 5.37683 98.6746 6.427 98.4646 7.22514L97.6244 10.1236H100.649Z" fill="#03488D"/>
<path d="M107.664 2.43638C108.798 2.22635 110.269 2.14233 111.823 2.14233C114.427 2.14233 116.149 2.5624 117.452 3.57057C118.88 4.62075 119.762 6.34303 119.762 8.77944C119.762 11.3839 118.796 13.2322 117.494 14.3244C116.065 15.5426 113.839 16.0887 111.151 16.0887C109.554 16.0887 108.378 16.0046 107.622 15.8786V2.43638H107.664ZM110.731 13.6102C110.983 13.6943 111.445 13.6943 111.823 13.6943C114.637 13.6943 116.486 12.182 116.486 8.90546C116.486 5.96497 114.805 4.53673 112.117 4.53673C111.445 4.53673 110.983 4.57874 110.731 4.66275V13.6102Z" fill="#03488D"/>
<path d="M48.6863 32.3451L47.7201 35.8737H44.5276L48.7283 22.1794H52.7609L57.0456 35.8737H53.7271L52.6769 32.3451H48.6863ZM52.1728 30.0348L51.3327 27.1363C51.1227 26.3381 50.8706 25.288 50.6606 24.4898H50.6186C50.4505 25.288 50.1985 26.3381 49.9885 27.1363L49.1483 30.0348H52.1728Z" fill="#03488D"/>
<path d="M59.188 35.8737V22.1794H62.8007L65.6571 27.2203C66.4553 28.6485 67.2534 30.3708 67.8835 31.9251H67.9255C67.7575 30.1188 67.6735 28.2705 67.6735 26.1701V22.1794H70.5299V35.8737H67.2534L64.3129 30.5808C63.5148 29.1106 62.5906 27.3463 61.9185 25.75H61.8345C61.9185 27.5983 61.9605 29.5307 61.9605 31.757V35.8737H59.188Z" fill="#03488D"/>
<path d="M73.5124 22.3478C74.6466 22.1377 76.1168 22.0537 77.6711 22.0537C80.2755 22.0537 81.9978 22.4738 83.3 23.4819C84.7283 24.5321 85.6104 26.2544 85.6104 28.6908C85.6104 31.3373 84.6443 33.1436 83.342 34.2357C81.9138 35.4539 79.6874 36 76.999 36C75.4027 36 74.2265 35.916 73.4704 35.79V22.3478H73.5124ZM76.6209 33.5216C76.873 33.6056 77.335 33.6056 77.7131 33.6056C80.5276 33.6476 82.3759 32.0934 82.3759 28.8168C82.3759 25.8763 80.6956 24.4481 78.0072 24.4481C77.335 24.4481 76.873 24.5321 76.6209 24.5741V33.5216Z" fill="#03488D"/>
<path d="M91.1133 22.1794V35.8737H88.0048V22.1794H91.1133Z" fill="#03488D"/>
<path d="M94.0958 35.8737V22.1794H97.7084L100.565 27.2203C101.363 28.6485 102.161 30.3708 102.791 31.9251H102.833C102.665 30.1188 102.581 28.2705 102.581 26.1701V22.1794H105.438V35.8737H102.161L99.2207 30.5808C98.4225 29.1106 97.4984 27.3463 96.8263 25.75H96.7423C96.8263 27.5983 96.8683 29.5307 96.8683 31.757V35.8737H94.0958Z" fill="#03488D"/>
<path d="M111.655 32.3451L110.689 35.8737H107.454L111.655 22.1794H115.687L119.972 35.8737H116.654L115.603 32.3451H111.655ZM115.099 30.0348L114.259 27.1363C114.049 26.3381 113.797 25.288 113.587 24.4898H113.545C113.377 25.288 113.125 26.3381 112.915 27.1363L112.075 30.0348H115.099Z" fill="#03488D"/>
<path d="M192.14 35.9998H189.494H160.467V12.1398H169.288V17.1806H174.287V22.4315H179.58V27.9344H184.159C182.1 16.4665 171.641 8.02309 159.165 8.02309C146.521 8.02309 136.187 16.3405 134.17 27.9344H138.497V22.4315H143.79V17.2226H148.789V12.1818H157.61V36.0418H125.895L125.811 34.7816C125.769 34.1935 125.769 33.4793 125.769 32.8072C125.769 23.9437 129.214 15.6684 135.515 9.53535C141.774 3.36032 150.091 -0.000244141 158.997 -0.000244141C167.902 -0.000244141 176.219 3.36032 182.479 9.49334C188.78 15.6684 192.224 23.9437 192.224 32.7652V33.0593C192.224 33.6054 192.224 34.1935 192.182 34.6975L192.14 35.9998ZM163.113 33.3533H189.536C189.536 33.2693 189.536 33.1853 189.536 33.1013V32.8072C189.536 15.9204 176.093 2.6882 158.997 2.6882C141.858 2.6882 128.458 15.9204 128.458 32.8072C128.458 32.9753 128.458 33.1853 128.458 33.3533H154.964V14.8702H151.477V19.9111H146.479V25.162H141.144V30.6649H131.104L131.314 28.8166C132.154 22.2635 135.389 16.2985 140.514 12.0138C145.596 7.72905 152.233 5.37665 159.123 5.37665C173.489 5.37665 185.461 15.6264 187.015 29.1526L187.183 30.6229H176.892V25.1199H171.599V19.8691H166.6V14.8282H163.113V33.3533Z" fill="#FFC000"/>
</g>
<defs>
<clipPath id="clip0_11_17759">
<rect width="192.224" height="36" fill="white"/>
</clipPath>
</defs>
</svg>
