<svg width="20" height="20" viewBox="0 0 20 20" fill="none" xmlns="http://www.w3.org/2000/svg">
<mask id="mask0_1_42348" style="mask-type:alpha" maskUnits="userSpaceOnUse" x="2" y="2" width="20" height="20">
<rect x="2" y="2" width="20" height="20" fill="#D9D9D9"/>
</mask>
<g mask="url(#mask0_1_42348)">
<path d="M4.58337 15C4.23962 15 3.94535 14.8775 3.70056 14.6326C3.45577 14.3877 3.33337 14.0933 3.33337 13.7493V6.24514C3.33337 5.90116 3.45577 5.60764 3.70056 5.36458C3.94535 5.12153 4.23962 5 4.58337 5H15.4167C15.7605 5 16.0547 5.12245 16.2995 5.36736C16.5443 5.61227 16.6667 5.90671 16.6667 6.25069V13.7549C16.6667 14.0988 16.5443 14.3924 16.2995 14.6354C16.0547 14.8785 15.7605 15 15.4167 15H4.58337ZM10 10.8333L4.58337 7.72569V13.75H15.4167V7.72569L10 10.8333ZM10 9.35764L15.4167 6.25H4.58337L10 9.35764ZM4.58337 7.72569V6.25V13.75V7.72569Z" fill="#596387"/>
</g>
</svg>
