<svg width="24" height="25" viewBox="0 0 24 25" fill="none" xmlns="http://www.w3.org/2000/svg">
<mask id="mask0_1_42332" style="mask-type:alpha" maskUnits="userSpaceOnUse" x="0" y="0" width="24" height="25">
<rect y="0.5" width="24" height="24" fill="#D9D9D9"/>
</mask>
<g mask="url(#mask0_1_42332)">
<path d="M12.5 12.45C12.9833 11.9167 13.3542 11.3083 13.6125 10.625C13.8708 9.94167 14 9.23333 14 8.5C14 7.76667 13.8708 7.05833 13.6125 6.375C13.3542 5.69167 12.9833 5.08333 12.5 4.55C13.5 4.68333 14.3333 5.125 15 5.875C15.6667 6.625 16 7.5 16 8.5C16 9.5 15.6667 10.375 15 11.125C14.3333 11.875 13.5 12.3167 12.5 12.45ZM18 20.5V17.5C18 16.9 17.8667 16.3292 17.6 15.7875C17.3333 15.2458 16.9833 14.7667 16.55 14.35C17.4 14.65 18.1875 15.0375 18.9125 15.5125C19.6375 15.9875 20 16.65 20 17.5V20.5H18ZM20 13.5V11.5H18V9.5H20V7.5H22V9.5H24V11.5H22V13.5H20ZM8 12.5C6.9 12.5 5.95833 12.1083 5.175 11.325C4.39167 10.5417 4 9.6 4 8.5C4 7.4 4.39167 6.45833 5.175 5.675C5.95833 4.89167 6.9 4.5 8 4.5C9.1 4.5 10.0417 4.89167 10.825 5.675C11.6083 6.45833 12 7.4 12 8.5C12 9.6 11.6083 10.5417 10.825 11.325C10.0417 12.1083 9.1 12.5 8 12.5ZM0 20.5V17.7C0 17.1333 0.145833 16.6125 0.4375 16.1375C0.729167 15.6625 1.11667 15.3 1.6 15.05C2.63333 14.5333 3.68333 14.1458 4.75 13.8875C5.81667 13.6292 6.9 13.5 8 13.5C9.1 13.5 10.1833 13.6292 11.25 13.8875C12.3167 14.1458 13.3667 14.5333 14.4 15.05C14.8833 15.3 15.2708 15.6625 15.5625 16.1375C15.8542 16.6125 16 17.1333 16 17.7V20.5H0ZM8 10.5C8.55 10.5 9.02083 10.3042 9.4125 9.9125C9.80417 9.52083 10 9.05 10 8.5C10 7.95 9.80417 7.47917 9.4125 7.0875C9.02083 6.69583 8.55 6.5 8 6.5C7.45 6.5 6.97917 6.69583 6.5875 7.0875C6.19583 7.47917 6 7.95 6 8.5C6 9.05 6.19583 9.52083 6.5875 9.9125C6.97917 10.3042 7.45 10.5 8 10.5ZM2 18.5H14V17.7C14 17.5167 13.9542 17.35 13.8625 17.2C13.7708 17.05 13.65 16.9333 13.5 16.85C12.6 16.4 11.6917 16.0625 10.775 15.8375C9.85833 15.6125 8.93333 15.5 8 15.5C7.06667 15.5 6.14167 15.6125 5.225 15.8375C4.30833 16.0625 3.4 16.4 2.5 16.85C2.35 16.9333 2.22917 17.05 2.1375 17.2C2.04583 17.35 2 17.5167 2 17.7V18.5Z" fill="#464852"/>
</g>
</svg>
