<svg width="20" height="20" viewBox="0 0 20 20" fill="none" xmlns="http://www.w3.org/2000/svg">
<mask id="mask0_1_42608" style="mask-type:alpha" maskUnits="userSpaceOnUse" x="2" y="2" width="20" height="20">
<rect x="2" y="2" width="20" height="20" fill="#D9D9D9"/>
</mask>
<g mask="url(#mask0_1_42608)">
<path d="M10.0049 16.6667C9.08731 16.6667 8.22342 16.4931 7.41324 16.1459C6.60305 15.7987 5.89414 15.3212 5.2865 14.7136C4.67886 14.1059 4.20143 13.3973 3.85421 12.5875C3.50699 11.7778 3.33337 10.9127 3.33337 9.99205C3.33337 9.07145 3.50699 8.20895 3.85421 7.40455C4.20143 6.60016 4.67886 5.89414 5.2865 5.2865C5.89414 4.67886 6.60282 4.20143 7.41254 3.85421C8.22226 3.50699 9.08742 3.33337 10.008 3.33337C10.9286 3.33337 11.7911 3.50699 12.5955 3.85421C13.3999 4.20143 14.1059 4.67886 14.7136 5.2865C15.3212 5.89414 15.7987 6.60143 16.1459 7.40837C16.4931 8.21543 16.6667 9.0777 16.6667 9.99518C16.6667 10.9128 16.4931 11.7767 16.1459 12.5868C15.7987 13.397 15.3212 14.1059 14.7136 14.7136C14.1059 15.3212 13.3987 15.7987 12.5917 16.1459C11.7846 16.4931 10.9224 16.6667 10.0049 16.6667ZM9.16671 15.3473V14.1667C8.93523 14.1667 8.73847 14.0851 8.57643 13.9219C8.41439 13.7587 8.33337 13.5625 8.33337 13.3334V12.5L4.7049 8.87157C4.65861 9.09148 4.62678 9.29402 4.60942 9.47921C4.59205 9.66439 4.58337 9.838 4.58337 10C4.58337 11.3311 5.01451 12.5058 5.87678 13.5243C6.73905 14.5429 7.83569 15.1505 9.16671 15.3473ZM14.1667 13.4549C14.375 13.2118 14.5573 12.9572 14.7136 12.691C14.8698 12.4248 14.9992 12.1438 15.1018 11.8481C15.2043 11.5523 15.2824 11.2485 15.3362 10.9367C15.3899 10.6248 15.4167 10.3125 15.4167 10C15.4167 8.90502 15.1158 7.90502 14.5139 7.00004C13.9121 6.09495 13.1019 5.42828 12.0834 5.00004V5.41671C12.0834 5.76046 11.961 6.05473 11.7162 6.29952C11.4714 6.54431 11.1771 6.66671 10.8334 6.66671H9.16671V7.50004C9.16671 7.73615 9.08685 7.93407 8.92712 8.09379C8.7674 8.25351 8.56949 8.33337 8.33337 8.33337H7.50004V10H11.6667C11.9028 10 12.1007 10.0799 12.2605 10.2396C12.4202 10.3993 12.5 10.5973 12.5 10.8334V12.5H13.2118C13.478 12.5 13.7037 12.5926 13.8889 12.7778C14.0741 12.963 14.1667 13.1887 14.1667 13.4549Z" fill="#596387"/>
</g>
</svg>
