<svg width="30" height="42" viewBox="0 0 30 42" fill="none" xmlns="http://www.w3.org/2000/svg">
<g clip-path="url(#clip0_1_13278)">
<path d="M29.9361 14.4235C29.9361 28.0562 17.9732 39.3898 15.4343 41.2948C15.1555 41.5037 14.7728 41.5037 14.494 41.2948C11.9551 39.3892 -0.0078125 28.0562 -0.0078125 14.4235C-0.0078125 6.1544 6.69539 -0.548828 14.9645 -0.548828C23.2335 -0.548828 29.9367 6.1544 29.9367 14.4235H29.9361Z" fill="#FF3B2F"/>
<path d="M14.9675 23.5952C20.0554 23.5952 24.18 19.4705 24.18 14.3825C24.18 9.29455 20.0554 5.16992 14.9675 5.16992C9.87949 5.16992 5.75488 9.29455 5.75488 14.3825C5.75488 19.4705 9.87949 23.5952 14.9675 23.5952Z" fill="white"/>
</g>
<defs>
<clipPath id="clip0_1_13278">
<rect width="29.944" height="42" fill="white"/>
</clipPath>
</defs>
</svg>
