<svg width="21" height="21" viewBox="0 0 21 21" fill="none" xmlns="http://www.w3.org/2000/svg">
<mask id="mask0_2_912" style="mask-type:luminance" maskUnits="userSpaceOnUse" x="2" y="2" width="17" height="14">
<path d="M2.92188 2.64282H18.5995V15.8146H2.92188V2.64282Z" fill="white"/>
</mask>
<g mask="url(#mask0_2_912)">
<path fill-rule="evenodd" clip-rule="evenodd" d="M10.7608 2.64246C6.43203 2.64246 2.92188 6.15474 2.92188 10.4875C2.92188 10.5066 2.92325 10.5251 2.92325 10.5442C2.9245 10.7542 2.93577 10.9621 2.95291 11.1681C3.23587 13.7807 5.44536 15.8144 8.13116 15.8144C9.07491 15.8144 9.95945 15.5615 10.7232 15.1219C9.17315 14.2124 8.13116 12.5291 8.13116 10.6011C8.13116 8.6729 9.17315 6.98909 10.7232 6.07953C11.4988 5.62532 12.4005 5.36336 13.3647 5.36336C16.2418 5.36336 18.5759 7.68677 18.5977 10.5601C18.5977 10.5357 18.5997 10.512 18.5997 10.4875C18.5997 6.15474 15.0895 2.64246 10.7608 2.64246Z" fill="#2E20FF"/>
</g>
<path fill-rule="evenodd" clip-rule="evenodd" d="M13.3402 5.36719C12.3789 5.36719 11.4801 5.62895 10.707 6.08454C12.2652 6.98571 13.3159 8.67567 13.3159 10.6135C13.3159 12.5507 12.2652 14.2407 10.707 15.1419C9.94557 15.5822 9.06379 15.8355 8.12225 15.8355C5.44559 15.8355 3.24301 13.7984 2.96094 11.1815C3.30477 15.2021 6.65735 18.3571 10.7444 18.3571C14.8347 18.3571 18.1899 15.1954 18.5286 11.1696C18.5443 10.9726 18.5548 10.7736 18.5568 10.5726C18.5344 7.69455 16.2076 5.36719 13.3402 5.36719Z" fill="#44F0B9"/>
</svg>
