<svg width="21" height="21" viewBox="0 0 21 21" fill="none" xmlns="http://www.w3.org/2000/svg">
<mask id="mask0_8_10898" style="mask-type:luminance" maskUnits="userSpaceOnUse" x="2" y="2" width="17" height="14">
<path d="M2.92188 2.64282H18.5995V15.8146H2.92188V2.64282Z" fill="white"/>
</mask>
<g mask="url(#mask0_8_10898)">
<path fill-rule="evenodd" clip-rule="evenodd" d="M10.7608 2.64258C6.43203 2.64258 2.92188 6.15486 2.92188 10.4876C2.92188 10.5067 2.92325 10.5252 2.92325 10.5443C2.9245 10.7543 2.93577 10.9622 2.95291 11.1682C3.23587 13.7808 5.44536 15.8145 8.13116 15.8145C9.07491 15.8145 9.95945 15.5617 10.7232 15.1221C9.17315 14.2125 8.13116 12.5292 8.13116 10.6012C8.13116 8.67302 9.17315 6.98921 10.7232 6.07966C11.4988 5.62544 12.4005 5.36348 13.3647 5.36348C16.2418 5.36348 18.5759 7.68689 18.5977 10.5602C18.5977 10.5358 18.5997 10.5121 18.5997 10.4876C18.5997 6.15486 15.0895 2.64258 10.7608 2.64258Z" fill="#2E20FF"/>
</g>
<path fill-rule="evenodd" clip-rule="evenodd" d="M13.3402 5.36719C12.3789 5.36719 11.4801 5.62895 10.707 6.08454C12.2652 6.98571 13.3159 8.67567 13.3159 10.6135C13.3159 12.5507 12.2652 14.2407 10.707 15.1419C9.94557 15.5822 9.06379 15.8355 8.12225 15.8355C5.44559 15.8355 3.24301 13.7984 2.96094 11.1815C3.30477 15.2021 6.65735 18.3571 10.7444 18.3571C14.8347 18.3571 18.1899 15.1954 18.5286 11.1696C18.5443 10.9726 18.5548 10.7736 18.5568 10.5726C18.5344 7.69455 16.2076 5.36719 13.3402 5.36719Z" fill="#44F0B9"/>
</svg>
