<svg width="14" height="52" viewBox="0 0 14 52" fill="none" xmlns="http://www.w3.org/2000/svg">
<path d="M12.4839 29.8838H17.7278C17.7278 29.8838 19.4849 31.5303 20.3151 33.8548C21.7126 31.0322 22.8194 26.6877 21.9616 18.9672H28.3539C28.3539 18.9672 27.6621 31.558 22.2798 40.4546C19.3328 40.4546 17.5617 40.4546 17.5617 40.4546C17.5617 40.4546 18.5026 35.944 12.4839 29.8838Z" fill="#F2CD22"/>
<path d="M11.9023 35.6163L15.5135 40.4589C15.5135 40.4589 3.22705 36.9307 3.22705 27.1763C3.22705 17.4219 10.5187 10.8635 22.3209 11.5969C24.2856 11.8459 29.6955 12.9113 31.674 14.959C27.4817 13.7276 11.169 8.23469 6.49237 24.1462C5.92509 27.4253 6.49237 31.5208 11.9023 35.6163Z" fill="#F2CD22"/>
</svg>
