<svg width="104" height="52" viewBox="0 0 104 52" fill="none" xmlns="http://www.w3.org/2000/svg">
<path d="M17.1152 29.8838H22.3591C22.3591 29.8838 24.1163 31.5303 24.9465 33.8548C26.3439 31.0322 27.4508 26.6877 26.593 18.9672H32.9852C32.9852 18.9672 32.2934 31.558 26.9112 40.4546C23.9641 40.4546 22.1931 40.4546 22.1931 40.4546C22.1931 40.4546 23.1339 35.944 17.1152 29.8838Z" fill="#F2CD22"/>
<path d="M23.5771 29.8838H28.821C28.821 29.8838 30.5782 31.5303 31.4084 33.8548C32.8058 31.0322 33.9127 26.6877 33.0549 18.9672H39.4471C39.4471 18.9672 38.7553 31.558 33.3731 40.4546C30.426 40.4546 28.655 40.4546 28.655 40.4546C28.655 40.4546 29.5958 35.944 23.5771 29.8838Z" fill="#234C97"/>
<path d="M29.2495 29.8838H34.4934C34.4934 29.8838 36.2506 31.5303 37.0807 33.8548C38.4782 31.0322 39.5851 26.6877 38.7272 18.9672H45.1195C45.1195 18.9672 44.4277 31.558 39.0455 40.4546C36.0984 40.4546 34.3274 40.4546 34.3274 40.4546C34.3274 40.4546 35.2682 35.944 29.2495 29.8838Z" fill="#C42A27"/>
<path d="M16.5336 35.6163L20.1448 40.4589C20.1448 40.4589 7.8584 36.9307 7.8584 27.1763C7.8584 17.4219 15.15 10.8635 26.9522 11.5969C28.9169 11.8459 34.3268 12.9113 36.3054 14.959C32.1131 13.7276 15.8003 8.23469 11.1237 24.1462C10.5564 27.4253 11.1237 31.5208 16.5336 35.6163Z" fill="#F2CD22"/>
<path d="M92.3311 34.3416V17.6525H103.186V20.1868H95.3543V24.7177H102.623V27.252H95.3543V31.8073H103.251V34.3416H92.3311Z" fill="#464852"/>
<path d="M77.8701 34.3416H74.6431L80.5185 17.6525H84.2508L90.1343 34.3416H86.9073L82.4498 21.0751H82.3194L77.8701 34.3416ZM77.976 27.798H86.7769V30.2264H77.976V27.798Z" fill="#464852"/>
<path d="M70.1616 22.2311C70.0856 21.5194 69.7651 20.9653 69.2001 20.5687C68.6405 20.1721 67.9125 19.9738 67.0161 19.9738C66.3859 19.9738 65.8454 20.0689 65.3945 20.259C64.9436 20.4492 64.5986 20.7072 64.3596 21.0332C64.1205 21.3592 63.9983 21.7313 63.9928 22.1496C63.9928 22.4973 64.0716 22.7988 64.2292 23.0542C64.3921 23.3095 64.6122 23.5268 64.8892 23.7061C65.1663 23.8799 65.4732 24.0266 65.8101 24.1461C66.1469 24.2656 66.4864 24.3661 66.8287 24.4476L68.3933 24.8388C69.0235 24.9855 69.6292 25.1838 70.2105 25.4337C70.7973 25.6836 71.3215 25.9987 71.7833 26.379C72.2505 26.7592 72.6199 27.2183 72.8916 27.7561C73.1632 28.294 73.299 28.9242 73.299 29.6467C73.299 30.6246 73.0491 31.4857 72.5493 32.2299C72.0495 32.9688 71.327 33.5474 70.3817 33.9657C69.4418 34.3786 68.3037 34.585 66.9672 34.585C65.6688 34.585 64.5415 34.384 63.5854 33.982C62.6347 33.58 61.8904 32.9932 61.3526 32.2218C60.8202 31.4504 60.5322 30.5105 60.4888 29.4022H63.4632C63.5066 29.9835 63.6859 30.467 64.001 30.8528C64.3161 31.2385 64.7263 31.5264 65.2315 31.7166C65.7422 31.9067 66.3126 32.0018 66.9428 32.0018C67.6001 32.0018 68.176 31.904 68.6704 31.7084C69.1702 31.5074 69.5613 31.2303 69.8438 30.8772C70.1263 30.5186 70.2703 30.1003 70.2757 29.6223C70.2703 29.1876 70.1426 28.8291 69.8927 28.5466C69.6428 28.2587 69.2924 28.0196 68.8415 27.8295C68.396 27.6339 67.8745 27.4601 67.2769 27.3079L65.3782 26.819C64.0037 26.4659 62.9172 25.9308 62.1186 25.2136C61.3254 24.4911 60.9288 23.5322 60.9288 22.337C60.9288 21.3537 61.195 20.4926 61.7274 19.7538C62.2653 19.015 62.9959 18.4418 63.9195 18.0344C64.8431 17.6215 65.8888 17.415 67.0569 17.415C68.2412 17.415 69.2788 17.6215 70.1698 18.0344C71.0662 18.4418 71.7697 19.0095 72.2804 19.7375C72.7911 20.4601 73.0545 21.2913 73.0708 22.2311H70.1616Z" fill="#464852"/>
</svg>
