<svg width="30" height="30" viewBox="0 0 30 30" fill="none" xmlns="http://www.w3.org/2000/svg">
<mask id="mask0_1_15561" style="mask-type:luminance" maskUnits="userSpaceOnUse" x="4" y="3" width="22" height="20">
<path d="M4 3.97534H26.0005V22.4592H4V3.97534Z" fill="white"/>
</mask>
<g mask="url(#mask0_1_15561)">
<path fill-rule="evenodd" clip-rule="evenodd" d="M15.0003 3.97314C8.9258 3.97314 4 8.90193 4 14.9821C4 15.0089 4.00193 15.0349 4.00193 15.0617C4.00369 15.3564 4.01949 15.6481 4.04355 15.9372C4.44063 19.6034 7.54121 22.4573 11.3102 22.4573C12.6346 22.4573 13.8758 22.1025 14.9477 21.4856C12.7724 20.2093 11.3102 17.8471 11.3102 15.1415C11.3102 12.4357 12.7724 10.0728 14.9477 8.7964C16.036 8.159 17.3013 7.7914 18.6545 7.7914C22.6918 7.7914 25.9673 11.0518 25.9979 15.084C25.9979 15.0498 26.0007 15.0165 26.0007 14.9821C26.0007 8.90193 21.0749 3.97314 15.0003 3.97314Z" fill="#2E20FF"/>
</g>
<path fill-rule="evenodd" clip-rule="evenodd" d="M18.6209 7.7959C17.272 7.7959 16.0106 8.16323 14.9257 8.80256C17.1123 10.0672 18.5868 12.4387 18.5868 15.1581C18.5868 17.8766 17.1123 20.2481 14.9257 21.5127C13.8572 22.1306 12.6198 22.486 11.2985 22.486C7.54238 22.486 4.4515 19.6274 4.05566 15.9551C4.53816 21.5972 9.24285 26.0247 14.9782 26.0247C20.7181 26.0247 25.4264 21.5879 25.9018 15.9384C25.9238 15.662 25.9385 15.3827 25.9413 15.1007C25.91 11.0619 22.6447 7.7959 18.6209 7.7959Z" fill="#44F0B9"/>
</svg>
