<svg width="62" height="62" viewBox="0 0 62 62" fill="none" xmlns="http://www.w3.org/2000/svg">
<g filter="url(#filter0_d_8_4306)">
<rect width="54" height="54" rx="8" fill="#DFE1EB"/>
<path d="M30.1465 16.684C30.1465 15.2082 29.5023 14.4 28.0733 14.1774C23.6926 13.5098 19.3119 12.8538 14.9429 12.1862C13.0805 11.8934 12.0029 12.7836 12.0029 14.6694V40.204C12.0029 40.3797 11.9912 40.5554 12.0146 40.731C12.0732 41.3284 12.5183 41.8438 13.104 41.8555C13.5491 41.8672 15.2592 41.8672 17.4495 41.8672V32.9535H24.7117V41.8555C27.3237 41.8438 29.5023 41.8438 30.1465 41.8438V32.6841C30.1465 27.343 30.1465 22.0135 30.1465 16.684ZM23.0718 17.2345C23.8215 17.1643 24.5945 17.176 25.3442 17.2463C25.8244 17.2931 26.0821 17.6914 26.047 18.1716C26.0118 18.6753 25.719 19.0032 25.1919 19.0384C24.8639 19.0618 24.5242 19.0384 24.1963 19.0384C23.8683 19.0384 23.5286 19.0618 23.2007 19.0384C22.6736 19.0032 22.369 18.6987 22.3222 18.195C22.287 17.6796 22.5682 17.2697 23.0718 17.2345ZM19.8039 29.4045C19.7804 29.9081 19.4876 30.2361 18.9605 30.283C18.6326 30.3064 18.2929 30.283 17.9649 30.283C17.6135 30.283 17.2621 30.3064 16.9107 30.2712C16.4188 30.2244 16.1259 29.9316 16.0908 29.4396C16.0557 28.9477 16.2782 28.5377 16.7585 28.4908C17.5315 28.4206 18.3163 28.4206 19.0776 28.4791C19.5696 28.526 19.8273 28.9242 19.8039 29.4045ZM16.8522 20.971C17.5901 20.9125 18.328 20.9125 19.0659 20.9827C19.5813 21.0296 19.8507 21.4396 19.8039 21.9432C19.7687 22.4469 19.4525 22.7631 18.9254 22.7866C18.5974 22.7983 18.2577 22.7866 17.9298 22.7866C17.6135 22.7866 17.309 22.7983 16.9927 22.7866C16.4773 22.7631 16.1611 22.4937 16.0908 21.9666C16.0322 21.463 16.3368 21.0062 16.8522 20.971ZM19.8039 25.6563C19.7804 26.1599 19.4876 26.4879 18.9605 26.5348C18.6326 26.5582 18.2929 26.5348 17.9649 26.5348C17.6135 26.5348 17.2621 26.5582 16.9107 26.523C16.4188 26.4762 16.1259 26.1834 16.0908 25.6914C16.0557 25.1995 16.2782 24.7895 16.7585 24.7426C17.5315 24.6724 18.3163 24.6724 19.0776 24.7309C19.5696 24.7778 19.8273 25.176 19.8039 25.6563ZM19.8039 18.1599C19.7804 18.6635 19.4876 18.9915 18.9605 19.0266C18.6326 19.0501 18.2929 19.0266 17.9649 19.0266C17.6135 19.0266 17.2621 19.0501 16.9107 19.0149C16.4188 18.9681 16.1259 18.6753 16.0908 18.1833C16.0557 17.6914 16.2782 17.2814 16.7585 17.2345C17.5315 17.1643 18.3163 17.1643 19.0776 17.2228C19.5696 17.2814 19.8273 17.6796 19.8039 18.1599ZM26.0587 29.4162C26.0235 29.9198 25.7307 30.2478 25.2036 30.283C24.8756 30.3064 24.536 30.283 24.208 30.283C23.88 30.283 23.5403 30.2947 23.2124 30.283C22.6853 30.2478 22.3807 29.9433 22.3339 29.4396C22.287 28.9242 22.5682 28.526 23.0718 28.4791C23.8215 28.4089 24.5945 28.4206 25.3442 28.4908C25.8244 28.5377 26.0821 28.9242 26.0587 29.4162ZM26.0587 25.6797C26.0235 26.1834 25.719 26.4996 25.1919 26.5348C24.8639 26.5582 24.5242 26.5348 24.1963 26.5348C23.8683 26.5348 23.5286 26.5582 23.2007 26.5348C22.6736 26.4996 22.369 26.1951 22.3339 25.6797C22.2988 25.1643 22.5799 24.7661 23.0835 24.7309C23.8215 24.6607 24.5711 24.6607 25.2973 24.7309C25.801 24.7661 26.0821 25.1643 26.0587 25.6797ZM26.047 21.9549C26.0001 22.4586 25.6838 22.7631 25.1568 22.7866C24.8288 22.7983 24.4891 22.7866 24.1611 22.7866C23.8332 22.7866 23.4935 22.81 23.1655 22.7748C22.6736 22.7397 22.369 22.4352 22.3222 21.9549C22.2753 21.4396 22.533 21.0296 23.0367 20.9827C23.7863 20.9125 24.5594 20.9125 25.309 20.9827C25.8244 21.0296 26.1055 21.4396 26.047 21.9549Z" fill="#464852"/>
<path d="M31.3994 41.8686C31.3994 35.731 31.3994 29.687 31.3994 23.5728C32.8518 23.8773 34.2574 24.1584 35.6747 24.4512C37.1037 24.7441 38.5327 25.0486 39.9617 25.3531C41.3673 25.646 41.9998 26.4073 41.9998 27.8363C41.9998 31.7017 41.9998 35.5553 41.9998 39.4206C41.9998 40.9784 41.1213 41.8686 39.5869 41.8686C36.8811 41.8686 34.1637 41.8686 31.3994 41.8686ZM36.3775 30.6123C36.6703 30.6123 36.9631 30.6123 37.256 30.6123C37.2911 30.6123 37.338 30.6123 37.3731 30.6123C37.8885 30.5538 38.2516 30.1789 38.2516 29.687C38.2516 29.2068 37.8885 28.7851 37.3848 28.7617C36.7172 28.7265 36.0612 28.7265 35.3936 28.7617C34.8782 28.7851 34.5151 29.195 34.5151 29.6753C34.5151 30.1555 34.8782 30.5655 35.3819 30.6123C35.7098 30.6358 36.0378 30.6123 36.3775 30.6123ZM36.3541 34.3605C36.7055 34.3605 37.0568 34.3957 37.4082 34.3488C37.9119 34.2903 38.2164 33.9623 38.2399 33.4469C38.275 32.9667 37.9002 32.5216 37.3965 32.4981C36.7172 32.463 36.0261 32.4513 35.3467 32.4981C34.8431 32.5333 34.5385 32.873 34.5151 33.3883C34.48 33.8686 34.8548 34.2903 35.3584 34.3371C35.6864 34.384 36.0261 34.3605 36.3541 34.3605ZM36.3658 38.1087C36.6586 38.1087 36.9514 38.1087 37.2443 38.1087C37.2794 38.1087 37.3262 38.1087 37.3614 38.1087C37.8768 38.0502 38.2399 37.6753 38.2399 37.1834C38.2399 36.7032 37.8768 36.2815 37.3731 36.2581C36.7055 36.2229 36.0495 36.2229 35.3819 36.2581C34.8665 36.2815 34.5034 36.6914 34.5034 37.1717C34.5034 37.6519 34.8665 38.0619 35.3702 38.1087C35.7098 38.1322 36.0378 38.1087 36.3658 38.1087Z" fill="#464852"/>
</g>
<defs>
<filter id="filter0_d_8_4306" x="0" y="0" width="62" height="62" filterUnits="userSpaceOnUse" color-interpolation-filters="sRGB">
<feFlood flood-opacity="0" result="BackgroundImageFix"/>
<feColorMatrix in="SourceAlpha" type="matrix" values="0 0 0 0 0 0 0 0 0 0 0 0 0 0 0 0 0 0 127 0" result="hardAlpha"/>
<feOffset dx="4" dy="4"/>
<feGaussianBlur stdDeviation="2"/>
<feComposite in2="hardAlpha" operator="out"/>
<feColorMatrix type="matrix" values="0 0 0 0 0.00979167 0 0 0 0 0.329281 0 0 0 0 0.391667 0 0 0 0.02 0"/>
<feBlend mode="normal" in2="BackgroundImageFix" result="effect1_dropShadow_8_4306"/>
<feBlend mode="normal" in="SourceGraphic" in2="effect1_dropShadow_8_4306" result="shape"/>
</filter>
</defs>
</svg>
