<svg width="62" height="62" viewBox="0 0 62 62" fill="none" xmlns="http://www.w3.org/2000/svg">
<g filter="url(#filter0_d_8_3609)">
<rect width="54" height="54" rx="8" fill="#DFE1EB"/>
<path d="M30.1465 16.684C30.1465 15.2081 29.5023 14.3999 28.0733 14.1774C23.6926 13.5097 19.3119 12.8538 14.9429 12.1861C13.0805 11.8933 12.0029 12.7835 12.0029 14.6693V40.2039C12.0029 40.3796 11.9912 40.5553 12.0146 40.731C12.0732 41.3284 12.5183 41.8437 13.104 41.8554C13.5491 41.8672 15.2592 41.8672 17.4495 41.8672V32.9535H24.7117V41.8554C27.3237 41.8437 29.5023 41.8437 30.1465 41.8437V32.6841C30.1465 27.3429 30.1465 22.0134 30.1465 16.684ZM23.0718 17.2345C23.8215 17.1642 24.5945 17.1759 25.3442 17.2462C25.8244 17.293 26.0821 17.6913 26.047 18.1715C26.0118 18.6752 25.719 19.0032 25.1919 19.0383C24.8639 19.0617 24.5242 19.0383 24.1963 19.0383C23.8683 19.0383 23.5286 19.0617 23.2007 19.0383C22.6736 19.0032 22.369 18.6986 22.3222 18.195C22.287 17.6796 22.5682 17.2696 23.0718 17.2345ZM19.8039 29.4044C19.7804 29.9081 19.4876 30.236 18.9605 30.2829C18.6326 30.3063 18.2929 30.2829 17.9649 30.2829C17.6135 30.2829 17.2621 30.3063 16.9107 30.2712C16.4188 30.2243 16.1259 29.9315 16.0908 29.4395C16.0557 28.9476 16.2782 28.5376 16.7585 28.4908C17.5315 28.4205 18.3163 28.4205 19.0776 28.4791C19.5696 28.5259 19.8273 28.9242 19.8039 29.4044ZM16.8522 20.971C17.5901 20.9124 18.328 20.9124 19.0659 20.9827C19.5813 21.0295 19.8507 21.4395 19.8039 21.9432C19.7687 22.4468 19.4525 22.7631 18.9254 22.7865C18.5974 22.7982 18.2577 22.7865 17.9298 22.7865C17.6135 22.7865 17.309 22.7982 16.9927 22.7865C16.4773 22.7631 16.1611 22.4937 16.0908 21.9666C16.0322 21.4629 16.3368 21.0061 16.8522 20.971ZM19.8039 25.6562C19.7804 26.1599 19.4876 26.4878 18.9605 26.5347C18.6326 26.5581 18.2929 26.5347 17.9649 26.5347C17.6135 26.5347 17.2621 26.5581 16.9107 26.523C16.4188 26.4761 16.1259 26.1833 16.0908 25.6913C16.0557 25.1994 16.2782 24.7894 16.7585 24.7426C17.5315 24.6723 18.3163 24.6723 19.0776 24.7309C19.5696 24.7777 19.8273 25.176 19.8039 25.6562ZM19.8039 18.1598C19.7804 18.6635 19.4876 18.9914 18.9605 19.0266C18.6326 19.05 18.2929 19.0266 17.9649 19.0266C17.6135 19.0266 17.2621 19.05 16.9107 19.0149C16.4188 18.968 16.1259 18.6752 16.0908 18.1832C16.0557 17.6913 16.2782 17.2813 16.7585 17.2345C17.5315 17.1642 18.3163 17.1642 19.0776 17.2228C19.5696 17.2813 19.8273 17.6796 19.8039 18.1598ZM26.0587 29.4161C26.0235 29.9198 25.7307 30.2478 25.2036 30.2829C24.8756 30.3063 24.536 30.2829 24.208 30.2829C23.88 30.2829 23.5403 30.2946 23.2124 30.2829C22.6853 30.2478 22.3807 29.9432 22.3339 29.4395C22.287 28.9242 22.5682 28.5259 23.0718 28.4791C23.8215 28.4088 24.5945 28.4205 25.3442 28.4908C25.8244 28.5376 26.0821 28.9242 26.0587 29.4161ZM26.0587 25.6796C26.0235 26.1833 25.719 26.4996 25.1919 26.5347C24.8639 26.5581 24.5242 26.5347 24.1963 26.5347C23.8683 26.5347 23.5286 26.5581 23.2007 26.5347C22.6736 26.4996 22.369 26.195 22.3339 25.6796C22.2988 25.1643 22.5799 24.766 23.0835 24.7309C23.8215 24.6606 24.5711 24.6606 25.2973 24.7309C25.801 24.766 26.0821 25.1643 26.0587 25.6796ZM26.047 21.9549C26.0001 22.4585 25.6838 22.7631 25.1568 22.7865C24.8288 22.7982 24.4891 22.7865 24.1611 22.7865C23.8332 22.7865 23.4935 22.8099 23.1655 22.7748C22.6736 22.7396 22.369 22.4351 22.3222 21.9549C22.2753 21.4395 22.533 21.0295 23.0367 20.9827C23.7863 20.9124 24.5594 20.9124 25.309 20.9827C25.8244 21.0295 26.1055 21.4395 26.047 21.9549Z" fill="#464852"/>
<path d="M31.3994 41.8686C31.3994 35.7309 31.3994 29.6869 31.3994 23.5727C32.8518 23.8772 34.2574 24.1583 35.6747 24.4512C37.1037 24.744 38.5327 25.0485 39.9617 25.3531C41.3673 25.6459 41.9998 26.4073 41.9998 27.8363C41.9998 31.7016 41.9998 35.5552 41.9998 39.4205C41.9998 40.9784 41.1213 41.8686 39.5869 41.8686C36.8811 41.8686 34.1637 41.8686 31.3994 41.8686ZM36.3775 30.6123C36.6703 30.6123 36.9631 30.6123 37.256 30.6123C37.2911 30.6123 37.338 30.6123 37.3731 30.6123C37.8885 30.5537 38.2516 30.1789 38.2516 29.6869C38.2516 29.2067 37.8885 28.785 37.3848 28.7616C36.7172 28.7265 36.0612 28.7265 35.3936 28.7616C34.8782 28.785 34.5151 29.195 34.5151 29.6752C34.5151 30.1555 34.8782 30.5654 35.3819 30.6123C35.7098 30.6357 36.0378 30.6123 36.3775 30.6123ZM36.3541 34.3605C36.7055 34.3605 37.0568 34.3956 37.4082 34.3488C37.9119 34.2902 38.2164 33.9622 38.2399 33.4468C38.275 32.9666 37.9002 32.5215 37.3965 32.4981C36.7172 32.4629 36.0261 32.4512 35.3467 32.4981C34.8431 32.5332 34.5385 32.8729 34.5151 33.3883C34.48 33.8685 34.8548 34.2902 35.3584 34.337C35.6864 34.3839 36.0261 34.3605 36.3541 34.3605ZM36.3658 38.1087C36.6586 38.1087 36.9514 38.1087 37.2443 38.1087C37.2794 38.1087 37.3262 38.1087 37.3614 38.1087C37.8768 38.0501 38.2399 37.6753 38.2399 37.1833C38.2399 36.7031 37.8768 36.2814 37.3731 36.258C36.7055 36.2229 36.0495 36.2229 35.3819 36.258C34.8665 36.2814 34.5034 36.6914 34.5034 37.1716C34.5034 37.6519 34.8665 38.0618 35.3702 38.1087C35.7098 38.1321 36.0378 38.1087 36.3658 38.1087Z" fill="#464852"/>
</g>
<defs>
<filter id="filter0_d_8_3609" x="0" y="0" width="62" height="62" filterUnits="userSpaceOnUse" color-interpolation-filters="sRGB">
<feFlood flood-opacity="0" result="BackgroundImageFix"/>
<feColorMatrix in="SourceAlpha" type="matrix" values="0 0 0 0 0 0 0 0 0 0 0 0 0 0 0 0 0 0 127 0" result="hardAlpha"/>
<feOffset dx="4" dy="4"/>
<feGaussianBlur stdDeviation="2"/>
<feComposite in2="hardAlpha" operator="out"/>
<feColorMatrix type="matrix" values="0 0 0 0 0.00979167 0 0 0 0 0.329281 0 0 0 0 0.391667 0 0 0 0.02 0"/>
<feBlend mode="normal" in2="BackgroundImageFix" result="effect1_dropShadow_8_3609"/>
<feBlend mode="normal" in="SourceGraphic" in2="effect1_dropShadow_8_3609" result="shape"/>
</filter>
</defs>
</svg>
